<svg width="20" height="20" viewBox="0 0 20 20" fill="none" xmlns="http://www.w3.org/2000/svg">
<path d="M3.33398 4.99992C3.33398 4.07944 4.08018 3.33325 5.00065 3.33325H6.66732C7.58779 3.33325 8.33398 4.07944 8.33398 4.99992V6.66659C8.33398 7.58706 7.58779 8.33325 6.66732 8.33325H5.00065C4.08018 8.33325 3.33398 7.58706 3.33398 6.66659V4.99992Z" stroke="#23242A" stroke-width="1.5" stroke-linecap="round" stroke-linejoin="round"/>
<path d="M11.6673 4.99992C11.6673 4.07944 12.4135 3.33325 13.334 3.33325H15.0007C15.9211 3.33325 16.6673 4.07944 16.6673 4.99992V6.66659C16.6673 7.58706 15.9211 8.33325 15.0007 8.33325H13.334C12.4135 8.33325 11.6673 7.58706 11.6673 6.66659V4.99992Z" stroke="#23242A" stroke-width="1.5" stroke-linecap="round" stroke-linejoin="round"/>
<path d="M3.33398 13.3333C3.33398 12.4128 4.08018 11.6666 5.00065 11.6666H6.66732C7.58779 11.6666 8.33398 12.4128 8.33398 13.3333V14.9999C8.33398 15.9204 7.58779 16.6666 6.66732 16.6666H5.00065C4.08018 16.6666 3.33398 15.9204 3.33398 14.9999V13.3333Z" stroke="#23242A" stroke-width="1.5" stroke-linecap="round" stroke-linejoin="round"/>
<path d="M11.6673 13.3333C11.6673 12.4128 12.4135 11.6666 13.334 11.6666H15.0007C15.9211 11.6666 16.6673 12.4128 16.6673 13.3333V14.9999C16.6673 15.9204 15.9211 16.6666 15.0007 16.6666H13.334C12.4135 16.6666 11.6673 15.9204 11.6673 14.9999V13.3333Z" stroke="#23242A" stroke-width="1.5" stroke-linecap="round" stroke-linejoin="round"/>
</svg>
