<svg width="21" height="20" viewBox="0 0 21 20" fill="none" xmlns="http://www.w3.org/2000/svg">
<path d="M10.0146 0C4.4918 0 0.0146484 4.47715 0.0146484 10C0.0146484 15.5228 4.4918 20 10.0146 20C15.5375 20 20.0146 15.5228 20.0146 10C20.0082 4.47982 15.5348 0.00642897 10.0146 0Z" fill="#7E30E1"/>
<path d="M14.3757 7.42331L10.3962 12.8237C10.3013 12.9496 10.1598 13.0321 10.0034 13.0527C9.84711 13.0732 9.68908 13.0301 9.56485 12.933L6.72309 10.661C6.47232 10.4603 6.43172 10.0943 6.6324 9.84357C6.83307 9.59281 7.19904 9.5522 7.44981 9.75288L9.81949 11.6487L13.4397 6.73554C13.5584 6.55741 13.7654 6.45892 13.9785 6.47918C14.1916 6.49944 14.3764 6.63518 14.4594 6.8325C14.5424 7.02982 14.5103 7.2568 14.3757 7.42331Z" fill="white"/>
</svg>
