<svg width="21" height="20" viewBox="0 0 21 20" fill="none" xmlns="http://www.w3.org/2000/svg">
<path d="M10.3203 0C4.79746 0 0.320313 4.47715 0.320312 10C0.320312 15.5228 4.79746 20 10.3203 20C15.8432 20 20.3203 15.5228 20.3203 10C20.3139 4.47982 15.8405 0.00642897 10.3203 0Z" fill="white"/>
<path d="M14.6814 7.42331L10.7019 12.8237C10.607 12.9496 10.4654 13.0321 10.3091 13.0527C10.1528 13.0732 9.99474 13.0301 9.87051 12.933L7.02875 10.661C6.77799 10.4603 6.73738 10.0943 6.93806 9.84357C7.13874 9.59281 7.50471 9.5522 7.75547 9.75288L10.1252 11.6487L13.7454 6.73554C13.8641 6.55741 14.0711 6.45892 14.2842 6.47918C14.4973 6.49944 14.682 6.63518 14.765 6.8325C14.8481 7.02982 14.8159 7.2568 14.6814 7.42331Z" fill="#49108B"/>
</svg>
