<svg width="20" height="15" viewBox="0 0 20 15" fill="none" xmlns="http://www.w3.org/2000/svg">
<path d="M18.3337 2.94922V11.2826C18.3337 11.8351 18.1142 12.365 17.7235 12.7557C17.3328 13.1464 16.8029 13.3659 16.2503 13.3659H3.75033C3.19779 13.3659 2.66789 13.1464 2.27719 12.7557C1.88649 12.365 1.66699 11.8351 1.66699 11.2826V2.94922" stroke="#5F5F61" stroke-width="1.4" stroke-linecap="round" stroke-linejoin="round"/>
<path d="M18.3337 2.94954C18.3337 2.39701 18.1142 1.86711 17.7235 1.47641C17.3328 1.0857 16.8029 0.866211 16.2503 0.866211H3.75033C3.19779 0.866211 2.66789 1.0857 2.27719 1.47641C1.88649 1.86711 1.66699 2.39701 1.66699 2.94954L8.89616 7.46343C9.22727 7.67038 9.60987 7.7801 10.0003 7.7801C10.3908 7.7801 10.7734 7.67038 11.1045 7.46343L18.3337 2.94954Z" stroke="#5F5F61" stroke-width="1.4" stroke-linecap="round" stroke-linejoin="round"/>
</svg>
