<svg width="416" height="352" viewBox="0 0 416 352" fill="none" xmlns="http://www.w3.org/2000/svg">
<path d="M415.658 92.761C415.601 88.0888 414.689 83.5305 413.721 78.9722C412.239 71.9638 409.96 65.1264 406.94 58.6309C405.231 54.9273 403.351 51.3376 401.129 47.8619C399.989 46.0956 398.963 44.3293 397.71 42.6199C395.602 39.714 393.437 36.979 391.1 34.2441C389.106 31.908 386.941 29.7998 384.776 27.6915C382.155 25.0705 379.249 22.7914 376.343 20.5123C371.386 16.6377 366.03 13.3899 360.446 10.541C351.557 5.98274 342.156 2.96288 332.299 1.25353C329.735 0.797699 327.171 0.398849 324.55 0.227914C324.208 0.227914 323.866 0.113957 323.581 0H306.487C304.607 0.512806 302.67 0.569785 300.733 0.797699C299.593 0.968634 298.453 1.08259 297.371 1.31051C294.009 1.99425 290.761 2.9059 287.457 3.76058C282.158 5.07109 277.143 7.00835 272.243 9.28749C269.508 10.541 266.887 11.9655 264.323 13.4469C259.879 16.011 255.662 18.9169 251.674 22.1077C248.483 24.6717 245.52 27.4636 242.671 30.3695C239.652 33.3894 236.632 36.4093 233.669 39.4291C231.048 42.1071 228.37 44.7281 225.749 47.4061C220.222 52.876 214.752 58.403 209.225 63.8729C208.37 64.7276 208.256 64.7276 207.174 63.645C201.02 57.4913 194.866 51.3376 188.77 45.2409C183.243 39.714 177.716 34.1301 172.132 28.6602C167.061 23.6461 161.477 19.2587 155.437 15.4412C151.848 13.162 148.201 11.1108 144.384 9.34447C137.375 6.03972 130.082 3.7036 122.561 2.05123C118.857 1.25353 115.097 0.797699 111.336 0.341871C110.994 0.284892 110.652 0.227914 110.367 0.0569785H92.2482C90.7098 0.626763 89.0574 0.626763 87.519 0.797699C82.7328 1.36748 78.0605 2.45008 73.4453 3.7036C66.7788 5.58389 60.3402 8.14792 54.1865 11.3957C47.3491 15.0423 40.9675 19.3727 35.1557 24.5008C32.9905 26.438 30.7684 28.2613 28.7741 30.3695C24.2728 35.1557 20.0564 40.2268 16.4668 45.7537C13.162 50.9388 10.2561 56.2948 7.92001 61.9356C5.64087 67.4056 3.87454 73.0464 2.56403 78.8582C1.48144 83.7014 0.74072 88.5446 0.512806 93.5017C0.455828 94.1855 0.341871 94.8122 0 95.382V107.12C0.512806 107.518 0.512806 108.088 0.569785 108.715C0.626763 111.165 0.968634 113.615 1.36748 116.065C2.22216 121.877 3.64662 127.575 5.52691 133.216C6.72346 136.919 8.2049 140.509 9.85728 144.042C13.1051 150.993 17.0935 157.489 21.8797 163.471C23.817 165.921 25.8113 168.371 28.0334 170.537C32.9336 175.437 37.8337 180.337 42.7339 185.237C46.3805 188.884 49.9701 192.473 53.6168 196.12C56.9215 199.425 60.1693 202.673 63.474 205.977C67.0067 209.51 70.5394 213.043 74.0151 216.518C77.3198 219.823 80.6815 223.185 83.9863 226.49C87.6899 230.193 91.3935 233.897 95.0401 237.543C99.7124 242.216 104.442 246.945 109.114 251.674C110.424 253.041 112.02 254.124 113.216 255.606C114.983 257.828 114.983 257.201 116.521 255.663C127.119 245.065 137.774 234.466 148.315 223.812C149.17 222.9 149.91 222.672 151.164 223.128C156.748 225.293 162.503 225.749 168.314 224.267C175.266 222.444 180.736 218.513 184.61 212.416C188.2 206.718 189.51 200.393 188.485 193.727C187.231 185.807 183.357 179.425 176.576 174.981C170.935 171.277 164.782 169.853 158.115 170.651C149.455 171.733 142.617 176.064 138.116 183.528C133.444 191.277 132.817 199.539 136.122 207.972C136.634 209.225 136.52 210.023 135.495 210.934C130.082 216.233 124.783 221.589 119.484 226.945C117.832 228.598 118.059 228.598 116.293 226.888C97.5472 208.142 78.8013 189.453 60.1123 170.651C54.3575 164.896 48.4887 159.312 43.0188 153.329C39.8849 149.91 37.15 146.207 34.6999 142.332C30.9963 136.463 28.2044 130.196 26.2101 123.586C23.874 115.78 22.7914 107.86 22.7914 99.7124C22.7914 97.3193 23.1333 94.9832 23.3042 92.647C23.76 86.9492 25.0705 81.4792 26.7799 76.1233C28.4323 71.0522 30.6544 66.266 33.2754 61.5938C36.0674 56.7506 39.3152 52.2493 43.0188 48.1468C46.3805 44.4432 50.1411 41.0245 54.1296 38.0047C60.6821 33.0475 67.8044 29.2869 75.4965 26.552C82.22 24.2159 89.1144 22.7914 96.2367 22.3925C102.39 22.0507 108.601 22.2786 114.698 23.3612C124.042 25.0136 132.817 28.2044 141.022 33.0475C146.891 36.5232 152.076 40.6826 156.976 45.4119C159.255 47.577 161.42 49.8562 163.642 52.0214C173.898 62.2775 184.098 72.4766 194.354 82.7328C198.627 87.0062 202.957 91.3365 207.231 95.6099C208.085 96.4646 208.37 96.4646 209.054 95.6099C209.795 94.6983 210.706 94.0145 211.504 93.2168C219.538 85.1259 227.629 77.0919 235.663 69.0579C242.557 62.1066 249.566 55.3261 256.289 48.2038C257.657 46.7224 259.309 45.4688 260.734 44.0444C261.816 42.9618 263.013 41.8792 264.209 40.9106C269.565 36.4662 275.32 32.6487 281.645 29.6858C286.659 27.3497 291.844 25.5833 297.257 24.3298C301.131 23.4182 305.063 22.9054 309.051 22.5635C313.667 22.2216 318.225 22.3356 322.84 22.6774C324.208 22.7914 325.575 22.9623 326.943 23.1902C329.962 23.6461 332.925 24.3298 335.831 25.1275C340.447 26.3241 344.891 28.0334 349.164 30.0846C354.064 32.4208 358.623 35.3836 362.953 38.6314C367.511 42.0501 371.557 45.9816 375.203 50.312C379.363 55.2122 382.839 60.6251 385.63 66.3799C387.169 69.5707 388.479 72.8755 389.619 76.2942C391.1 80.7385 392.069 85.2968 392.81 89.8551C393.55 94.3564 393.721 98.9147 393.493 103.473C393.38 106.094 393.266 108.658 392.867 111.279C391.613 120.339 388.935 128.942 384.719 137.09C380.787 144.668 375.716 151.335 369.733 157.375C339.535 187.63 309.336 217.772 279.138 247.97C255.89 271.218 232.7 294.408 209.453 317.655C208.199 318.909 208.199 318.909 207.003 317.712C202.786 313.496 198.627 309.336 194.411 305.12C193.385 304.094 193.442 304.094 194.411 303.069C194.525 302.955 194.696 302.784 194.809 302.67C199.938 297.542 205.066 292.414 210.194 287.286C215.379 282.101 220.621 276.915 225.806 271.673C228.712 268.711 231.675 265.748 234.637 262.785C236.746 260.62 238.854 258.454 241.076 256.403C242.387 255.207 243.583 253.782 244.837 252.529C247.799 249.737 250.648 246.774 253.554 243.925C255.833 241.646 258.17 239.367 260.392 237.088C261.075 236.347 261.759 236.176 262.671 236.632C263.753 237.201 264.95 237.543 266.147 237.828C271.616 239.253 277.086 239.082 282.385 237.144C287.684 235.207 292.015 231.902 295.32 227.287C298.681 222.672 300.334 217.487 300.448 211.846C300.562 205.749 298.852 200.165 295.206 195.208C292.3 191.22 288.539 188.314 284.152 186.32C279.935 184.382 275.491 183.813 270.819 184.154C267.172 184.439 263.81 185.408 260.62 187.003C256.859 188.884 253.668 191.562 251.218 194.866C248.369 198.684 246.546 203.014 246.033 207.801C245.52 212.587 245.862 217.259 247.913 221.703C248.369 222.672 248.369 223.413 247.458 224.096C247.287 224.21 247.173 224.381 247.059 224.495C232.814 238.74 218.569 252.985 204.382 267.172C195.265 276.289 186.206 285.348 177.089 294.465C173.386 298.168 169.682 301.872 166.035 305.519C164.554 307 164.554 307 166.092 308.539C167.688 310.134 169.226 311.672 170.822 313.268C176.121 318.567 181.42 323.866 186.719 329.165C189.51 332.014 192.302 334.863 195.151 337.655C198.969 341.472 202.843 345.29 206.661 349.107C206.832 349.278 207.06 349.392 207.174 349.677C207.687 350.019 208.085 350.475 208.313 350.988C208.37 351.045 208.427 351.045 208.541 351.101L208.598 351.044C208.769 350.646 208.997 350.247 209.282 349.905C209.51 349.392 209.966 349.107 210.308 348.765C224.894 334.179 239.481 319.535 254.124 304.949C254.979 304.094 255.833 303.297 256.517 302.328C257.144 301.416 258.17 300.903 258.967 300.163C271.161 287.969 283.411 275.776 295.604 263.469C297.371 261.702 299.08 259.879 300.846 258.113C303.354 255.606 305.804 252.985 308.425 250.648C311.387 248.027 314.008 245.121 316.8 242.33C340.39 218.74 363.922 195.208 387.454 171.619C392.24 166.833 396.456 161.477 400.16 155.779C403.579 150.423 406.542 144.896 408.878 139.028C411.67 131.848 413.835 124.498 414.974 116.863C415.373 114.185 415.829 111.507 415.772 108.829C415.772 108.43 415.829 108.088 416 107.746V94.0715C415.715 93.6157 415.658 93.2168 415.658 92.761ZM161.306 188.713C166.548 188.656 170.651 192.872 170.594 198.057C170.594 202.957 166.434 207.231 161.477 207.117C156.349 207.003 152.304 203.47 152.19 198.057C152.19 192.587 156.064 188.77 161.306 188.713ZM273.155 202.274C278.34 202.331 282.271 206.319 282.271 211.561C282.271 216.518 277.884 220.849 273.041 220.564C267.286 220.564 263.867 216.119 263.867 211.504C263.924 205.863 268.369 202.16 273.155 202.274Z" fill="#7E30E1"/>
<path d="M208.199 101.935C214.467 101.878 220.051 103.815 225.008 107.632C229.851 111.393 232.985 116.236 234.637 122.219C236.461 128.885 235.72 135.324 232.757 141.478C230.535 146.15 227.116 149.91 222.672 152.645C221.418 153.443 220.108 154.07 218.74 154.64C217.943 154.982 217.544 155.494 217.601 156.349C217.658 157.09 217.601 157.887 217.601 158.628C217.772 165.01 217.145 171.448 217.373 177.83C217.886 191.904 217.43 205.92 217.601 219.994C217.601 220.393 217.601 220.849 217.601 221.248C217.658 222.216 217.316 222.957 216.575 223.641C213.612 226.547 210.649 229.566 207.687 232.472C190.593 249.566 173.5 266.659 156.406 283.753C141.307 298.852 126.207 313.952 111.108 329.051C110.538 329.621 109.912 330.133 109.285 330.646C105.125 334.065 97.3762 332.925 95.1541 326.601C93.9006 323.068 94.4703 319.706 97.2053 316.971C100.795 313.325 104.442 309.735 108.088 306.089C137.945 276.232 167.859 246.318 197.715 216.461C198.798 215.379 199.254 214.296 199.254 212.701C199.197 198.171 199.254 183.642 199.254 169.112C199.254 165.01 199.197 160.964 199.254 156.862C199.254 155.722 198.912 155.096 197.772 154.64C194.126 153.158 190.878 151.05 188.143 148.144C184.382 144.099 181.875 139.312 181.021 133.843C179.995 127.347 180.907 121.136 184.268 115.438C186.149 112.248 188.485 109.513 191.505 107.291C193.214 106.037 194.98 105.011 196.861 104.1C200.564 102.618 204.325 101.935 208.199 101.935ZM208.313 120.225C203.527 120.054 199.197 123.985 199.083 129.056C198.969 134.583 203.527 138.458 208.142 138.458C213.157 138.401 217.316 134.355 217.316 129.341C217.316 124.327 213.271 120.225 208.313 120.225Z" fill="#7E30E1"/>
</svg>
