<svg width="16" height="19" viewBox="0 0 16 19" fill="none" xmlns="http://www.w3.org/2000/svg">
<path d="M14.8612 8.65577C14.8612 14.0346 9.35198 17.3484 8.20709 17.9795C8.14367 18.0145 8.07241 18.0329 7.99998 18.0329C7.92755 18.0329 7.8563 18.0145 7.79287 17.9795C6.64712 17.3484 1.13965 14.0346 1.13965 8.65577C1.13965 4.36779 3.71243 1.36621 8.00041 1.36621C12.2884 1.36621 14.8612 4.36779 14.8612 8.65577Z" stroke="#5F5F61" stroke-width="1.4" stroke-linecap="round" stroke-linejoin="round"/>
<path d="M4.57031 8.22726C4.57031 9.13705 4.93173 10.0096 5.57505 10.6529C6.21837 11.2962 7.0909 11.6576 8.00069 11.6576C8.91049 11.6576 9.78302 11.2962 10.4263 10.6529C11.0697 10.0096 11.4311 9.13705 11.4311 8.22726C11.4311 7.31746 11.0697 6.44493 10.4263 5.80161C9.78302 5.15829 8.91049 4.79688 8.00069 4.79688C7.0909 4.79688 6.21837 5.15829 5.57505 5.80161C4.93173 6.44493 4.57031 7.31746 4.57031 8.22726V8.22726Z" stroke="#5F5F61" stroke-width="1.4" stroke-linecap="round" stroke-linejoin="round"/>
</svg>
