<svg width="34" height="36" viewBox="0 0 34 36" fill="none" xmlns="http://www.w3.org/2000/svg">
<g clip-path="url(#clip0_348_1730)">
<path d="M31.1564 16.4096C31.0359 16.4104 30.9165 16.3854 30.805 16.3362C30.6935 16.287 30.5921 16.2145 30.5065 16.1228L18.9828 3.66963C18.8328 3.4804 18.7545 3.237 18.7634 2.98806C18.7723 2.73912 18.8678 2.50298 19.0308 2.32682C19.1938 2.15066 19.4123 2.04746 19.6427 2.03785C19.873 2.02823 20.0983 2.11291 20.2734 2.27495L31.8063 14.7281C31.9322 14.867 32.0175 15.0429 32.0515 15.2338C32.0854 15.4248 32.0666 15.6223 31.9972 15.8017C31.9279 15.9811 31.8111 16.1345 31.6616 16.2426C31.5121 16.3507 31.3363 16.4088 31.1564 16.4096Z" fill="white"/>
<path d="M27.056 15.3906L25.7655 13.9959L19.1752 21.1177C19.0576 21.2446 18.9741 21.4037 18.9338 21.5779C18.8935 21.7522 18.8978 21.935 18.9464 22.1068C19.3189 23.4648 19.3862 24.8993 19.1426 26.291C18.899 27.6828 18.3517 28.9916 17.546 30.1089L6.05885 17.6755C7.09269 16.8048 8.30386 16.2133 9.59174 15.9501C10.8796 15.6869 12.207 15.7596 13.4637 16.1621C13.6227 16.2146 13.7919 16.2193 13.9531 16.1758C14.1144 16.1322 14.2616 16.042 14.379 15.9149L20.9692 8.79311L19.6603 7.39844L13.4454 14.1146C11.791 13.6836 10.0621 13.7153 8.42219 14.2068C6.78224 14.6983 5.28527 15.6334 4.07263 16.9238C3.98684 17.0157 3.91874 17.1251 3.87227 17.2456C3.8258 17.3662 3.80188 17.4955 3.80188 17.626C3.80188 17.7566 3.8258 17.8859 3.87227 18.0064C3.91874 18.127 3.98684 18.2364 4.07263 18.3283L9.86654 24.5895L3.04748 31.9388C2.95166 32.0274 2.87384 32.1366 2.8189 32.2593C2.76396 32.382 2.73309 32.5157 2.72822 32.6519C2.72335 32.7881 2.74459 32.9239 2.79061 33.0509C2.83663 33.1778 2.90643 33.2931 2.99563 33.3895C3.08483 33.4859 3.19151 33.5613 3.30896 33.611C3.42642 33.6608 3.55212 33.6837 3.67818 33.6784C3.80423 33.6732 3.92792 33.6398 4.04148 33.5805C4.15504 33.5211 4.25601 33.437 4.33807 33.3334L11.148 25.9743L16.9419 32.2355C17.0274 32.3272 17.1288 32.3997 17.2404 32.4489C17.3519 32.4982 17.4713 32.5231 17.5917 32.5224C17.7128 32.5218 17.8326 32.4953 17.9442 32.4444C18.0558 32.3934 18.1568 32.3191 18.2416 32.2256C19.4313 30.912 20.2937 29.2942 20.7482 27.523C21.2028 25.7518 21.2347 23.885 20.8411 22.0969L27.056 15.3906Z" fill="white"/>
</g>
<defs>
<clipPath id="clip0_348_1730">
<rect width="32.9511" height="35.6087" fill="white" transform="translate(0.951172)"/>
</clipPath>
</defs>
</svg>
