<svg width="1440" height="691" viewBox="0 0 1440 691" fill="none" xmlns="http://www.w3.org/2000/svg">
<g opacity="0.5">
<path d="M-50.8506 575.454H89.303L137.12 527.637H229.457L267.38 489.713H537.794L580.665 446.843H748.849L785.124 483.118H826.346L852.728 509.5" stroke="url(#paint0_linear_76_1604)" stroke-width="2"/>
<path d="M-47.5527 662.842H-6.33109L21.6996 634.812H99.1963L147.013 586.995H242.648L282.22 547.422H407.534" stroke="url(#paint1_linear_76_1604)" stroke-width="2"/>
<path d="M-49.2031 689.225H21.6981L48.08 662.843H130.523L151.958 641.407H254.188L288.814 606.781H358.067" stroke="url(#paint2_linear_76_1604)" stroke-width="2"/>
<path d="M175.043 643.057L194.829 662.843H283.868L306.952 639.759H326.739" stroke="url(#paint3_linear_76_1604)" stroke-width="2"/>
<path d="M427.319 638.11H486.678L511.411 613.377" stroke="url(#paint4_linear_76_1604)" stroke-width="2"/>
<path d="M643.321 530.934L673.001 560.614H727.413L755.444 588.644H925.277L966.499 547.423H1240.21L1276.49 511.148H1363.88L1401.8 473.224H1476" stroke="url(#paint5_linear_76_1604)" stroke-width="2"/>
<path d="M1476 621.622C1468.08 621.622 1456.21 621.622 1451.26 621.622L1423.23 593.591H1289.68L1245.16 638.11H1100.06" stroke="url(#paint6_linear_76_1604)" stroke-width="2"/>
<path d="M1472.7 369.346H1368.82L1324.3 413.865H1200.64" stroke="url(#paint7_linear_76_1604)" stroke-width="2"/>
<path d="M1474 330.938H1325.42L1289.28 360.937H1217" stroke="url(#paint8_linear_76_1604)" stroke-width="2"/>
<path d="M1408 329.553L1391.9 312.938H1303.34L1277.18 339.938H1249" stroke="url(#paint9_linear_76_1604)" stroke-width="2"/>
<path d="M-52 116.938H38.5279L68.1553 91.8125H280.484L329.863 49.9375H478" stroke="url(#paint10_linear_76_1604)" stroke-width="2"/>
<path d="M-49.2031 212.702H1.91172L39.8356 174.778H120.63" stroke="url(#paint11_linear_76_1604)" stroke-width="2"/>
<path d="M-47.5527 291.847H48.0815L81.0588 258.87H260.785L302.007 300.092V387.482" stroke="url(#paint12_linear_76_1604)" stroke-width="2"/>
<path d="M-50.8506 328.123H-12.9267L15.104 356.154V430.353" stroke="url(#paint13_linear_76_1604)" stroke-width="2"/>
<path d="M105.791 300.094H199.776L227.807 328.124V405.621L188.234 445.194" stroke="url(#paint14_linear_76_1604)" stroke-width="2"/>
<path d="M100.846 415.513V362.75L133.823 329.772H166.8" stroke="url(#paint15_linear_76_1604)" stroke-width="2"/>
<path d="M143.716 380.888V427.056L120.632 450.14" stroke="url(#paint16_linear_76_1604)" stroke-width="2"/>
<path d="M1472.7 278.657H1327.6L1306.17 300.092H1195.69" stroke="url(#paint17_linear_76_1604)" stroke-width="2"/>
<path d="M1474 238.938H1277.24L1247.12 263.937H1215" stroke="url(#paint18_linear_76_1604)" stroke-width="2"/>
<path d="M1395.2 164.886H1236.91L1202.29 130.26H1093.46" stroke="url(#paint19_linear_76_1604)" stroke-width="2"/>
<path d="M1474.35 128.611H1251.75L1220.42 97.2828H1035.75L984.637 46.168H804.91" stroke="url(#paint20_linear_76_1604)" stroke-width="2"/>
<circle cx="15.1026" cy="430.354" r="11.5421" fill="url(#paint21_linear_76_1604)"/>
<circle cx="1198.99" cy="413.866" r="11.5421" fill="url(#paint22_linear_76_1604)"/>
<circle cx="1086.87" cy="130.259" r="8.24433" fill="url(#paint23_linear_76_1604)"/>
<circle cx="1219.24" cy="262.168" r="8.24433" fill="url(#paint24_linear_76_1604)"/>
<circle cx="1219.24" cy="361.102" r="8.24433" fill="url(#paint25_linear_76_1604)"/>
<circle cx="427.319" cy="636.812" r="8.24433" fill="url(#paint26_linear_76_1604)"/>
<circle cx="334.984" cy="638.112" r="8.24433" fill="url(#paint27_linear_76_1604)"/>
<circle cx="410.832" cy="549.071" r="8.24433" fill="url(#paint28_linear_76_1604)"/>
<circle cx="100.845" cy="410.569" r="8.24433" fill="url(#paint29_linear_76_1604)"/>
<circle cx="143.714" cy="377.59" r="8.24433" fill="url(#paint30_linear_76_1604)"/>
<circle cx="160.203" cy="331.422" r="8.24433" fill="url(#paint31_linear_76_1604)"/>
<circle cx="104.141" cy="298.445" r="8.24433" fill="url(#paint32_linear_76_1604)"/>
<circle cx="302.006" cy="400.674" r="13.8398" stroke="url(#paint33_linear_76_1604)" stroke-width="2"/>
<circle cx="133.822" cy="173.131" r="13.8398" stroke="url(#paint34_linear_76_1604)" stroke-width="2"/>
<circle cx="862.621" cy="516.094" r="13.8398" stroke="url(#paint35_linear_76_1604)" stroke-width="2"/>
<circle cx="638.376" cy="519.392" r="13.8398" stroke="url(#paint36_linear_76_1604)" stroke-width="2"/>
<circle cx="1182.5" cy="298.444" r="13.8398" stroke="url(#paint37_linear_76_1604)" stroke-width="2"/>
<circle cx="1090.16" cy="638.109" r="10.5421" stroke="url(#paint38_linear_76_1604)" stroke-width="2"/>
<circle cx="110.738" cy="453.438" r="10.5421" stroke="url(#paint39_linear_76_1604)" stroke-width="2"/>
<circle cx="183.288" cy="453.438" r="10.5421" stroke="url(#paint40_linear_76_1604)" stroke-width="2"/>
<circle cx="367.962" cy="605.133" r="10.5421" stroke="url(#paint41_linear_76_1604)" stroke-width="2"/>
<circle cx="514.062" cy="604.133" r="10.5421" stroke="url(#paint42_linear_76_1604)" stroke-width="2"/>
<circle cx="1405.45" cy="164.237" r="10.5421" stroke="url(#paint43_linear_76_1604)" stroke-width="2"/>
<circle cx="1239.03" cy="338.017" r="10.5421" stroke="url(#paint44_linear_76_1604)" stroke-width="2"/>
</g>
<defs>
<linearGradient id="paint0_linear_76_1604" x1="-50.8506" y1="446.843" x2="179.856" y2="910.362" gradientUnits="userSpaceOnUse">
<stop stop-color="#7E30E1"/>
<stop offset="1" stop-color="#49108B"/>
</linearGradient>
<linearGradient id="paint1_linear_76_1604" x1="-47.5527" y1="547.422" x2="210.104" y2="837.94" gradientUnits="userSpaceOnUse">
<stop stop-color="#7E30E1"/>
<stop offset="1" stop-color="#49108B"/>
</linearGradient>
<linearGradient id="paint2_linear_76_1604" x1="-49.2031" y1="606.781" x2="125.626" y2="853.762" gradientUnits="userSpaceOnUse">
<stop stop-color="#7E30E1"/>
<stop offset="1" stop-color="#49108B"/>
</linearGradient>
<linearGradient id="paint3_linear_76_1604" x1="175.043" y1="639.759" x2="218.092" y2="720.657" gradientUnits="userSpaceOnUse">
<stop stop-color="#7E30E1"/>
<stop offset="1" stop-color="#49108B"/>
</linearGradient>
<linearGradient id="paint4_linear_76_1604" x1="427.319" y1="613.377" x2="482.908" y2="667.426" gradientUnits="userSpaceOnUse">
<stop stop-color="#7E30E1"/>
<stop offset="1" stop-color="#49108B"/>
</linearGradient>
<linearGradient id="paint5_linear_76_1604" x1="643.321" y1="473.224" x2="847.039" y2="893.509" gradientUnits="userSpaceOnUse">
<stop stop-color="#7E30E1"/>
<stop offset="1" stop-color="#49108B"/>
</linearGradient>
<linearGradient id="paint6_linear_76_1604" x1="1100.06" y1="593.591" x2="1170.82" y2="764.483" gradientUnits="userSpaceOnUse">
<stop stop-color="#7E30E1"/>
<stop offset="1" stop-color="#49108B"/>
</linearGradient>
<linearGradient id="paint7_linear_76_1604" x1="1200.64" y1="369.346" x2="1286.94" y2="520.162" gradientUnits="userSpaceOnUse">
<stop stop-color="#7E30E1"/>
<stop offset="1" stop-color="#49108B"/>
</linearGradient>
<linearGradient id="paint8_linear_76_1604" x1="1217" y1="330.938" x2="1264.2" y2="446.575" gradientUnits="userSpaceOnUse">
<stop stop-color="#7E30E1"/>
<stop offset="1" stop-color="#49108B"/>
</linearGradient>
<linearGradient id="paint9_linear_76_1604" x1="1249" y1="312.938" x2="1302.3" y2="402.701" gradientUnits="userSpaceOnUse">
<stop stop-color="#7E30E1"/>
<stop offset="1" stop-color="#49108B"/>
</linearGradient>
<linearGradient id="paint10_linear_76_1604" x1="-52" y1="49.9375" x2="59.4149" y2="301.976" gradientUnits="userSpaceOnUse">
<stop stop-color="#7E30E1"/>
<stop offset="1" stop-color="#49108B"/>
</linearGradient>
<linearGradient id="paint11_linear_76_1604" x1="-49.2031" y1="174.778" x2="33.5222" y2="280.721" gradientUnits="userSpaceOnUse">
<stop stop-color="#7E30E1"/>
<stop offset="1" stop-color="#49108B"/>
</linearGradient>
<linearGradient id="paint12_linear_76_1604" x1="-47.5527" y1="258.87" x2="232.677" y2="476.68" gradientUnits="userSpaceOnUse">
<stop stop-color="#7E30E1"/>
<stop offset="1" stop-color="#49108B"/>
</linearGradient>
<linearGradient id="paint13_linear_76_1604" x1="-50.8506" y1="328.123" x2="31.1731" y2="343.256" gradientUnits="userSpaceOnUse">
<stop stop-color="#7E30E1"/>
<stop offset="1" stop-color="#49108B"/>
</linearGradient>
<linearGradient id="paint14_linear_76_1604" x1="105.791" y1="300.094" x2="254.122" y2="335.764" gradientUnits="userSpaceOnUse">
<stop stop-color="#7E30E1"/>
<stop offset="1" stop-color="#49108B"/>
</linearGradient>
<linearGradient id="paint15_linear_76_1604" x1="100.846" y1="329.772" x2="181.747" y2="347.569" gradientUnits="userSpaceOnUse">
<stop stop-color="#7E30E1"/>
<stop offset="1" stop-color="#49108B"/>
</linearGradient>
<linearGradient id="paint16_linear_76_1604" x1="120.632" y1="380.888" x2="150.05" y2="383.692" gradientUnits="userSpaceOnUse">
<stop stop-color="#7E30E1"/>
<stop offset="1" stop-color="#49108B"/>
</linearGradient>
<linearGradient id="paint17_linear_76_1604" x1="1195.69" y1="278.657" x2="1219.99" y2="368.472" gradientUnits="userSpaceOnUse">
<stop stop-color="#7E30E1"/>
<stop offset="1" stop-color="#49108B"/>
</linearGradient>
<linearGradient id="paint18_linear_76_1604" x1="1215" y1="238.938" x2="1249.07" y2="339.861" gradientUnits="userSpaceOnUse">
<stop stop-color="#7E30E1"/>
<stop offset="1" stop-color="#49108B"/>
</linearGradient>
<linearGradient id="paint19_linear_76_1604" x1="1093.46" y1="130.26" x2="1147.28" y2="264.374" gradientUnits="userSpaceOnUse">
<stop stop-color="#7E30E1"/>
<stop offset="1" stop-color="#49108B"/>
</linearGradient>
<linearGradient id="paint20_linear_76_1604" x1="804.91" y1="46.168" x2="939.589" y2="358.905" gradientUnits="userSpaceOnUse">
<stop stop-color="#7E30E1"/>
<stop offset="1" stop-color="#49108B"/>
</linearGradient>
<linearGradient id="paint21_linear_76_1604" x1="3.56055" y1="418.812" x2="31.0019" y2="426.659" gradientUnits="userSpaceOnUse">
<stop stop-color="#7E30E1"/>
<stop offset="1" stop-color="#49108B"/>
</linearGradient>
<linearGradient id="paint22_linear_76_1604" x1="1187.45" y1="402.324" x2="1214.89" y2="410.172" gradientUnits="userSpaceOnUse">
<stop stop-color="#7E30E1"/>
<stop offset="1" stop-color="#49108B"/>
</linearGradient>
<linearGradient id="paint23_linear_76_1604" x1="1078.62" y1="122.015" x2="1098.22" y2="127.62" gradientUnits="userSpaceOnUse">
<stop stop-color="#7E30E1"/>
<stop offset="1" stop-color="#49108B"/>
</linearGradient>
<linearGradient id="paint24_linear_76_1604" x1="1211" y1="253.924" x2="1230.6" y2="259.529" gradientUnits="userSpaceOnUse">
<stop stop-color="#7E30E1"/>
<stop offset="1" stop-color="#49108B"/>
</linearGradient>
<linearGradient id="paint25_linear_76_1604" x1="1211" y1="352.857" x2="1230.6" y2="358.463" gradientUnits="userSpaceOnUse">
<stop stop-color="#7E30E1"/>
<stop offset="1" stop-color="#49108B"/>
</linearGradient>
<linearGradient id="paint26_linear_76_1604" x1="419.074" y1="628.567" x2="438.675" y2="634.173" gradientUnits="userSpaceOnUse">
<stop stop-color="#7E30E1"/>
<stop offset="1" stop-color="#49108B"/>
</linearGradient>
<linearGradient id="paint27_linear_76_1604" x1="326.739" y1="629.867" x2="346.34" y2="635.472" gradientUnits="userSpaceOnUse">
<stop stop-color="#7E30E1"/>
<stop offset="1" stop-color="#49108B"/>
</linearGradient>
<linearGradient id="paint28_linear_76_1604" x1="402.588" y1="540.827" x2="422.189" y2="546.432" gradientUnits="userSpaceOnUse">
<stop stop-color="#7E30E1"/>
<stop offset="1" stop-color="#49108B"/>
</linearGradient>
<linearGradient id="paint29_linear_76_1604" x1="92.6006" y1="402.324" x2="112.202" y2="407.93" gradientUnits="userSpaceOnUse">
<stop stop-color="#7E30E1"/>
<stop offset="1" stop-color="#49108B"/>
</linearGradient>
<linearGradient id="paint30_linear_76_1604" x1="135.47" y1="369.346" x2="155.071" y2="374.951" gradientUnits="userSpaceOnUse">
<stop stop-color="#7E30E1"/>
<stop offset="1" stop-color="#49108B"/>
</linearGradient>
<linearGradient id="paint31_linear_76_1604" x1="151.959" y1="323.178" x2="171.56" y2="328.783" gradientUnits="userSpaceOnUse">
<stop stop-color="#7E30E1"/>
<stop offset="1" stop-color="#49108B"/>
</linearGradient>
<linearGradient id="paint32_linear_76_1604" x1="95.8965" y1="290.2" x2="115.497" y2="295.806" gradientUnits="userSpaceOnUse">
<stop stop-color="#7E30E1"/>
<stop offset="1" stop-color="#49108B"/>
</linearGradient>
<linearGradient id="paint33_linear_76_1604" x1="287.166" y1="385.834" x2="322.448" y2="395.923" gradientUnits="userSpaceOnUse">
<stop stop-color="#7E30E1"/>
<stop offset="1" stop-color="#49108B"/>
</linearGradient>
<linearGradient id="paint34_linear_76_1604" x1="118.982" y1="158.291" x2="154.264" y2="168.381" gradientUnits="userSpaceOnUse">
<stop stop-color="#7E30E1"/>
<stop offset="1" stop-color="#49108B"/>
</linearGradient>
<linearGradient id="paint35_linear_76_1604" x1="847.781" y1="501.254" x2="883.063" y2="511.343" gradientUnits="userSpaceOnUse">
<stop stop-color="#7E30E1"/>
<stop offset="1" stop-color="#49108B"/>
</linearGradient>
<linearGradient id="paint36_linear_76_1604" x1="623.536" y1="504.552" x2="658.818" y2="514.641" gradientUnits="userSpaceOnUse">
<stop stop-color="#7E30E1"/>
<stop offset="1" stop-color="#49108B"/>
</linearGradient>
<linearGradient id="paint37_linear_76_1604" x1="1167.66" y1="283.604" x2="1202.94" y2="293.694" gradientUnits="userSpaceOnUse">
<stop stop-color="#7E30E1"/>
<stop offset="1" stop-color="#49108B"/>
</linearGradient>
<linearGradient id="paint38_linear_76_1604" x1="1078.62" y1="626.567" x2="1106.06" y2="634.415" gradientUnits="userSpaceOnUse">
<stop stop-color="#7E30E1"/>
<stop offset="1" stop-color="#49108B"/>
</linearGradient>
<linearGradient id="paint39_linear_76_1604" x1="99.1963" y1="441.896" x2="126.638" y2="449.743" gradientUnits="userSpaceOnUse">
<stop stop-color="#7E30E1"/>
<stop offset="1" stop-color="#49108B"/>
</linearGradient>
<linearGradient id="paint40_linear_76_1604" x1="171.746" y1="441.896" x2="199.187" y2="449.743" gradientUnits="userSpaceOnUse">
<stop stop-color="#7E30E1"/>
<stop offset="1" stop-color="#49108B"/>
</linearGradient>
<linearGradient id="paint41_linear_76_1604" x1="356.42" y1="593.591" x2="383.861" y2="601.438" gradientUnits="userSpaceOnUse">
<stop stop-color="#7E30E1"/>
<stop offset="1" stop-color="#49108B"/>
</linearGradient>
<linearGradient id="paint42_linear_76_1604" x1="502.52" y1="592.591" x2="529.961" y2="600.438" gradientUnits="userSpaceOnUse">
<stop stop-color="#7E30E1"/>
<stop offset="1" stop-color="#49108B"/>
</linearGradient>
<linearGradient id="paint43_linear_76_1604" x1="1393.91" y1="152.695" x2="1421.35" y2="160.543" gradientUnits="userSpaceOnUse">
<stop stop-color="#7E30E1"/>
<stop offset="1" stop-color="#49108B"/>
</linearGradient>
<linearGradient id="paint44_linear_76_1604" x1="1227.49" y1="326.475" x2="1254.93" y2="334.322" gradientUnits="userSpaceOnUse">
<stop stop-color="#7E30E1"/>
<stop offset="1" stop-color="#49108B"/>
</linearGradient>
</defs>
</svg>
