<svg width="363" height="79" viewBox="0 0 363 79" fill="none" xmlns="http://www.w3.org/2000/svg">
<path fill-rule="evenodd" clip-rule="evenodd" d="M168.309 53.6059C166.994 51.2214 165.668 48.8155 164.32 46.3268C164.801 45.9438 165.271 45.5924 165.725 45.2535C166.769 44.4733 167.724 43.7593 168.515 42.8775C171.723 39.7026 173.635 36.0894 173.953 32H165.584C165.052 35.798 162.43 38.2163 158.312 38.7384C156.526 39.0101 154.669 39.0678 152.465 39.1362C151.872 39.1547 151.253 39.1739 150.603 39.1983C151.785 41.2786 152.978 43.2833 154.145 45.2454C156.785 49.6814 159.295 53.9 161.259 58.2844C163.867 64.0332 167.721 64.8381 173.616 63.3434C171.854 60.0344 170.093 56.8398 168.309 53.6059ZM163.807 25H173.023C171.144 19.3801 167.205 15.1228 161.486 14.4783C155.862 13.8356 150.182 13.9788 144.448 14.1234C141.975 14.1857 139.492 14.2483 137 14.2483C138.247 20.5721 141.534 22.9866 147.429 22.2967C151.057 21.8368 154.684 21.9518 158.199 22.2967C160.604 22.5871 162.517 23.5227 163.807 25Z" fill="white"/>
<path d="M109.985 43C108.612 43 107.5 41.163 107.5 38.9538V38.9538C107.5 36.7447 108.612 35 109.985 35C115.668 35 121.285 35 127.014 35C128.387 35 129.5 36.6524 129.5 38.8615V38.8615C129.5 41.0707 128.387 43 127.014 43C121.424 43 115.807 43 109.985 43Z" fill="white"/>
<path d="M98.0914 14.6018C98.2465 14.2698 98.5762 14 98.9529 14C107.916 14 116.804 14 125.977 14C128.198 14 130 15.5753 130 17.7243V17.7243C130 19.8733 128.198 21.7838 125.977 21.8289C119.458 21.9614 112.914 22.2783 106.608 21.4487C103.599 21.1376 100.991 17.9249 98.3157 15.6898C97.9927 15.4199 97.9157 14.9781 98.0914 14.6018V14.6018Z" fill="white"/>
<path d="M98.0914 62.3982C98.2465 62.7302 98.5762 63 98.9529 63C107.916 63 116.804 63 125.977 63C128.198 63 130 61.4247 130 59.2757V59.2757C130 57.1267 128.198 55.2162 125.977 55.1711C119.458 55.0386 112.914 54.7217 106.608 55.5513C103.599 55.8624 100.991 59.0751 98.3157 61.3102C97.9927 61.5801 97.9157 62.0219 98.0914 62.3982V62.3982Z" fill="white"/>
<path d="M208 32C212.516 40.9664 215.785 49.6357 219.838 57.6824C223.313 64.5797 223.313 64.5796 232 63.4301C223.892 47.1067 215.901 31.0132 207.33 14C201.539 25.4954 198.827 32.3093 193.5 43C199.522 44.9542 202 44.5 208 32Z" fill="white"/>
<path d="M183 63.6145C191.303 64.4835 193.303 59.9951 196 52.4999C188.343 50.6533 186.235 55.1417 183 63.6145Z" fill="white"/>
<path d="M247.086 62.3229C247.232 62.6965 247.541 63 247.894 63C256.297 63 264.629 63 273.228 63C275.311 63 277 61.2277 277 58.8101C277 56.3925 275.311 54.2432 273.229 54.1925C267.118 54.0434 260.983 53.6869 255.071 54.6202C252.249 54.9702 249.804 58.5845 247.296 61.099C246.994 61.4026 246.921 61.8997 247.086 62.3229Z" fill="white"/>
<path d="M260.236 22.3546C254.21 30.3699 248.855 37.4088 243.447 44.6021C238.812 50.7678 238.812 50.7678 243.68 58C254.701 43.5112 265.567 29.2279 277 14.0192C264.156 13.9705 252.39 14.029 240.471 14.0353C241.384 20.2735 244 22.3546 250.5 22.3546C253.5 22.3546 256.177 22.4422 260.236 22.3546Z" fill="white"/>
<path d="M296.985 43C295.613 43 294.5 41.163 294.5 38.9538V38.9538C294.5 36.7447 295.613 35 296.985 35C302.668 35 308.285 35 314.015 35C315.387 35 316.5 36.6524 316.5 38.8615V38.8615C316.5 41.0707 315.387 43 314.015 43C308.424 43 302.807 43 296.985 43Z" fill="white"/>
<path d="M285.092 14.6018C285.247 14.2698 285.577 14 285.953 14C294.917 14 303.805 14 312.977 14C315.199 14 317 15.5753 317 17.7243V17.7243C317 19.8733 315.199 21.7838 312.977 21.8289C306.459 21.9614 299.915 22.2783 293.609 21.4487C290.599 21.1376 287.991 17.9249 285.316 15.6898C284.993 15.4199 284.916 14.9781 285.092 14.6018V14.6018Z" fill="white"/>
<path d="M285.092 62.3982C285.247 62.7302 285.577 63 285.953 63C294.917 63 303.805 63 312.977 63C315.199 63 317 61.4247 317 59.2757V59.2757C317 57.1267 315.199 55.2162 312.977 55.1711C306.459 55.0386 299.915 54.7217 293.609 55.5513C290.599 55.8624 287.991 59.0751 285.316 61.3102C284.993 61.5801 284.916 62.0219 285.092 62.3982V62.3982Z" fill="white"/>
<g clip-path="url(#clip0_55_558)">
<path d="M29.1996 0C30.8218 0.430225 32.0114 1.29067 32.444 2.95779C32.8766 4.57114 32.1196 6.34581 30.6055 7.20626C29.1455 8.06671 27.1989 7.90538 26.0633 6.72226C25.5767 6.18448 25.0359 6.07692 24.333 6.07692C17.9523 6.07692 11.6257 6.07692 5.24501 6.07692C4.59613 6.07692 4.37983 6.18448 4.37983 6.88359C4.37983 17.2628 4.37983 27.6419 4.37983 37.9673C4.37983 42.8611 5.89389 47.3785 8.54349 51.4656C10.4901 54.4772 12.7072 57.2737 15.1945 59.855C19.5745 64.4261 24.6033 68.1906 30.0648 71.4173C30.3892 71.5786 30.6596 71.6324 30.984 71.5248C32.7144 70.9871 34.3906 71.5248 35.3099 72.8693C36.3373 74.3751 36.3373 76.0422 35.2558 77.548C34.7151 78.3009 33.8499 78.5698 33.0388 78.9462C32.4981 78.9462 32.0114 78.9462 31.4707 78.9462C30.0107 78.4622 28.9292 77.6556 28.5507 76.1498C28.4426 75.6658 28.1722 75.3431 27.7396 75.128C25.9011 74.0524 24.0626 72.9231 22.3322 71.6862C19.0338 69.3737 15.8975 66.8462 13.0857 64.0497C10.3279 61.307 7.84054 58.3492 5.6776 55.1225C3.19021 51.5194 1.35171 47.6474 0.54061 43.2914C0.324316 42.1082 0.162095 40.9251 -0.0541992 39.742C-0.000125676 27.0504 -0.000125676 14.3587 -0.000125676 1.66712C3.35243 1.66712 6.75907 1.66712 10.1116 1.66712C14.9782 1.66712 19.8449 1.66712 24.7115 1.66712C25.0359 1.66712 25.3604 1.7209 25.6307 1.45201C26.2796 0.645337 27.1989 0.26889 28.1722 0C28.4966 0 28.8751 0 29.1996 0Z" fill="white"/>
<path d="M40.5008 79C39.7978 78.6773 39.1489 78.4084 38.6082 77.8169C37.4186 76.58 37.1482 74.8053 38.0134 73.2995C38.8245 71.9013 40.6089 71.0408 42.1771 71.471C42.7719 71.6324 43.2585 71.5248 43.7452 71.2022C48.4496 68.4057 52.8836 65.1252 56.7769 61.2532C60.6702 57.3812 64.1309 53.1865 66.5642 48.2389C67.862 45.55 68.619 42.7536 68.8353 39.742C69.0516 36.4077 68.8894 33.1273 68.9435 29.793C68.9435 29.2015 68.619 29.1477 68.1864 29.1477C64.7257 29.1477 61.265 29.1477 57.8043 29.1477C56.8851 29.1477 56.8851 29.1477 56.8851 28.2335C56.8851 25.1681 56.8851 22.1028 56.8851 18.9836C56.8851 18.3383 56.7228 18.1232 56.0199 18.1232C54.2355 18.177 52.451 18.1232 50.7207 18.1232C50.234 18.1232 49.8555 18.2307 49.477 18.6072C48.3414 19.7365 46.6652 20.0592 45.2052 19.4139C43.637 18.7148 42.8259 17.3703 42.88 15.6494C42.9341 14.1436 43.9074 12.7454 45.4215 12.2076C46.9355 11.6698 48.2874 11.9387 49.4229 13.0681C49.8555 13.4445 50.234 13.6058 50.8288 13.6058C53.9651 13.6058 57.0473 13.6058 60.1835 13.6058C61.3191 13.6058 61.3191 13.6058 61.3191 14.789C61.3191 17.8005 61.3191 20.8121 61.3191 23.8237C61.3191 24.6841 61.3732 24.6841 62.1843 24.6841C65.5909 24.6841 68.9975 24.6841 72.3501 24.6841C73.3775 24.6841 73.3775 24.6841 73.3775 25.6521C73.3775 29.8468 73.4316 34.0415 73.3775 38.2362C73.2693 43.7216 71.5931 48.7767 68.6731 53.4554C65.7531 58.0803 62.1843 62.2212 58.1288 65.9319C54.3977 69.3737 50.234 72.3315 45.8541 74.8591C45.5296 75.0742 45.2592 75.2355 45.1511 75.6657C44.8807 77.2253 43.9074 78.2471 42.4474 78.7311C42.3934 78.7849 42.2852 78.8387 42.2311 78.8387C41.6363 79 41.0415 79 40.5008 79Z" fill="white"/>
<path d="M53.9655 1.66718C60.1299 1.66718 66.2402 1.66718 72.4045 1.66718C73.3238 1.66718 73.3238 1.66718 73.3238 2.58141C73.3238 6.56099 73.3238 10.5406 73.3238 14.5201C73.3238 15.0579 73.4319 15.4881 73.8645 15.8646C75.4327 17.3704 75.3786 19.898 73.8105 21.35C72.2964 22.802 69.809 22.7482 68.349 21.2962C66.7809 19.7366 66.835 17.2628 68.4031 15.757C68.7275 15.4881 68.8357 15.1655 68.8357 14.7353C68.8357 12.1001 68.8357 9.465 68.8357 6.7761C68.8357 6.18454 68.6735 6.02321 68.0787 6.02321C58.6158 6.02321 49.1529 6.02321 39.69 6.02321C39.0952 6.02321 38.933 6.23832 38.933 6.82988C38.933 10.3255 38.933 13.821 38.933 17.2628C38.933 18.1233 38.933 18.1233 38.0678 18.1233C31.2005 18.1233 24.3332 18.1233 17.5199 18.1233C16.4925 18.1233 16.4925 18.1233 16.4925 19.0913C16.4925 22.2104 16.4925 25.2758 16.4925 28.3949C16.4925 29.0402 16.3303 29.2553 15.6273 29.2553C14.654 29.2016 13.6807 29.2016 12.7074 29.2553C12.2207 29.2553 12.0044 29.094 12.0044 28.61C12.0044 23.8238 12.0044 19.0375 12.0044 14.305C12.0044 13.7135 12.3288 13.6597 12.8155 13.6597C16.7629 13.6597 20.7102 13.6597 24.6035 13.6597C27.6316 13.6597 30.6057 13.6597 33.6338 13.6597C34.2827 13.6597 34.499 13.4984 34.499 12.7992C34.4449 9.35745 34.499 5.91565 34.499 2.47385C34.499 1.6134 34.499 1.6134 35.3642 1.6134C41.5826 1.66718 47.8011 1.66718 53.9655 1.66718Z" fill="white"/>
<path d="M61.5356 45.066C61.5356 47.0558 60.3459 48.5078 58.5074 48.9381C58.0748 49.0456 57.7504 49.2069 57.5341 49.5834C53.803 54.6923 49.0446 58.6181 43.6913 61.9524C41.5283 63.2968 39.3113 64.5337 36.9321 65.5017C36.5536 65.663 36.2291 65.663 35.8506 65.4479C29.4159 62.1137 23.4678 58.1341 18.5471 52.8101C17.6278 51.8421 16.7627 50.8203 16.0056 49.691C15.6812 49.2607 15.3567 49.0456 14.816 48.9381C12.3286 48.5078 10.9768 46.0878 11.842 43.7754C12.5449 41.9469 14.5997 40.9251 16.5464 41.4629C18.3849 41.9469 19.5745 43.8829 19.25 45.7652C19.1419 46.3029 19.25 46.6794 19.5745 47.1096C22.4945 51.0354 26.1715 54.2083 30.1729 56.951C32.0114 58.2417 33.958 59.371 35.9047 60.5003C36.3914 60.7692 36.7699 60.7692 37.2565 60.5003C41.3121 58.403 45.0972 55.9292 48.5038 52.9176C50.3964 51.2505 52.1808 49.3683 53.6949 47.3785C54.0193 46.9483 54.1275 46.5718 53.9653 46.034C53.4786 43.9905 54.6682 42.0545 56.723 41.4629C58.5615 40.9251 60.6704 42.0545 61.3733 43.9367C61.5356 44.3131 61.5356 44.7434 61.5356 45.066Z" fill="white"/>
<path d="M14.9782 39.3656C12.7072 39.3656 10.382 39.3656 8.11091 39.3656C7.35388 39.3656 7.2998 39.3118 7.2998 38.5051C7.2998 37.5909 7.2998 36.6767 7.2998 35.8162C7.2998 34.9558 7.35388 34.902 8.21905 34.902C12.4368 34.902 16.6545 34.902 20.8723 34.902C21.0886 34.902 21.2508 34.902 21.4671 34.902C21.8456 34.902 22.17 34.7945 22.3863 34.4718C23.4137 33.1811 24.7656 32.6971 26.3337 33.0736C27.9018 33.45 28.9292 34.5256 29.2537 36.0851C29.5781 37.5909 28.8211 39.258 27.4692 40.0647C26.1174 40.8714 24.2248 40.8176 23.0893 39.8496C22.7108 39.5269 22.2782 39.4194 21.7915 39.4194C19.5204 39.3656 17.2493 39.3656 14.9782 39.3656Z" fill="white"/>
<path d="M58.3993 39.3656C56.2364 39.3656 54.1275 39.3656 51.9646 39.3656C51.4238 39.3656 50.9913 39.4731 50.5046 39.7958C48.8283 41.0327 46.6113 40.8176 45.2595 39.3118C43.9617 37.9135 43.9617 35.7624 45.2595 34.2029C46.7194 32.4282 49.5313 32.482 51.0994 34.3104C51.4779 34.7406 51.8024 34.902 52.3431 34.902C56.5608 34.902 60.7786 34.902 64.9963 34.902C65.9155 34.902 65.9696 34.9558 65.9696 35.87C65.9696 36.6766 65.9696 37.4833 65.9696 38.3438C65.9696 39.3656 65.9696 39.4193 64.9422 39.4193C62.7793 39.3656 60.6163 39.3656 58.3993 39.3656Z" fill="white"/>
<path d="M32.6157 48.6546C32.6899 48.8452 32.8476 49 33.0278 49C37.3152 49 41.5663 49 45.9536 49C47.0164 49 47.8779 48.0958 47.8779 46.8623C47.8779 45.6288 47.0163 44.5323 45.9538 44.5064C42.8358 44.4303 39.7058 44.2484 36.6895 44.7246C35.2501 44.9032 34.0025 46.7472 32.723 48.0301C32.5685 48.185 32.5317 48.4386 32.6157 48.6546Z" fill="white"/>
<path d="M39.3247 28.2625C36.2505 32.352 33.5179 35.9433 30.759 39.6133C28.3942 42.7591 28.3942 42.7591 30.8778 46.449C36.5005 39.0567 42.0444 31.7693 47.8775 24.0098C41.3245 23.985 35.3218 24.0148 29.2405 24.018C29.7066 27.2008 31.0408 28.2625 34.3571 28.2625C35.8878 28.2625 37.2538 28.3073 39.3247 28.2625Z" fill="white"/>
</g>
<path fill-rule="evenodd" clip-rule="evenodd" d="M357.156 53.6058C355.805 51.2213 354.443 48.8155 353.059 46.3268C353.553 45.9438 354.036 45.5924 354.502 45.2535C355.574 44.4733 356.555 43.7593 357.367 42.8775C360.662 39.7026 362.626 36.0894 362.952 32H354.357C353.811 35.798 351.118 38.2163 346.889 38.7384C345.054 39.0101 343.147 39.0678 340.884 39.1362C340.274 39.1547 339.638 39.1739 338.971 39.1983C340.185 41.2786 341.41 43.2833 342.609 45.2454C345.32 49.6814 347.898 53.9 349.916 58.2844C352.594 64.0332 356.552 64.8381 362.606 63.3434C360.797 60.0344 358.988 56.8397 357.156 53.6058ZM352.532 25H361.997C360.067 19.3801 356.022 15.1228 350.149 14.4783C344.372 13.8356 338.539 13.9788 332.649 14.1234C330.11 14.1857 327.56 14.2483 325 14.2483C326.281 20.5721 329.657 22.9866 335.711 22.2967C339.437 21.8368 343.163 21.9518 346.772 22.2967C349.242 22.5871 351.207 23.5227 352.532 25Z" fill="white"/>
<defs>
<clipPath id="clip0_55_558">
<rect width="75" height="79" fill="white"/>
</clipPath>
</defs>
</svg>
