<svg width="265" height="50" viewBox="0 0 265 50" fill="none" xmlns="http://www.w3.org/2000/svg">
<path fill-rule="evenodd" clip-rule="evenodd" d="M70.3093 39.6059C68.9943 37.2214 67.6675 34.8155 66.3203 32.3268C66.8009 31.9438 67.2712 31.5924 67.7247 31.2535C68.7688 30.4733 69.7245 29.7593 70.5148 28.8775C73.7234 25.7026 75.6355 22.0894 75.9525 18H67.584C67.0519 21.798 64.4298 24.2163 60.312 24.7384C58.5258 25.0101 56.6693 25.0678 54.4652 25.1362C53.8716 25.1547 53.2527 25.1739 52.6032 25.1983C53.7853 27.2786 54.978 29.2833 56.1454 31.2454C58.7846 35.6814 61.2945 39.9 63.2595 44.2844C65.8669 50.0332 69.7212 50.8381 75.6162 49.3434C73.8544 46.0344 72.0927 42.8398 70.3093 39.6059ZM65.8068 11H75.0233C73.1436 5.3801 69.2054 1.12281 63.4862 0.478303C57.862 -0.164423 52.1825 -0.0212078 46.4476 0.123403C43.9752 0.185746 41.4925 0.248349 38.9995 0.248349C40.2465 6.57206 43.5341 8.98657 49.429 8.29671C53.0567 7.83681 56.6843 7.95178 60.1986 8.29671C62.6035 8.58708 64.5167 9.52274 65.8068 11Z" fill="white"/>
<path d="M11.9849 29C10.6124 29 9.49951 27.163 9.49951 24.9538V24.9538C9.49951 22.7447 10.6122 21 11.9847 21C17.6678 21 23.2848 21 29.0143 21C30.3868 21 31.4995 22.6524 31.4995 24.8615V24.8615C31.4995 27.0707 30.3869 29 29.0144 29C23.4239 29 17.807 29 11.9849 29Z" fill="white"/>
<path d="M0.0914205 0.601841C0.246528 0.269755 0.576179 0 0.952931 0C9.91637 0 18.8041 0 27.9765 0C30.1983 0 31.9995 1.57534 31.9995 3.72433V3.72433C31.9995 5.87333 30.1983 7.78379 27.9769 7.82893C21.4582 7.9614 14.9144 8.27834 8.6083 7.44867C5.59897 7.13758 2.99061 3.92492 0.315737 1.68982C-0.00725266 1.41993 -0.0843031 0.978068 0.0914205 0.601841V0.601841Z" fill="white"/>
<path d="M0.0914205 48.3982C0.246528 48.7302 0.576179 49 0.952931 49C9.91637 49 18.8041 49 27.9765 49C30.1983 49 31.9995 47.4247 31.9995 45.2757V45.2757C31.9995 43.1267 30.1983 41.2162 27.9769 41.1711C21.4582 41.0386 14.9144 40.7217 8.6083 41.5513C5.59897 41.8624 2.99061 45.0751 0.315737 47.3102C-0.00725266 47.5801 -0.0843031 48.0219 0.0914205 48.3982V48.3982Z" fill="white"/>
<path d="M110 18C114.516 26.9664 117.785 35.6357 121.838 43.6824C125.313 50.5797 125.313 50.5796 134 49.4301C125.892 33.1067 117.901 17.0132 109.33 0C103.539 11.4954 100.827 18.3093 95.4995 29C101.522 30.9542 104 30.5 110 18Z" fill="white"/>
<path d="M84.9995 49.6145C93.3034 50.4835 95.3034 45.9951 97.9995 38.4999C90.3426 36.6533 88.2348 41.1417 84.9995 49.6145Z" fill="white"/>
<path d="M149.086 48.3229C149.232 48.6965 149.541 49 149.894 49C158.297 49 166.629 49 175.228 49C177.311 49 179 47.2277 179 44.8101C179 42.3925 177.311 40.2432 175.229 40.1925C169.118 40.0434 162.983 39.6869 157.071 40.6202C154.249 40.9702 151.804 44.5845 149.296 47.099C148.994 47.4026 148.921 47.8997 149.086 48.3229Z" fill="white"/>
<path d="M162.236 8.35456C156.21 16.3699 150.855 23.4088 145.447 30.6021C140.812 36.7678 140.812 36.7678 145.68 44C156.701 29.5112 167.567 15.2279 179 0.0192249C166.156 -0.0294795 154.39 0.028958 142.471 0.0352871C143.384 6.27352 146 8.35456 152.5 8.35456C155.5 8.35456 158.177 8.44222 162.236 8.35456Z" fill="white"/>
<path d="M198.985 29C197.613 29 196.5 27.163 196.5 24.9538V24.9538C196.5 22.7447 197.613 21 198.985 21C204.668 21 210.285 21 216.015 21C217.387 21 218.5 22.6524 218.5 24.8615V24.8615C218.5 27.0707 217.387 29 216.015 29C210.424 29 204.807 29 198.985 29Z" fill="white"/>
<path d="M187.092 0.601841C187.247 0.269755 187.577 0 187.953 0C196.917 0 205.805 0 214.977 0C217.199 0 219 1.57534 219 3.72433V3.72433C219 5.87333 217.199 7.78379 214.977 7.82893C208.459 7.9614 201.915 8.27834 195.609 7.44867C192.599 7.13758 189.991 3.92492 187.316 1.68982C186.993 1.41993 186.916 0.978068 187.092 0.601841V0.601841Z" fill="white"/>
<path d="M187.092 48.3982C187.247 48.7302 187.577 49 187.953 49C196.917 49 205.805 49 214.977 49C217.199 49 219 47.4247 219 45.2757V45.2757C219 43.1267 217.199 41.2162 214.977 41.1711C208.459 41.0386 201.915 40.7217 195.609 41.5513C192.599 41.8624 189.991 45.0751 187.316 47.3102C186.993 47.5801 186.916 48.0219 187.092 48.3982V48.3982Z" fill="white"/>
<path fill-rule="evenodd" clip-rule="evenodd" d="M259.156 39.6058C257.805 37.2213 256.443 34.8155 255.059 32.3268C255.553 31.9438 256.036 31.5924 256.502 31.2535C257.574 30.4733 258.555 29.7593 259.367 28.8775C262.662 25.7026 264.626 22.0894 264.952 18H256.357C255.811 21.798 253.118 24.2163 248.889 24.7384C247.054 25.0101 245.147 25.0678 242.884 25.1362C242.274 25.1547 241.638 25.1739 240.971 25.1983C242.185 27.2786 243.41 29.2833 244.609 31.2454C247.32 35.6814 249.898 39.9 251.916 44.2844C254.594 50.0332 258.552 50.8381 264.606 49.3434C262.797 46.0344 260.988 42.8397 259.156 39.6058ZM254.532 11H263.997C262.067 5.3801 258.022 1.12281 252.149 0.478303C246.372 -0.164423 240.539 -0.0212079 234.649 0.123403C232.11 0.185746 229.56 0.248349 227 0.248349C228.281 6.57206 231.657 8.98657 237.711 8.29671C241.437 7.83681 245.163 7.95178 248.772 8.29671C251.242 8.58708 253.207 9.52274 254.532 11Z" fill="white"/>
</svg>
