<svg width="75" height="79" viewBox="0 0 75 79" fill="none" xmlns="http://www.w3.org/2000/svg">
<g clip-path="url(#clip0_62_2)">
<path d="M29.1997 0C30.8219 0.430225 32.0115 1.29067 32.4441 2.95779C32.8767 4.57114 32.1197 6.34581 30.6056 7.20626C29.1456 8.06671 27.199 7.90538 26.0634 6.72226C25.5768 6.18448 25.036 6.07692 24.3331 6.07692C17.9524 6.07692 11.6258 6.07692 5.24513 6.07692C4.59625 6.07692 4.37995 6.18448 4.37995 6.88359C4.37995 17.2628 4.37995 27.6419 4.37995 37.9673C4.37995 42.8611 5.89401 47.3785 8.54362 51.4656C10.4903 54.4772 12.7073 57.2737 15.1947 59.855C19.5746 64.4261 24.6035 68.1906 30.0649 71.4173C30.3893 71.5786 30.6597 71.6324 30.9841 71.5248C32.7145 70.9871 34.3908 71.5248 35.31 72.8693C36.3374 74.3751 36.3374 76.0422 35.2559 77.548C34.7152 78.3009 33.85 78.5698 33.0389 78.9462C32.4982 78.9462 32.0115 78.9462 31.4708 78.9462C30.0108 78.4622 28.9293 77.6556 28.5508 76.1498C28.4427 75.6658 28.1723 75.3431 27.7397 75.128C25.9012 74.0524 24.0627 72.9231 22.3324 71.6862C19.0339 69.3737 15.8976 66.8462 13.0858 64.0497C10.328 61.307 7.84066 58.3492 5.67772 55.1225C3.19034 51.5194 1.35184 47.6474 0.540732 43.2914C0.324438 42.1082 0.162217 40.9251 -0.0540771 39.742C-3.60608e-06 27.0504 -3.60608e-06 14.3587 -3.60608e-06 1.66712C3.35256 1.66712 6.75919 1.66712 10.1117 1.66712C14.9784 1.66712 19.845 1.66712 24.7116 1.66712C25.036 1.66712 25.3605 1.7209 25.6309 1.45201C26.2797 0.645337 27.199 0.26889 28.1723 0C28.4968 0 28.8753 0 29.1997 0Z" fill="white"/>
<path d="M40.501 79C39.7981 78.6773 39.1492 78.4084 38.6084 77.8169C37.4188 76.58 37.1485 74.8053 38.0136 73.2995C38.8247 71.9013 40.6092 71.0408 42.1773 71.471C42.7721 71.6324 43.2588 71.5248 43.7454 71.2022C48.4498 68.4057 52.8839 65.1252 56.7772 61.2532C60.6705 57.3812 64.1312 53.1865 66.5645 48.2389C67.8622 45.55 68.6193 42.7536 68.8356 39.742C69.0519 36.4077 68.8896 33.1273 68.9437 29.793C68.9437 29.2015 68.6193 29.1477 68.1867 29.1477C64.726 29.1477 61.2653 29.1477 57.8046 29.1477C56.8853 29.1477 56.8853 29.1477 56.8853 28.2335C56.8853 25.1681 56.8853 22.1028 56.8853 18.9836C56.8853 18.3383 56.7231 18.1232 56.0201 18.1232C54.2357 18.177 52.4513 18.1232 50.7209 18.1232C50.2343 18.1232 49.8557 18.2307 49.4772 18.6072C48.3417 19.7365 46.6654 20.0592 45.2054 19.4139C43.6373 18.7148 42.8262 17.3703 42.8803 15.6494C42.9343 14.1436 43.9077 12.7454 45.4217 12.2076C46.9358 11.6698 48.2876 11.9387 49.4232 13.0681C49.8557 13.4445 50.2343 13.6058 50.8291 13.6058C53.9653 13.6058 57.0475 13.6058 60.1838 13.6058C61.3193 13.6058 61.3193 13.6058 61.3193 14.789C61.3193 17.8005 61.3193 20.8121 61.3193 23.8237C61.3193 24.6841 61.3734 24.6841 62.1845 24.6841C65.5911 24.6841 68.9978 24.6841 72.3503 24.6841C73.3777 24.6841 73.3777 24.6841 73.3777 25.6521C73.3777 29.8468 73.4318 34.0415 73.3777 38.2362C73.2696 43.7216 71.5933 48.7767 68.6733 53.4554C65.7534 58.0803 62.1845 62.2212 58.129 65.9319C54.3979 69.3737 50.2343 72.3315 45.8543 74.8591C45.5299 75.0742 45.2595 75.2355 45.1513 75.6657C44.881 77.2253 43.9077 78.2471 42.4477 78.7311C42.3936 78.7849 42.2854 78.8387 42.2314 78.8387C41.6366 79 41.0418 79 40.501 79Z" fill="white"/>
<path d="M53.9653 1.66706C60.1297 1.66706 66.24 1.66706 72.4044 1.66706C73.3237 1.66706 73.3237 1.66706 73.3237 2.58129C73.3237 6.56086 73.3237 10.5404 73.3237 14.52C73.3237 15.0578 73.4318 15.488 73.8644 15.8645C75.4325 17.3703 75.3785 19.8978 73.8103 21.3498C72.2963 22.8018 69.8089 22.7481 68.3489 21.2961C66.7808 19.7365 66.8348 17.2627 68.403 15.7569C68.7274 15.488 68.8356 15.1654 68.8356 14.7351C68.8356 12.1 68.8356 9.46488 68.8356 6.77598C68.8356 6.18442 68.6733 6.02308 68.0785 6.02308C58.6157 6.02308 49.1528 6.02308 39.6899 6.02308C39.0951 6.02308 38.9329 6.2382 38.9329 6.82976C38.9329 10.3253 38.9329 13.8209 38.9329 17.2627C38.9329 18.1232 38.9329 18.1232 38.0677 18.1232C31.2004 18.1232 24.333 18.1232 17.5198 18.1232C16.4924 18.1232 16.4924 18.1232 16.4924 19.0912C16.4924 22.2103 16.4924 25.2756 16.4924 28.3948C16.4924 29.0401 16.3302 29.2552 15.6272 29.2552C14.6539 29.2014 13.6806 29.2014 12.7072 29.2552C12.2206 29.2552 12.0043 29.0939 12.0043 28.6099C12.0043 23.8236 12.0043 19.0374 12.0043 14.3049C12.0043 13.7134 12.3287 13.6596 12.8154 13.6596C16.7627 13.6596 20.7101 13.6596 24.6034 13.6596C27.6315 13.6596 30.6056 13.6596 33.6337 13.6596C34.2826 13.6596 34.4989 13.4982 34.4989 12.7991C34.4448 9.35732 34.4989 5.91553 34.4989 2.47373C34.4989 1.61328 34.4989 1.61328 35.364 1.61328C41.5825 1.66706 47.801 1.66706 53.9653 1.66706Z" fill="white"/>
<path d="M61.5357 45.0659C61.5357 47.0557 60.3461 48.5077 58.5076 48.9379C58.075 49.0455 57.7505 49.2068 57.5342 49.5833C53.8032 54.6922 49.0447 58.618 43.6914 61.9522C41.5285 63.2967 39.3115 64.5336 36.9322 65.5016C36.5537 65.6629 36.2293 65.6629 35.8507 65.4478C29.416 62.1136 23.4679 58.134 18.5472 52.81C17.628 51.842 16.7628 50.8202 16.0058 49.6908C15.6813 49.2606 15.3569 49.0455 14.8161 48.9379C12.3288 48.5077 10.9769 46.0877 11.8421 43.7752C12.545 41.9468 14.5998 40.925 16.5465 41.4628C18.385 41.9468 19.5746 43.8828 19.2502 45.765C19.142 46.3028 19.2502 46.6793 19.5746 47.1095C22.4946 51.0353 26.1716 54.2082 30.173 56.9509C32.0115 58.2415 33.9582 59.3709 35.9048 60.5002C36.3915 60.7691 36.77 60.7691 37.2567 60.5002C41.3122 58.4029 45.0973 55.9291 48.504 52.9175C50.3965 51.2504 52.181 49.3682 53.695 47.3784C54.0195 46.9481 54.1276 46.5717 53.9654 46.0339C53.4787 43.9904 54.6683 42.0543 56.7231 41.4628C58.5616 40.925 60.6705 42.0543 61.3735 43.9366C61.5357 44.313 61.5357 44.7432 61.5357 45.0659Z" fill="white"/>
<path d="M14.9784 39.3656C12.7073 39.3656 10.3821 39.3656 8.11103 39.3656C7.354 39.3656 7.29993 39.3118 7.29993 38.5051C7.29993 37.5909 7.29993 36.6767 7.29993 35.8162C7.29993 34.9558 7.354 34.902 8.21918 34.902C12.4369 34.902 16.6546 34.902 20.8724 34.902C21.0887 34.902 21.2509 34.902 21.4672 34.902C21.8457 34.902 22.1702 34.7945 22.3864 34.4718C23.4138 33.1811 24.7657 32.6971 26.3338 33.0736C27.9019 33.45 28.9293 34.5256 29.2538 36.0851C29.5782 37.5909 28.8212 39.258 27.4694 40.0647C26.1175 40.8714 24.2249 40.8176 23.0894 39.8496C22.7109 39.5269 22.2783 39.4194 21.7916 39.4194C19.5205 39.3656 17.2495 39.3656 14.9784 39.3656Z" fill="white"/>
<path d="M58.3995 39.3656C56.2365 39.3656 54.1276 39.3656 51.9647 39.3656C51.424 39.3656 50.9914 39.4731 50.5047 39.7958C48.8284 41.0327 46.6114 40.8176 45.2596 39.3118C43.9618 37.9135 43.9618 35.7624 45.2596 34.2029C46.7196 32.4282 49.5314 32.482 51.0995 34.3104C51.478 34.7406 51.8025 34.902 52.3432 34.902C56.561 34.902 60.7787 34.902 64.9964 34.902C65.9157 34.902 65.9697 34.9558 65.9697 35.87C65.9697 36.6766 65.9697 37.4833 65.9697 38.3438C65.9697 39.3656 65.9697 39.4193 64.9423 39.4193C62.7794 39.3656 60.6165 39.3656 58.3995 39.3656Z" fill="white"/>
<path d="M32.3594 49.1266C32.4399 49.3193 32.6109 49.4758 32.8063 49.4758C37.4553 49.4758 42.065 49.4758 46.8225 49.4758C47.9748 49.4758 48.909 48.5616 48.909 47.3146C48.909 46.0675 47.9748 44.9588 46.8227 44.9326C43.4416 44.8558 40.0476 44.6718 36.7768 45.1533C35.216 45.3338 33.8631 47.1982 32.4758 48.4952C32.3083 48.6518 32.2683 48.9082 32.3594 49.1266Z" fill="white"/>
<path d="M39.6956 28.5097C36.5704 32.6443 33.7925 36.2752 30.9879 39.9857C28.5839 43.1661 28.5839 43.1661 31.1086 46.8967C36.8246 39.423 42.4605 32.0552 48.3903 24.2101C41.7286 24.185 35.6263 24.2151 29.4442 24.2184C29.918 27.4363 31.2475 29.036 34.4726 28.5698C36.0186 28.3364 37.5904 28.555 39.6956 28.5097Z" fill="white"/>
</g>
<defs>
<clipPath id="clip0_62_2">
<rect width="75" height="79" fill="white"/>
</clipPath>
</defs>
</svg>
