<svg width="1424" height="1557" viewBox="0 0 1424 1557" fill="none" xmlns="http://www.w3.org/2000/svg">
<path d="M457.436 1082.96C462.869 1037.43 475.054 985.202 493.615 927.738C513.01 868.541 535.95 810.902 562.276 755.221C589.677 696.777 620.268 640.312 653.873 586.153C685.362 534.804 720.338 486.296 758.486 441.068C793.458 399.962 826.656 368.994 856.724 349.016C885.697 329.72 910.671 321.499 930.93 324.48C951.188 327.462 965.637 341.519 973.975 366.438C982.576 391.997 984.198 428.247 978.766 473.783C973.333 519.319 961.148 571.756 942.587 629.006C923.194 688.211 900.241 745.852 873.889 801.524C846.54 859.988 815.986 916.468 782.404 970.634C750.904 1021.97 715.928 1070.48 677.791 1115.72C642.593 1156.82 609.508 1187.79 579.478 1207.77C550.468 1227.07 525.493 1235.29 505.272 1232.31C485.051 1229.32 470.565 1215.27 462.227 1190.35C453.588 1164.79 452.004 1128.54 457.436 1083V1082.96ZM454.531 1086.37C431.896 1274.73 531.793 1289.56 677.339 1119.42C822.884 949.292 959.148 658.781 981.633 470.418C1004.12 282.054 904.409 267.23 759.052 437.362C613.696 607.495 477.242 898.006 454.72 1086.37H454.531Z" stroke="#7E30E1" stroke-opacity="0.1"/>
<path d="M432.234 1077.81C442.345 1027.84 459.699 971.315 483.843 910.273C508.764 847.714 537.178 787.005 568.914 728.512C601.46 668.017 637.174 609.768 675.866 554.078C711.447 502.182 750.548 453.489 792.815 408.439C831.409 368.014 866.871 338.58 898.221 320.987C928.401 303.948 953.677 298.624 973.03 305.099C992.383 311.573 1005.02 329.549 1010.49 358.515C1016.15 388.333 1013.89 429.056 1003.78 478.979C993.666 528.903 976.312 585.472 952.168 646.513C927.249 709.081 898.821 769.791 867.059 828.274C834.526 888.769 798.825 947.018 760.145 1002.71C724.48 1054.6 685.304 1103.3 642.969 1148.35C604.376 1188.77 568.914 1218.21 537.602 1235.8C507.421 1252.84 482.145 1258.16 462.792 1251.69C443.439 1245.21 430.801 1227.24 425.331 1198.27C419.672 1168.45 421.898 1127.73 432.046 1077.81H432.234ZM428.877 1081.13C387.039 1287.68 482.523 1319.67 642.139 1152.44C801.756 985.201 965.108 682.252 1006.95 475.657C1048.78 269.062 953.3 237.114 793.645 404.349C633.991 571.585 470.715 874.535 428.877 1081.13Z" stroke="#7E30E1" stroke-opacity="0.1"/>
<path d="M408.242 1068.1C426.221 1006.34 448.942 946.478 476.148 889.189C506.853 823.738 541.006 760.425 578.422 699.59C616.157 637.603 657.057 578.15 700.917 521.534C740.66 469.714 783.938 421.489 830.353 377.301C872.191 338.155 909.803 310.85 942.134 296.026C973.408 281.714 998.458 279.669 1016.64 289.892C1034.83 300.116 1045.16 322.096 1047.43 355.236C1049.76 389.569 1043.28 434.424 1028.15 488.564C1010.18 550.325 987.461 610.19 960.242 667.472C929.684 732.891 895.669 796.176 858.383 856.985C820.636 918.963 779.736 978.414 735.888 1035.04C696.145 1086.86 652.867 1135.09 606.452 1179.27C564.614 1218.42 527.002 1245.73 494.633 1260.55C463.396 1274.86 438.347 1276.91 420.163 1266.68C401.979 1256.46 391.642 1234.48 389.379 1201.34C387.04 1167.01 393.529 1122.15 408.657 1068.01L408.242 1068.1ZM405.224 1071.21C342.637 1295.14 432.197 1345.49 605.169 1183.75C778.141 1022.01 968.806 709.387 1031.39 485.497C1093.98 261.608 1004.42 211.216 831.447 372.956C658.475 534.697 467.358 847.401 404.884 1071.29L405.224 1071.21Z" stroke="#7E30E1" stroke-opacity="0.1"/>
<path d="M386.021 1053.57C409.802 988.087 438.253 924.893 471.092 864.61C544.234 729.099 630.572 603.252 728.494 489.416C772.128 438.261 819.337 391.153 869.663 348.548C914.519 311.403 954.017 286.697 987.065 275.196C1019.02 264.078 1043.65 265.654 1060.21 279.881C1076.78 294.109 1084.55 320.221 1083.23 357.536C1081.91 396.171 1070.85 445.2 1050.41 503.217C1026.62 568.7 998.175 631.894 965.335 692.177C928.918 759.911 889.076 825.221 846.009 887.783C803.068 950.582 756.967 1010.54 707.933 1067.37C664.287 1118.53 617.065 1165.64 566.727 1208.24C521.909 1245.38 482.41 1270.09 449.325 1281.59C417.409 1292.71 392.736 1291.13 376.213 1276.91C359.689 1262.68 351.88 1236.57 353.162 1199.25C354.521 1160.62 365.574 1111.59 386.021 1053.57V1053.57ZM382.249 1056.59C297.668 1296.63 379.457 1366.66 564.954 1213.01C750.45 1059.36 969.371 740.184 1053.95 500.193C1138.53 260.202 1056.74 190.13 871.247 343.777C685.751 497.424 466.829 816.56 382.249 1056.59V1056.59Z" stroke="#7E30E1" stroke-opacity="0.1"/>
<path d="M365.725 1033.89C395.484 965.196 429.838 899.164 468.489 836.368C510.755 766.952 556.437 700.268 605.32 636.631C653.336 573.702 704.54 513.967 758.674 457.724C812.169 402.348 863.4 356.94 910.972 322.436C958.544 287.932 999.589 266.506 1032.98 258.796C1065.23 251.342 1089 256.879 1103.64 275.281C1118.27 293.683 1123.07 324.055 1117.86 365.459C1112.43 408.354 1096.51 461.302 1070.44 523.068C1040.71 591.779 1006.35 657.813 967.674 720.59C925.433 790.015 879.763 856.7 830.881 920.327C782.865 983.256 731.661 1042.99 677.526 1099.23C624.032 1154.61 572.8 1200.02 525.228 1234.52C477.656 1269.03 436.611 1290.45 403.224 1298.16C370.969 1305.62 347.201 1300.08 332.564 1281.68C317.926 1263.27 313.135 1232.9 318.341 1191.5C323.736 1148.6 339.694 1095.66 365.725 1033.89V1033.89ZM361.952 1036.74C254.246 1291.35 326.452 1382.08 523.191 1239.42C719.93 1096.76 966.655 774.645 1074.36 520.043C1182.07 265.441 1109.86 174.71 913.122 317.367C716.384 460.024 469.545 782.142 361.839 1036.74H361.952Z" stroke="#7E30E1" stroke-opacity="0.1"/>
<path d="M348.296 1008.89C384.137 937.498 424.548 869.161 469.206 804.421C517.271 734.062 568.771 666.782 623.466 602.894C676.363 540.573 732.471 481.829 791.496 426.969C849.404 373.595 904.106 330.742 954.017 299.604C1003.93 268.466 1046.22 251.086 1079.49 247.593C1111.63 244.271 1134.19 254.153 1146.49 276.943C1158.79 299.732 1160.23 334.321 1150.79 379.686C1140.99 426.543 1119.86 483.282 1088.02 547.902C1052.16 619.281 1011.75 687.617 967.108 752.367C919.021 822.705 867.522 889.984 812.848 953.893C759.911 1016.23 703.753 1074.97 644.668 1129.82C586.797 1183.19 532.095 1226.05 482.146 1257.18C432.198 1288.32 390.02 1305.79 356.709 1309.28C324.567 1312.6 302.007 1302.72 289.708 1279.93C277.41 1257.14 275.938 1222.55 285.407 1177.19C295.216 1130.33 316.342 1073.59 348.183 1008.97L348.296 1008.89ZM344.071 1011.53C212.484 1278.91 272.845 1391.07 479.543 1262.38C686.241 1133.69 960.355 812.684 1092.09 545.346C1223.83 278.007 1163.17 165.722 956.658 294.407C750.148 423.093 475.846 744.103 344.071 1011.44V1011.53Z" stroke="#7E30E1" stroke-opacity="0.1"/>
<path d="M333.772 978.216C375.745 904.826 422.277 834.891 473.017 768.937C526.806 698.4 584.049 631.319 644.48 568.008C702.088 507.168 762.94 450.365 826.694 397.918C888.715 347.313 946.435 307.996 998.345 281.032C1050.26 254.068 1093.15 241.033 1125.93 242.311C1157.58 243.589 1178.45 258.072 1188.03 285.419C1197.61 312.767 1195.35 351.487 1181.31 400.644C1166.83 451.76 1140.27 511.396 1102.43 578.572C1060.47 651.959 1013.95 721.894 963.223 787.85C909.457 858.397 852.225 925.48 791.798 988.78C734.184 1049.63 673.319 1106.43 609.546 1158.87C547.563 1209.48 489.805 1248.79 437.932 1275.76C386.059 1302.72 343.128 1315.75 310.344 1314.48C278.693 1313.2 257.793 1298.72 248.248 1271.37C238.703 1244.02 240.929 1205.3 254.963 1156.14C269.45 1105.24 296.009 1045.39 333.847 978.216H333.772ZM329.584 980.431C173.099 1258.16 220.18 1392.85 434.839 1281.25C649.497 1169.65 950.207 854.089 1106.58 576.357C1262.95 298.625 1215.98 163.933 1001.33 275.537C786.667 387.141 485.994 702.699 329.433 980.431H329.584Z" stroke="#7E30E1" stroke-opacity="0.1"/>
<path d="M322.944 941.838C371.066 867.145 423.759 796.346 480.637 729.961C539.955 660.117 602.757 594.155 668.736 532.396C730.705 473.884 795.942 419.93 864.042 370.869C929.722 324.012 990.083 289.125 1043.43 267.06C1096.77 244.995 1139.93 237.242 1171.69 243.631C1202.36 249.893 1221.15 269.19 1227.57 301.265C1233.98 333.341 1227.57 376.108 1208.7 428.758C1189.2 483.282 1157.06 545.942 1113.14 614.949C1065.08 689.624 1012.47 760.422 955.677 826.826C896.35 896.66 833.548 962.621 767.577 1024.39C705.609 1082.9 640.372 1136.86 572.272 1185.92C506.592 1232.78 446.231 1267.66 392.887 1289.73C339.543 1311.79 296.385 1319.55 264.62 1313.16C233.95 1306.89 215.124 1287.6 208.711 1255.52C202.298 1223.45 208.711 1180.68 227.574 1128.03C247.078 1073.51 279.22 1010.85 323.133 941.838H322.944ZM318.757 943.627C137.108 1229.03 168.722 1386.64 389.341 1295.39C609.96 1204.15 936.135 898.687 1117.82 613.16C1299.51 327.633 1267.86 170.152 1047.2 261.394C826.543 352.637 500.254 658.1 318.568 943.627H318.757Z" stroke="#7E30E1" stroke-opacity="0.1"/>
<path d="M316.304 899.795C370.467 824.611 429.224 753.798 492.143 687.876C556.741 619.659 624.841 555.795 696.087 496.615C762.027 441.294 831.239 391.125 903.238 346.461C972.087 304.418 1034.52 274.813 1088.77 258.456C1143.02 242.098 1185.8 239.969 1215.98 252.322C1245.14 264.121 1261.25 288.614 1264.23 325.248C1267.21 361.881 1256.42 408.738 1232.54 464.582C1207.8 522.344 1169.88 587.219 1119.82 657.419C1065.66 732.603 1006.9 803.416 943.982 869.339C879.375 937.545 811.276 1001.41 740.037 1060.6C674.171 1115.76 605.048 1165.79 533.15 1210.33C464.264 1252.37 401.866 1281.98 347.616 1298.33C293.367 1314.69 250.209 1316.82 220.028 1304.68C190.867 1292.88 174.758 1268.39 171.74 1231.75C168.722 1195.12 179.587 1148.26 203.467 1092.42C228.328 1034.66 266.242 969.782 316.304 899.795ZM311.852 901.116C104.852 1191.46 118.962 1371.98 343.315 1304.34C567.669 1236.69 917.347 946.524 1124.23 656.098C1331.12 365.672 1317.13 185.232 1092.77 252.876C868.417 320.519 518.702 610.69 311.852 901.116V901.116Z" stroke="#7E30E1" stroke-opacity="0.1"/>
<path d="M314.342 851.406C374.404 776.607 439.09 706.715 507.912 642.254C577.448 576.628 650.524 515.938 726.72 460.536C796.08 409.464 868.7 364.272 943.982 325.333C1015.43 289.083 1079.3 265.697 1133.82 255.858C1188.33 246.018 1230.21 250.235 1258.31 268.637C1285.47 286.272 1298.68 316.132 1297.58 357.451C1296.49 398.77 1281.17 449.333 1251.97 507.904C1221.79 568.519 1178.03 635.013 1121.9 705.554C1061.85 780.351 997.174 850.244 928.363 914.705C858.821 980.322 785.745 1041.01 709.555 1096.42C640.135 1147.5 567.452 1192.7 492.105 1231.63C420.653 1267.88 356.784 1291.26 302.27 1301.1C247.757 1310.94 205.844 1306.72 177.776 1288.32C150.651 1270.69 137.447 1240.83 138.541 1199.51C139.635 1158.19 155.027 1107.63 184.189 1048.88C214.37 988.27 258.169 921.776 314.267 851.235L314.342 851.406ZM309.815 852.044C77.6901 1143.83 72.1444 1347.32 297.781 1306.55C523.417 1265.79 894.26 996.193 1126.38 704.403C1358.51 412.614 1364.06 209.129 1138.42 249.894C912.783 290.659 541.941 560.426 309.815 852.215V852.044Z" stroke="#7E30E1" stroke-opacity="0.1"/>
<path d="M317.436 797.563C383.104 724.081 453.449 656.128 527.907 594.247C601.867 532.243 679.373 475.821 759.919 425.351C832.289 379.392 907.851 340.159 985.857 308.039C1059.23 278.647 1123.86 262.46 1177.96 259.904C1232.05 257.348 1272.27 268.423 1297.77 293.257C1322.33 317.112 1332.03 352.467 1326.59 398.344C1321.16 444.221 1300.87 498.277 1266.23 559.062C1230.43 622.021 1180.79 689.409 1118.73 759.268C1053.04 832.73 982.699 900.682 908.256 962.583C834.29 1024.58 756.784 1081 676.244 1131.48C603.872 1177.39 528.309 1216.56 450.305 1248.62C376.967 1278.01 312.343 1294.2 258.245 1296.76C204.146 1299.31 163.931 1288.24 138.428 1263.4C113.869 1239.55 104.174 1204.19 109.606 1158.32C115.038 1112.44 135.335 1058.38 169.967 997.598C205.768 934.64 255.378 867.251 317.474 797.392L317.436 797.563ZM313.022 797.392C56.2244 1087.22 29.4392 1313.24 253.189 1302.63C476.94 1292.03 866.418 1048.88 1123.22 759.225C1380.01 469.566 1406.76 243.802 1183.01 254.196C959.261 264.59 569.745 507.903 312.984 797.563L313.022 797.392Z" stroke="#7E30E1" stroke-opacity="0.1"/>
<path d="M326.189 737.629C397.151 666.484 472.823 601.562 552.542 543.429C630.449 486.13 711.879 435.182 796.211 390.975C878.34 348.122 956.469 315.919 1028.45 295.26C1102.92 273.961 1167.54 265.74 1220.44 271.277C1273.33 276.815 1311.39 295.515 1333.61 326.994C1355 357.366 1360.7 398.302 1350.55 448.609C1340.4 498.916 1314.94 556.123 1274.87 618.57C1233.37 683.19 1177.96 750.621 1110.13 819.159C1039.17 890.314 963.498 955.237 883.772 1013.36C805.883 1070.67 724.465 1121.62 640.141 1165.81C558.012 1208.67 479.883 1240.87 407.902 1261.53C333.394 1282.83 268.808 1291.05 215.879 1285.51C162.95 1279.97 124.96 1261.27 102.702 1229.79C81.3497 1199.42 75.6532 1158.49 85.8013 1108.18C95.9495 1057.87 121.414 1000.67 161.479 938.218C202.977 873.598 258.396 806.167 326.189 737.629V737.629ZM321.888 737.16C41.3607 1020.34 -8.6257 1268.39 210.22 1291.13C429.066 1313.88 833.824 1102.81 1114.31 819.628C1394.8 536.443 1444.83 288.401 1225.98 265.868C1007.13 243.334 602.34 453.976 321.888 737.16Z" stroke="#7E30E1" stroke-opacity="0.1"/>
<path d="M341.053 672.327C490.295 539.432 656.916 433.523 834.956 358.387C919.385 323.33 998.835 299.476 1071.04 287.549C1145.81 275.196 1209.53 276.175 1260.42 290.488C1311.32 304.8 1346.36 331.594 1364.58 370.102C1382.13 407.331 1383.45 453.847 1368.17 508.371C1352.89 562.895 1322.14 622.787 1276.53 686.213C1229.34 751.898 1168.26 818.562 1095 884.46C1019.26 952.203 938.782 1012.89 854.347 1065.92C773.112 1117.49 688.422 1161.78 601.057 1198.4C516.59 1233.46 437.177 1257.31 364.933 1269.24C290.199 1281.59 226.48 1280.61 175.551 1266.3C124.621 1251.99 89.6494 1225.19 71.428 1186.68C53.8479 1149.46 52.5652 1102.94 67.8441 1048.42C83.1229 993.891 113.945 933.872 159.668 870.573C206.863 804.889 267.94 738.224 341.166 672.327H341.053ZM337.016 671.177C34.0797 943.797 -40.8056 1212.46 169.741 1271.79C380.287 1331.13 796.513 1158.15 1099.41 885.695C1402.31 613.245 1477.2 344.416 1266.69 285.078C1056.18 225.74 639.801 398.727 336.978 671.177H337.016Z" stroke="#7E30E1" stroke-opacity="0.1"/>
<path d="M362.443 601.83C442.507 538.477 527.337 483.173 615.958 436.553C699.76 391.9 786.861 355.611 876.265 328.102C962.128 302.032 1041.96 287.72 1113.48 285.505C1187.54 283.29 1249.29 294.024 1297.47 318.049C1345.65 342.073 1376.69 377.173 1390.35 422.965C1403.52 467.181 1399.78 519.234 1379.22 577.72C1358.66 636.205 1322.33 698.141 1271.25 761.866C1218.44 827.806 1151.89 892.724 1073.64 954.873C993.57 1018.21 908.741 1073.51 820.129 1120.15C736.325 1164.8 649.225 1201.08 559.823 1228.6C473.959 1254.67 394.132 1268.98 322.604 1271.2C248.511 1273.41 186.792 1262.47 138.617 1238.65C90.4414 1214.84 59.3933 1179.53 45.6989 1133.74C32.5327 1089.52 36.3052 1037.47 57.0165 978.983C77.7279 920.497 113.869 858.561 164.987 794.836C217.803 728.896 284.351 663.979 362.594 601.83H362.443ZM358.821 599.87C35.2489 856.858 -66.0819 1145.11 132.468 1243.72C331.017 1342.33 754.373 1213.91 1077.95 956.918C1401.52 699.93 1502.85 411.677 1304.3 313.065C1105.75 214.453 682.393 342.883 358.783 599.87H358.821Z" stroke="#7E30E1" stroke-opacity="0.1"/>
<path d="M390.699 526.475C474.426 468.714 562.855 420.131 654.778 381.39C740.516 344.666 829.246 317.557 919.687 300.456C1006 284.695 1085.19 281.074 1155.02 289.721C1227.3 298.922 1286.49 320.689 1330.67 354.554C1374.85 388.418 1401.56 432.762 1409.89 485.88C1418.04 536.996 1408.87 594.715 1382.69 656.779C1356.51 718.843 1314.79 782.27 1258.2 845.441C1199.76 910.785 1128.2 972.934 1045.5 1030.14C961.775 1087.9 873.345 1136.49 781.422 1175.23C695.676 1211.87 606.946 1238.91 516.514 1255.95C430.198 1271.71 351.012 1275.33 281.144 1266.68C208.711 1257.86 149.708 1236.31 105.494 1202.23C61.2794 1168.16 34.6452 1124.02 26.2701 1070.91C18.1591 1019.79 27.2887 962.071 53.5079 900.008C79.7272 837.944 121.603 774.517 178.002 711.346C236.477 646.002 308.042 583.853 390.737 526.645L390.699 526.475ZM386.964 523.877C44.9819 760.29 -84.1149 1065.92 98.7032 1206.75C281.521 1347.57 707.065 1269.66 1049.12 1033.08C1391.18 796.497 1520.28 490.864 1337.46 350.038C1154.64 209.213 729.323 287.123 387.077 523.706L386.964 523.877Z" stroke="#7E30E1" stroke-opacity="0.1"/>
<path d="M426.162 446.862C512.918 395.749 604.235 355.183 698.578 325.844C785.446 298.324 874.771 281.879 964.883 276.815C1050.56 272.555 1127.97 280.776 1195.01 301.265C1264.42 322.564 1319.5 355.832 1359.04 400.601C1398.58 445.371 1419.74 498.574 1422.3 559.36C1424.79 617.846 1409.78 680.548 1377.71 745.722C1345.65 810.895 1298.19 875.174 1236.58 936.854C1172.79 1000.75 1096.54 1058.94 1010.23 1109.93C923.472 1161.04 832.155 1201.6 737.812 1230.94C650.944 1258.46 561.619 1274.91 471.508 1279.97C385.833 1284.23 308.382 1276.01 241.382 1255.52C171.967 1234.22 116.888 1200.96 77.3889 1156.19C37.8903 1111.42 16.3113 1058 13.8968 997.427C11.4069 938.942 26.4217 876.239 58.4507 811.066C90.4797 745.892 138.014 681.613 199.62 619.933C263.414 556.038 339.619 497.85 426.162 446.862V446.862ZM422.917 443.156C65.0149 654.138 -93.0928 975.234 70.0702 1160.36C233.233 1345.49 655.382 1324.57 1013.21 1113.5C1371.04 902.436 1529.11 581.553 1366.13 396.427C1203.16 211.301 780.82 232.216 422.993 443.284L422.917 443.156Z" stroke="#7E30E1" stroke-opacity="0.1"/>
<path d="M469.017 363.499C558.049 320.198 651.337 289.038 746.904 270.681C834.143 253.422 922.984 248.883 1011.25 257.177C1095.04 265.697 1169.69 286.995 1232.62 320.008C1297.89 354.341 1348.06 400.175 1381.67 456.318C1414.97 511.024 1430.76 576.906 1426.45 643.106C1422.68 708.748 1401.44 776.349 1363.38 844.035C1325.31 911.722 1272.27 976.086 1205.76 1035.38C1136.95 1096.76 1056.59 1149.92 967.032 1193.42C877.999 1236.71 784.712 1267.87 689.146 1286.23C601.907 1303.49 513.066 1308.03 424.803 1299.74C340.977 1291.22 266.356 1269.92 203.43 1236.91C138.127 1202.57 87.9894 1156.74 54.3759 1100.6C21.0905 1045.89 5.32123 980.001 9.67115 913.809C13.4437 848.167 34.6832 780.523 72.8992 712.879C111.115 645.235 164.006 580.829 230.479 521.534C303.541 457.324 383.736 404.195 469.017 363.499V363.499ZM466.339 358.814C95.7608 538.828 -91.9615 872.49 47.0949 1104.26C186.151 1336.03 599.246 1377.9 969.862 1197.97C1340.48 1018.04 1528.2 684.382 1389.11 452.527C1250.01 220.672 836.917 178.969 466.339 358.814Z" stroke="#7E30E1" stroke-opacity="0.1"/>
<path d="M519.72 277.198C610.272 242.792 704.541 222.429 799.946 216.668C886.803 210.908 973.939 219.606 1058.55 242.481C1139.21 264.93 1209.46 299.987 1267.33 346.759C1327.24 395.149 1371.19 454.018 1397.97 521.662C1424.73 589.127 1433.02 664.081 1421.78 736.904C1411.18 809.532 1383.37 881.734 1339.12 951.252C1294.87 1020.77 1236.51 1084.45 1165.58 1140.25C1088.89 1199.86 1005.04 1246.78 916.593 1279.59C826.042 1314 731.772 1334.36 636.368 1340.12C549.498 1345.88 462.35 1337.18 377.721 1314.31C297.064 1291.86 226.819 1256.8 168.986 1210.03C108.965 1161.64 64.9766 1102.77 38.1914 1035.13C11.4345 967.66 3.15749 892.701 14.4243 819.883C25.0252 747.255 52.8289 675.053 97.0433 605.535C141.258 536.017 199.695 472.335 270.581 416.533C347.271 356.924 431.115 310.004 519.569 277.198H519.72ZM517.344 271.66C137.862 414.999 -80.1159 758.117 30.684 1037.98C141.484 1317.84 539.036 1428.51 918.668 1285.04C1298.3 1141.58 1516.32 798.585 1405.52 518.723C1294.72 238.861 897.165 128.194 517.495 271.66H517.344Z" stroke="#7E30E1" stroke-opacity="0.1"/>
<path d="M578.081 188.767C669.47 164.45 763.646 156.288 857.251 164.572C943.047 171.783 1027.19 195.031 1106.24 233.366C1182.33 270.851 1246.99 320.86 1298.34 381.944C1350.01 442.273 1387.33 516.373 1406.84 597.357C1425.75 677.181 1425.88 761.198 1407.21 841.097C1389.22 920.455 1354.4 996.576 1304.11 1067.37C1253.82 1138.17 1190.18 1200.06 1115.22 1251.31C1035.51 1305.33 948.739 1344.78 858.118 1368.19C766.73 1392.51 672.554 1400.67 578.949 1392.39C493.153 1385.17 409.012 1361.93 329.961 1323.59C253.868 1286.11 189.207 1236.1 137.862 1175.01C84.7822 1111.63 48.2262 1039.17 29.3257 959.431C10.4315 879.604 10.3015 795.593 28.9484 715.691C46.9812 636.333 81.7642 560.212 132.052 489.416C182.34 418.62 246.021 356.897 320.982 305.653C400.686 251.624 487.458 212.174 578.081 188.767V188.767ZM576.535 182.25C191.923 283.417 -56.4622 632.329 21.7051 961.603C99.8724 1290.88 475.053 1475.71 859.665 1374.54C1244.28 1273.37 1492.66 924.459 1414.49 595.014C1336.33 265.569 961.147 81.0818 576.535 182.25V182.25Z" stroke="#7E30E1" stroke-opacity="0.1"/>
<path d="M644.252 99.1858C735.751 86.1882 828.567 91.6692 918.366 115.373C1002.26 137.199 1081.9 176.179 1153.36 230.384C1221.53 281.784 1279.77 348.253 1324.56 425.777C1369.17 503.183 1397.53 591.071 1407.48 682.737C1417.43 774.402 1408.71 867.423 1381.98 954.703C1355.14 1042.17 1312.86 1122.59 1257.71 1191.07C1200.03 1263.25 1131.12 1322.88 1054.4 1367C888.809 1462.23 698.802 1488.58 517.721 1441.42C433.842 1419.59 354.211 1380.61 282.766 1326.4C214.593 1275 156.355 1208.53 111.567 1131.01C66.9402 1053.62 38.5587 965.732 28.5882 874.067C18.6177 782.401 27.3217 689.375 54.036 602.085C80.9398 514.594 123.293 434.18 178.53 365.715C236.206 293.536 305.113 233.909 381.833 189.79C463.897 142.258 552.791 111.58 644.365 99.1858H644.252ZM643.535 91.6888C258.735 145.02 -20.0569 495.763 21.0639 875.047C62.1847 1254.33 407.826 1518.47 792.778 1465.1C1177.73 1411.73 1456.37 1061.02 1415.25 681.742C1374.13 302.458 1028.37 38.3148 643.422 91.6888H643.535Z" stroke="#7E30E1" stroke-opacity="0.1"/>
<path d="M718.006 9.51939C875.103 9.63193 1027.34 71.0567 1148.92 183.389C1270.5 295.721 1353.96 452.053 1385.15 625.905C1416.34 799.756 1393.35 980.437 1320.07 1137.34C1246.8 1294.25 1127.74 1417.73 983.066 1486.87C816.927 1564.55 630.322 1564.9 463.954 1487.85C297.586 1410.79 164.955 1262.57 94.9921 1075.53C25.0289 888.484 23.4101 677.791 90.4888 489.405C157.568 301.019 287.901 150.228 453.06 69.9219C536.879 29.8752 626.992 9.33129 718.006 9.51939V9.51939ZM718.006 1C581.835 1 448.723 46.5934 335.501 132.015C222.279 217.436 134.034 338.848 81.9232 480.898C29.813 622.949 16.1785 779.257 42.7441 930.056C69.3097 1080.86 134.882 1219.37 231.169 1328.1C327.457 1436.82 450.134 1510.86 583.688 1540.85C717.242 1570.85 855.675 1555.45 981.48 1496.61C1107.29 1437.77 1214.81 1338.13 1290.47 1210.29C1366.12 1082.45 1406.5 932.148 1406.5 778.394C1406.5 676.305 1388.69 575.216 1354.09 480.898C1319.49 386.581 1268.78 300.881 1204.84 228.694C1140.91 156.506 1065.01 99.2433 981.48 60.1756C897.949 21.1079 808.42 1 718.006 1V1Z" stroke="#7E30E1" stroke-opacity="0.1"/>
</svg>
