<svg width="165" height="105" viewBox="0 0 165 105" fill="none" xmlns="http://www.w3.org/2000/svg">
<path d="M157 0H8C3.58172 0 0 3.58172 0 8V97C0 101.418 3.58172 105 8 105H157C161.418 105 165 101.418 165 97V8C165 3.58172 161.418 0 157 0Z" fill="#3D3F42"/>
<path d="M153.706 13.269H10.748C7.43434 13.269 4.74805 15.9553 4.74805 19.269V92.9318C4.74805 96.2455 7.43434 98.9318 10.748 98.9318H153.706C157.02 98.9318 159.706 96.2455 159.706 92.9318V19.269C159.706 15.9553 157.02 13.269 153.706 13.269Z" fill="#2E3033"/>
<path d="M0 4C0 1.79086 1.79086 0 4 0H161C163.209 0 165 1.79086 165 4V8H0V4Z" fill="#616366"/>
<path d="M5.17306 4.85469C5.88781 4.85469 6.46722 4.27642 6.46722 3.56308C6.46722 2.84975 5.88781 2.27148 5.17306 2.27148C4.45832 2.27148 3.87891 2.84975 3.87891 3.56308C3.87891 4.27642 4.45832 4.85469 5.17306 4.85469Z" fill="white"/>
<path d="M10.0793 4.85469C10.7941 4.85469 11.3735 4.27642 11.3735 3.56308C11.3735 2.84975 10.7941 2.27148 10.0793 2.27148C9.36457 2.27148 8.78516 2.84975 8.78516 3.56308C8.78516 4.27642 9.36457 4.85469 10.0793 4.85469Z" fill="white"/>
<path d="M14.9934 4.85469C15.7081 4.85469 16.2875 4.27642 16.2875 3.56308C16.2875 2.84975 15.7081 2.27148 14.9934 2.27148C14.2786 2.27148 13.6992 2.84975 13.6992 3.56308C13.6992 4.27642 14.2786 4.85469 14.9934 4.85469Z" fill="white"/>
<path d="M54.6471 22.1577H22.8301C20.6209 22.1577 18.8301 23.9486 18.8301 26.1577V86.044C18.8301 88.2532 20.6209 90.044 22.8301 90.044H54.6471C56.8562 90.044 58.6471 88.2532 58.6471 86.044V26.1577C58.6471 23.9486 56.8562 22.1577 54.6471 22.1577Z" fill="#3D3F42"/>
<path d="M94.7014 22.1577H69.5205C67.3114 22.1577 65.5205 23.9486 65.5205 26.1577V36.8442C65.5205 39.0533 67.3114 40.8442 69.5205 40.8442H94.7014C96.9105 40.8442 98.7014 39.0533 98.7014 36.8442V26.1577C98.7014 23.9486 96.9105 22.1577 94.7014 22.1577Z" fill="#616366"/>
<path d="M94.7014 46.0479H69.5205C67.3114 46.0479 65.5205 47.8387 65.5205 50.0478V62.1536C65.5205 64.3627 67.3114 66.1536 69.5205 66.1536H94.7014C96.9105 66.1536 98.7014 64.3627 98.7014 62.1536V50.0479C98.7014 47.8387 96.9105 46.0479 94.7014 46.0479Z" fill="#3D3F42"/>
<path d="M94.7014 71.3574H69.5205C67.3114 71.3574 65.5205 73.1483 65.5205 75.3574V86.0439C65.5205 88.253 67.3114 90.0439 69.5205 90.0439H94.7014C96.9105 90.0439 98.7014 88.253 98.7014 86.0439V75.3574C98.7014 73.1483 96.9105 71.3574 94.7014 71.3574Z" fill="#3D3F42"/>
<path d="M141.631 22.1577H109.814C107.605 22.1577 105.814 23.9486 105.814 26.1577V47.7422C105.814 49.9513 107.605 51.7422 109.814 51.7422H141.631C143.841 51.7422 145.631 49.9513 145.631 47.7422V26.1577C145.631 23.9486 143.841 22.1577 141.631 22.1577Z" fill="#3D3F42"/>
<path d="M106.805 27.4049C104.661 25.5992 102.038 24.4544 99.2533 24.1098C96.4691 23.7652 93.6446 24.2357 91.1235 25.464C88.6023 26.6923 86.4933 28.6255 85.0529 31.0283C83.6126 33.4311 82.903 36.1999 83.0107 38.9978C83.1183 41.7957 84.0384 44.5021 85.6591 46.7876C87.2798 49.0731 89.5312 50.8392 92.1393 51.871C94.7473 52.9028 97.5997 53.1558 100.349 52.5992C103.099 52.0426 105.627 50.7004 107.626 48.7359L125.378 63.6854C125.648 63.9133 125.998 64.0248 126.35 63.9954C126.703 63.9659 127.029 63.7979 127.258 63.5283C127.486 63.2588 127.598 62.9097 127.568 62.5579C127.539 62.2062 127.37 61.8805 127.1 61.6526L127.098 61.6509L109.346 46.7015C111.408 43.7476 112.291 40.1315 111.821 36.562C111.351 32.9925 109.562 29.7268 106.805 27.4049ZM105.661 45.2619C104.278 46.8977 102.44 48.0874 100.38 48.6806C98.3193 49.2739 96.1288 49.244 94.0854 48.5948C92.0419 47.9456 90.2372 46.7063 88.8995 45.0334C87.5619 43.3606 86.7512 41.3295 86.5702 39.1969C86.3892 37.0642 86.8459 34.9259 87.8825 33.0524C88.9191 31.1788 90.4892 29.6541 92.3941 28.671C94.299 27.688 96.4532 27.2908 98.5843 27.5296C100.715 27.7685 102.728 28.6327 104.367 30.0129C105.455 30.9293 106.352 32.0507 107.006 33.313C107.66 34.5753 108.058 35.9538 108.178 37.3698C108.298 38.7858 108.138 40.2116 107.706 41.5657C107.274 42.9199 106.579 44.1758 105.661 45.2619Z" fill="white"/>
<path opacity="0.3" d="M90.3809 46.5537C88.3008 44.8019 86.9569 42.3334 86.6161 39.6384C86.2752 36.9435 86.9623 34.2191 88.541 32.0063C88.3336 32.2147 88.1332 32.4329 87.9397 32.661C87.0214 33.7471 86.3265 35.0031 85.8946 36.3572C85.4627 37.7113 85.3023 39.1371 85.4225 40.5531C85.5427 41.9691 85.9412 43.3476 86.5952 44.6099C87.2492 45.8722 88.1459 46.9936 89.2341 47.9101C90.3224 48.8265 91.5808 49.52 92.9376 49.9511C94.2944 50.3821 95.723 50.5423 97.1418 50.4223C98.5607 50.3023 99.9419 49.9046 101.207 49.2519C102.472 48.5992 103.595 47.7043 104.513 46.6182C104.706 46.3898 104.888 46.1559 105.059 45.9165C103.139 47.8418 100.564 48.9761 97.8445 49.0942C95.1253 49.2122 92.4611 48.3054 90.3809 46.5537Z" fill="#3D3F42"/>
</svg>
