<svg width="129" height="22" viewBox="0 0 129 22" fill="none" xmlns="http://www.w3.org/2000/svg">
<path d="M12.3 0L14.8931 7.60081H23.2847L16.4958 12.2984L19.0889 19.8992L12.3 15.2016L5.51108 19.8992L8.10422 12.2984L1.3153 7.60081H9.70686L12.3 0Z" fill="gold"/>
<path d="M39.5998 0L42.1929 7.60081H50.5845L43.7956 12.2984L46.3887 19.8992L39.5998 15.2016L32.8109 19.8992L35.404 12.2984L28.6151 7.60081H37.0067L39.5998 0Z" fill="gold"/>
<path d="M91.05 0L93.6431 7.60081H102.035L95.2458 12.2984L97.8389 19.8992L91.05 15.2016L84.2611 19.8992L86.8542 12.2984L80.0653 7.60081H88.4569L91.05 0Z" fill="gold"/>
<path d="M64.8 0L67.3931 7.60081H75.7847L68.9958 12.2984L71.5889 19.8992L64.8 15.2016L58.0111 19.8992L60.6042 12.2984L53.8153 7.60081H62.2069L64.8 0Z" fill="gold"/>
<path d="M117.3 0L119.893 7.60081H128.285L121.496 12.2984L124.089 19.8992L117.3 15.2016L110.511 19.8992L113.104 12.2984L106.315 7.60081H114.707L117.3 0Z" fill="gold"/>
</svg>
