<svg width="260" height="232" viewBox="0 0 260 232" fill="none" xmlns="http://www.w3.org/2000/svg">
<path d="M20.4355 50.7345C23.5269 49.7298 25.2184 46.4091 24.2135 43.3175C23.2088 40.2262 19.888 38.5345 16.7966 39.5394C13.7051 40.544 12.0136 43.8647 13.0183 46.9563C14.0232 50.0479 17.3438 51.7394 20.4355 50.7345Z" fill="#EAEEF9"/>
<path d="M29.6407 31.2065C31.7017 30.5365 32.8296 28.3228 32.1596 26.2618C31.4898 24.2008 29.276 23.0732 27.215 23.743C25.1541 24.413 24.0262 26.6267 24.6962 28.6877C25.3659 30.7487 27.58 31.8763 29.6407 31.2065Z" fill="#EAEEF9"/>
<path d="M257.126 64.4121C260.727 61.1219 260.978 55.5362 257.687 51.9359C254.399 48.3354 248.812 48.0839 245.212 51.3742C241.611 54.6644 241.36 60.2501 244.651 63.8504C247.939 67.4509 253.526 67.7024 257.126 64.4121Z" fill="#EAEEF9"/>
<path d="M258.722 30.3722C260.324 28.9098 260.434 26.4272 258.974 24.8271C257.51 23.227 255.026 23.115 253.427 24.5774C251.828 26.0397 251.715 28.5223 253.178 30.1224C254.639 31.7225 257.123 31.8345 258.722 30.3722Z" fill="#EAEEF9"/>
<path d="M130.477 231.572C191.172 231.572 240.375 182.369 240.375 121.674C240.375 60.9783 191.172 11.7749 130.477 11.7749C69.7812 11.7749 20.5781 60.9783 20.5781 121.674C20.5781 182.369 69.7812 231.572 130.477 231.572Z" fill="white" fill-opacity="0.1"/>
<g filter="url(#filter0_bd_260_3786)">
<path d="M26.8271 66.0387V80.4937V195.681C26.8271 200.875 31.0937 205.167 36.2584 205.167H221.966C227.131 205.167 231.398 200.875 231.398 195.681V80.4937V66.4905C231.398 60.8441 226.906 56.5527 221.517 56.5527H36.2584L26.8271 66.0387Z" fill="white" fill-opacity="0.1" shape-rendering="crispEdges"/>
</g>
<path d="M170.542 75.9764H26.8271V66.0387C26.8271 60.8441 31.0937 56.5527 36.2584 56.5527H221.966C227.131 56.5527 231.398 60.8441 231.398 66.0387V75.9764H199.735H170.542Z" fill="url(#paint0_linear_260_3786)"/>
<path d="M38.9533 69.8787C40.6897 69.8787 42.0971 68.4632 42.0971 66.7167C42.0971 64.9705 40.6897 63.5547 38.9533 63.5547C37.2172 63.5547 35.8096 64.9705 35.8096 66.7167C35.8096 68.4632 37.2172 69.8787 38.9533 69.8787Z" fill="white"/>
<path d="M47.9358 69.8787C49.6718 69.8787 51.0795 68.4632 51.0795 66.7167C51.0795 64.9705 49.6718 63.5547 47.9358 63.5547C46.1994 63.5547 44.792 64.9705 44.792 66.7167C44.792 68.4632 46.1994 69.8787 47.9358 69.8787Z" fill="white"/>
<path d="M57.1428 69.8787C58.8791 69.8787 60.2865 68.4632 60.2865 66.7167C60.2865 64.9705 58.8791 63.5547 57.1428 63.5547C55.4064 63.5547 53.999 64.9705 53.999 66.7167C53.999 68.4632 55.4064 69.8787 57.1428 69.8787Z" fill="white"/>
<path d="M199.163 7.8499C201.331 7.8499 203.088 6.09274 203.088 3.92495C203.088 1.75738 201.331 0 199.163 0C196.996 0 195.238 1.75738 195.238 3.92495C195.238 6.09274 196.996 7.8499 199.163 7.8499Z" fill="url(#paint1_linear_260_3786)"/>
<path d="M8.92491 171.068C11.0927 171.068 12.8499 169.31 12.8499 167.143C12.8499 164.975 11.0927 163.218 8.92491 163.218C6.75738 163.218 5 164.975 5 167.143C5 169.31 6.75738 171.068 8.92491 171.068Z" fill="url(#paint2_linear_260_3786)"/>
<path fill-rule="evenodd" clip-rule="evenodd" d="M46.2822 89.4792C45.855 89.4792 45.4496 89.564 45.0805 89.7171C44.68 89.8832 44.2207 89.6932 44.0547 89.2927C43.8886 88.8922 44.0786 88.4329 44.4791 88.2669C45.0355 88.0361 45.645 87.9092 46.2822 87.9092H48.2503C48.6838 87.9092 49.0353 88.2606 49.0353 88.6942C49.0353 89.1277 48.6838 89.4792 48.2503 89.4792H46.2822ZM51.4015 88.6942C51.4015 88.2606 51.7529 87.9092 52.1865 87.9092H56.1226C56.5562 87.9092 56.9076 88.2606 56.9076 88.6942C56.9076 89.1277 56.5562 89.4792 56.1226 89.4792H52.1865C51.7529 89.4792 51.4015 89.1277 51.4015 88.6942ZM59.2738 88.6942C59.2738 88.2606 59.6252 87.9092 60.0588 87.9092H63.995C64.4285 87.9092 64.7799 88.2606 64.7799 88.6942C64.7799 89.1277 64.4285 89.4792 63.995 89.4792H60.0588C59.6252 89.4792 59.2738 89.1277 59.2738 88.6942ZM67.1461 88.6942C67.1461 88.2606 67.4976 87.9092 67.9311 87.9092H71.8673C72.3008 87.9092 72.6523 88.2606 72.6523 88.6942C72.6523 89.1277 72.3008 89.4792 71.8673 89.4792H67.9311C67.4976 89.4792 67.1461 89.1277 67.1461 88.6942ZM75.0185 88.6942C75.0185 88.2606 75.3699 87.9092 75.8034 87.9092H79.7396C80.1732 87.9092 80.5246 88.2606 80.5246 88.6942C80.5246 89.1277 80.1732 89.4792 79.7396 89.4792H75.8034C75.3699 89.4792 75.0185 89.1277 75.0185 88.6942ZM82.8908 88.6942C82.8908 88.2606 83.2422 87.9092 83.6758 87.9092H87.6119C88.0455 87.9092 88.3969 88.2606 88.3969 88.6942C88.3969 89.1277 88.0455 89.4792 87.6119 89.4792H83.6758C83.2422 89.4792 82.8908 89.1277 82.8908 88.6942ZM90.7631 88.6942C90.7631 88.2606 91.1146 87.9092 91.5481 87.9092H95.4843C95.9178 87.9092 96.2693 88.2606 96.2693 88.6942C96.2693 89.1277 95.9178 89.4792 95.4843 89.4792H91.5481C91.1146 89.4792 90.7631 89.1277 90.7631 88.6942ZM98.6355 88.6942C98.6355 88.2606 98.9869 87.9092 99.4204 87.9092H103.357C103.79 87.9092 104.142 88.2606 104.142 88.6942C104.142 89.1277 103.79 89.4792 103.357 89.4792H99.4204C98.9869 89.4792 98.6355 89.1277 98.6355 88.6942ZM106.508 88.6942C106.508 88.2606 106.859 87.9092 107.293 87.9092H111.229C111.662 87.9092 112.014 88.2606 112.014 88.6942C112.014 89.1277 111.662 89.4792 111.229 89.4792H107.293C106.859 89.4792 106.508 89.1277 106.508 88.6942ZM114.38 88.6942C114.38 88.2606 114.732 87.9092 115.165 87.9092H119.101C119.535 87.9092 119.886 88.2606 119.886 88.6942C119.886 89.1277 119.535 89.4792 119.101 89.4792H115.165C114.732 89.4792 114.38 89.1277 114.38 88.6942ZM122.252 88.6942C122.252 88.2606 122.604 87.9092 123.037 87.9092H126.974C127.407 87.9092 127.759 88.2606 127.759 88.6942C127.759 89.1277 127.407 89.4792 126.974 89.4792H123.037C122.604 89.4792 122.252 89.1277 122.252 88.6942ZM130.125 88.6942C130.125 88.2606 130.476 87.9092 130.91 87.9092H134.846C135.279 87.9092 135.631 88.2606 135.631 88.6942C135.631 89.1277 135.279 89.4792 134.846 89.4792H130.91C130.476 89.4792 130.125 89.1277 130.125 88.6942ZM137.997 88.6942C137.997 88.2606 138.349 87.9092 138.782 87.9092H142.718C143.152 87.9092 143.503 88.2606 143.503 88.6942C143.503 89.1277 143.152 89.4792 142.718 89.4792H138.782C138.349 89.4792 137.997 89.1277 137.997 88.6942ZM145.869 88.6942C145.869 88.2606 146.221 87.9092 146.654 87.9092H150.591C151.024 87.9092 151.376 88.2606 151.376 88.6942C151.376 89.1277 151.024 89.4792 150.591 89.4792H146.654C146.221 89.4792 145.869 89.1277 145.869 88.6942ZM153.742 88.6942C153.742 88.2606 154.093 87.9092 154.527 87.9092H158.463C158.896 87.9092 159.248 88.2606 159.248 88.6942C159.248 89.1277 158.896 89.4792 158.463 89.4792H154.527C154.093 89.4792 153.742 89.1277 153.742 88.6942ZM161.614 88.6942C161.614 88.2606 161.966 87.9092 162.399 87.9092H166.335C166.769 87.9092 167.12 88.2606 167.12 88.6942C167.12 89.1277 166.769 89.4792 166.335 89.4792H162.399C161.966 89.4792 161.614 89.1277 161.614 88.6942ZM169.486 88.6942C169.486 88.2606 169.838 87.9092 170.271 87.9092H174.208C174.641 87.9092 174.993 88.2606 174.993 88.6942C174.993 89.1277 174.641 89.4792 174.208 89.4792H170.271C169.838 89.4792 169.486 89.1277 169.486 88.6942ZM177.359 88.6942C177.359 88.2606 177.71 87.9092 178.144 87.9092H182.08C182.513 87.9092 182.865 88.2606 182.865 88.6942C182.865 89.1277 182.513 89.4792 182.08 89.4792H178.144C177.71 89.4792 177.359 89.1277 177.359 88.6942ZM185.231 88.6942C185.231 88.2606 185.583 87.9092 186.016 87.9092H189.952C190.386 87.9092 190.737 88.2606 190.737 88.6942C190.737 89.1277 190.386 89.4792 189.952 89.4792H186.016C185.583 89.4792 185.231 89.1277 185.231 88.6942ZM193.103 88.6942C193.103 88.2606 193.455 87.9092 193.888 87.9092H197.825C198.258 87.9092 198.61 88.2606 198.61 88.6942C198.61 89.1277 198.258 89.4792 197.825 89.4792H193.888C193.455 89.4792 193.103 89.1277 193.103 88.6942ZM200.976 88.6942C200.976 88.2606 201.327 87.9092 201.761 87.9092H205.697C206.13 87.9092 206.482 88.2606 206.482 88.6942C206.482 89.1277 206.13 89.4792 205.697 89.4792H201.761C201.327 89.4792 200.976 89.1277 200.976 88.6942ZM208.848 88.6942C208.848 88.2606 209.2 87.9092 209.633 87.9092H211.601C212.238 87.9092 212.848 88.0361 213.404 88.2669C213.805 88.433 213.995 88.8922 213.829 89.2927C213.663 89.6932 213.203 89.8832 212.803 89.7171C212.434 89.564 212.028 89.4792 211.601 89.4792H209.633C209.2 89.4792 208.848 89.1277 208.848 88.6942ZM42.9558 90.3916C43.3562 90.5576 43.5463 91.0169 43.3802 91.4174C43.2271 91.7865 43.1422 92.1919 43.1422 92.6191V94.4389C43.1422 94.8725 42.7908 95.2239 42.3573 95.2239C41.9237 95.2239 41.5723 94.8725 41.5723 94.4389V92.6191C41.5723 91.9819 41.6992 91.3724 41.93 90.816C42.096 90.4155 42.5553 90.2255 42.9558 90.3916ZM214.928 90.3916C215.328 90.2255 215.787 90.4155 215.953 90.816C216.184 91.3724 216.311 91.9819 216.311 92.6191V94.4389C216.311 94.8725 215.96 95.2239 215.526 95.2239C215.093 95.2239 214.741 94.8725 214.741 94.4389V92.6191C214.741 92.1919 214.656 91.7865 214.503 91.4174C214.337 91.0169 214.527 90.5577 214.928 90.3916ZM215.526 97.2935C215.96 97.2935 216.311 97.645 216.311 98.0785V101.718C216.311 102.152 215.96 102.503 215.526 102.503C215.093 102.503 214.741 102.152 214.741 101.718V98.0785C214.741 97.645 215.093 97.2935 215.526 97.2935ZM42.3573 97.2935C42.7908 97.2935 43.1422 97.645 43.1422 98.0785V101.718C43.1422 102.152 42.7908 102.503 42.3573 102.503C41.9237 102.503 41.5723 102.152 41.5723 101.718V98.0785C41.5723 97.645 41.9237 97.2935 42.3573 97.2935ZM42.3573 104.573C42.7908 104.573 43.1422 104.924 43.1422 105.358V108.997C43.1422 109.431 42.7908 109.782 42.3573 109.782C41.9237 109.782 41.5723 109.431 41.5723 108.997V105.358C41.5723 104.924 41.9237 104.573 42.3573 104.573ZM215.526 104.573C215.96 104.573 216.311 104.924 216.311 105.358V108.997C216.311 109.431 215.96 109.782 215.526 109.782C215.093 109.782 214.741 109.431 214.741 108.997V105.358C214.741 104.924 215.093 104.573 215.526 104.573ZM42.3573 111.852C42.7908 111.852 43.1422 112.203 43.1422 112.637V116.276C43.1422 116.71 42.7908 117.061 42.3573 117.061C41.9237 117.061 41.5723 116.71 41.5723 116.276V112.637C41.5723 112.203 41.9237 111.852 42.3573 111.852ZM215.526 111.852C215.96 111.852 216.311 112.203 216.311 112.637V116.276C216.311 116.71 215.96 117.061 215.526 117.061C215.093 117.061 214.741 116.71 214.741 116.276V112.637C214.741 112.203 215.093 111.852 215.526 111.852ZM215.526 119.131C215.96 119.131 216.311 119.482 216.311 119.916V123.556C216.311 123.989 215.96 124.341 215.526 124.341C215.093 124.341 214.741 123.989 214.741 123.556V119.916C214.741 119.482 215.093 119.131 215.526 119.131ZM42.3573 119.131C42.7908 119.131 43.1422 119.482 43.1422 119.916V123.556C43.1422 123.989 42.7908 124.341 42.3573 124.341C41.9237 124.341 41.5723 123.989 41.5723 123.556V119.916C41.5723 119.482 41.9237 119.131 42.3573 119.131ZM42.3573 126.41C42.7908 126.41 43.1422 126.762 43.1422 127.195V129.015C43.1422 129.442 43.2271 129.848 43.3802 130.217C43.5463 130.617 43.3562 131.076 42.9558 131.243C42.5553 131.409 42.096 131.219 41.93 130.818C41.6992 130.262 41.5723 129.652 41.5723 129.015V127.195C41.5723 126.762 41.9237 126.41 42.3573 126.41ZM215.526 126.41C215.96 126.41 216.311 126.762 216.311 127.195V129.015C216.311 129.652 216.184 130.262 215.953 130.818C215.787 131.219 215.328 131.409 214.928 131.243C214.527 131.076 214.337 130.617 214.503 130.217C214.656 129.848 214.741 129.442 214.741 129.015V127.195C214.741 126.762 215.093 126.41 215.526 126.41ZM44.0547 132.341C44.2207 131.941 44.68 131.751 45.0805 131.917C45.4496 132.07 45.855 132.155 46.2822 132.155H48.2503C48.6838 132.155 49.0353 132.506 49.0353 132.94C49.0353 133.373 48.6838 133.725 48.2503 133.725H46.2822C45.645 133.725 45.0355 133.598 44.4791 133.367C44.0786 133.201 43.8886 132.742 44.0547 132.341ZM213.829 132.341C213.995 132.742 213.805 133.201 213.404 133.367C212.848 133.598 212.238 133.725 211.601 133.725H209.633C209.2 133.725 208.848 133.373 208.848 132.94C208.848 132.506 209.2 132.155 209.633 132.155H211.601C212.028 132.155 212.434 132.07 212.803 131.917C213.203 131.751 213.663 131.941 213.829 132.341ZM51.4015 132.94C51.4015 132.506 51.7529 132.155 52.1864 132.155H56.1226C56.5561 132.155 56.9076 132.506 56.9076 132.94C56.9076 133.373 56.5561 133.725 56.1226 133.725H52.1864C51.7529 133.725 51.4015 133.373 51.4015 132.94ZM59.2738 132.94C59.2738 132.506 59.6252 132.155 60.0588 132.155H63.9949C64.4285 132.155 64.7799 132.506 64.7799 132.94C64.7799 133.373 64.4285 133.725 63.9949 133.725H60.0588C59.6252 133.725 59.2738 133.373 59.2738 132.94ZM67.1461 132.94C67.1461 132.506 67.4976 132.155 67.9311 132.155H71.8673C72.3008 132.155 72.6523 132.506 72.6523 132.94C72.6523 133.373 72.3008 133.725 71.8673 133.725H67.9311C67.4976 133.725 67.1461 133.373 67.1461 132.94ZM75.0184 132.94C75.0184 132.506 75.3699 132.155 75.8034 132.155H79.7396C80.1731 132.155 80.5246 132.506 80.5246 132.94C80.5246 133.373 80.1731 133.725 79.7396 133.725H75.8034C75.3699 133.725 75.0184 133.373 75.0184 132.94ZM82.8908 132.94C82.8908 132.506 83.2422 132.155 83.6758 132.155H87.6119C88.0455 132.155 88.3969 132.506 88.3969 132.94C88.3969 133.373 88.0455 133.725 87.6119 133.725H83.6758C83.2422 133.725 82.8908 133.373 82.8908 132.94ZM90.7631 132.94C90.7631 132.506 91.1146 132.155 91.5481 132.155H95.4843C95.9178 132.155 96.2693 132.506 96.2693 132.94C96.2693 133.373 95.9178 133.725 95.4843 133.725H91.5481C91.1146 133.725 90.7631 133.373 90.7631 132.94ZM98.6354 132.94C98.6354 132.506 98.9869 132.155 99.4204 132.155H103.357C103.79 132.155 104.142 132.506 104.142 132.94C104.142 133.373 103.79 133.725 103.357 133.725H99.4204C98.9869 133.725 98.6354 133.373 98.6354 132.94ZM106.508 132.94C106.508 132.506 106.859 132.155 107.293 132.155H111.229C111.662 132.155 112.014 132.506 112.014 132.94C112.014 133.373 111.662 133.725 111.229 133.725H107.293C106.859 133.725 106.508 133.373 106.508 132.94ZM114.38 132.94C114.38 132.506 114.732 132.155 115.165 132.155H119.101C119.535 132.155 119.886 132.506 119.886 132.94C119.886 133.373 119.535 133.725 119.101 133.725H115.165C114.732 133.725 114.38 133.373 114.38 132.94ZM122.252 132.94C122.252 132.506 122.604 132.155 123.037 132.155H126.974C127.407 132.155 127.759 132.506 127.759 132.94C127.759 133.373 127.407 133.725 126.974 133.725H123.037C122.604 133.725 122.252 133.373 122.252 132.94ZM130.125 132.94C130.125 132.506 130.476 132.155 130.91 132.155H134.846C135.279 132.155 135.631 132.506 135.631 132.94C135.631 133.373 135.279 133.725 134.846 133.725H130.91C130.476 133.725 130.125 133.373 130.125 132.94ZM137.997 132.94C137.997 132.506 138.349 132.155 138.782 132.155H142.718C143.152 132.155 143.503 132.506 143.503 132.94C143.503 133.373 143.152 133.725 142.718 133.725H138.782C138.349 133.725 137.997 133.373 137.997 132.94ZM145.869 132.94C145.869 132.506 146.221 132.155 146.654 132.155H150.591C151.024 132.155 151.376 132.506 151.376 132.94C151.376 133.373 151.024 133.725 150.591 133.725H146.654C146.221 133.725 145.869 133.373 145.869 132.94ZM153.742 132.94C153.742 132.506 154.093 132.155 154.527 132.155H158.463C158.896 132.155 159.248 132.506 159.248 132.94C159.248 133.373 158.896 133.725 158.463 133.725H154.527C154.093 133.725 153.742 133.373 153.742 132.94ZM161.614 132.94C161.614 132.506 161.966 132.155 162.399 132.155H166.335C166.769 132.155 167.12 132.506 167.12 132.94C167.12 133.373 166.769 133.725 166.335 133.725H162.399C161.966 133.725 161.614 133.373 161.614 132.94ZM169.486 132.94C169.486 132.506 169.838 132.155 170.271 132.155H174.208C174.641 132.155 174.993 132.506 174.993 132.94C174.993 133.373 174.641 133.725 174.208 133.725H170.271C169.838 133.725 169.486 133.373 169.486 132.94ZM177.359 132.94C177.359 132.506 177.71 132.155 178.144 132.155H182.08C182.513 132.155 182.865 132.506 182.865 132.94C182.865 133.373 182.513 133.725 182.08 133.725H178.144C177.71 133.725 177.359 133.373 177.359 132.94ZM185.231 132.94C185.231 132.506 185.583 132.155 186.016 132.155H189.952C190.386 132.155 190.737 132.506 190.737 132.94C190.737 133.373 190.386 133.725 189.952 133.725H186.016C185.583 133.725 185.231 133.373 185.231 132.94ZM193.103 132.94C193.103 132.506 193.455 132.155 193.888 132.155H197.825C198.258 132.155 198.61 132.506 198.61 132.94C198.61 133.373 198.258 133.725 197.825 133.725H193.888C193.455 133.725 193.103 133.373 193.103 132.94ZM200.976 132.94C200.976 132.506 201.327 132.155 201.761 132.155H205.697C206.13 132.155 206.482 132.506 206.482 132.94C206.482 133.373 206.13 133.725 205.697 133.725H201.761C201.327 133.725 200.976 133.373 200.976 132.94Z" fill="#D1DCE5"/>
<path d="M42.0977 149.582C42.0977 147.414 43.8549 145.657 46.0226 145.657H211.342C213.509 145.657 215.266 147.414 215.266 149.582V185.978C215.266 188.145 213.509 189.903 211.342 189.903H46.0226C43.8549 189.903 42.0977 188.145 42.0977 185.978V149.582Z" fill="#E3EAF2" fill-opacity="0.25"/>
<g filter="url(#filter1_d_260_3786)">
<path d="M83.519 153.052H12.2509C10.1207 153.052 8.57129 151.311 8.57129 149.376V104.681C8.57129 102.553 10.3144 101.005 12.2509 101.005H83.519C85.6503 101.005 87.1987 102.746 87.1987 104.681V149.376C87.1987 151.504 85.456 153.052 83.519 153.052Z" fill="url(#paint3_linear_260_3786)"/>
</g>
<path d="M47.8855 124.803C52.2706 124.803 55.8267 121.252 55.8267 116.87C55.8267 112.489 52.2706 108.938 47.8855 108.938C43.5003 108.938 39.9453 112.489 39.9453 116.87C39.9453 121.252 43.5003 124.803 47.8855 124.803Z" fill="white"/>
<path d="M72.8692 134.09H23.0969C22.3221 134.09 21.7412 133.51 21.7412 132.736C21.7412 131.962 22.3221 131.381 23.0969 131.381H72.6749C73.4501 131.381 74.031 131.962 74.031 132.736C74.2253 133.51 73.6444 134.09 72.8692 134.09Z" fill="white"/>
<path d="M72.8692 144.538H23.0969C22.3221 144.538 21.7412 143.958 21.7412 143.184C21.7412 142.41 22.3221 141.83 23.0969 141.83H72.6749C73.4501 141.83 74.031 142.41 74.031 143.184C74.2253 143.958 73.6444 144.538 72.8692 144.538Z" fill="white"/>
<defs>
<filter id="filter0_bd_260_3786" x="-23.1729" y="6.55273" width="304.571" height="248.614" filterUnits="userSpaceOnUse" color-interpolation-filters="sRGB">
<feFlood flood-opacity="0" result="BackgroundImageFix"/>
<feGaussianBlur in="BackgroundImageFix" stdDeviation="25"/>
<feComposite in2="SourceAlpha" operator="in" result="effect1_backgroundBlur_260_3786"/>
<feColorMatrix in="SourceAlpha" type="matrix" values="0 0 0 0 0 0 0 0 0 0 0 0 0 0 0 0 0 0 127 0" result="hardAlpha"/>
<feOffset dx="2" dy="4"/>
<feGaussianBlur stdDeviation="2"/>
<feComposite in2="hardAlpha" operator="out"/>
<feColorMatrix type="matrix" values="0 0 0 0 0.0666667 0 0 0 0 0.0941176 0 0 0 0 0.152941 0 0 0 0.08 0"/>
<feBlend mode="normal" in2="effect1_backgroundBlur_260_3786" result="effect2_dropShadow_260_3786"/>
<feBlend mode="normal" in="SourceGraphic" in2="effect2_dropShadow_260_3786" result="shape"/>
</filter>
<filter id="filter1_d_260_3786" x="0.571289" y="98.0049" width="94.627" height="68.0469" filterUnits="userSpaceOnUse" color-interpolation-filters="sRGB">
<feFlood flood-opacity="0" result="BackgroundImageFix"/>
<feColorMatrix in="SourceAlpha" type="matrix" values="0 0 0 0 0 0 0 0 0 0 0 0 0 0 0 0 0 0 127 0" result="hardAlpha"/>
<feOffset dy="5"/>
<feGaussianBlur stdDeviation="4"/>
<feColorMatrix type="matrix" values="0 0 0 0 0.1125 0 0 0 0 0.295916 0 0 0 0 1 0 0 0 0.22 0"/>
<feBlend mode="normal" in2="BackgroundImageFix" result="effect1_dropShadow_260_3786"/>
<feBlend mode="normal" in="SourceGraphic" in2="effect1_dropShadow_260_3786" result="shape"/>
</filter>
<linearGradient id="paint0_linear_260_3786" x1="117.038" y1="57.5512" x2="119.038" y2="78.0986" gradientUnits="userSpaceOnUse">
<stop stop-color="#7E30E1"/>
<stop offset="1" stop-color="#49108B"/>
</linearGradient>
<linearGradient id="paint1_linear_260_3786" x1="198.7" y1="0.403514" x2="202.89" y2="4.48945" gradientUnits="userSpaceOnUse">
<stop stop-color="#7E30E1"/>
<stop offset="1" stop-color="#49108B"/>
</linearGradient>
<linearGradient id="paint2_linear_260_3786" x1="8.4616" y1="163.621" x2="12.6517" y2="167.707" gradientUnits="userSpaceOnUse">
<stop stop-color="#7E30E1"/>
<stop offset="1" stop-color="#49108B"/>
</linearGradient>
<linearGradient id="paint3_linear_260_3786" x1="43.2439" y1="103.68" x2="69.0713" y2="141.728" gradientUnits="userSpaceOnUse">
<stop stop-color="#7E30E1"/>
<stop offset="1" stop-color="#49108B"/>
</linearGradient>
</defs>
</svg>
