<svg width="256" height="233" viewBox="0 0 256 233" fill="none" xmlns="http://www.w3.org/2000/svg">
<path d="M15.4647 51.6961C18.5619 50.6895 20.2566 47.3626 19.2498 44.2652C18.2433 41.168 14.9162 39.4731 11.8189 40.4799C8.72161 41.4864 7.02694 44.8134 8.03348 47.9108C9.04028 51.0082 12.3671 52.7029 15.4647 51.6961Z" fill="#EAEEF9"/>
<path d="M24.6875 32.1311C26.7524 31.4599 27.8824 29.242 27.2111 27.1771C26.5401 25.1122 24.3222 23.9825 22.2573 24.6535C20.1924 25.3248 19.0624 27.5427 19.7337 29.6076C20.4047 31.6725 22.6229 32.8022 24.6875 32.1311Z" fill="#EAEEF9"/>
<path d="M252.603 65.3991C256.21 62.1027 256.462 56.5064 253.164 52.8994C249.87 49.292 244.272 49.0401 240.665 52.3365C237.058 55.633 236.806 61.2292 240.103 64.8363C243.398 68.4437 248.995 68.6956 252.603 65.3991Z" fill="#EAEEF9"/>
<path d="M254.201 31.2952C255.806 29.8301 255.917 27.3428 254.453 25.7396C252.987 24.1365 250.498 24.0244 248.896 25.4894C247.295 26.9545 247.181 29.4419 248.647 31.045C250.11 32.6481 252.599 32.7603 254.201 31.2952Z" fill="#EAEEF9"/>
<path d="M125.713 232.875C186.523 232.875 235.82 183.579 235.82 122.769C235.82 61.9589 186.523 12.6626 125.713 12.6626C64.9034 12.6626 15.6074 61.9589 15.6074 122.769C15.6074 183.579 64.9034 232.875 125.713 232.875Z" fill="white" fill-opacity="0.1"/>
<g filter="url(#filter0_bd_260_3727)">
<path d="M21.8691 67.0293V81.5115V196.916C21.8691 202.121 26.1437 206.42 31.3182 206.42H217.376C222.551 206.42 226.826 202.121 226.826 196.916V81.5115V67.4819C226.826 61.8249 222.326 57.5254 216.926 57.5254H31.3182L21.8691 67.0293Z" fill="white" fill-opacity="0.1" shape-rendering="crispEdges"/>
</g>
<path d="M165.856 76.9858H21.8691V67.0293C21.8691 61.8249 26.1437 57.5254 31.3182 57.5254H217.376C222.551 57.5254 226.826 61.8249 226.826 67.0293V76.9858H195.103H165.856Z" fill="url(#paint0_linear_260_3727)"/>
<path d="M34.0179 70.8765C35.7575 70.8765 37.1676 69.4583 37.1676 67.7085C37.1676 65.959 35.7575 64.5405 34.0179 64.5405C32.2785 64.5405 30.8682 65.959 30.8682 67.7085C30.8682 69.4583 32.2785 70.8765 34.0179 70.8765Z" fill="white"/>
<path d="M43.0169 70.8765C44.7563 70.8765 46.1666 69.4583 46.1666 67.7085C46.1666 65.959 44.7563 64.5405 43.0169 64.5405C41.2773 64.5405 39.8672 65.959 39.8672 67.7085C39.8672 69.4583 41.2773 70.8765 43.0169 70.8765Z" fill="white"/>
<path d="M52.2415 70.8765C53.9811 70.8765 55.3912 69.4583 55.3912 67.7085C55.3912 65.959 53.9811 64.5405 52.2415 64.5405C50.5019 64.5405 49.0918 65.959 49.0918 67.7085C49.0918 69.4583 50.5019 70.8765 52.2415 70.8765Z" fill="white"/>
<path d="M194.53 8.73045C196.702 8.73045 198.462 6.96997 198.462 4.79808C198.462 2.62642 196.702 0.865723 194.53 0.865723C192.358 0.865723 190.598 2.62642 190.598 4.79808C190.598 6.96997 192.358 8.73045 194.53 8.73045Z" fill="url(#paint1_linear_260_3727)"/>
<path d="M3.93232 172.256C6.10416 172.256 7.86472 170.495 7.86472 168.324C7.86472 166.152 6.10416 164.391 3.93232 164.391C1.7607 164.391 0 166.152 0 168.324C0 170.495 1.7607 172.256 3.93232 172.256Z" fill="url(#paint2_linear_260_3727)"/>
<path d="M166.089 151.784C161.551 174.018 139.548 188.538 117.316 183.773C95.0843 179.236 80.5657 157.229 85.3297 134.995C89.8665 112.761 111.871 98.2412 134.103 103.006C142.042 104.594 149.302 108.451 154.974 114.35C164.728 124.105 169.038 138.172 166.089 151.784Z" fill="url(#paint3_linear_260_3727)"/>
<path d="M117.95 154.824C117.95 154.824 129.919 167.552 140.043 177.735C140.043 177.735 149.499 171.462 153.75 167.308C157.807 163.342 161.907 153.181 161.907 153.181L142.288 130.275L126.913 146.013L117.95 154.824Z" fill="url(#paint4_linear_260_3727)"/>
<g clip-path="url(#clip0_260_3727)">
<path fill-rule="evenodd" clip-rule="evenodd" d="M142.318 129.819C143.773 131.355 143.773 133.845 142.318 135.38L123.691 155.042C122.236 156.578 119.877 156.578 118.422 155.042L109.109 145.211C107.654 143.676 107.654 141.186 109.109 139.65C110.564 138.114 112.922 138.114 114.377 139.65L121.056 146.7L137.049 129.819C138.504 128.284 140.863 128.284 142.318 129.819Z" fill="url(#paint5_linear_260_3727)"/>
</g>
<defs>
<filter id="filter0_bd_260_3727" x="-28.1309" y="7.52539" width="304.957" height="248.895" filterUnits="userSpaceOnUse" color-interpolation-filters="sRGB">
<feFlood flood-opacity="0" result="BackgroundImageFix"/>
<feGaussianBlur in="BackgroundImageFix" stdDeviation="25"/>
<feComposite in2="SourceAlpha" operator="in" result="effect1_backgroundBlur_260_3727"/>
<feColorMatrix in="SourceAlpha" type="matrix" values="0 0 0 0 0 0 0 0 0 0 0 0 0 0 0 0 0 0 127 0" result="hardAlpha"/>
<feOffset dx="2" dy="4"/>
<feGaussianBlur stdDeviation="2"/>
<feComposite in2="hardAlpha" operator="out"/>
<feColorMatrix type="matrix" values="0 0 0 0 0.0666667 0 0 0 0 0.0941176 0 0 0 0 0.152941 0 0 0 0.08 0"/>
<feBlend mode="normal" in2="effect1_backgroundBlur_260_3727" result="effect2_dropShadow_260_3727"/>
<feBlend mode="normal" in="SourceGraphic" in2="effect2_dropShadow_260_3727" result="shape"/>
</filter>
<linearGradient id="paint0_linear_260_3727" x1="112.25" y1="58.5257" x2="114.254" y2="79.1119" gradientUnits="userSpaceOnUse">
<stop stop-color="#7E30E1"/>
<stop offset="1" stop-color="#49108B"/>
</linearGradient>
<linearGradient id="paint1_linear_260_3727" x1="194.066" y1="1.27" x2="198.264" y2="5.36365" gradientUnits="userSpaceOnUse">
<stop stop-color="#7E30E1"/>
<stop offset="1" stop-color="#49108B"/>
</linearGradient>
<linearGradient id="paint2_linear_260_3727" x1="3.46813" y1="164.795" x2="7.6661" y2="168.889" gradientUnits="userSpaceOnUse">
<stop stop-color="#7E30E1"/>
<stop offset="1" stop-color="#49108B"/>
</linearGradient>
<linearGradient id="paint3_linear_260_3727" x1="120.839" y1="106.345" x2="164.918" y2="149.328" gradientUnits="userSpaceOnUse">
<stop stop-color="#7E30E1"/>
<stop offset="1" stop-color="#49108B"/>
</linearGradient>
<linearGradient id="paint4_linear_260_3727" x1="130.747" y1="142.746" x2="143.143" y2="155.716" gradientUnits="userSpaceOnUse">
<stop stop-color="#7E30E1"/>
<stop offset="1" stop-color="#5C4778" stop-opacity="0"/>
</linearGradient>
<linearGradient id="paint5_linear_260_3727" x1="135.405" y1="150.33" x2="112.734" y2="128.216" gradientUnits="userSpaceOnUse">
<stop offset="0.0113208" stop-color="#DDC2FF"/>
<stop offset="1" stop-color="white"/>
</linearGradient>
<clipPath id="clip0_260_3727">
<rect width="35.3913" height="35.3913" fill="white" transform="translate(108.018 124.735)"/>
</clipPath>
</defs>
</svg>
