<svg width="255" height="232" viewBox="0 0 255 232" fill="none" xmlns="http://www.w3.org/2000/svg">
<path d="M15.4083 51.1049C18.4943 50.102 20.1828 46.7872 19.1796 43.701C18.1768 40.6151 14.8618 38.9263 11.7758 39.9295C8.68973 40.9324 7.00123 44.2473 8.0041 47.3334C9.00724 50.4196 12.322 52.1081 15.4083 51.1049Z" fill="#EAEEF9"/>
<path d="M24.5975 31.6111C26.6549 30.9422 27.7808 28.7324 27.1119 26.675C26.4434 24.6176 24.2335 23.492 22.1761 24.1606C20.1187 24.8295 18.9929 27.0393 19.6617 29.0967C20.3302 31.1541 22.5404 32.2796 24.5975 31.6111Z" fill="#EAEEF9"/>
<path d="M251.684 64.7582C255.278 61.4738 255.529 55.8979 252.243 52.3039C248.96 48.7097 243.384 48.4587 239.79 51.7432C236.195 55.0276 235.944 60.6035 239.23 64.1975C242.513 67.7917 248.089 68.0427 251.684 64.7582Z" fill="#EAEEF9"/>
<path d="M253.276 30.7782C254.875 29.3184 254.985 26.8401 253.527 25.2428C252.066 23.6455 249.587 23.5338 247.99 24.9935C246.394 26.4533 246.281 28.9316 247.742 30.5289C249.2 32.1262 251.68 32.2379 253.276 30.7782Z" fill="#EAEEF9"/>
<path d="M125.256 231.625C185.845 231.625 234.962 182.508 234.962 121.919C234.962 61.3307 185.845 12.2136 125.256 12.2136C64.6675 12.2136 15.5508 61.3307 15.5508 121.919C15.5508 182.508 64.6675 231.625 125.256 231.625Z" fill="white" fill-opacity="0.1"/>
<g filter="url(#filter0_bd_260_3749)">
<path d="M21.7891 66.3824V80.812V195.797C21.7891 200.982 26.0481 205.266 31.2038 205.266H216.585C221.742 205.266 226.001 200.982 226.001 195.797V80.812V66.8334C226.001 61.1969 221.517 56.9131 216.137 56.9131H31.2038L21.7891 66.3824Z" fill="white" fill-opacity="0.1" shape-rendering="crispEdges"/>
</g>
<path d="M165.252 76.3027H21.7891V66.3824C21.7891 61.1969 26.0481 56.9131 31.2038 56.9131H216.585C221.742 56.9131 226.001 61.1969 226.001 66.3824V76.3027H194.393H165.252Z" fill="url(#paint0_linear_260_3749)"/>
<path d="M33.8941 70.2152C35.6274 70.2152 37.0323 68.8022 37.0323 67.0588C37.0323 65.3156 35.6274 63.9023 33.8941 63.9023C32.1611 63.9023 30.7559 65.3156 30.7559 67.0588C30.7559 68.8022 32.1611 70.2152 33.8941 70.2152Z" fill="white"/>
<path d="M42.8609 70.2152C44.5939 70.2152 45.9991 68.8022 45.9991 67.0588C45.9991 65.3156 44.5939 63.9023 42.8609 63.9023C41.1276 63.9023 39.7227 65.3156 39.7227 67.0588C39.7227 68.8022 41.1276 70.2152 42.8609 70.2152Z" fill="white"/>
<path d="M52.0513 70.2152C53.7846 70.2152 55.1896 68.8022 55.1896 67.0588C55.1896 65.3156 53.7846 63.9023 52.0513 63.9023C50.318 63.9023 48.9131 65.3156 48.9131 67.0588C48.9131 68.8022 50.318 70.2152 52.0513 70.2152Z" fill="white"/>
<path d="M115.264 131.992L78.7262 131.766C77.1569 131.766 76.0361 130.413 76.0361 129.061C76.0361 127.482 77.3812 126.355 78.7262 126.355L115.264 126.58C116.834 126.58 117.954 127.933 117.954 129.286C117.954 130.639 116.834 131.992 115.264 131.992Z" fill="#E3EAF2"/>
<path d="M202.015 131.992L159.873 131.766C158.303 131.766 157.183 130.413 157.183 129.061C157.183 127.482 158.528 126.355 159.873 126.355L201.791 126.58C203.36 126.58 204.481 127.933 204.481 129.286C204.705 130.639 203.584 131.992 202.015 131.992Z" fill="#E3EAF2"/>
<path d="M173.995 184.975L131.853 184.75C130.284 184.75 129.163 183.397 129.163 182.044C129.163 180.466 130.508 179.339 131.853 179.339L173.995 179.564C175.564 179.564 176.685 180.917 176.685 182.27C176.685 183.848 175.34 184.975 173.995 184.975Z" fill="url(#paint1_linear_260_3749)"/>
<path d="M147.993 131.766L127.594 131.541C126.025 131.541 124.904 130.188 124.904 128.835C124.904 127.257 126.249 126.13 127.594 126.13L147.993 126.355C149.562 126.355 150.683 127.708 150.683 129.061C150.907 130.639 149.562 131.766 147.993 131.766Z" fill="url(#paint2_linear_260_3749)"/>
<path d="M64.1559 131.541H49.1371C47.5678 131.541 46.4473 130.188 46.4473 128.835C46.4473 127.257 47.5678 126.13 49.1371 126.13H64.1559C65.7249 126.13 66.8457 127.483 66.8457 128.835C66.8457 130.413 65.7249 131.541 64.1559 131.541Z" fill="url(#paint3_linear_260_3749)"/>
<path d="M122.437 149.578L100.469 149.352C98.9001 149.352 97.7793 147.999 97.7793 146.647C97.7793 145.069 99.1243 143.941 100.469 143.941L122.437 144.167C124.006 144.167 125.127 145.519 125.127 146.872C125.351 148.225 124.006 149.578 122.437 149.578Z" fill="url(#paint4_linear_260_3749)"/>
<path d="M190.582 150.029L134.766 149.352C133.197 149.352 132.076 147.999 132.076 146.647C132.076 145.069 133.421 143.941 134.766 143.941L190.582 144.618C192.151 144.618 193.272 145.97 193.272 147.323C193.272 148.676 191.927 150.029 190.582 150.029Z" fill="#E3EAF2"/>
<path d="M85.8996 149.352H49.1371C47.5678 149.352 46.4473 147.999 46.4473 146.647C46.4473 145.069 47.7921 143.941 49.1371 143.941H85.8996C87.4686 143.941 88.5894 145.294 88.5894 146.647C88.5894 147.999 87.4686 149.352 85.8996 149.352Z" fill="#E3EAF2"/>
<path d="M151.354 167.163L100.469 166.938C98.9001 166.938 97.7793 165.585 97.7793 164.232C97.7793 162.654 99.1243 161.527 100.469 161.527L151.578 161.752C153.147 161.752 154.268 163.105 154.268 164.458C154.268 166.036 152.923 167.163 151.354 167.163Z" fill="url(#paint5_linear_260_3749)"/>
<path d="M85.8996 166.938H49.1371C47.5678 166.938 46.4473 165.585 46.4473 164.232C46.4473 162.654 47.7921 161.527 49.1371 161.527H85.8996C87.4686 161.527 88.5894 162.88 88.5894 164.232C88.5894 165.585 87.4686 166.938 85.8996 166.938Z" fill="#E3EAF2"/>
<path d="M117.73 184.75L89.7096 184.524C88.1403 184.524 87.0195 183.171 87.0195 181.819C87.0195 180.24 88.3646 179.113 89.7096 179.113L117.73 179.339C119.299 179.339 120.42 180.691 120.42 182.044C120.42 183.622 119.299 184.75 117.73 184.75Z" fill="#E3EAF2"/>
<path d="M71.7774 184.524H49.1371C47.5678 184.524 46.4473 183.171 46.4473 181.819C46.4473 180.24 47.7921 179.113 49.1371 179.113H71.7774C73.3464 179.113 74.4672 180.466 74.4672 181.819C74.6914 183.397 73.3464 184.524 71.7774 184.524Z" fill="url(#paint6_linear_260_3749)"/>
<path d="M152.251 104.711L49.1371 104.26C47.5678 104.26 46.4473 102.907 46.4473 101.555C46.4473 99.9763 47.7921 98.8491 49.1371 98.8491L152.251 99.3001C153.82 99.3001 154.941 100.653 154.941 102.006C154.941 103.584 153.82 104.711 152.251 104.711Z" fill="#E3EAF2"/>
<path d="M247.765 198.85C243.243 221.003 221.321 235.47 199.169 230.723C177.018 226.201 162.552 204.274 167.299 182.121C171.819 159.968 193.744 145.502 215.895 150.249C223.806 151.831 231.039 155.674 236.69 161.551C246.409 171.272 250.703 185.287 247.765 198.85Z" fill="url(#paint7_linear_260_3749)"/>
<path d="M192.605 194.139C192.605 194.139 211.499 214.557 221.587 224.703C221.587 224.703 229.204 220.63 233.44 216.491C237.482 212.54 240.306 207.378 240.306 207.378L211.666 175.502L211.243 188.209L206.583 194.986L192.605 194.139Z" fill="url(#paint8_linear_260_3749)"/>
<path d="M193.822 8.2956C195.986 8.2956 197.74 6.54152 197.74 4.37753C197.74 2.21377 195.986 0.459473 193.822 0.459473C191.658 0.459473 189.904 2.21377 189.904 4.37753C189.904 6.54152 191.658 8.2956 193.822 8.2956Z" fill="url(#paint9_linear_260_3749)"/>
<path d="M3.91802 171.227C6.08196 171.227 7.83612 169.472 7.83612 167.309C7.83612 165.145 6.08196 163.391 3.91802 163.391C1.7543 163.391 0 165.145 0 167.309C0 169.472 1.7543 171.227 3.91802 171.227Z" fill="url(#paint10_linear_260_3749)"/>
<path fill-rule="evenodd" clip-rule="evenodd" d="M208.748 186.091C208.748 189.158 206.262 191.645 203.194 191.645C200.126 191.645 197.64 189.158 197.64 186.091C197.64 183.023 200.126 180.536 203.194 180.536C206.262 180.536 208.748 183.023 208.748 186.091ZM208.906 198.386C207.17 199.194 205.235 199.645 203.194 199.645C195.708 199.645 189.64 193.577 189.64 186.091C189.64 178.605 195.708 172.536 203.194 172.536C210.68 172.536 216.748 178.605 216.748 186.091C216.748 188.247 216.245 190.285 215.35 192.094L221.772 199.159C223.444 200.998 223.309 203.844 221.47 205.516C219.631 207.188 216.785 207.052 215.113 205.214L208.906 198.386Z" fill="url(#paint11_linear_260_3749)"/>
<defs>
<filter id="filter0_bd_260_3749" x="-28.2109" y="6.91309" width="304.212" height="248.353" filterUnits="userSpaceOnUse" color-interpolation-filters="sRGB">
<feFlood flood-opacity="0" result="BackgroundImageFix"/>
<feGaussianBlur in="BackgroundImageFix" stdDeviation="25"/>
<feComposite in2="SourceAlpha" operator="in" result="effect1_backgroundBlur_260_3749"/>
<feColorMatrix in="SourceAlpha" type="matrix" values="0 0 0 0 0 0 0 0 0 0 0 0 0 0 0 0 0 0 127 0" result="hardAlpha"/>
<feOffset dy="4"/>
<feGaussianBlur stdDeviation="2"/>
<feComposite in2="hardAlpha" operator="out"/>
<feColorMatrix type="matrix" values="0 0 0 0 0 0 0 0 0 0 0 0 0 0 0 0 0 0 0.25 0"/>
<feBlend mode="normal" in2="effect1_backgroundBlur_260_3749" result="effect2_dropShadow_260_3749"/>
<feBlend mode="normal" in="SourceGraphic" in2="effect2_dropShadow_260_3749" result="shape"/>
</filter>
<linearGradient id="paint0_linear_260_3749" x1="111.841" y1="57.9098" x2="113.838" y2="78.4211" gradientUnits="userSpaceOnUse">
<stop stop-color="#7E30E1"/>
<stop offset="1" stop-color="#49108B"/>
</linearGradient>
<linearGradient id="paint1_linear_260_3749" x1="150.119" y1="179.628" x2="150.84" y2="185.56" gradientUnits="userSpaceOnUse">
<stop stop-color="#7E30E1"/>
<stop offset="1" stop-color="#49108B"/>
</linearGradient>
<linearGradient id="paint2_linear_260_3749" x1="136.283" y1="126.419" x2="137.567" y2="132.151" gradientUnits="userSpaceOnUse">
<stop stop-color="#7E30E1"/>
<stop offset="1" stop-color="#49108B"/>
</linearGradient>
<linearGradient id="paint3_linear_260_3749" x1="55.4424" y1="126.408" x2="56.9061" y2="131.788" gradientUnits="userSpaceOnUse">
<stop stop-color="#7E30E1"/>
<stop offset="1" stop-color="#49108B"/>
</linearGradient>
<linearGradient id="paint4_linear_260_3749" x1="109.85" y1="144.231" x2="111.067" y2="149.993" gradientUnits="userSpaceOnUse">
<stop stop-color="#7E30E1"/>
<stop offset="1" stop-color="#49108B"/>
</linearGradient>
<linearGradient id="paint5_linear_260_3749" x1="122.689" y1="161.817" x2="123.299" y2="167.773" gradientUnits="userSpaceOnUse">
<stop stop-color="#7E30E1"/>
<stop offset="1" stop-color="#49108B"/>
</linearGradient>
<linearGradient id="paint6_linear_260_3749" x1="58.8141" y1="179.391" x2="59.9144" y2="184.952" gradientUnits="userSpaceOnUse">
<stop stop-color="#7E30E1"/>
<stop offset="1" stop-color="#49108B"/>
</linearGradient>
<linearGradient id="paint7_linear_260_3749" x1="202.679" y1="153.575" x2="246.598" y2="196.402" gradientUnits="userSpaceOnUse">
<stop stop-color="#7E30E1"/>
<stop offset="1" stop-color="#49108B"/>
</linearGradient>
<linearGradient id="paint8_linear_260_3749" x1="198.536" y1="190.75" x2="208.641" y2="208.795" gradientUnits="userSpaceOnUse">
<stop stop-color="#7E30E1"/>
<stop offset="1" stop-color="#5C4778" stop-opacity="0"/>
</linearGradient>
<linearGradient id="paint9_linear_260_3749" x1="193.36" y1="0.862279" x2="197.543" y2="4.94105" gradientUnits="userSpaceOnUse">
<stop stop-color="#7E30E1"/>
<stop offset="1" stop-color="#49108B"/>
</linearGradient>
<linearGradient id="paint10_linear_260_3749" x1="3.45552" y1="163.793" x2="7.63822" y2="167.872" gradientUnits="userSpaceOnUse">
<stop stop-color="#7E30E1"/>
<stop offset="1" stop-color="#49108B"/>
</linearGradient>
<linearGradient id="paint11_linear_260_3749" x1="215.411" y1="199.411" x2="188.506" y2="179.506" gradientUnits="userSpaceOnUse">
<stop offset="0.0113208" stop-color="#DDC2FF"/>
<stop offset="1" stop-color="white"/>
</linearGradient>
</defs>
</svg>
