<svg width="374" height="504" viewBox="0 0 374 504" fill="none" xmlns="http://www.w3.org/2000/svg">
<g filter="url(#filter0_d_147_1038)">
<path d="M287.942 417.533L147.234 336.489C145.996 335.778 144.968 334.754 144.253 333.52C143.538 332.286 143.162 330.886 143.162 329.461C143.162 328.036 143.538 326.636 144.253 325.402C144.968 324.169 145.996 323.145 147.234 322.433L161.114 313.702C163.51 312.325 166.227 311.601 168.992 311.601C171.757 311.601 174.474 312.325 176.87 313.702L317.597 394.755C318.834 395.466 319.863 396.491 320.577 397.724C321.292 398.958 321.669 400.358 321.669 401.783C321.669 403.208 321.292 404.608 320.577 405.842C319.863 407.075 318.834 408.1 317.597 408.811L303.716 417.533C301.319 418.917 298.599 419.645 295.829 419.645C293.059 419.645 290.339 418.917 287.942 417.533Z" fill="black" fill-opacity="0.25"/>
<path d="M82.535 324.982C99.399 324.982 113.07 317.151 113.07 307.491C113.07 297.831 99.399 290 82.535 290C65.671 290 52 297.831 52 307.491C52 317.151 65.671 324.982 82.535 324.982Z" fill="black" fill-opacity="0.25"/>
<path d="M283.657 407.847L159.909 336.575C151.176 331.546 144.097 318.053 144.097 306.44V42.1159C144.097 30.5028 151.176 25.1686 159.909 30.1974L283.657 101.47C292.39 106.498 299.469 119.991 299.469 131.604V395.929C299.469 407.532 292.39 412.876 283.657 407.847Z" fill="black"/>
<path d="M297.91 93.1581L174.153 21.886C170.422 19.739 166.998 19.4909 164.29 20.8077C163.959 20.9733 163.639 21.1614 163.334 21.3707L149.463 29.415C152.256 27.745 155.91 27.8691 159.919 30.1784L283.666 101.45C292.4 106.479 299.478 119.972 299.478 131.585V395.91C299.478 402.055 297.498 406.406 294.341 408.467L308.031 400.519C311.522 398.667 313.77 394.135 313.77 387.636V123.312C313.77 111.68 306.643 98.187 297.91 93.1581Z" fill="#191919"/>
<path d="M299.469 131.585V395.909C299.469 402.055 297.489 406.406 294.332 408.467L308.031 400.518C311.522 398.667 313.77 394.135 313.77 387.636V123.312L299.517 131.566L299.469 131.585Z" fill="#191919"/>
<path d="M313.723 143.819L299.47 152.025V158.438L313.723 150.222V143.819Z" fill="#434343"/>
<path d="M307.476 186.464C306.204 187.198 305.171 186.416 305.171 184.727V170.938C305.184 170.076 305.399 169.229 305.799 168.465C306.2 167.701 306.774 167.042 307.476 166.539C308.748 165.804 309.781 166.539 309.781 168.276V182.065C309.769 182.927 309.553 183.773 309.153 184.537C308.753 185.301 308.178 185.961 307.476 186.464Z" fill="#191919"/>
<path d="M305.161 184.765V170.938C305.174 170.076 305.389 169.229 305.79 168.465C306.19 167.701 306.764 167.042 307.467 166.539C307.676 166.393 307.921 166.303 308.176 166.28C308.431 166.257 308.688 166.3 308.921 166.406L307.189 165.518C306.952 165.404 306.69 165.355 306.428 165.375C306.166 165.395 305.913 165.484 305.697 165.633C304.994 166.135 304.419 166.795 304.017 167.558C303.615 168.322 303.397 169.169 303.382 170.032V183.811C303.346 184.159 303.399 184.51 303.536 184.832C303.673 185.155 303.89 185.437 304.166 185.653L305.974 186.607C305.686 186.4 305.459 186.12 305.316 185.796C305.173 185.473 305.12 185.117 305.161 184.765Z" fill="#434343"/>
<path d="M307.476 219.833C306.204 220.568 305.171 219.833 305.171 218.097V204.308C305.184 203.446 305.4 202.599 305.8 201.836C306.201 201.072 306.774 200.412 307.476 199.909C308.748 199.174 309.781 199.909 309.781 201.655V215.434C309.77 216.297 309.555 217.144 309.155 217.908C308.754 218.672 308.179 219.332 307.476 219.833Z" fill="#191919"/>
<path d="M305.161 218.097V204.308C305.174 203.446 305.39 202.6 305.79 201.836C306.191 201.072 306.765 200.412 307.466 199.909C307.677 199.765 307.921 199.677 308.176 199.654C308.43 199.631 308.687 199.672 308.92 199.775L307.189 198.878C306.953 198.76 306.69 198.708 306.427 198.728C306.164 198.748 305.911 198.84 305.696 198.993C304.992 199.494 304.415 200.153 304.013 200.917C303.611 201.681 303.395 202.529 303.382 203.392V217.209C303.345 217.558 303.397 217.909 303.535 218.232C303.672 218.554 303.889 218.836 304.166 219.051L305.974 220.005C305.674 219.794 305.44 219.503 305.296 219.166C305.153 218.829 305.106 218.459 305.161 218.097Z" fill="#434343"/>
<path d="M279.332 108.884L157.728 38.8236C157.221 38.5323 156.645 38.3785 156.06 38.3774C155.474 38.3764 154.899 38.528 154.39 38.8174C153.882 39.1067 153.458 39.5237 153.161 40.027C152.863 40.5302 152.703 41.1023 152.696 41.6863V306.44C152.696 315.276 158.981 326.126 166.653 330.544L285.273 398.896C285.835 399.219 286.473 399.389 287.122 399.388C287.771 399.388 288.409 399.217 288.971 398.893C289.533 398.569 290 398.104 290.324 397.543C290.649 396.983 290.82 396.347 290.821 395.699V128.761C290.869 121.47 285.684 112.529 279.332 108.884Z" fill="#49108B"/>
<path opacity="0.5" d="M279.332 108.884L157.728 38.8236C157.221 38.5323 156.645 38.3785 156.06 38.3774C155.474 38.3764 154.899 38.528 154.39 38.8174C153.882 39.1067 153.458 39.5237 153.161 40.027C152.863 40.5302 152.703 41.1023 152.696 41.6863V306.44C152.696 315.276 158.981 326.126 166.653 330.544L285.273 398.896C285.835 399.219 286.473 399.389 287.122 399.388C287.771 399.388 288.409 399.217 288.971 398.893C289.533 398.569 290 398.104 290.324 397.543C290.649 396.983 290.82 396.347 290.821 395.699V128.761C290.869 121.47 285.684 112.529 279.332 108.884Z" fill="black"/>
<path d="M194.099 57.1165L195.983 65.0272L236.295 88.2152L243.259 84.5127L194.099 57.1165Z" fill="black"/>
<path d="M205.952 64.7599C205.952 66.0767 204.995 66.6016 203.885 65.9527C203.29 65.5582 202.795 65.0298 202.441 64.41C202.087 63.7902 201.884 63.0962 201.848 62.3838C201.848 61.0765 202.804 60.5422 203.914 61.2006C204.509 61.5931 205.004 62.1197 205.358 62.7379C205.712 63.3562 205.915 64.0488 205.952 64.7599Z" fill="#263238"/>
<path d="M233.109 81.5068C232.888 81.505 232.672 81.4493 232.478 81.3445L211.891 69.8937C211.601 69.7234 211.388 69.4465 211.3 69.1221C211.211 68.7978 211.253 68.4516 211.416 68.1576C211.58 67.8637 211.852 67.6451 212.175 67.5487C212.498 67.4523 212.846 67.4857 213.144 67.6417L233.74 79.0925C233.991 79.2313 234.188 79.4492 234.3 79.7119C234.413 79.9746 234.435 80.2672 234.363 80.5437C234.29 80.8202 234.128 81.0648 233.901 81.2392C233.674 81.4135 233.395 81.5076 233.109 81.5068Z" fill="#263238"/>
<path d="M273.057 199.161V317.725C273.059 319.066 272.707 320.384 272.036 321.546C271.365 322.708 270.399 323.673 269.235 324.345C268.072 325.016 266.751 325.37 265.407 325.37C264.063 325.371 262.742 325.018 261.578 324.347L197.561 287.476L186.216 280.949C182.309 278.695 179.064 275.459 176.804 271.562C174.545 267.665 173.35 263.245 173.34 258.743V140.17C173.338 138.829 173.69 137.511 174.361 136.349C175.032 135.187 175.998 134.221 177.161 133.55C178.325 132.879 179.646 132.525 180.99 132.525C182.334 132.524 183.655 132.877 184.819 133.547L260.2 176.956C264.108 179.205 267.354 182.442 269.611 186.34C271.868 190.238 273.056 194.659 273.057 199.161Z" fill="#49108B"/>
<path opacity="0.5" d="M273.057 199.161V317.725C273.059 319.066 272.707 320.384 272.036 321.546C271.365 322.708 270.399 323.673 269.235 324.345C268.072 325.016 266.751 325.37 265.407 325.37C264.063 325.371 262.742 325.018 261.578 324.347L197.561 287.476L186.216 280.949C182.309 278.695 179.064 275.459 176.804 271.562C174.545 267.665 173.35 263.245 173.34 258.743V140.17C173.338 138.829 173.69 137.511 174.361 136.349C175.032 135.187 175.998 134.221 177.161 133.55C178.325 132.879 179.646 132.525 180.99 132.525C182.334 132.524 183.655 132.877 184.819 133.547L260.2 176.956C264.108 179.205 267.354 182.442 269.611 186.34C271.868 190.238 273.056 194.659 273.057 199.161Z" fill="white"/>
<path d="M236.18 269.316C236.18 269.316 248.166 289.146 239.509 311.503L197.533 287.476L236.18 269.316Z" fill="#263238"/>
<path d="M255.295 180.226C256.202 172.877 250.965 166.186 243.598 165.281C236.23 164.376 229.523 169.6 228.615 176.949C227.708 184.298 232.945 190.989 240.312 191.894C247.68 192.799 254.387 187.575 255.295 180.226Z" fill="black"/>
<path d="M242.025 140.981C242.025 140.981 246.148 134.301 247.41 134.788C248.673 135.274 246.588 141.639 246.588 141.639C246.588 141.639 252.825 142.937 251.667 144.502C250.51 146.067 242.885 145.695 242.885 145.695L242.025 140.981Z" fill="black"/>
<path d="M244.894 158.195C242.025 179.704 223.849 179.704 223.849 179.704L185.776 162.986C185.776 162.986 182.906 160.476 182.026 154.712C181.688 152.351 181.688 149.955 182.026 147.594C182.026 147.594 182.026 147.546 182.026 147.527C183.241 138.481 190.023 128.757 204.793 125.77C208.03 125.118 211.325 124.799 214.627 124.816C216.225 124.81 217.821 124.89 219.41 125.055C230.89 126.181 238.935 131.524 242.771 139.836C243.634 141.712 244.276 143.681 244.684 145.704C245.462 149.826 245.534 154.05 244.894 158.195Z" fill="black"/>
<path d="M153.491 199.8C153.491 199.8 139.974 199.332 134.77 212.472C134.77 212.472 140.509 216.337 148.038 212.472C155.566 208.608 153.491 199.8 153.491 199.8Z" fill="#49108B"/>
<path opacity="0.5" d="M153.491 199.8C153.491 199.8 139.974 199.332 134.77 212.472C134.77 212.472 140.509 216.337 148.038 212.472C155.566 208.608 153.491 199.8 153.491 199.8Z" fill="black"/>
<path d="M153.108 206.127C153.108 206.127 149.281 189.542 147.263 189.342C145.244 189.141 144.852 194.399 145.015 197.367L140.232 187.099C140.08 186.78 139.864 186.495 139.598 186.263C139.332 186.03 139.021 185.854 138.684 185.746C138.347 185.638 137.991 185.6 137.639 185.634C137.286 185.668 136.945 185.774 136.635 185.945C131.852 188.569 123.462 196.546 141.15 216.27L153.108 206.127Z" fill="#CFA7A7"/>
<path d="M202.086 194.657L199.216 194.285C196.324 193.902 193.382 194.295 190.692 195.422C188.002 196.549 185.662 198.369 183.911 200.697L166.835 223.37L153.443 199.8C153.443 199.8 151.836 215.832 134.722 212.473L153.098 243.323C154.261 245.276 155.88 246.92 157.817 248.115C159.753 249.31 161.951 250.021 164.222 250.187C166.493 250.352 168.771 249.969 170.861 249.068C172.952 248.167 174.793 246.775 176.229 245.012L191.956 225.727L202.086 194.657Z" fill="#7E30E1"/>
<path d="M238.533 247.569C234.707 257.245 234.286 259.135 236.62 263.973C238.246 267.546 239.527 271.265 240.446 275.08C240.446 275.08 222.711 294.909 197.466 287.485L186.121 280.958C183.761 279.601 181.636 277.874 179.826 275.843L183.279 250.155C183.453 248.803 183.316 247.429 182.878 246.138L179.252 235.536C177.483 230.358 177.22 224.786 178.493 219.465C179.766 214.144 182.523 209.291 186.446 205.468L198.633 193.588L230.641 197.672L235.424 199.037C238.556 199.94 241.255 201.94 243.026 204.67C244.798 207.399 245.522 210.674 245.067 213.894C243.498 225.154 240.934 241.491 238.533 247.569Z" fill="#49108B"/>
<path opacity="0.7" d="M238.533 247.569C234.707 257.245 234.286 259.135 236.62 263.973C238.246 267.546 239.527 271.265 240.446 275.08C240.446 275.08 222.711 294.909 197.466 287.485L186.121 280.958C183.761 279.601 181.636 277.874 179.826 275.843L183.279 250.155C183.453 248.803 183.316 247.429 182.878 246.138L179.252 235.536C177.483 230.358 177.22 224.786 178.493 219.465C179.766 214.144 182.523 209.291 186.446 205.468L198.633 193.588L230.641 197.672L235.424 199.037C238.556 199.94 241.255 201.94 243.026 204.67C244.798 207.399 245.522 210.674 245.067 213.894C243.498 225.154 240.934 241.491 238.533 247.569Z" fill="black"/>
<path d="M219.228 218.666L212.819 213.217C212.14 212.638 211.322 212.245 210.444 212.078C209.567 211.91 208.661 211.974 207.816 212.263L200.067 214.925L199.025 210.593C198.862 209.919 198.564 209.284 198.149 208.728C197.734 208.172 197.21 207.706 196.609 207.357C196.009 207.009 195.343 206.785 194.654 206.7C193.964 206.615 193.264 206.67 192.596 206.862L189.238 207.816L194.921 196.957C196.776 193.42 199.634 190.506 203.138 188.578L205.367 187.357L223.782 188.311C223.782 188.311 230.64 191.174 230.64 197.615L219.228 218.608" fill="#7E30E1"/>
<path d="M223.858 196.451L205.396 210.803V165.104H223.858V196.451Z" fill="#CFA7A7"/>
<path d="M205.683 192.682L200.068 214.963L223.782 196.451L205.683 192.682Z" fill="#CFA7A7"/>
<path d="M205.395 189.37C209.501 187.85 213.254 185.513 216.426 182.501C219.598 179.489 222.123 175.866 223.848 171.85V165.104H205.386L205.395 189.37Z" fill="#703838"/>
<path d="M209.375 131.238C202.373 131.238 187.488 135.131 185.766 153.415C184.044 171.698 185.709 185.859 195.16 187.233C204.611 188.607 226.575 181.765 229.522 158.1C232.468 134.435 216.196 131.238 209.375 131.238Z" fill="#CFA7A7"/>
<path d="M198.355 161.153V171.927L192.022 169.99L198.355 161.153Z" fill="#703838"/>
<path d="M205.396 165.209C206.611 165.209 207.596 164.226 207.596 163.014C207.596 161.802 206.611 160.819 205.396 160.819C204.181 160.819 203.195 161.802 203.195 163.014C203.195 164.226 204.181 165.209 205.396 165.209Z" fill="#263238"/>
<path d="M193.113 161.487C193.112 161.921 192.981 162.345 192.738 162.704C192.495 163.064 192.151 163.344 191.749 163.508C191.346 163.673 190.904 163.715 190.478 163.629C190.052 163.544 189.661 163.334 189.354 163.026C189.047 162.719 188.839 162.328 188.755 161.903C188.67 161.477 188.715 161.036 188.881 160.636C189.048 160.235 189.33 159.893 189.692 159.652C190.053 159.412 190.478 159.283 190.913 159.283C191.203 159.283 191.49 159.34 191.757 159.451C192.025 159.562 192.268 159.725 192.472 159.929C192.677 160.134 192.839 160.377 192.949 160.645C193.059 160.912 193.115 161.198 193.113 161.487Z" fill="#263238"/>
<path d="M188.225 156.907L192.529 154.359C192.529 154.359 190.884 152.651 189.239 153.672C187.593 154.693 188.225 156.907 188.225 156.907Z" fill="#263238"/>
<path d="M195.38 176.297C197.477 176.45 199.563 175.892 201.302 174.713C201.302 174.713 201.713 177.834 199.092 178.425C196.471 179.017 195.38 176.297 195.38 176.297Z" fill="#703838"/>
<path d="M191.62 137.46C191.62 137.46 194.251 162.699 228.66 163.491C228.66 163.491 239.059 138.404 218.511 130.255C197.963 122.106 191.62 137.46 191.62 137.46Z" fill="black"/>
<path d="M238.791 159.713L234.563 157.27C232.955 156.316 230.736 156.449 228.278 157.861C223.399 160.667 219.439 167.509 219.439 173.129C219.439 175.944 220.395 177.9 222.041 178.855L226.192 181.24L226.431 181.374L226.575 181.46C228.144 182.223 230.239 182.042 232.544 180.715C237.423 177.853 241.383 171.068 241.383 165.448C241.355 162.604 240.369 160.638 238.791 159.713Z" fill="#49108B"/>
<path d="M238.757 174.085C242.207 168.125 242.207 161.682 238.758 159.695C235.308 157.708 229.714 160.93 226.264 166.89C222.814 172.851 222.814 179.294 226.264 181.281C229.714 183.267 235.307 180.046 238.757 174.085Z" fill="#49108B"/>
<path opacity="0.5" d="M238.757 174.085C242.207 168.125 242.207 161.682 238.758 159.695C235.308 157.708 229.714 160.93 226.264 166.89C222.814 172.851 222.814 179.294 226.264 181.281C229.714 183.267 235.307 180.046 238.757 174.085Z" fill="black"/>
<path d="M240.484 165.009L237.615 163.339C236.524 162.69 235.003 162.776 233.319 163.739C231.561 164.886 230.097 166.429 229.047 168.244C227.996 170.06 227.389 172.096 227.274 174.188C227.274 176.097 227.953 177.461 229.053 178.091L231.923 179.723C231.974 179.76 232.028 179.792 232.085 179.818L232.181 179.876C232.854 180.13 233.579 180.216 234.292 180.126C235.006 180.037 235.687 179.774 236.275 179.36C238.033 178.215 239.496 176.673 240.546 174.86C241.596 173.046 242.204 171.012 242.321 168.921C242.245 166.984 241.575 165.638 240.484 165.009Z" fill="#49108B"/>
<path d="M242.245 168.902C242.128 170.993 241.52 173.027 240.47 174.841C239.419 176.654 237.957 178.196 236.199 179.341C232.851 181.25 230.144 179.704 230.144 175.858C230.257 173.765 230.865 171.729 231.917 169.915C232.969 168.1 234.437 166.56 236.199 165.419C239.538 163.491 242.245 165.047 242.245 168.902Z" fill="#49108B"/>
<path opacity="0.3" d="M242.245 168.902C242.128 170.993 241.52 173.027 240.47 174.841C239.419 176.654 237.957 178.196 236.199 179.341C232.851 181.25 230.144 179.704 230.144 175.858C230.257 173.765 230.865 171.729 231.917 169.915C232.969 168.1 234.437 166.56 236.199 165.419C239.538 163.491 242.245 165.047 242.245 168.902Z" fill="black"/>
<path d="M225.657 126.314C222.914 124.201 219.555 123.039 216.09 123.003H215.239C211.73 122.965 208.227 123.285 204.783 123.957C205.415 123.957 206.046 123.957 206.697 123.957H204.783V125.732H206.563C212.695 125.94 218.506 128.519 222.767 132.922C227.028 137.326 229.405 143.21 229.397 149.33V156.84C229.397 157.137 229.459 157.431 229.58 157.702C229.701 157.973 229.877 158.216 230.098 158.415C230.319 158.614 230.58 158.764 230.862 158.856C231.145 158.948 231.445 158.98 231.741 158.949H231.961L233.874 158.358C233.746 158.398 233.615 158.423 233.482 158.434C234.052 158.357 234.574 158.073 234.948 157.636C235.322 157.2 235.522 156.641 235.51 156.067V149.101C235.491 136.496 230.028 129.721 225.657 126.314Z" fill="#49108B"/>
<path d="M213.613 186.708C212.824 186.708 212.044 186.539 211.327 186.212L205.348 183.454C205.255 183.421 205.169 183.368 205.097 183.3C205.025 183.232 204.967 183.15 204.929 183.059C204.89 182.967 204.871 182.869 204.872 182.77C204.874 182.671 204.896 182.573 204.937 182.483C204.978 182.393 205.037 182.312 205.111 182.246C205.186 182.18 205.273 182.13 205.367 182.1C205.461 182.069 205.561 182.058 205.66 182.068C205.759 182.078 205.855 182.108 205.941 182.156L211.92 184.914C212.682 185.268 213.537 185.375 214.363 185.221C215.19 185.067 215.948 184.66 216.531 184.055L222.27 178.139C222.405 178.005 222.587 177.93 222.777 177.93C222.968 177.93 223.15 178.005 223.284 178.139C223.417 178.274 223.49 178.456 223.49 178.645C223.49 178.834 223.417 179.015 223.284 179.15L217.545 185.067C217.034 185.59 216.422 186.005 215.747 186.287C215.071 186.569 214.345 186.712 213.613 186.708Z" fill="#49108B"/>
<path opacity="0.5" d="M213.613 186.708C212.824 186.708 212.044 186.539 211.327 186.212L205.348 183.454C205.255 183.421 205.169 183.368 205.097 183.3C205.025 183.232 204.967 183.15 204.929 183.059C204.89 182.967 204.871 182.869 204.872 182.77C204.874 182.671 204.896 182.573 204.937 182.483C204.978 182.393 205.037 182.312 205.111 182.246C205.186 182.18 205.273 182.13 205.367 182.1C205.461 182.069 205.561 182.058 205.66 182.068C205.759 182.078 205.855 182.108 205.941 182.156L211.92 184.914C212.682 185.268 213.537 185.375 214.363 185.221C215.19 185.067 215.948 184.66 216.531 184.055L222.27 178.139C222.405 178.005 222.587 177.93 222.777 177.93C222.968 177.93 223.15 178.005 223.284 178.139C223.417 178.274 223.49 178.456 223.49 178.645C223.49 178.834 223.417 179.015 223.284 179.15L217.545 185.067C217.034 185.59 216.422 186.005 215.747 186.287C215.071 186.569 214.345 186.712 213.613 186.708Z" fill="black"/>
<path d="M206.917 181.45C206.917 182.001 206.753 182.54 206.446 182.998C206.139 183.456 205.703 183.814 205.193 184.024C204.682 184.235 204.121 184.29 203.579 184.183C203.037 184.075 202.539 183.81 202.148 183.42C201.758 183.031 201.492 182.534 201.384 181.994C201.276 181.453 201.332 180.893 201.543 180.384C201.754 179.875 202.112 179.44 202.572 179.133C203.031 178.827 203.571 178.664 204.124 178.664C204.864 178.664 205.575 178.957 206.099 179.48C206.623 180.002 206.917 180.711 206.917 181.45Z" fill="#49108B"/>
<path opacity="0.5" d="M206.917 181.45C206.917 182.001 206.753 182.54 206.446 182.998C206.139 183.456 205.703 183.814 205.193 184.024C204.682 184.235 204.121 184.29 203.579 184.183C203.037 184.075 202.539 183.81 202.148 183.42C201.758 183.031 201.492 182.534 201.384 181.994C201.276 181.453 201.332 180.893 201.543 180.384C201.754 179.875 202.112 179.44 202.572 179.133C203.031 178.827 203.571 178.664 204.124 178.664C204.864 178.664 205.575 178.957 206.099 179.48C206.623 180.002 206.917 180.711 206.917 181.45Z" fill="black"/>
<path d="M235.491 149.101V156.067C235.503 156.641 235.303 157.2 234.929 157.636C234.555 158.073 234.033 158.357 233.463 158.434C233.148 158.467 232.829 158.434 232.528 158.337C232.226 158.239 231.949 158.08 231.713 157.868C231.478 157.657 231.289 157.398 231.161 157.109C231.032 156.82 230.966 156.508 230.966 156.191V149.101C230.971 145.718 230.291 142.368 228.964 139.253C227.638 136.139 225.694 133.324 223.249 130.979C220.804 128.633 217.908 126.806 214.737 125.605C211.565 124.405 208.183 123.858 204.793 123.995C208.237 123.323 211.74 123.003 215.249 123.041H216.081C219.546 123.077 222.905 124.239 225.647 126.352C230.029 129.721 235.491 136.496 235.491 149.101Z" fill="#49108B"/>
<path opacity="0.5" d="M235.491 149.101V156.067C235.503 156.641 235.303 157.2 234.929 157.636C234.555 158.073 234.033 158.357 233.463 158.434C233.148 158.467 232.829 158.434 232.528 158.337C232.226 158.239 231.949 158.08 231.713 157.868C231.478 157.657 231.289 157.398 231.161 157.109C231.032 156.82 230.966 156.508 230.966 156.191V149.101C230.971 145.718 230.291 142.368 228.964 139.253C227.638 136.139 225.694 133.324 223.249 130.979C220.804 128.633 217.908 126.806 214.737 125.605C211.565 124.405 208.183 123.858 204.793 123.995C208.237 123.323 211.74 123.003 215.249 123.041H216.081C219.546 123.077 222.905 124.239 225.647 126.352C230.029 129.721 235.491 136.496 235.491 149.101Z" fill="black"/>
<path d="M224.739 280.376C224.739 280.376 220.109 293.096 236.658 298.822C236.658 298.822 242.063 290.901 236.658 284.422C231.253 277.943 224.739 280.376 224.739 280.376Z" fill="#49108B"/>
<path opacity="0.7" d="M224.739 280.376C224.739 280.376 220.109 293.096 236.658 298.822C236.658 298.822 242.063 290.901 236.658 284.422C231.253 277.943 224.739 280.376 224.739 280.376Z" fill="black"/>
<path d="M230.545 280.958C230.545 280.958 214.378 286.865 214.465 289.155C214.551 291.445 221.333 289.88 221.333 289.88L218.855 291.503C216.246 293.201 214.225 295.66 213.068 298.545C212.816 299.181 212.807 299.888 213.043 300.53C213.28 301.172 213.745 301.706 214.35 302.028L220.491 305.272C220.838 305.456 221.218 305.568 221.609 305.602C222 305.637 222.394 305.593 222.768 305.473C223.142 305.353 223.488 305.159 223.785 304.903C224.082 304.648 224.325 304.335 224.499 303.984C224.842 303.309 225.315 302.709 225.891 302.218C226.467 301.726 227.136 301.354 227.857 301.121C231.196 300.014 237.423 296.827 239.92 288.105L230.545 280.958Z" fill="#CFA7A7"/>
<path d="M235.395 199.018C235.395 199.018 226.786 203.789 231.358 218.274C235.931 232.76 244.512 255.232 244.512 255.232L224.739 280.376C226.851 280.63 228.886 281.326 230.711 282.418C232.535 283.51 234.109 284.973 235.328 286.712C236.496 288.481 237.226 290.501 237.457 292.607C237.688 294.712 237.414 296.842 236.658 298.822L261.204 267.332C263.475 264.422 264.982 260.993 265.59 257.356C266.198 253.719 265.887 249.988 264.687 246.501L254.164 215.85C252.878 212.106 250.74 208.71 247.919 205.927C245.098 203.144 241.669 201.051 237.901 199.81L235.395 199.018Z" fill="#7E30E1"/>
<path d="M96.3001 126.858L64.7986 108.685C64.4361 108.435 64.0167 108.278 63.5782 108.23C63.1398 108.182 62.6963 108.243 62.2877 108.409C62.2016 108.448 62.1193 108.496 62.0421 108.551L55.1905 112.557H55.238C54.3747 113.047 53.8281 114.185 53.8281 115.812V150.768C53.8281 153.723 55.6262 157.16 57.852 158.44L89.3535 176.613C89.7532 176.901 90.2289 177.066 90.7218 177.087C91.2146 177.108 91.7028 176.984 92.1258 176.731C92.1044 176.74 92.0853 176.753 92.0703 176.771L98.8744 172.82C99.7615 172.346 100.324 171.192 100.324 169.541V134.53C100.324 131.575 98.5576 128.138 96.3001 126.858Z" fill="#49108B"/>
<path d="M99.1993 130.169C98.562 128.817 97.5577 127.67 96.3003 126.858L64.7987 108.685C64.4362 108.435 64.0168 108.278 63.5784 108.23C63.14 108.182 62.6964 108.243 62.2878 108.409C62.2017 108.448 62.1195 108.496 62.0423 108.551L55.1907 112.557C55.6098 112.343 56.0798 112.249 56.5492 112.283C57.0185 112.318 57.4693 112.481 57.8521 112.754L89.3536 130.927C90.6538 131.775 91.6843 132.976 92.324 134.388L99.1993 130.169Z" fill="#49108B"/>
<path d="M93.3773 173.539C93.3773 175.119 92.8703 176.218 92.0703 176.7L98.8744 172.749C99.7615 172.275 100.324 171.121 100.324 169.47V134.53C100.29 133.01 99.9055 131.517 99.1991 130.169L92.3238 134.388C92.9839 135.697 93.3438 137.135 93.3773 138.6V173.539Z" fill="#49108B"/>
<path opacity="0.3" d="M99.1993 130.169C98.562 128.817 97.5577 127.67 96.3003 126.858L64.7987 108.685C64.4362 108.435 64.0168 108.278 63.5784 108.23C63.14 108.182 62.6964 108.243 62.2878 108.409C62.2017 108.448 62.1195 108.496 62.0423 108.551L55.1907 112.557C55.6098 112.343 56.0798 112.249 56.5492 112.283C57.0185 112.318 57.4693 112.481 57.8521 112.754L89.3536 130.927C90.6538 131.775 91.6843 132.976 92.324 134.388L99.1993 130.169Z" fill="black"/>
<path opacity="0.6" d="M93.3773 173.539C93.3773 175.119 92.8703 176.218 92.0703 176.7L98.8744 172.749C99.7615 172.275 100.324 171.121 100.324 169.47V134.53C100.29 133.01 99.9055 131.517 99.1991 130.169L92.3238 134.388C92.9839 135.697 93.3438 137.135 93.3773 138.6V173.539Z" fill="black"/>
<path d="M84.1419 148.611C84.1419 153.138 82.3439 154.679 79.6508 153.122C78.9078 152.7 78.2582 152.133 77.7409 151.454C77.2236 150.775 76.8494 149.999 76.6408 149.172C75.8487 150.144 74.621 150.207 72.8942 149.211C70.0585 147.576 67.8248 143.68 67.8248 139.896C67.8248 136.111 70.0348 134.807 72.8942 136.451C74.3452 137.304 75.5173 138.558 76.2685 140.061V138.568L79.2547 140.291V148.476C79.2103 148.907 79.2849 149.342 79.4707 149.733C79.6564 150.125 79.946 150.458 80.3082 150.697C81.3142 151.281 81.932 150.294 81.932 147.362C81.932 142.234 78.6369 136.798 73.7655 133.993C68.8942 131.188 65.607 133.14 65.607 138.418C65.6708 141.219 66.4444 143.958 67.8558 146.38C69.2671 148.802 71.2702 150.828 73.6784 152.269C74.9859 153.072 76.4707 153.544 78.0032 153.644L78.7082 156.37C76.9238 156.226 75.1995 155.66 73.6784 154.718C67.3417 151.06 63.1515 143.696 63.1515 137.027C63.1515 130.359 67.3813 127.941 73.7655 131.623C79.9359 135.171 84.1419 142.274 84.1419 148.611ZM76.3161 144.81C76.3315 143.808 76.0864 142.819 75.6047 141.94C75.123 141.061 74.4211 140.321 73.5675 139.793C71.9833 138.868 70.8506 139.516 70.8506 141.665C70.8302 142.669 71.0696 143.661 71.5455 144.545C72.0214 145.43 72.7178 146.177 73.5675 146.714C75.1517 147.607 76.3161 147.03 76.3161 144.81Z" fill="#49108B"/>
<g opacity="0.9">
<path d="M84.1418 148.611C84.1418 153.138 82.3438 154.679 79.6506 153.122C78.9077 152.7 78.2581 152.133 77.7408 151.454C77.2235 150.775 76.8493 149.999 76.6407 149.172C75.8486 150.144 74.6209 150.207 72.8941 149.211C70.0584 147.576 67.8247 143.68 67.8247 139.896C67.8247 136.111 70.0346 134.807 72.8941 136.451C74.3451 137.304 75.5171 138.558 76.2684 140.062V138.568L79.2546 140.291V148.476C79.2101 148.907 79.2848 149.342 79.4705 149.733C79.6563 150.125 79.9459 150.458 80.3081 150.697C81.314 151.281 81.9319 150.294 81.9319 147.362C81.9319 142.234 78.6368 136.798 73.7654 133.993C68.894 131.188 65.6069 133.14 65.6069 138.418C65.6707 141.219 66.4443 143.958 67.8557 146.38C69.267 148.802 71.2701 150.828 73.6783 152.269C74.9858 153.072 76.4706 153.544 78.0031 153.644L78.7081 156.37C76.9237 156.226 75.1994 155.66 73.6783 154.718C67.3415 151.06 63.1514 143.696 63.1514 137.027C63.1514 130.359 67.3811 127.941 73.7654 131.623C79.9358 135.171 84.1418 142.274 84.1418 148.611ZM76.3159 144.81C76.3313 143.808 76.0863 142.82 75.6046 141.94C75.1229 141.061 74.421 140.321 73.5674 139.793C71.9832 138.868 70.8505 139.516 70.8505 141.665C70.8301 142.669 71.0694 143.661 71.5453 144.545C72.0213 145.43 72.7177 146.177 73.5674 146.714C75.1516 147.607 76.3159 147.03 76.3159 144.81Z" fill="#7E30E1"/>
</g>
<path d="M96.3001 189.105L64.7986 170.932C64.4366 170.68 64.0166 170.523 63.5777 170.476C63.1388 170.429 62.695 170.493 62.2877 170.663C62.2016 170.703 62.1193 170.75 62.0421 170.805L55.1905 174.811H55.238C54.3747 175.301 53.8281 176.439 53.8281 178.059V212.998C53.8281 215.961 55.6262 219.39 57.852 220.67L89.3535 238.843C89.7523 239.134 90.2283 239.3 90.7216 239.321C91.2149 239.342 91.7035 239.217 92.1258 238.962L92.0703 239.009L98.8744 235.019C99.7615 234.553 100.324 233.439 100.324 231.74V196.769C100.324 193.814 98.5576 190.385 96.3001 189.105Z" fill="#49108B"/>
<path d="M99.1993 192.415C98.5642 191.062 97.5594 189.914 96.3003 189.105L64.7987 170.932C64.4367 170.68 64.0168 170.523 63.5778 170.476C63.1389 170.429 62.6952 170.493 62.2878 170.663C62.2017 170.703 62.1195 170.75 62.0423 170.805L55.1907 174.811C55.6088 174.595 56.0786 174.499 56.5481 174.532C57.0177 174.566 57.4689 174.728 57.8521 175.001L89.3536 193.174C90.6559 194.023 91.6867 195.227 92.324 196.642L99.1993 192.415Z" fill="#49108B"/>
<path d="M93.3773 235.778C93.3773 237.358 92.8703 238.456 92.0703 238.978L98.8744 234.988C99.7615 234.521 100.324 233.407 100.324 231.709V196.769C100.29 195.251 99.9054 193.761 99.1991 192.416L92.3238 196.635C92.9838 197.94 93.3437 199.376 93.3773 200.838V235.778Z" fill="#49108B"/>
<path opacity="0.3" d="M99.1993 192.415C98.5642 191.062 97.5594 189.914 96.3003 189.105L64.7987 170.932C64.4367 170.68 64.0168 170.523 63.5778 170.476C63.1389 170.429 62.6952 170.493 62.2878 170.663C62.2017 170.703 62.1195 170.75 62.0423 170.805L55.1907 174.811C55.6088 174.595 56.0786 174.499 56.5481 174.532C57.0177 174.566 57.4689 174.728 57.8521 175.001L89.3536 193.174C90.6559 194.023 91.6867 195.227 92.324 196.642L99.1993 192.415Z" fill="black"/>
<path opacity="0.6" d="M93.3773 235.778C93.3773 237.358 92.8703 238.456 92.0703 238.978L98.8744 234.988C99.7615 234.521 100.324 233.407 100.324 231.709V196.769C100.29 195.251 99.9054 193.761 99.1991 192.416L92.3238 196.635C92.9838 197.94 93.3437 199.376 93.3773 200.838V235.778Z" fill="black"/>
<path d="M70.0825 204.726L62.4863 192.416V209.095L70.0825 204.726Z" fill="#49108B"/>
<path d="M77.1396 208.273L84.72 221.366V204.71L77.1396 208.273Z" fill="#49108B"/>
<path d="M63.6338 191.854L71.4359 204.497C71.4689 204.524 71.4982 204.556 71.523 204.591C71.5299 204.623 71.5299 204.655 71.523 204.686L73.8439 208.447L75.8082 207.523C75.8388 207.49 75.8734 207.46 75.9112 207.436C75.9886 207.391 76.0753 207.364 76.1647 207.357L84.0856 203.651L63.6338 191.854Z" fill="#49108B"/>
<path d="M75.9906 208.811L73.8678 209.806C73.786 209.844 73.6966 209.863 73.6064 209.861C73.4971 209.863 73.3893 209.836 73.2936 209.783C73.1978 209.73 73.1173 209.654 73.0599 209.561L70.7391 205.8L63.1191 210.193L83.6264 221.998L75.9906 208.811Z" fill="#49108B"/>
<g opacity="0.9">
<path d="M70.0826 204.726L62.4865 192.416V209.095L70.0826 204.726Z" fill="#7E30E1"/>
<path d="M77.1396 208.273L84.72 221.366V204.71L77.1396 208.273Z" fill="#7E30E1"/>
<path d="M63.6346 191.854L71.4368 204.496C71.4698 204.524 71.4991 204.556 71.5239 204.591C71.5308 204.623 71.5308 204.655 71.5239 204.686L73.8447 208.447L75.8091 207.523C75.8397 207.49 75.8743 207.46 75.9121 207.436C75.9895 207.391 76.0762 207.364 76.1655 207.357L84.0865 203.651L63.6346 191.854Z" fill="#7E30E1"/>
<path d="M75.9916 208.811L73.8688 209.806C73.787 209.844 73.6976 209.863 73.6074 209.862C73.4981 209.863 73.3903 209.836 73.2945 209.783C73.1988 209.731 73.1183 209.654 73.0609 209.561L70.74 205.8L63.1201 210.193L83.6274 221.998L75.9916 208.811Z" fill="#7E30E1"/>
</g>
<path d="M96.3001 64.6436L64.7986 46.4707C64.4366 46.2186 64.0166 46.0619 63.5777 46.0149C63.1388 45.968 62.695 46.0323 62.2877 46.202C62.2016 46.2417 62.1193 46.2893 62.0421 46.3442L55.1905 50.3502H55.238C54.3747 50.8322 53.8281 51.9779 53.8281 53.5976V88.5371C53.8281 91.4922 55.6262 94.9293 57.852 96.2093L89.3535 114.382C89.7523 114.673 90.2283 114.839 90.7216 114.86C91.2149 114.881 91.7035 114.756 92.1258 114.501L92.0703 114.54L98.8744 110.59C99.7615 110.123 100.324 109.009 100.324 107.311V72.2842C100.324 69.3291 98.5576 65.892 96.3001 64.6436Z" fill="#49108B"/>
<path d="M99.1993 67.9306C98.5643 66.5749 97.5597 65.4249 96.3003 64.612L64.7987 46.4707C64.4367 46.2186 64.0168 46.0619 63.5778 46.0149C63.1389 45.968 62.6952 46.0323 62.2878 46.202C62.2017 46.2417 62.1195 46.2893 62.0423 46.3442L55.1907 50.3502C55.6088 50.1345 56.0786 50.0381 56.5481 50.0715C57.0177 50.105 57.4689 50.267 57.8521 50.5398L89.3536 68.7128C90.6559 69.5619 91.6867 70.7657 92.324 72.1815L99.1993 67.9306Z" fill="#49108B"/>
<path d="M93.3773 111.261C93.3773 112.841 92.8703 113.939 92.0703 114.421L98.8744 110.471C99.7615 110.005 100.324 108.89 100.324 107.192V72.2838C100.29 70.7655 99.9054 69.2755 99.1991 67.9302L92.3238 72.1495C92.9838 73.4551 93.3437 74.8911 93.3773 76.3529V111.261Z" fill="#49108B"/>
<path opacity="0.3" d="M99.1993 67.9306C98.5643 66.5749 97.5597 65.4249 96.3003 64.612L64.7987 46.4707C64.4367 46.2186 64.0168 46.0619 63.5778 46.0149C63.1389 45.968 62.6952 46.0323 62.2878 46.202C62.2017 46.2417 62.1195 46.2893 62.0423 46.3442L55.1907 50.3502C55.6088 50.1345 56.0786 50.0381 56.5481 50.0715C57.0177 50.105 57.4689 50.267 57.8521 50.5398L89.3536 68.7128C90.6559 69.5619 91.6867 70.7657 92.324 72.1815L99.1993 67.9306Z" fill="black"/>
<path opacity="0.6" d="M93.3773 111.261C93.3773 112.841 92.8703 113.939 92.0703 114.421L98.8744 110.471C99.7615 110.005 100.324 108.89 100.324 107.192V72.2838C100.29 70.7655 99.9054 69.2755 99.1991 67.9302L92.3238 72.1495C92.9838 73.4551 93.3437 74.8911 93.3773 76.3529V111.261Z" fill="black"/>
<path d="M83.0721 96.2487C81.8602 94.2576 80.6404 92.298 79.4285 90.2911C79.2363 89.911 78.9676 89.5744 78.6391 89.3026C78.3107 89.0307 77.9296 88.8292 77.5196 88.7108C76.9334 88.5923 76.3473 88.458 75.7453 88.2842C75.5309 88.195 75.3506 88.04 75.2304 87.8417C73.2473 84.4561 71.6708 80.8494 70.5333 77.096C70.5091 77.0157 70.5023 76.9313 70.5132 76.8482C70.5241 76.7651 70.5526 76.6853 70.5967 76.614C70.969 76.2426 71.3888 75.9029 71.769 75.571C72.1492 75.2391 72.3472 74.4727 72.07 73.4772C71.4838 71.3675 70.9214 69.2579 70.3353 67.1561C70.2219 66.5589 69.9528 66.0021 69.5551 65.5416C69.1574 65.0811 68.6452 64.7332 68.0699 64.5329C66.7926 64.1787 65.4365 64.2283 64.1887 64.6751C63.7055 64.8569 63.452 65.2914 63.4441 66.042C63.65 67.488 63.7847 68.9181 64.0619 70.3878C66.0157 80.986 70.7155 90.7309 78.1612 99.6225C78.3556 99.9174 78.6167 100.163 78.9235 100.338C79.2303 100.514 79.5743 100.615 79.9275 100.634C81.1602 100.605 82.3445 100.149 83.2781 99.346C83.983 98.7139 83.9118 97.5919 83.0721 96.2487Z" fill="#49108B"/>
<path d="M82.9772 85.4795C82.8115 83.2068 82.1836 80.9916 81.1316 78.9689C80.3463 77.3887 79.3468 75.9238 78.1613 74.6153C77.8524 74.2676 77.591 74.157 77.4326 74.4177C77.2742 74.6785 77.4326 75.0498 77.7336 75.3896L78.0425 75.7452C80.2318 78.2661 81.6116 81.3849 82.0029 84.6973C81.9991 84.9389 82.023 85.1802 82.0742 85.4163C82.1737 85.6881 82.3335 85.9339 82.5416 86.1353C82.7079 86.2539 82.898 86.1353 83.0327 86.1353C82.9851 85.8114 82.9931 85.6455 82.9772 85.4795Z" fill="#49108B"/>
<path d="M75.801 78.992C76.7957 80.0833 77.4001 81.4725 77.5199 82.9426C77.572 83.1661 77.6546 83.3815 77.7654 83.5826C78.2486 83.9777 78.4862 83.8434 78.4862 83.3456C78.3169 81.4606 77.5353 79.6824 76.2604 78.2809C75.9594 77.9727 75.7139 77.8779 75.5713 78.1386C75.52 78.2875 75.5145 78.4483 75.5554 78.6003C75.5963 78.7524 75.6819 78.8887 75.801 78.992Z" fill="#49108B"/>
<g opacity="0.9">
<path d="M83.0725 96.2487C81.8606 94.2576 80.6408 92.298 79.4289 90.2911C79.2367 89.911 78.9679 89.5744 78.6395 89.3026C78.311 89.0307 77.9299 88.8292 77.5199 88.7108C76.9338 88.5923 76.3476 88.458 75.7456 88.2842C75.5313 88.195 75.3509 88.04 75.2308 87.8417C73.2477 84.4561 71.6712 80.8494 70.5337 77.096C70.5095 77.0157 70.5026 76.9313 70.5135 76.8482C70.5245 76.7651 70.5529 76.6853 70.597 76.614C70.9693 76.2426 71.3891 75.9029 71.7693 75.571C72.1496 75.2391 72.3476 74.4727 72.0703 73.4772C71.4842 71.3675 70.9218 69.2579 70.3357 67.1561C70.2222 66.5589 69.9532 66.0021 69.5555 65.5416C69.1578 65.0811 68.6456 64.7332 68.0703 64.5329C66.7929 64.1787 65.4369 64.2283 64.189 64.6751C63.7059 64.8569 63.4524 65.2914 63.4445 66.042C63.6504 67.488 63.7851 68.9181 64.0623 70.3878C66.0161 80.986 70.7159 90.7309 78.1615 99.6225C78.3559 99.9174 78.6171 100.163 78.9239 100.338C79.2307 100.514 79.5746 100.615 79.9279 100.634C81.1606 100.605 82.3448 100.149 83.2784 99.346C83.9834 98.7139 83.9121 97.5919 83.0725 96.2487Z" fill="#7E30E1"/>
<path d="M82.9775 85.4791C82.8118 83.2064 82.1838 80.9912 81.1319 78.9685C80.3465 77.3883 79.347 75.9234 78.1615 74.6148C77.8526 74.2672 77.5912 74.1566 77.4328 74.4173C77.2744 74.6781 77.4328 75.0494 77.7338 75.3892L78.0427 75.7447C80.2321 78.2657 81.6118 81.3845 82.0032 84.6969C81.9993 84.9385 82.0232 85.1797 82.0745 85.4159C82.174 85.6876 82.3337 85.9334 82.5418 86.1349C82.7081 86.2534 82.8983 86.1349 83.0329 86.1349C82.9854 85.811 82.9933 85.645 82.9775 85.4791Z" fill="#7E30E1"/>
<path d="M75.801 78.9922C76.7957 80.0836 77.4001 81.4727 77.5199 82.9429C77.572 83.1664 77.6546 83.3817 77.7654 83.5829C78.2486 83.9779 78.4862 83.8436 78.4862 83.3458C78.3169 81.4609 77.5353 79.6826 76.2604 78.2811C75.9594 77.9729 75.7139 77.8781 75.5713 78.1389C75.52 78.2878 75.5145 78.4485 75.5554 78.6006C75.5963 78.7526 75.6819 78.889 75.801 78.9922Z" fill="#7E30E1"/>
</g>
</g>
<g filter="url(#filter1_b_147_1038)">
<path d="M160.633 159.992C164.514 155.237 166.468 149.203 166.109 143.082C165.749 136.96 163.103 131.195 158.692 126.924C154.281 122.653 148.425 120.186 142.28 120.01C136.135 119.834 130.148 121.962 125.498 125.974C120.849 129.985 117.875 135.59 117.165 141.681C116.454 147.772 118.058 153.907 121.66 158.877C125.261 163.846 130.599 167.289 136.62 168.525C142.642 169.762 148.909 168.702 154.185 165.556L166.162 170.747L160.633 159.992Z" fill="#A487C5"/>
</g>
<circle cx="132" cy="144.774" r="3" fill="#D9D9D9"/>
<circle cx="141" cy="144.774" r="3" fill="#D9D9D9"/>
<circle cx="150" cy="144.774" r="3" fill="#D9D9D9"/>
<defs>
<filter id="filter0_d_147_1038" x="0" y="0" width="373.669" height="503.645" filterUnits="userSpaceOnUse" color-interpolation-filters="sRGB">
<feFlood flood-opacity="0" result="BackgroundImageFix"/>
<feColorMatrix in="SourceAlpha" type="matrix" values="0 0 0 0 0 0 0 0 0 0 0 0 0 0 0 0 0 0 127 0" result="hardAlpha"/>
<feMorphology radius="12" operator="erode" in="SourceAlpha" result="effect1_dropShadow_147_1038"/>
<feOffset dy="32"/>
<feGaussianBlur stdDeviation="32"/>
<feColorMatrix type="matrix" values="0 0 0 0 0.0625882 0 0 0 0 0.0926346 0 0 0 0 0.15702 0 0 0 0.14 0"/>
<feBlend mode="normal" in2="BackgroundImageFix" result="effect1_dropShadow_147_1038"/>
<feBlend mode="normal" in="SourceGraphic" in2="effect1_dropShadow_147_1038" result="shape"/>
</filter>
<filter id="filter1_b_147_1038" x="67" y="70" width="149.162" height="150.747" filterUnits="userSpaceOnUse" color-interpolation-filters="sRGB">
<feFlood flood-opacity="0" result="BackgroundImageFix"/>
<feGaussianBlur in="BackgroundImageFix" stdDeviation="25"/>
<feComposite in2="SourceAlpha" operator="in" result="effect1_backgroundBlur_147_1038"/>
<feBlend mode="normal" in="SourceGraphic" in2="effect1_backgroundBlur_147_1038" result="shape"/>
</filter>
</defs>
</svg>
