<svg width="1076" height="245" viewBox="0 0 1076 245" fill="none" xmlns="http://www.w3.org/2000/svg">
<path d="M299.966 167.666L295.522 183H293.278L289.714 170.658L286.018 183L283.796 183.022L279.506 167.666H281.64L284.984 180.668L288.68 167.666H290.924L294.444 180.624L297.81 167.666H299.966ZM303.631 168.986C303.25 168.986 302.927 168.854 302.663 168.59C302.399 168.326 302.267 168.003 302.267 167.622C302.267 167.241 302.399 166.918 302.663 166.654C302.927 166.39 303.25 166.258 303.631 166.258C303.998 166.258 304.306 166.39 304.555 166.654C304.819 166.918 304.951 167.241 304.951 167.622C304.951 168.003 304.819 168.326 304.555 168.59C304.306 168.854 303.998 168.986 303.631 168.986ZM304.599 170.944V183H302.597V170.944H304.599ZM314.325 170.724C315.792 170.724 316.98 171.171 317.889 172.066C318.798 172.946 319.253 174.222 319.253 175.894V183H317.273V176.18C317.273 174.977 316.972 174.061 316.371 173.43C315.77 172.785 314.948 172.462 313.907 172.462C312.851 172.462 312.008 172.792 311.377 173.452C310.761 174.112 310.453 175.073 310.453 176.334V183H308.451V170.944H310.453V172.66C310.849 172.044 311.384 171.567 312.059 171.23C312.748 170.893 313.504 170.724 314.325 170.724ZM325.405 172.594V179.7C325.405 180.287 325.53 180.705 325.779 180.954C326.029 181.189 326.461 181.306 327.077 181.306H328.551V183H326.747C325.633 183 324.797 182.743 324.239 182.23C323.682 181.717 323.403 180.873 323.403 179.7V172.594H321.841V170.944H323.403V167.908H325.405V170.944H328.551V172.594H325.405ZM342.417 176.51C342.417 176.891 342.395 177.295 342.351 177.72H332.715C332.788 178.908 333.192 179.839 333.925 180.514C334.673 181.174 335.575 181.504 336.631 181.504C337.496 181.504 338.215 181.306 338.787 180.91C339.374 180.499 339.784 179.957 340.019 179.282H342.175C341.852 180.441 341.207 181.387 340.239 182.12C339.271 182.839 338.068 183.198 336.631 183.198C335.487 183.198 334.46 182.941 333.551 182.428C332.656 181.915 331.952 181.189 331.439 180.25C330.926 179.297 330.669 178.197 330.669 176.95C330.669 175.703 330.918 174.611 331.417 173.672C331.916 172.733 332.612 172.015 333.507 171.516C334.416 171.003 335.458 170.746 336.631 170.746C337.775 170.746 338.787 170.995 339.667 171.494C340.547 171.993 341.222 172.682 341.691 173.562C342.175 174.427 342.417 175.41 342.417 176.51ZM340.349 176.092C340.349 175.329 340.18 174.677 339.843 174.134C339.506 173.577 339.044 173.159 338.457 172.88C337.885 172.587 337.247 172.44 336.543 172.44C335.531 172.44 334.666 172.763 333.947 173.408C333.243 174.053 332.84 174.948 332.737 176.092H340.349ZM347.501 172.902C347.853 172.213 348.352 171.677 348.997 171.296C349.657 170.915 350.457 170.724 351.395 170.724V172.792H350.867C348.623 172.792 347.501 174.009 347.501 176.444V183H345.499V170.944H347.501V172.902ZM359.88 181.394C361.742 179.898 363.202 178.673 364.258 177.72C365.314 176.752 366.201 175.747 366.92 174.706C367.653 173.65 368.02 172.616 368.02 171.604C368.02 170.651 367.785 169.903 367.316 169.36C366.861 168.803 366.12 168.524 365.094 168.524C364.096 168.524 363.319 168.839 362.762 169.47C362.219 170.086 361.926 170.915 361.882 171.956H359.946C360.004 170.313 360.503 169.045 361.442 168.15C362.38 167.255 363.59 166.808 365.072 166.808C366.582 166.808 367.778 167.226 368.658 168.062C369.552 168.898 370 170.049 370 171.516C370 172.733 369.633 173.921 368.9 175.08C368.181 176.224 367.36 177.236 366.436 178.116C365.512 178.981 364.331 179.993 362.894 181.152H370.462V182.824H359.88V181.394ZM373.216 174.882C373.216 172.359 373.627 170.394 374.448 168.986C375.269 167.563 376.707 166.852 378.76 166.852C380.799 166.852 382.229 167.563 383.05 168.986C383.871 170.394 384.282 172.359 384.282 174.882C384.282 177.449 383.871 179.443 383.05 180.866C382.229 182.289 380.799 183 378.76 183C376.707 183 375.269 182.289 374.448 180.866C373.627 179.443 373.216 177.449 373.216 174.882ZM382.302 174.882C382.302 173.606 382.214 172.528 382.038 171.648C381.877 170.753 381.532 170.035 381.004 169.492C380.491 168.949 379.743 168.678 378.76 168.678C377.763 168.678 377 168.949 376.472 169.492C375.959 170.035 375.614 170.753 375.438 171.648C375.277 172.528 375.196 173.606 375.196 174.882C375.196 176.202 375.277 177.309 375.438 178.204C375.614 179.099 375.959 179.817 376.472 180.36C377 180.903 377.763 181.174 378.76 181.174C379.743 181.174 380.491 180.903 381.004 180.36C381.532 179.817 381.877 179.099 382.038 178.204C382.214 177.309 382.302 176.202 382.302 174.882ZM387.228 181.394C389.091 179.898 390.55 178.673 391.606 177.72C392.662 176.752 393.55 175.747 394.268 174.706C395.002 173.65 395.368 172.616 395.368 171.604C395.368 170.651 395.134 169.903 394.664 169.36C394.21 168.803 393.469 168.524 392.442 168.524C391.445 168.524 390.668 168.839 390.11 169.47C389.568 170.086 389.274 170.915 389.23 171.956H387.294C387.353 170.313 387.852 169.045 388.79 168.15C389.729 167.255 390.939 166.808 392.42 166.808C393.931 166.808 395.126 167.226 396.006 168.062C396.901 168.898 397.348 170.049 397.348 171.516C397.348 172.733 396.982 173.921 396.248 175.08C395.53 176.224 394.708 177.236 393.784 178.116C392.86 178.981 391.68 179.993 390.242 181.152H397.81V182.824H387.228V181.394ZM400.521 171.098C400.623 169.749 401.144 168.693 402.083 167.93C403.021 167.167 404.239 166.786 405.735 166.786C406.732 166.786 407.59 166.969 408.309 167.336C409.042 167.688 409.592 168.172 409.959 168.788C410.34 169.404 410.531 170.101 410.531 170.878C410.531 171.787 410.267 172.572 409.739 173.232C409.225 173.892 408.551 174.317 407.715 174.508V174.618C408.668 174.853 409.423 175.315 409.981 176.004C410.538 176.693 410.817 177.595 410.817 178.71C410.817 179.546 410.626 180.301 410.245 180.976C409.863 181.636 409.291 182.157 408.529 182.538C407.766 182.919 406.849 183.11 405.779 183.11C404.224 183.11 402.948 182.707 401.951 181.9C400.953 181.079 400.396 179.92 400.279 178.424H402.215C402.317 179.304 402.677 180.023 403.293 180.58C403.909 181.137 404.73 181.416 405.757 181.416C406.783 181.416 407.561 181.152 408.089 180.624C408.631 180.081 408.903 179.385 408.903 178.534C408.903 177.434 408.536 176.642 407.803 176.158C407.069 175.674 405.962 175.432 404.481 175.432H403.975V173.76H404.503C405.852 173.745 406.871 173.525 407.561 173.1C408.25 172.66 408.595 171.985 408.595 171.076C408.595 170.299 408.338 169.675 407.825 169.206C407.326 168.737 406.607 168.502 405.669 168.502C404.759 168.502 404.026 168.737 403.469 169.206C402.911 169.675 402.581 170.306 402.479 171.098H400.521Z" fill="white"/>
<path d="M281.688 209.816H285.592V211H280.232V199.848H281.688V209.816ZM286.914 206.584C286.914 205.688 287.096 204.904 287.458 204.232C287.821 203.549 288.317 203.021 288.946 202.648C289.586 202.275 290.296 202.088 291.074 202.088C291.842 202.088 292.509 202.253 293.074 202.584C293.64 202.915 294.061 203.331 294.338 203.832V202.232H295.81V211H294.338V209.368C294.05 209.88 293.618 210.307 293.042 210.648C292.477 210.979 291.816 211.144 291.058 211.144C290.28 211.144 289.576 210.952 288.946 210.568C288.317 210.184 287.821 209.645 287.458 208.952C287.096 208.259 286.914 207.469 286.914 206.584ZM294.338 206.6C294.338 205.939 294.205 205.363 293.938 204.872C293.672 204.381 293.309 204.008 292.85 203.752C292.402 203.485 291.906 203.352 291.362 203.352C290.818 203.352 290.322 203.48 289.874 203.736C289.426 203.992 289.069 204.365 288.802 204.856C288.536 205.347 288.402 205.923 288.402 206.584C288.402 207.256 288.536 207.843 288.802 208.344C289.069 208.835 289.426 209.213 289.874 209.48C290.322 209.736 290.818 209.864 291.362 209.864C291.906 209.864 292.402 209.736 292.85 209.48C293.309 209.213 293.672 208.835 293.938 208.344C294.205 207.843 294.338 207.261 294.338 206.6ZM306.367 202.232V211H304.911V209.704C304.633 210.152 304.244 210.504 303.743 210.76C303.252 211.005 302.708 211.128 302.111 211.128C301.428 211.128 300.815 210.989 300.271 210.712C299.727 210.424 299.295 209.997 298.975 209.432C298.665 208.867 298.511 208.179 298.511 207.368V202.232H299.951V207.176C299.951 208.04 300.169 208.707 300.607 209.176C301.044 209.635 301.641 209.864 302.399 209.864C303.177 209.864 303.791 209.624 304.239 209.144C304.687 208.664 304.911 207.965 304.911 207.048V202.232H306.367ZM313.417 202.072C314.484 202.072 315.348 202.397 316.009 203.048C316.67 203.688 317.001 204.616 317.001 205.832V211H315.561V206.04C315.561 205.165 315.342 204.499 314.905 204.04C314.468 203.571 313.87 203.336 313.113 203.336C312.345 203.336 311.732 203.576 311.273 204.056C310.825 204.536 310.601 205.235 310.601 206.152V211H309.145V202.232H310.601V203.48C310.889 203.032 311.278 202.685 311.769 202.44C312.27 202.195 312.82 202.072 313.417 202.072ZM319.155 206.6C319.155 205.693 319.337 204.904 319.699 204.232C320.062 203.549 320.563 203.021 321.203 202.648C321.854 202.275 322.595 202.088 323.427 202.088C324.505 202.088 325.39 202.349 326.083 202.872C326.787 203.395 327.251 204.12 327.475 205.048H325.907C325.758 204.515 325.465 204.093 325.027 203.784C324.601 203.475 324.067 203.32 323.427 203.32C322.595 203.32 321.923 203.608 321.411 204.184C320.899 204.749 320.643 205.555 320.643 206.6C320.643 207.656 320.899 208.472 321.411 209.048C321.923 209.624 322.595 209.912 323.427 209.912C324.067 209.912 324.601 209.763 325.027 209.464C325.454 209.165 325.747 208.739 325.907 208.184H327.475C327.241 209.08 326.771 209.8 326.067 210.344C325.363 210.877 324.483 211.144 323.427 211.144C322.595 211.144 321.854 210.957 321.203 210.584C320.563 210.211 320.062 209.683 319.699 209C319.337 208.317 319.155 207.517 319.155 206.6ZM334.09 202.072C334.752 202.072 335.349 202.216 335.882 202.504C336.416 202.781 336.832 203.203 337.13 203.768C337.44 204.333 337.594 205.021 337.594 205.832V211H336.154V206.04C336.154 205.165 335.936 204.499 335.498 204.04C335.061 203.571 334.464 203.336 333.706 203.336C332.938 203.336 332.325 203.576 331.866 204.056C331.418 204.536 331.194 205.235 331.194 206.152V211H329.738V199.16H331.194V203.48C331.482 203.032 331.877 202.685 332.378 202.44C332.89 202.195 333.461 202.072 334.09 202.072ZM344.334 206.584C344.334 205.688 344.516 204.904 344.878 204.232C345.241 203.549 345.737 203.021 346.366 202.648C347.006 202.275 347.721 202.088 348.51 202.088C349.193 202.088 349.828 202.248 350.414 202.568C351.001 202.877 351.449 203.288 351.758 203.8V199.16H353.23V211H351.758V209.352C351.47 209.875 351.044 210.307 350.478 210.648C349.913 210.979 349.252 211.144 348.494 211.144C347.716 211.144 347.006 210.952 346.366 210.568C345.737 210.184 345.241 209.645 344.878 208.952C344.516 208.259 344.334 207.469 344.334 206.584ZM351.758 206.6C351.758 205.939 351.625 205.363 351.358 204.872C351.092 204.381 350.729 204.008 350.27 203.752C349.822 203.485 349.326 203.352 348.782 203.352C348.238 203.352 347.742 203.48 347.294 203.736C346.846 203.992 346.489 204.365 346.222 204.856C345.956 205.347 345.822 205.923 345.822 206.584C345.822 207.256 345.956 207.843 346.222 208.344C346.489 208.835 346.846 209.213 347.294 209.48C347.742 209.736 348.238 209.864 348.782 209.864C349.326 209.864 349.822 209.736 350.27 209.48C350.729 209.213 351.092 208.835 351.358 208.344C351.625 207.843 351.758 207.261 351.758 206.6ZM355.467 206.584C355.467 205.688 355.648 204.904 356.011 204.232C356.373 203.549 356.869 203.021 357.499 202.648C358.139 202.275 358.848 202.088 359.627 202.088C360.395 202.088 361.061 202.253 361.627 202.584C362.192 202.915 362.613 203.331 362.891 203.832V202.232H364.363V211H362.891V209.368C362.603 209.88 362.171 210.307 361.595 210.648C361.029 210.979 360.368 211.144 359.611 211.144C358.832 211.144 358.128 210.952 357.499 210.568C356.869 210.184 356.373 209.645 356.011 208.952C355.648 208.259 355.467 207.469 355.467 206.584ZM362.891 206.6C362.891 205.939 362.757 205.363 362.491 204.872C362.224 204.381 361.861 204.008 361.403 203.752C360.955 203.485 360.459 203.352 359.915 203.352C359.371 203.352 358.875 203.48 358.427 203.736C357.979 203.992 357.621 204.365 357.355 204.856C357.088 205.347 356.955 205.923 356.955 206.584C356.955 207.256 357.088 207.843 357.355 208.344C357.621 208.835 357.979 209.213 358.427 209.48C358.875 209.736 359.371 209.864 359.915 209.864C360.459 209.864 360.955 209.736 361.403 209.48C361.861 209.213 362.224 208.835 362.491 208.344C362.757 207.843 362.891 207.261 362.891 206.6ZM368.919 203.432V208.6C368.919 209.027 369.01 209.331 369.191 209.512C369.373 209.683 369.687 209.768 370.135 209.768H371.207V211H369.895C369.085 211 368.477 210.813 368.071 210.44C367.666 210.067 367.463 209.453 367.463 208.6V203.432H366.327V202.232H367.463V200.024H368.919V202.232H371.207V203.432H368.919ZM372.747 206.584C372.747 205.688 372.929 204.904 373.291 204.232C373.654 203.549 374.15 203.021 374.779 202.648C375.419 202.275 376.129 202.088 376.907 202.088C377.675 202.088 378.342 202.253 378.907 202.584C379.473 202.915 379.894 203.331 380.171 203.832V202.232H381.643V211H380.171V209.368C379.883 209.88 379.451 210.307 378.875 210.648C378.31 210.979 377.649 211.144 376.891 211.144C376.113 211.144 375.409 210.952 374.779 210.568C374.15 210.184 373.654 209.645 373.291 208.952C372.929 208.259 372.747 207.469 372.747 206.584ZM380.171 206.6C380.171 205.939 380.038 205.363 379.771 204.872C379.505 204.381 379.142 204.008 378.683 203.752C378.235 203.485 377.739 203.352 377.195 203.352C376.651 203.352 376.155 203.48 375.707 203.736C375.259 203.992 374.902 204.365 374.635 204.856C374.369 205.347 374.235 205.923 374.235 206.584C374.235 207.256 374.369 207.843 374.635 208.344C374.902 208.835 375.259 209.213 375.707 209.48C376.155 209.736 376.651 209.864 377.195 209.864C377.739 209.864 378.235 209.736 378.683 209.48C379.142 209.213 379.505 208.835 379.771 208.344C380.038 207.843 380.171 207.261 380.171 206.6ZM390.465 203.864C390.764 203.341 391.201 202.915 391.777 202.584C392.353 202.253 393.009 202.088 393.745 202.088C394.535 202.088 395.244 202.275 395.873 202.648C396.503 203.021 396.999 203.549 397.361 204.232C397.724 204.904 397.905 205.688 397.905 206.584C397.905 207.469 397.724 208.259 397.361 208.952C396.999 209.645 396.497 210.184 395.857 210.568C395.228 210.952 394.524 211.144 393.745 211.144C392.988 211.144 392.321 210.979 391.745 210.648C391.18 210.317 390.753 209.896 390.465 209.384V211H389.009V199.16H390.465V203.864ZM396.417 206.584C396.417 205.923 396.284 205.347 396.017 204.856C395.751 204.365 395.388 203.992 394.929 203.736C394.481 203.48 393.985 203.352 393.441 203.352C392.908 203.352 392.412 203.485 391.953 203.752C391.505 204.008 391.143 204.387 390.865 204.888C390.599 205.379 390.465 205.949 390.465 206.6C390.465 207.261 390.599 207.843 390.865 208.344C391.143 208.835 391.505 209.213 391.953 209.48C392.412 209.736 392.908 209.864 393.441 209.864C393.985 209.864 394.481 209.736 394.929 209.48C395.388 209.213 395.751 208.835 396.017 208.344C396.284 207.843 396.417 207.256 396.417 206.584ZM401.598 203.656C401.854 203.155 402.217 202.765 402.686 202.488C403.166 202.211 403.747 202.072 404.43 202.072V203.576H404.046C402.414 203.576 401.598 204.461 401.598 206.232V211H400.142V202.232H401.598V203.656ZM410.255 211.144C409.433 211.144 408.687 210.957 408.015 210.584C407.353 210.211 406.831 209.683 406.447 209C406.073 208.307 405.887 207.507 405.887 206.6C405.887 205.704 406.079 204.915 406.463 204.232C406.857 203.539 407.391 203.011 408.063 202.648C408.735 202.275 409.487 202.088 410.319 202.088C411.151 202.088 411.903 202.275 412.575 202.648C413.247 203.011 413.775 203.533 414.159 204.216C414.553 204.899 414.751 205.693 414.751 206.6C414.751 207.507 414.548 208.307 414.143 209C413.748 209.683 413.209 210.211 412.527 210.584C411.844 210.957 411.087 211.144 410.255 211.144ZM410.255 209.864C410.777 209.864 411.268 209.741 411.727 209.496C412.185 209.251 412.553 208.883 412.831 208.392C413.119 207.901 413.263 207.304 413.263 206.6C413.263 205.896 413.124 205.299 412.847 204.808C412.569 204.317 412.207 203.955 411.759 203.72C411.311 203.475 410.825 203.352 410.303 203.352C409.769 203.352 409.279 203.475 408.831 203.72C408.393 203.955 408.041 204.317 407.775 204.808C407.508 205.299 407.375 205.896 407.375 206.6C407.375 207.315 407.503 207.917 407.759 208.408C408.025 208.899 408.377 209.267 408.815 209.512C409.252 209.747 409.732 209.864 410.255 209.864ZM421.881 211L418.441 207.128V211H416.985V199.16H418.441V206.12L421.817 202.232H423.849L419.721 206.6L423.865 211H421.881ZM433.539 206.28C433.539 206.557 433.523 206.851 433.491 207.16H426.483C426.537 208.024 426.83 208.701 427.363 209.192C427.907 209.672 428.563 209.912 429.331 209.912C429.961 209.912 430.483 209.768 430.899 209.48C431.326 209.181 431.625 208.787 431.795 208.296H433.363C433.129 209.139 432.659 209.827 431.955 210.36C431.251 210.883 430.377 211.144 429.331 211.144C428.499 211.144 427.753 210.957 427.091 210.584C426.441 210.211 425.929 209.683 425.555 209C425.182 208.307 424.995 207.507 424.995 206.6C424.995 205.693 425.177 204.899 425.539 204.216C425.902 203.533 426.409 203.011 427.059 202.648C427.721 202.275 428.478 202.088 429.331 202.088C430.163 202.088 430.899 202.269 431.539 202.632C432.179 202.995 432.67 203.496 433.011 204.136C433.363 204.765 433.539 205.48 433.539 206.28ZM432.035 205.976C432.035 205.421 431.913 204.947 431.667 204.552C431.422 204.147 431.086 203.843 430.659 203.64C430.243 203.427 429.779 203.32 429.267 203.32C428.531 203.32 427.902 203.555 427.379 204.024C426.867 204.493 426.574 205.144 426.499 205.976H432.035ZM437.237 203.656C437.493 203.155 437.856 202.765 438.325 202.488C438.805 202.211 439.387 202.072 440.069 202.072V203.576H439.685C438.053 203.576 437.237 204.461 437.237 206.232V211H435.781V202.232H437.237V203.656ZM281.688 224.656C281.944 224.155 282.307 223.765 282.776 223.488C283.256 223.211 283.837 223.072 284.52 223.072V224.576H284.136C282.504 224.576 281.688 225.461 281.688 227.232V232H280.232V223.232H281.688V224.656ZM294.521 227.28C294.521 227.557 294.505 227.851 294.473 228.16H287.465C287.518 229.024 287.811 229.701 288.345 230.192C288.889 230.672 289.545 230.912 290.313 230.912C290.942 230.912 291.465 230.768 291.881 230.48C292.307 230.181 292.606 229.787 292.777 229.296H294.345C294.11 230.139 293.641 230.827 292.937 231.36C292.233 231.883 291.358 232.144 290.313 232.144C289.481 232.144 288.734 231.957 288.073 231.584C287.422 231.211 286.91 230.683 286.537 230C286.163 229.307 285.977 228.507 285.977 227.6C285.977 226.693 286.158 225.899 286.521 225.216C286.883 224.533 287.39 224.011 288.041 223.648C288.702 223.275 289.459 223.088 290.313 223.088C291.145 223.088 291.881 223.269 292.521 223.632C293.161 223.995 293.651 224.496 293.993 225.136C294.345 225.765 294.521 226.48 294.521 227.28ZM293.017 226.976C293.017 226.421 292.894 225.947 292.649 225.552C292.403 225.147 292.067 224.843 291.641 224.64C291.225 224.427 290.761 224.32 290.249 224.32C289.513 224.32 288.883 224.555 288.361 225.024C287.849 225.493 287.555 226.144 287.481 226.976H293.017ZM307.307 223.072C307.989 223.072 308.597 223.216 309.131 223.504C309.664 223.781 310.085 224.203 310.395 224.768C310.704 225.333 310.859 226.021 310.859 226.832V232H309.419V227.04C309.419 226.165 309.2 225.499 308.763 225.04C308.336 224.571 307.755 224.336 307.019 224.336C306.261 224.336 305.659 224.581 305.211 225.072C304.763 225.552 304.539 226.251 304.539 227.168V232H303.099V227.04C303.099 226.165 302.88 225.499 302.443 225.04C302.016 224.571 301.435 224.336 300.699 224.336C299.941 224.336 299.339 224.581 298.891 225.072C298.443 225.552 298.219 226.251 298.219 227.168V232H296.763V223.232H298.219V224.496C298.507 224.037 298.891 223.685 299.371 223.44C299.861 223.195 300.4 223.072 300.987 223.072C301.723 223.072 302.373 223.237 302.939 223.568C303.504 223.899 303.925 224.384 304.203 225.024C304.448 224.405 304.853 223.925 305.419 223.584C305.984 223.243 306.613 223.072 307.307 223.072ZM317.391 232.144C316.57 232.144 315.823 231.957 315.151 231.584C314.49 231.211 313.967 230.683 313.583 230C313.21 229.307 313.023 228.507 313.023 227.6C313.023 226.704 313.215 225.915 313.599 225.232C313.994 224.539 314.527 224.011 315.199 223.648C315.871 223.275 316.623 223.088 317.455 223.088C318.287 223.088 319.039 223.275 319.711 223.648C320.383 224.011 320.911 224.533 321.295 225.216C321.69 225.899 321.887 226.693 321.887 227.6C321.887 228.507 321.684 229.307 321.279 230C320.884 230.683 320.346 231.211 319.663 231.584C318.98 231.957 318.223 232.144 317.391 232.144ZM317.391 230.864C317.914 230.864 318.404 230.741 318.863 230.496C319.322 230.251 319.69 229.883 319.967 229.392C320.255 228.901 320.399 228.304 320.399 227.6C320.399 226.896 320.26 226.299 319.983 225.808C319.706 225.317 319.343 224.955 318.895 224.72C318.447 224.475 317.962 224.352 317.439 224.352C316.906 224.352 316.415 224.475 315.967 224.72C315.53 224.955 315.178 225.317 314.911 225.808C314.644 226.299 314.511 226.896 314.511 227.6C314.511 228.315 314.639 228.917 314.895 229.408C315.162 229.899 315.514 230.267 315.951 230.512C316.388 230.747 316.868 230.864 317.391 230.864ZM327.385 230.656L330.105 223.232H331.657L328.217 232H326.521L323.081 223.232H324.649L327.385 230.656ZM332.866 227.584C332.866 226.688 333.047 225.904 333.41 225.232C333.773 224.549 334.269 224.021 334.898 223.648C335.538 223.275 336.247 223.088 337.026 223.088C337.794 223.088 338.461 223.253 339.026 223.584C339.591 223.915 340.013 224.331 340.29 224.832V223.232H341.762V232H340.29V230.368C340.002 230.88 339.57 231.307 338.994 231.648C338.429 231.979 337.767 232.144 337.01 232.144C336.231 232.144 335.527 231.952 334.898 231.568C334.269 231.184 333.773 230.645 333.41 229.952C333.047 229.259 332.866 228.469 332.866 227.584ZM340.29 227.6C340.29 226.939 340.157 226.363 339.89 225.872C339.623 225.381 339.261 225.008 338.802 224.752C338.354 224.485 337.858 224.352 337.314 224.352C336.77 224.352 336.274 224.48 335.826 224.736C335.378 224.992 335.021 225.365 334.754 225.856C334.487 226.347 334.354 226.923 334.354 227.584C334.354 228.256 334.487 228.843 334.754 229.344C335.021 229.835 335.378 230.213 335.826 230.48C336.274 230.736 336.77 230.864 337.314 230.864C337.858 230.864 338.354 230.736 338.802 230.48C339.261 230.213 339.623 229.835 339.89 229.344C340.157 228.843 340.29 228.261 340.29 227.6ZM345.999 220.16V232H344.543V220.16H345.999ZM356.49 232.144C355.818 232.144 355.215 232.032 354.682 231.808C354.148 231.573 353.727 231.253 353.418 230.848C353.108 230.432 352.938 229.957 352.906 229.424H354.41C354.452 229.861 354.655 230.219 355.018 230.496C355.391 230.773 355.876 230.912 356.474 230.912C357.028 230.912 357.466 230.789 357.786 230.544C358.106 230.299 358.266 229.989 358.266 229.616C358.266 229.232 358.095 228.949 357.754 228.768C357.412 228.576 356.884 228.389 356.17 228.208C355.519 228.037 354.986 227.867 354.57 227.696C354.164 227.515 353.812 227.253 353.514 226.912C353.226 226.56 353.082 226.101 353.082 225.536C353.082 225.088 353.215 224.677 353.482 224.304C353.748 223.931 354.127 223.637 354.618 223.424C355.108 223.2 355.668 223.088 356.298 223.088C357.268 223.088 358.052 223.333 358.65 223.824C359.247 224.315 359.567 224.987 359.61 225.84H358.154C358.122 225.381 357.935 225.013 357.594 224.736C357.263 224.459 356.815 224.32 356.25 224.32C355.727 224.32 355.311 224.432 355.002 224.656C354.692 224.88 354.538 225.173 354.538 225.536C354.538 225.824 354.628 226.064 354.81 226.256C355.002 226.437 355.236 226.587 355.514 226.704C355.802 226.811 356.196 226.933 356.698 227.072C357.327 227.243 357.839 227.413 358.234 227.584C358.628 227.744 358.964 227.989 359.242 228.32C359.53 228.651 359.679 229.083 359.69 229.616C359.69 230.096 359.556 230.528 359.29 230.912C359.023 231.296 358.644 231.6 358.154 231.824C357.674 232.037 357.119 232.144 356.49 232.144ZM370.065 227.28C370.065 227.557 370.049 227.851 370.017 228.16H363.009C363.062 229.024 363.356 229.701 363.889 230.192C364.433 230.672 365.089 230.912 365.857 230.912C366.486 230.912 367.009 230.768 367.425 230.48C367.852 230.181 368.15 229.787 368.321 229.296H369.889C369.654 230.139 369.185 230.827 368.481 231.36C367.777 231.883 366.902 232.144 365.857 232.144C365.025 232.144 364.278 231.957 363.617 231.584C362.966 231.211 362.454 230.683 362.081 230C361.708 229.307 361.521 228.507 361.521 227.6C361.521 226.693 361.702 225.899 362.065 225.216C362.428 224.533 362.934 224.011 363.585 223.648C364.246 223.275 365.004 223.088 365.857 223.088C366.689 223.088 367.425 223.269 368.065 223.632C368.705 223.995 369.196 224.496 369.537 225.136C369.889 225.765 370.065 226.48 370.065 227.28ZM368.561 226.976C368.561 226.421 368.438 225.947 368.193 225.552C367.948 225.147 367.612 224.843 367.185 224.64C366.769 224.427 366.305 224.32 365.793 224.32C365.057 224.32 364.428 224.555 363.905 225.024C363.393 225.493 363.1 226.144 363.025 226.976H368.561ZM373.763 224.656C374.019 224.155 374.382 223.765 374.851 223.488C375.331 223.211 375.912 223.072 376.595 223.072V224.576H376.211C374.579 224.576 373.763 225.461 373.763 227.232V232H372.307V223.232H373.763V224.656ZM381.86 230.656L384.58 223.232H386.132L382.692 232H380.996L377.556 223.232H379.124L381.86 230.656ZM388.636 221.808C388.359 221.808 388.124 221.712 387.932 221.52C387.74 221.328 387.644 221.093 387.644 220.816C387.644 220.539 387.74 220.304 387.932 220.112C388.124 219.92 388.359 219.824 388.636 219.824C388.903 219.824 389.127 219.92 389.308 220.112C389.5 220.304 389.596 220.539 389.596 220.816C389.596 221.093 389.5 221.328 389.308 221.52C389.127 221.712 388.903 221.808 388.636 221.808ZM389.34 223.232V232H387.884V223.232H389.34ZM391.598 227.6C391.598 226.693 391.779 225.904 392.142 225.232C392.505 224.549 393.006 224.021 393.646 223.648C394.297 223.275 395.038 223.088 395.87 223.088C396.947 223.088 397.833 223.349 398.526 223.872C399.23 224.395 399.694 225.12 399.918 226.048H398.35C398.201 225.515 397.907 225.093 397.47 224.784C397.043 224.475 396.51 224.32 395.87 224.32C395.038 224.32 394.366 224.608 393.854 225.184C393.342 225.749 393.086 226.555 393.086 227.6C393.086 228.656 393.342 229.472 393.854 230.048C394.366 230.624 395.038 230.912 395.87 230.912C396.51 230.912 397.043 230.763 397.47 230.464C397.897 230.165 398.19 229.739 398.35 229.184H399.918C399.683 230.08 399.214 230.8 398.51 231.344C397.806 231.877 396.926 232.144 395.87 232.144C395.038 232.144 394.297 231.957 393.646 231.584C393.006 231.211 392.505 230.683 392.142 230C391.779 229.317 391.598 228.517 391.598 227.6ZM410.181 227.28C410.181 227.557 410.165 227.851 410.133 228.16H403.125C403.178 229.024 403.471 229.701 404.005 230.192C404.549 230.672 405.205 230.912 405.973 230.912C406.602 230.912 407.125 230.768 407.541 230.48C407.967 230.181 408.266 229.787 408.437 229.296H410.005C409.77 230.139 409.301 230.827 408.597 231.36C407.893 231.883 407.018 232.144 405.973 232.144C405.141 232.144 404.394 231.957 403.733 231.584C403.082 231.211 402.57 230.683 402.197 230C401.823 229.307 401.637 228.507 401.637 227.6C401.637 226.693 401.818 225.899 402.181 225.216C402.543 224.533 403.05 224.011 403.701 223.648C404.362 223.275 405.119 223.088 405.973 223.088C406.805 223.088 407.541 223.269 408.181 223.632C408.821 223.995 409.311 224.496 409.653 225.136C410.005 225.765 410.181 226.48 410.181 227.28ZM408.677 226.976C408.677 226.421 408.554 225.947 408.309 225.552C408.063 225.147 407.727 224.843 407.301 224.64C406.885 224.427 406.421 224.32 405.909 224.32C405.173 224.32 404.543 224.555 404.021 225.024C403.509 225.493 403.215 226.144 403.141 226.976H408.677ZM415.527 232.144C414.855 232.144 414.252 232.032 413.719 231.808C413.185 231.573 412.764 231.253 412.455 230.848C412.145 230.432 411.975 229.957 411.943 229.424H413.447C413.489 229.861 413.692 230.219 414.055 230.496C414.428 230.773 414.913 230.912 415.511 230.912C416.065 230.912 416.503 230.789 416.823 230.544C417.143 230.299 417.303 229.989 417.303 229.616C417.303 229.232 417.132 228.949 416.791 228.768C416.449 228.576 415.921 228.389 415.207 228.208C414.556 228.037 414.023 227.867 413.607 227.696C413.201 227.515 412.849 227.253 412.551 226.912C412.263 226.56 412.119 226.101 412.119 225.536C412.119 225.088 412.252 224.677 412.519 224.304C412.785 223.931 413.164 223.637 413.655 223.424C414.145 223.2 414.705 223.088 415.335 223.088C416.305 223.088 417.089 223.333 417.687 223.824C418.284 224.315 418.604 224.987 418.647 225.84H417.191C417.159 225.381 416.972 225.013 416.631 224.736C416.3 224.459 415.852 224.32 415.287 224.32C414.764 224.32 414.348 224.432 414.039 224.656C413.729 224.88 413.575 225.173 413.575 225.536C413.575 225.824 413.665 226.064 413.847 226.256C414.039 226.437 414.273 226.587 414.551 226.704C414.839 226.811 415.233 226.933 415.735 227.072C416.364 227.243 416.876 227.413 417.271 227.584C417.665 227.744 418.001 227.989 418.279 228.32C418.567 228.651 418.716 229.083 418.727 229.616C418.727 230.096 418.593 230.528 418.327 230.912C418.06 231.296 417.681 231.6 417.191 231.824C416.711 232.037 416.156 232.144 415.527 232.144Z" fill="#A7A7A7"/>
<path d="M9.89586 4.848V6.032H5.04786V9.792H8.98386V10.976H5.04786V16H3.59186V4.848H9.89586ZM18.5664 13.52H13.7024L12.8064 16H11.2704L15.3024 4.912H16.9824L20.9984 16H19.4624L18.5664 13.52ZM18.1504 12.336L16.1344 6.704L14.1184 12.336H18.1504ZM24.5316 14.816H28.4356V16H23.0756V4.848H24.5316V14.816ZM31.7579 14.816H35.6619V16H30.3019V4.848H31.7579V14.816ZM41.6977 14.832C43.0524 13.744 44.1137 12.8533 44.8817 12.16C45.6497 11.456 46.2951 10.7253 46.8177 9.968C47.3511 9.2 47.6177 8.448 47.6177 7.712C47.6177 7.01867 47.4471 6.47467 47.1057 6.08C46.7751 5.67467 46.2364 5.472 45.4897 5.472C44.7644 5.472 44.1991 5.70133 43.7937 6.16C43.3991 6.608 43.1857 7.21067 43.1537 7.968H41.7457C41.7884 6.77333 42.1511 5.85067 42.8337 5.2C43.5164 4.54933 44.3964 4.224 45.4737 4.224C46.5724 4.224 47.4417 4.528 48.0817 5.136C48.7324 5.744 49.0577 6.58133 49.0577 7.648C49.0577 8.53333 48.7911 9.39733 48.2577 10.24C47.7351 11.072 47.1377 11.808 46.4657 12.448C45.7937 13.0773 44.9351 13.8133 43.8897 14.656H49.3937V15.872H41.6977V14.832ZM51.3969 10.096C51.3969 8.26133 51.6955 6.832 52.2929 5.808C52.8902 4.77333 53.9355 4.256 55.4289 4.256C56.9115 4.256 57.9515 4.77333 58.5489 5.808C59.1462 6.832 59.4449 8.26133 59.4449 10.096C59.4449 11.9627 59.1462 13.4133 58.5489 14.448C57.9515 15.4827 56.9115 16 55.4289 16C53.9355 16 52.8902 15.4827 52.2929 14.448C51.6955 13.4133 51.3969 11.9627 51.3969 10.096ZM58.0049 10.096C58.0049 9.168 57.9409 8.384 57.8129 7.744C57.6955 7.09333 57.4449 6.57067 57.0609 6.176C56.6875 5.78133 56.1435 5.584 55.4289 5.584C54.7035 5.584 54.1489 5.78133 53.7649 6.176C53.3915 6.57067 53.1409 7.09333 53.0129 7.744C52.8955 8.384 52.8369 9.168 52.8369 10.096C52.8369 11.056 52.8955 11.8613 53.0129 12.512C53.1409 13.1627 53.3915 13.6853 53.7649 14.08C54.1489 14.4747 54.7035 14.672 55.4289 14.672C56.1435 14.672 56.6875 14.4747 57.0609 14.08C57.4449 13.6853 57.6955 13.1627 57.8129 12.512C57.9409 11.8613 58.0049 11.056 58.0049 10.096ZM61.5877 14.832C62.9424 13.744 64.0037 12.8533 64.7717 12.16C65.5397 11.456 66.1851 10.7253 66.7077 9.968C67.2411 9.2 67.5077 8.448 67.5077 7.712C67.5077 7.01867 67.3371 6.47467 66.9957 6.08C66.6651 5.67467 66.1264 5.472 65.3797 5.472C64.6544 5.472 64.0891 5.70133 63.6837 6.16C63.2891 6.608 63.0757 7.21067 63.0437 7.968H61.6357C61.6784 6.77333 62.0411 5.85067 62.7237 5.2C63.4064 4.54933 64.2864 4.224 65.3637 4.224C66.4624 4.224 67.3317 4.528 67.9717 5.136C68.6224 5.744 68.9477 6.58133 68.9477 7.648C68.9477 8.53333 68.6811 9.39733 68.1477 10.24C67.6251 11.072 67.0277 11.808 66.3557 12.448C65.6837 13.0773 64.8251 13.8133 63.7797 14.656H69.2837V15.872H61.5877V14.832ZM71.2549 7.344C71.3295 6.36267 71.7082 5.59467 72.3909 5.04C73.0735 4.48533 73.9589 4.208 75.0469 4.208C75.7722 4.208 76.3962 4.34133 76.9189 4.608C77.4522 4.864 77.8522 5.216 78.1189 5.664C78.3962 6.112 78.5349 6.61867 78.5349 7.184C78.5349 7.84533 78.3429 8.416 77.9589 8.896C77.5855 9.376 77.0949 9.68533 76.4869 9.824V9.904C77.1802 10.0747 77.7295 10.4107 78.1349 10.912C78.5402 11.4133 78.7429 12.0693 78.7429 12.88C78.7429 13.488 78.6042 14.0373 78.3269 14.528C78.0495 15.008 77.6335 15.3867 77.0789 15.664C76.5242 15.9413 75.8575 16.08 75.0789 16.08C73.9482 16.08 73.0202 15.7867 72.2949 15.2C71.5695 14.6027 71.1642 13.76 71.0789 12.672H72.4869C72.5615 13.312 72.8229 13.8347 73.2709 14.24C73.7189 14.6453 74.3162 14.848 75.0629 14.848C75.8095 14.848 76.3749 14.656 76.7589 14.272C77.1535 13.8773 77.3509 13.3707 77.3509 12.752C77.3509 11.952 77.0842 11.376 76.5509 11.024C76.0175 10.672 75.2122 10.496 74.1349 10.496H73.7669V9.28H74.1509C75.1322 9.26933 75.8735 9.10933 76.3749 8.8C76.8762 8.48 77.1269 7.98933 77.1269 7.328C77.1269 6.76267 76.9402 6.30933 76.5669 5.968C76.2042 5.62667 75.6815 5.456 74.9989 5.456C74.3375 5.456 73.8042 5.62667 73.3989 5.968C72.9935 6.30933 72.7535 6.768 72.6789 7.344H71.2549Z" fill="#A7A7A7"/>
<path d="M201.677 4.848L198.445 16H196.813L194.221 7.024L191.533 16L189.917 16.016L186.797 4.848H188.349L190.781 14.304L193.469 4.848H195.101L197.661 14.272L200.109 4.848H201.677ZM205.047 4.848V16H203.591V4.848H205.047ZM216.616 16H215.16L209.304 7.12V16H207.848V4.832H209.304L215.16 13.696V4.832H216.616V16ZM226.282 4.848V6.032H223.242V16H221.786V6.032H218.73V4.848H226.282ZM229.85 6.032V9.76H233.914V10.96H229.85V14.8H234.394V16H228.394V4.832H234.394V6.032H229.85ZM242.789 16L240.133 11.44H238.373V16H236.917V4.848H240.517C241.36 4.848 242.069 4.992 242.645 5.28C243.232 5.568 243.669 5.95733 243.957 6.448C244.245 6.93867 244.389 7.49867 244.389 8.128C244.389 8.896 244.165 9.57333 243.717 10.16C243.28 10.7467 242.619 11.136 241.733 11.328L244.533 16H242.789ZM238.373 10.272H240.517C241.307 10.272 241.899 10.08 242.293 9.696C242.688 9.30133 242.885 8.77867 242.885 8.128C242.885 7.46667 242.688 6.95467 242.293 6.592C241.909 6.22933 241.317 6.048 240.517 6.048H238.373V10.272ZM251.141 14.832C252.496 13.744 253.557 12.8533 254.325 12.16C255.093 11.456 255.739 10.7253 256.261 9.968C256.795 9.2 257.061 8.448 257.061 7.712C257.061 7.01867 256.891 6.47467 256.549 6.08C256.219 5.67467 255.68 5.472 254.933 5.472C254.208 5.472 253.643 5.70133 253.237 6.16C252.843 6.608 252.629 7.21067 252.597 7.968H251.189C251.232 6.77333 251.595 5.85067 252.277 5.2C252.96 4.54933 253.84 4.224 254.917 4.224C256.016 4.224 256.885 4.528 257.525 5.136C258.176 5.744 258.501 6.58133 258.501 7.648C258.501 8.53333 258.235 9.39733 257.701 10.24C257.179 11.072 256.581 11.808 255.909 12.448C255.237 13.0773 254.379 13.8133 253.333 14.656H258.837V15.872H251.141V14.832ZM260.841 10.096C260.841 8.26133 261.139 6.832 261.737 5.808C262.334 4.77333 263.379 4.256 264.873 4.256C266.355 4.256 267.395 4.77333 267.993 5.808C268.59 6.832 268.889 8.26133 268.889 10.096C268.889 11.9627 268.59 13.4133 267.993 14.448C267.395 15.4827 266.355 16 264.873 16C263.379 16 262.334 15.4827 261.737 14.448C261.139 13.4133 260.841 11.9627 260.841 10.096ZM267.449 10.096C267.449 9.168 267.385 8.384 267.257 7.744C267.139 7.09333 266.889 6.57067 266.505 6.176C266.131 5.78133 265.587 5.584 264.873 5.584C264.147 5.584 263.593 5.78133 263.209 6.176C262.835 6.57067 262.585 7.09333 262.457 7.744C262.339 8.384 262.281 9.168 262.281 10.096C262.281 11.056 262.339 11.8613 262.457 12.512C262.585 13.1627 262.835 13.6853 263.209 14.08C263.593 14.4747 264.147 14.672 264.873 14.672C265.587 14.672 266.131 14.4747 266.505 14.08C266.889 13.6853 267.139 13.1627 267.257 12.512C267.385 11.8613 267.449 11.056 267.449 10.096ZM271.031 14.832C272.386 13.744 273.447 12.8533 274.215 12.16C274.983 11.456 275.629 10.7253 276.151 9.968C276.685 9.2 276.951 8.448 276.951 7.712C276.951 7.01867 276.781 6.47467 276.439 6.08C276.109 5.67467 275.57 5.472 274.823 5.472C274.098 5.472 273.533 5.70133 273.127 6.16C272.733 6.608 272.519 7.21067 272.487 7.968H271.079C271.122 6.77333 271.485 5.85067 272.167 5.2C272.85 4.54933 273.73 4.224 274.807 4.224C275.906 4.224 276.775 4.528 277.415 5.136C278.066 5.744 278.391 6.58133 278.391 7.648C278.391 8.53333 278.125 9.39733 277.591 10.24C277.069 11.072 276.471 11.808 275.799 12.448C275.127 13.0773 274.269 13.8133 273.223 14.656H278.727V15.872H271.031V14.832ZM280.699 7.344C280.773 6.36267 281.152 5.59467 281.835 5.04C282.517 4.48533 283.403 4.208 284.491 4.208C285.216 4.208 285.84 4.34133 286.363 4.608C286.896 4.864 287.296 5.216 287.563 5.664C287.84 6.112 287.979 6.61867 287.979 7.184C287.979 7.84533 287.787 8.416 287.403 8.896C287.029 9.376 286.539 9.68533 285.931 9.824V9.904C286.624 10.0747 287.173 10.4107 287.579 10.912C287.984 11.4133 288.187 12.0693 288.187 12.88C288.187 13.488 288.048 14.0373 287.771 14.528C287.493 15.008 287.077 15.3867 286.523 15.664C285.968 15.9413 285.301 16.08 284.523 16.08C283.392 16.08 282.464 15.7867 281.739 15.2C281.013 14.6027 280.608 13.76 280.523 12.672H281.931C282.005 13.312 282.267 13.8347 282.715 14.24C283.163 14.6453 283.76 14.848 284.507 14.848C285.253 14.848 285.819 14.656 286.203 14.272C286.597 13.8773 286.795 13.3707 286.795 12.752C286.795 11.952 286.528 11.376 285.995 11.024C285.461 10.672 284.656 10.496 283.579 10.496H283.211V9.28H283.595C284.576 9.26933 285.317 9.10933 285.819 8.8C286.32 8.48 286.571 7.98933 286.571 7.328C286.571 6.76267 286.384 6.30933 286.011 5.968C285.648 5.62667 285.125 5.456 284.443 5.456C283.781 5.456 283.248 5.62667 282.843 5.968C282.437 6.30933 282.197 6.768 282.123 7.344H280.699Z" fill="#A7A7A7"/>
<path d="M375.266 16.112C374.53 16.112 373.869 15.984 373.282 15.728C372.706 15.4613 372.253 15.0987 371.922 14.64C371.591 14.1707 371.421 13.632 371.41 13.024H372.962C373.015 13.5467 373.229 13.9893 373.602 14.352C373.986 14.704 374.541 14.88 375.266 14.88C375.959 14.88 376.503 14.7093 376.898 14.368C377.303 14.016 377.506 13.568 377.506 13.024C377.506 12.5973 377.389 12.2507 377.154 11.984C376.919 11.7173 376.626 11.5147 376.274 11.376C375.922 11.2373 375.447 11.088 374.85 10.928C374.114 10.736 373.522 10.544 373.074 10.352C372.637 10.16 372.258 9.86133 371.938 9.456C371.629 9.04 371.474 8.48533 371.474 7.792C371.474 7.184 371.629 6.64533 371.938 6.176C372.247 5.70667 372.679 5.344 373.234 5.088C373.799 4.832 374.445 4.704 375.17 4.704C376.215 4.704 377.069 4.96533 377.73 5.488C378.402 6.01067 378.781 6.704 378.866 7.568H377.266C377.213 7.14133 376.989 6.768 376.594 6.448C376.199 6.11733 375.677 5.952 375.026 5.952C374.418 5.952 373.922 6.112 373.538 6.432C373.154 6.74133 372.962 7.17867 372.962 7.744C372.962 8.14933 373.074 8.48 373.298 8.736C373.533 8.992 373.815 9.18933 374.146 9.328C374.487 9.456 374.962 9.60533 375.57 9.776C376.306 9.97867 376.898 10.1813 377.346 10.384C377.794 10.576 378.178 10.88 378.498 11.296C378.818 11.7013 378.978 12.256 378.978 12.96C378.978 13.504 378.834 14.016 378.546 14.496C378.258 14.976 377.831 15.3653 377.266 15.664C376.701 15.9627 376.034 16.112 375.266 16.112ZM388.897 8.112C388.897 9.04 388.577 9.81333 387.937 10.432C387.307 11.04 386.342 11.344 385.041 11.344H382.897V16H381.441V4.848H385.041C386.299 4.848 387.254 5.152 387.905 5.76C388.566 6.368 388.897 7.152 388.897 8.112ZM385.041 10.144C385.851 10.144 386.449 9.968 386.833 9.616C387.217 9.264 387.409 8.76267 387.409 8.112C387.409 6.736 386.619 6.048 385.041 6.048H382.897V10.144H385.041ZM396.898 16L394.242 11.44H392.482V16H391.026V4.848H394.626C395.469 4.848 396.178 4.992 396.754 5.28C397.341 5.568 397.778 5.95733 398.066 6.448C398.354 6.93867 398.498 7.49867 398.498 8.128C398.498 8.896 398.274 9.57333 397.826 10.16C397.389 10.7467 396.728 11.136 395.842 11.328L398.642 16H396.898ZM392.482 10.272H394.626C395.416 10.272 396.008 10.08 396.402 9.696C396.797 9.30133 396.994 8.77867 396.994 8.128C396.994 7.46667 396.797 6.95467 396.402 6.592C396.018 6.22933 395.426 6.048 394.626 6.048H392.482V10.272ZM402.537 4.848V16H401.081V4.848H402.537ZM414.106 16H412.65L406.794 7.12V16H405.338V4.832H406.794L412.65 13.696V4.832H414.106V16ZM425.356 8.08C425.047 7.42933 424.599 6.928 424.012 6.576C423.426 6.21333 422.743 6.032 421.964 6.032C421.186 6.032 420.482 6.21333 419.852 6.576C419.234 6.928 418.743 7.44 418.38 8.112C418.028 8.77333 417.852 9.54133 417.852 10.416C417.852 11.2907 418.028 12.0587 418.38 12.72C418.743 13.3813 419.234 13.8933 419.852 14.256C420.482 14.608 421.186 14.784 421.964 14.784C423.052 14.784 423.948 14.4587 424.652 13.808C425.356 13.1573 425.767 12.2773 425.884 11.168H421.436V9.984H427.436V11.104C427.351 12.0213 427.063 12.864 426.572 13.632C426.082 14.3893 425.436 14.992 424.636 15.44C423.836 15.8773 422.946 16.096 421.964 16.096C420.93 16.096 419.986 15.856 419.132 15.376C418.279 14.8853 417.602 14.208 417.1 13.344C416.61 12.48 416.364 11.504 416.364 10.416C416.364 9.328 416.61 8.352 417.1 7.488C417.602 6.61333 418.279 5.936 419.132 5.456C419.986 4.96533 420.93 4.72 421.964 4.72C423.148 4.72 424.194 5.01333 425.1 5.6C426.018 6.18667 426.684 7.01333 427.1 8.08H425.356ZM433.851 14.832C435.206 13.744 436.267 12.8533 437.035 12.16C437.803 11.456 438.448 10.7253 438.971 9.968C439.504 9.2 439.771 8.448 439.771 7.712C439.771 7.01867 439.6 6.47467 439.259 6.08C438.928 5.67467 438.39 5.472 437.643 5.472C436.918 5.472 436.352 5.70133 435.947 6.16C435.552 6.608 435.339 7.21067 435.307 7.968H433.899C433.942 6.77333 434.304 5.85067 434.987 5.2C435.67 4.54933 436.55 4.224 437.627 4.224C438.726 4.224 439.595 4.528 440.235 5.136C440.886 5.744 441.211 6.58133 441.211 7.648C441.211 8.53333 440.944 9.39733 440.411 10.24C439.888 11.072 439.291 11.808 438.619 12.448C437.947 13.0773 437.088 13.8133 436.043 14.656H441.547V15.872H433.851V14.832ZM443.55 10.096C443.55 8.26133 443.849 6.832 444.446 5.808C445.043 4.77333 446.089 4.256 447.582 4.256C449.065 4.256 450.105 4.77333 450.702 5.808C451.299 6.832 451.598 8.26133 451.598 10.096C451.598 11.9627 451.299 13.4133 450.702 14.448C450.105 15.4827 449.065 16 447.582 16C446.089 16 445.043 15.4827 444.446 14.448C443.849 13.4133 443.55 11.9627 443.55 10.096ZM450.158 10.096C450.158 9.168 450.094 8.384 449.966 7.744C449.849 7.09333 449.598 6.57067 449.214 6.176C448.841 5.78133 448.297 5.584 447.582 5.584C446.857 5.584 446.302 5.78133 445.918 6.176C445.545 6.57067 445.294 7.09333 445.166 7.744C445.049 8.384 444.99 9.168 444.99 10.096C444.99 11.056 445.049 11.8613 445.166 12.512C445.294 13.1627 445.545 13.6853 445.918 14.08C446.302 14.4747 446.857 14.672 447.582 14.672C448.297 14.672 448.841 14.4747 449.214 14.08C449.598 13.6853 449.849 13.1627 449.966 12.512C450.094 11.8613 450.158 11.056 450.158 10.096ZM453.741 14.832C455.096 13.744 456.157 12.8533 456.925 12.16C457.693 11.456 458.338 10.7253 458.861 9.968C459.394 9.2 459.661 8.448 459.661 7.712C459.661 7.01867 459.49 6.47467 459.149 6.08C458.818 5.67467 458.28 5.472 457.533 5.472C456.808 5.472 456.242 5.70133 455.837 6.16C455.442 6.608 455.229 7.21067 455.197 7.968H453.789C453.832 6.77333 454.194 5.85067 454.877 5.2C455.56 4.54933 456.44 4.224 457.517 4.224C458.616 4.224 459.485 4.528 460.125 5.136C460.776 5.744 461.101 6.58133 461.101 7.648C461.101 8.53333 460.834 9.39733 460.301 10.24C459.778 11.072 459.181 11.808 458.509 12.448C457.837 13.0773 456.978 13.8133 455.933 14.656H461.437V15.872H453.741V14.832ZM463.088 13.424V12.32L468.704 4.544H470.448V12.16H472.048V13.424H470.448V16H469.008V13.424H463.088ZM469.072 6.064L464.768 12.16H469.072V6.064Z" fill="#A7A7A7"/>
<path d="M559.335 16.112C558.599 16.112 557.938 15.984 557.351 15.728C556.775 15.4613 556.322 15.0987 555.991 14.64C555.661 14.1707 555.49 13.632 555.479 13.024H557.031C557.085 13.5467 557.298 13.9893 557.671 14.352C558.055 14.704 558.61 14.88 559.335 14.88C560.029 14.88 560.573 14.7093 560.967 14.368C561.373 14.016 561.575 13.568 561.575 13.024C561.575 12.5973 561.458 12.2507 561.223 11.984C560.989 11.7173 560.695 11.5147 560.343 11.376C559.991 11.2373 559.517 11.088 558.919 10.928C558.183 10.736 557.591 10.544 557.143 10.352C556.706 10.16 556.327 9.86133 556.007 9.456C555.698 9.04 555.543 8.48533 555.543 7.792C555.543 7.184 555.698 6.64533 556.007 6.176C556.317 5.70667 556.749 5.344 557.303 5.088C557.869 4.832 558.514 4.704 559.239 4.704C560.285 4.704 561.138 4.96533 561.799 5.488C562.471 6.01067 562.85 6.704 562.935 7.568H561.335C561.282 7.14133 561.058 6.768 560.663 6.448C560.269 6.11733 559.746 5.952 559.095 5.952C558.487 5.952 557.991 6.112 557.607 6.432C557.223 6.74133 557.031 7.17867 557.031 7.744C557.031 8.14933 557.143 8.48 557.367 8.736C557.602 8.992 557.885 9.18933 558.215 9.328C558.557 9.456 559.031 9.60533 559.639 9.776C560.375 9.97867 560.967 10.1813 561.415 10.384C561.863 10.576 562.247 10.88 562.567 11.296C562.887 11.7013 563.047 12.256 563.047 12.96C563.047 13.504 562.903 14.016 562.615 14.496C562.327 14.976 561.901 15.3653 561.335 15.664C560.77 15.9627 560.103 16.112 559.335 16.112ZM566.934 4.848V11.904C566.934 12.896 567.174 13.632 567.654 14.112C568.145 14.592 568.822 14.832 569.686 14.832C570.539 14.832 571.206 14.592 571.686 14.112C572.177 13.632 572.422 12.896 572.422 11.904V4.848H573.878V11.888C573.878 12.816 573.691 13.6 573.318 14.24C572.945 14.8693 572.438 15.3387 571.798 15.648C571.169 15.9573 570.459 16.112 569.67 16.112C568.881 16.112 568.166 15.9573 567.526 15.648C566.897 15.3387 566.395 14.8693 566.022 14.24C565.659 13.6 565.478 12.816 565.478 11.888V4.848H566.934ZM587.939 4.928V16H586.483V7.744L582.803 16H581.779L578.083 7.728V16H576.627V4.928H578.195L582.291 14.08L586.387 4.928H587.939ZM602.04 4.928V16H600.584V7.744L596.904 16H595.88L592.184 7.728V16H590.728V4.928H592.296L596.392 14.08L600.488 4.928H602.04ZM606.285 6.032V9.76H610.349V10.96H606.285V14.8H610.829V16H604.829V4.832H610.829V6.032H606.285ZM619.225 16L616.569 11.44H614.809V16H613.353V4.848H616.953C617.795 4.848 618.505 4.992 619.081 5.28C619.667 5.568 620.105 5.95733 620.393 6.448C620.681 6.93867 620.825 7.49867 620.825 8.128C620.825 8.896 620.601 9.57333 620.153 10.16C619.715 10.7467 619.054 11.136 618.169 11.328L620.969 16H619.225ZM614.809 10.272H616.953C617.742 10.272 618.334 10.08 618.729 9.696C619.123 9.30133 619.321 8.77867 619.321 8.128C619.321 7.46667 619.123 6.95467 618.729 6.592C618.345 6.22933 617.753 6.048 616.953 6.048H614.809V10.272ZM627.577 14.832C628.931 13.744 629.993 12.8533 630.761 12.16C631.529 11.456 632.174 10.7253 632.697 9.968C633.23 9.2 633.497 8.448 633.497 7.712C633.497 7.01867 633.326 6.47467 632.985 6.08C632.654 5.67467 632.115 5.472 631.369 5.472C630.643 5.472 630.078 5.70133 629.673 6.16C629.278 6.608 629.065 7.21067 629.033 7.968H627.625C627.667 6.77333 628.03 5.85067 628.713 5.2C629.395 4.54933 630.275 4.224 631.353 4.224C632.451 4.224 633.321 4.528 633.961 5.136C634.611 5.744 634.937 6.58133 634.937 7.648C634.937 8.53333 634.67 9.39733 634.137 10.24C633.614 11.072 633.017 11.808 632.345 12.448C631.673 13.0773 630.814 13.8133 629.769 14.656H635.273V15.872H627.577V14.832ZM637.276 10.096C637.276 8.26133 637.574 6.832 638.172 5.808C638.769 4.77333 639.814 4.256 641.308 4.256C642.79 4.256 643.83 4.77333 644.428 5.808C645.025 6.832 645.324 8.26133 645.324 10.096C645.324 11.9627 645.025 13.4133 644.428 14.448C643.83 15.4827 642.79 16 641.308 16C639.814 16 638.769 15.4827 638.172 14.448C637.574 13.4133 637.276 11.9627 637.276 10.096ZM643.884 10.096C643.884 9.168 643.82 8.384 643.692 7.744C643.574 7.09333 643.324 6.57067 642.94 6.176C642.566 5.78133 642.022 5.584 641.308 5.584C640.582 5.584 640.028 5.78133 639.644 6.176C639.27 6.57067 639.02 7.09333 638.892 7.744C638.774 8.384 638.716 9.168 638.716 10.096C638.716 11.056 638.774 11.8613 638.892 12.512C639.02 13.1627 639.27 13.6853 639.644 14.08C640.028 14.4747 640.582 14.672 641.308 14.672C642.022 14.672 642.566 14.4747 642.94 14.08C643.324 13.6853 643.574 13.1627 643.692 12.512C643.82 11.8613 643.884 11.056 643.884 10.096ZM647.467 14.832C648.821 13.744 649.883 12.8533 650.651 12.16C651.419 11.456 652.064 10.7253 652.587 9.968C653.12 9.2 653.387 8.448 653.387 7.712C653.387 7.01867 653.216 6.47467 652.875 6.08C652.544 5.67467 652.005 5.472 651.259 5.472C650.533 5.472 649.968 5.70133 649.563 6.16C649.168 6.608 648.955 7.21067 648.923 7.968H647.515C647.557 6.77333 647.92 5.85067 648.603 5.2C649.285 4.54933 650.165 4.224 651.243 4.224C652.341 4.224 653.211 4.528 653.851 5.136C654.501 5.744 654.827 6.58133 654.827 7.648C654.827 8.53333 654.56 9.39733 654.027 10.24C653.504 11.072 652.907 11.808 652.235 12.448C651.563 13.0773 650.704 13.8133 649.659 14.656H655.163V15.872H647.467V14.832ZM656.814 13.424V12.32L662.43 4.544H664.174V12.16H665.774V13.424H664.174V16H662.734V13.424H656.814ZM662.798 6.064L658.494 12.16H662.798V6.064Z" fill="#A7A7A7"/>
<path d="M746.173 4.848V6.032H741.325V9.792H745.261V10.976H741.325V16H739.869V4.848H746.173ZM754.843 13.52H749.979L749.083 16H747.547L751.579 4.912H753.259L757.275 16H755.739L754.843 13.52ZM754.427 12.336L752.411 6.704L750.395 12.336H754.427ZM760.808 14.816H764.712V16H759.352V4.848H760.808V14.816ZM768.035 14.816H771.939V16H766.579V4.848H768.035V14.816ZM777.975 14.832C779.329 13.744 780.391 12.8533 781.159 12.16C781.927 11.456 782.572 10.7253 783.095 9.968C783.628 9.2 783.895 8.448 783.895 7.712C783.895 7.01867 783.724 6.47467 783.383 6.08C783.052 5.67467 782.513 5.472 781.767 5.472C781.041 5.472 780.476 5.70133 780.071 6.16C779.676 6.608 779.463 7.21067 779.431 7.968H778.023C778.065 6.77333 778.428 5.85067 779.111 5.2C779.793 4.54933 780.673 4.224 781.751 4.224C782.849 4.224 783.719 4.528 784.359 5.136C785.009 5.744 785.335 6.58133 785.335 7.648C785.335 8.53333 785.068 9.39733 784.535 10.24C784.012 11.072 783.415 11.808 782.743 12.448C782.071 13.0773 781.212 13.8133 780.167 14.656H785.671V15.872H777.975V14.832ZM787.674 10.096C787.674 8.26133 787.972 6.832 788.57 5.808C789.167 4.77333 790.212 4.256 791.706 4.256C793.188 4.256 794.228 4.77333 794.826 5.808C795.423 6.832 795.722 8.26133 795.722 10.096C795.722 11.9627 795.423 13.4133 794.826 14.448C794.228 15.4827 793.188 16 791.706 16C790.212 16 789.167 15.4827 788.57 14.448C787.972 13.4133 787.674 11.9627 787.674 10.096ZM794.282 10.096C794.282 9.168 794.218 8.384 794.09 7.744C793.972 7.09333 793.722 6.57067 793.338 6.176C792.964 5.78133 792.42 5.584 791.706 5.584C790.98 5.584 790.426 5.78133 790.042 6.176C789.668 6.57067 789.418 7.09333 789.29 7.744C789.172 8.384 789.114 9.168 789.114 10.096C789.114 11.056 789.172 11.8613 789.29 12.512C789.418 13.1627 789.668 13.6853 790.042 14.08C790.426 14.4747 790.98 14.672 791.706 14.672C792.42 14.672 792.964 14.4747 793.338 14.08C793.722 13.6853 793.972 13.1627 794.09 12.512C794.218 11.8613 794.282 11.056 794.282 10.096ZM797.865 14.832C799.219 13.744 800.281 12.8533 801.049 12.16C801.817 11.456 802.462 10.7253 802.985 9.968C803.518 9.2 803.785 8.448 803.785 7.712C803.785 7.01867 803.614 6.47467 803.273 6.08C802.942 5.67467 802.403 5.472 801.657 5.472C800.931 5.472 800.366 5.70133 799.961 6.16C799.566 6.608 799.353 7.21067 799.321 7.968H797.913C797.955 6.77333 798.318 5.85067 799.001 5.2C799.683 4.54933 800.563 4.224 801.641 4.224C802.739 4.224 803.609 4.528 804.249 5.136C804.899 5.744 805.225 6.58133 805.225 7.648C805.225 8.53333 804.958 9.39733 804.425 10.24C803.902 11.072 803.305 11.808 802.633 12.448C801.961 13.0773 801.102 13.8133 800.057 14.656H805.561V15.872H797.865V14.832ZM807.212 13.424V12.32L812.828 4.544H814.572V12.16H816.172V13.424H814.572V16H813.132V13.424H807.212ZM813.196 6.064L808.892 12.16H813.196V6.064Z" fill="#A7A7A7"/>
<path d="M937.954 4.848L934.722 16H933.09L930.498 7.024L927.81 16L926.194 16.016L923.074 4.848H924.626L927.058 14.304L929.746 4.848H931.378L933.938 14.272L936.386 4.848H937.954ZM941.323 4.848V16H939.867V4.848H941.323ZM952.893 16H951.437L945.581 7.12V16H944.125V4.832H945.581L951.437 13.696V4.832H952.893V16ZM962.559 4.848V6.032H959.519V16H958.063V6.032H955.007V4.848H962.559ZM966.127 6.032V9.76H970.191V10.96H966.127V14.8H970.671V16H964.671V4.832H970.671V6.032H966.127ZM979.066 16L976.41 11.44H974.65V16H973.194V4.848H976.794C977.637 4.848 978.346 4.992 978.922 5.28C979.509 5.568 979.946 5.95733 980.234 6.448C980.522 6.93867 980.666 7.49867 980.666 8.128C980.666 8.896 980.442 9.57333 979.994 10.16C979.557 10.7467 978.896 11.136 978.01 11.328L980.81 16H979.066ZM974.65 10.272H976.794C977.584 10.272 978.176 10.08 978.57 9.696C978.965 9.30133 979.162 8.77867 979.162 8.128C979.162 7.46667 978.965 6.95467 978.57 6.592C978.186 6.22933 977.594 6.048 976.794 6.048H974.65V10.272ZM987.418 14.832C988.773 13.744 989.834 12.8533 990.602 12.16C991.37 11.456 992.016 10.7253 992.538 9.968C993.072 9.2 993.338 8.448 993.338 7.712C993.338 7.01867 993.168 6.47467 992.826 6.08C992.496 5.67467 991.957 5.472 991.21 5.472C990.485 5.472 989.92 5.70133 989.514 6.16C989.12 6.608 988.906 7.21067 988.874 7.968H987.466C987.509 6.77333 987.872 5.85067 988.554 5.2C989.237 4.54933 990.117 4.224 991.194 4.224C992.293 4.224 993.162 4.528 993.802 5.136C994.453 5.744 994.778 6.58133 994.778 7.648C994.778 8.53333 994.512 9.39733 993.978 10.24C993.456 11.072 992.858 11.808 992.186 12.448C991.514 13.0773 990.656 13.8133 989.61 14.656H995.114V15.872H987.418V14.832ZM997.117 10.096C997.117 8.26133 997.416 6.832 998.013 5.808C998.611 4.77333 999.656 4.256 1001.15 4.256C1002.63 4.256 1003.67 4.77333 1004.27 5.808C1004.87 6.832 1005.17 8.26133 1005.17 10.096C1005.17 11.9627 1004.87 13.4133 1004.27 14.448C1003.67 15.4827 1002.63 16 1001.15 16C999.656 16 998.611 15.4827 998.013 14.448C997.416 13.4133 997.117 11.9627 997.117 10.096ZM1003.73 10.096C1003.73 9.168 1003.66 8.384 1003.53 7.744C1003.42 7.09333 1003.17 6.57067 1002.78 6.176C1002.41 5.78133 1001.86 5.584 1001.15 5.584C1000.42 5.584 999.869 5.78133 999.485 6.176C999.112 6.57067 998.861 7.09333 998.733 7.744C998.616 8.384 998.557 9.168 998.557 10.096C998.557 11.056 998.616 11.8613 998.733 12.512C998.861 13.1627 999.112 13.6853 999.485 14.08C999.869 14.4747 1000.42 14.672 1001.15 14.672C1001.86 14.672 1002.41 14.4747 1002.78 14.08C1003.17 13.6853 1003.42 13.1627 1003.53 12.512C1003.66 11.8613 1003.73 11.056 1003.73 10.096ZM1007.31 14.832C1008.66 13.744 1009.72 12.8533 1010.49 12.16C1011.26 11.456 1011.91 10.7253 1012.43 9.968C1012.96 9.2 1013.23 8.448 1013.23 7.712C1013.23 7.01867 1013.06 6.47467 1012.72 6.08C1012.39 5.67467 1011.85 5.472 1011.1 5.472C1010.37 5.472 1009.81 5.70133 1009.4 6.16C1009.01 6.608 1008.8 7.21067 1008.76 7.968H1007.36C1007.4 6.77333 1007.76 5.85067 1008.44 5.2C1009.13 4.54933 1010.01 4.224 1011.08 4.224C1012.18 4.224 1013.05 4.528 1013.69 5.136C1014.34 5.744 1014.67 6.58133 1014.67 7.648C1014.67 8.53333 1014.4 9.39733 1013.87 10.24C1013.35 11.072 1012.75 11.808 1012.08 12.448C1011.4 13.0773 1010.55 13.8133 1009.5 14.656H1015V15.872H1007.31V14.832ZM1016.66 13.424V12.32L1022.27 4.544H1024.02V12.16H1025.62V13.424H1024.02V16H1022.58V13.424H1016.66ZM1022.64 6.064L1018.34 12.16H1022.64V6.064Z" fill="#A7A7A7"/>
<line x1="1.06066" y1="30.9393" x2="47.0607" y2="76.9393" stroke="#3D3D3D" stroke-width="3"/>
<line y1="-0.5" x2="28.2843" y2="-0.5" transform="matrix(0.707107 0.707107 0.707107 -0.707107 35.3979 33)" stroke="#3D3D3D"/>
<line y1="-0.5" x2="28.2843" y2="-0.5" transform="matrix(0.707107 0.707107 0.707107 -0.707107 55.3979 33)" stroke="#3D3D3D"/>
<line y1="-0.5" x2="28.2843" y2="-0.5" transform="matrix(0.707107 0.707107 0.707107 -0.707107 75.3979 33)" stroke="#3D3D3D"/>
<line y1="-0.5" x2="28.2843" y2="-0.5" transform="matrix(0.707107 0.707107 0.707107 -0.707107 95.3979 33)" stroke="#3D3D3D"/>
<line y1="-0.5" x2="28.2843" y2="-0.5" transform="matrix(0.707107 0.707107 0.707107 -0.707107 115.398 33)" stroke="#3D3D3D"/>
<line y1="-0.5" x2="28.2843" y2="-0.5" transform="matrix(0.707107 0.707107 0.707107 -0.707107 135.398 33)" stroke="#3D3D3D"/>
<line y1="-0.5" x2="28.2843" y2="-0.5" transform="matrix(0.707107 0.707107 0.707107 -0.707107 155.398 33)" stroke="#3D3D3D"/>
<line x1="186.707" y1="31.2929" x2="275.707" y2="120.293" stroke="#7E30E1" stroke-width="2"/>
<line y1="-0.5" x2="28.2843" y2="-0.5" transform="matrix(0.707107 0.707107 0.707107 -0.707107 219.038 32)" stroke="#3D3D3D"/>
<line y1="-0.5" x2="28.2843" y2="-0.5" transform="matrix(0.707107 0.707107 0.707107 -0.707107 239.038 32)" stroke="#3D3D3D"/>
<line y1="-0.5" x2="28.2843" y2="-0.5" transform="matrix(0.707107 0.707107 0.707107 -0.707107 259.038 32)" stroke="#3D3D3D"/>
<line y1="-0.5" x2="28.2843" y2="-0.5" transform="matrix(0.707107 0.707107 0.707107 -0.707107 279.038 32)" stroke="#3D3D3D"/>
<line y1="-0.5" x2="28.2843" y2="-0.5" transform="matrix(0.707107 0.707107 0.707107 -0.707107 299.038 32)" stroke="#3D3D3D"/>
<line y1="-0.5" x2="28.2843" y2="-0.5" transform="matrix(0.707107 0.707107 0.707107 -0.707107 319.038 32)" stroke="#3D3D3D"/>
<line y1="-0.5" x2="28.2843" y2="-0.5" transform="matrix(0.707107 0.707107 0.707107 -0.707107 339.038 32)" stroke="#3D3D3D"/>
<line y1="-1" x2="66.5075" y2="-1" transform="matrix(0.707107 0.707107 0.813476 -0.581598 372.353 29.9861)" stroke="#A7A7A7" stroke-width="2"/>
<line y1="-0.5" x2="28.2843" y2="-0.5" transform="matrix(0.707107 0.707107 0.707107 -0.707107 403.537 32)" stroke="#A7A7A7"/>
<line y1="-0.5" x2="28.2843" y2="-0.5" transform="matrix(0.707107 0.707107 0.707107 -0.707107 423.537 32)" stroke="#A7A7A7"/>
<line y1="-0.5" x2="28.2843" y2="-0.5" transform="matrix(0.707107 0.707107 0.707107 -0.707107 443.537 32)" stroke="#A7A7A7"/>
<line y1="-0.5" x2="28.2843" y2="-0.5" transform="matrix(0.707107 0.707107 0.707107 -0.707107 463.537 32)" stroke="#A7A7A7"/>
<line y1="-0.5" x2="28.2843" y2="-0.5" transform="matrix(0.707107 0.707107 0.707107 -0.707107 483.537 32)" stroke="#A7A7A7"/>
<line y1="-0.5" x2="28.2843" y2="-0.5" transform="matrix(0.707107 0.707107 0.707107 -0.707107 503.537 32)" stroke="#A7A7A7"/>
<line y1="-0.5" x2="28.2843" y2="-0.5" transform="matrix(0.707107 0.707107 0.707107 -0.707107 523.537 32)" stroke="#A7A7A7"/>
<line y1="-1" x2="66.5075" y2="-1" transform="matrix(0.707107 0.707107 0.813476 -0.581598 556.422 29.9861)" stroke="#A7A7A7" stroke-width="2"/>
<line y1="-0.5" x2="28.2843" y2="-0.5" transform="matrix(0.707107 0.707107 0.707107 -0.707107 587.605 32)" stroke="#A7A7A7"/>
<line y1="-0.5" x2="28.2843" y2="-0.5" transform="matrix(0.707107 0.707107 0.707107 -0.707107 607.605 32)" stroke="#A7A7A7"/>
<line y1="-0.5" x2="28.2843" y2="-0.5" transform="matrix(0.707107 0.707107 0.707107 -0.707107 627.605 32)" stroke="#A7A7A7"/>
<line y1="-0.5" x2="28.2843" y2="-0.5" transform="matrix(0.707107 0.707107 0.707107 -0.707107 647.605 32)" stroke="#A7A7A7"/>
<line y1="-0.5" x2="28.2843" y2="-0.5" transform="matrix(0.707107 0.707107 0.707107 -0.707107 667.605 32)" stroke="#A7A7A7"/>
<line y1="-0.5" x2="28.2843" y2="-0.5" transform="matrix(0.707107 0.707107 0.707107 -0.707107 687.605 32)" stroke="#A7A7A7"/>
<line y1="-0.5" x2="28.2843" y2="-0.5" transform="matrix(0.707107 0.707107 0.707107 -0.707107 707.605 32)" stroke="#A7A7A7"/>
<line y1="-1" x2="66.5075" y2="-1" transform="matrix(0.707107 0.707107 0.813476 -0.581598 740.491 29.9861)" stroke="#A7A7A7" stroke-width="2"/>
<line y1="-0.5" x2="28.2843" y2="-0.5" transform="matrix(0.707107 0.707107 0.707107 -0.707107 771.675 32)" stroke="#A7A7A7"/>
<line y1="-0.5" x2="28.2843" y2="-0.5" transform="matrix(0.707107 0.707107 0.707107 -0.707107 791.675 32)" stroke="#A7A7A7"/>
<line y1="-0.5" x2="28.2843" y2="-0.5" transform="matrix(0.707107 0.707107 0.707107 -0.707107 811.675 32)" stroke="#A7A7A7"/>
<line y1="-0.5" x2="28.2843" y2="-0.5" transform="matrix(0.707107 0.707107 0.707107 -0.707107 831.675 32)" stroke="#A7A7A7"/>
<line y1="-0.5" x2="28.2843" y2="-0.5" transform="matrix(0.707107 0.707107 0.707107 -0.707107 851.675 32)" stroke="#A7A7A7"/>
<line y1="-0.5" x2="28.2843" y2="-0.5" transform="matrix(0.707107 0.707107 0.707107 -0.707107 871.675 32)" stroke="#A7A7A7"/>
<line y1="-0.5" x2="28.2843" y2="-0.5" transform="matrix(0.707107 0.707107 0.707107 -0.707107 891.675 32)" stroke="#A7A7A7"/>
<line y1="-1" x2="66.5075" y2="-1" transform="matrix(0.707107 0.707107 0.813476 -0.581598 924.561 29.9861)" stroke="#A7A7A7" stroke-width="2"/>
<line y1="-0.5" x2="28.2843" y2="-0.5" transform="matrix(0.707107 0.707107 0.707107 -0.707107 955.744 32)" stroke="#A7A7A7"/>
<line y1="-0.5" x2="28.2843" y2="-0.5" transform="matrix(0.707107 0.707107 0.707107 -0.707107 975.744 32)" stroke="#A7A7A7"/>
<line y1="-0.5" x2="28.2843" y2="-0.5" transform="matrix(0.707107 0.707107 0.707107 -0.707107 995.744 32)" stroke="#A7A7A7"/>
<line y1="-0.5" x2="28.2843" y2="-0.5" transform="matrix(0.707107 0.707107 0.707107 -0.707107 1015.74 32)" stroke="#A7A7A7"/>
<line y1="-0.5" x2="28.2843" y2="-0.5" transform="matrix(0.707107 0.707107 0.707107 -0.707107 1035.74 32)" stroke="#A7A7A7"/>
<line y1="-0.5" x2="28.2843" y2="-0.5" transform="matrix(0.707107 0.707107 0.707107 -0.707107 1055.74 32)" stroke="#A7A7A7"/>
<path d="M628 97V83C628 81.9 627.1 81 626 81H612C610.9 81 610 81.9 610 83V97C610 98.1 610.9 99 612 99H626C627.1 99 628 98.1 628 97ZM615.9 91.98L618 94.51L621.1 90.52C621.3 90.26 621.7 90.26 621.9 90.53L625.41 95.21C625.466 95.2843 625.5 95.3726 625.508 95.4651C625.516 95.5576 625.499 95.6506 625.457 95.7336C625.416 95.8167 625.352 95.8865 625.273 95.9353C625.194 95.9841 625.103 96.01 625.01 96.01H613.02C612.6 96.01 612.37 95.53 612.63 95.2L615.12 92C615.31 91.74 615.69 91.73 615.9 91.98Z" fill="#A7A7A7"/>
<path d="M426.875 83.8334V95.3334H444.125V83.8334H426.875ZM426.875 81.9167H444.125C444.633 81.9167 445.121 82.1186 445.48 82.4781C445.84 82.8375 446.042 83.325 446.042 83.8334V95.3334C446.042 95.8413 445.841 96.33 445.476 96.6846C445.122 97.0488 444.633 97.25 444.125 97.25H437.417V99.1667H439.333V101.083H431.667V99.1667H433.583V97.25H426.875C426.367 97.25 425.878 97.0488 425.524 96.6846C425.16 96.33 424.958 95.8413 424.958 95.3334V83.8334C424.958 82.7696 425.811 81.9167 426.875 81.9167ZM434.388 88.5579C434.686 88.2704 435.088 88.0979 435.5 88.0979C435.912 88.1075 436.315 88.2704 436.612 88.5675C436.899 88.855 437.072 89.2575 437.072 89.6696C437.072 90.0913 436.899 90.4842 436.612 90.7813C436.315 91.0784 435.912 91.2413 435.5 91.2413C435.088 91.2413 434.686 91.0688 434.388 90.7813C434.101 90.4842 433.928 90.0913 433.928 89.6696C433.928 89.2575 434.101 88.855 434.388 88.5579ZM433.651 91.5C433.89 91.7488 434.177 91.9468 434.495 92.0819C434.813 92.2171 435.155 92.2868 435.5 92.2868C435.846 92.2868 436.187 92.2171 436.505 92.0819C436.823 91.9468 437.11 91.7488 437.35 91.5C437.838 91.0209 438.116 90.3596 438.116 89.6696C438.116 88.9796 437.838 88.3088 437.35 87.82C436.861 87.3313 436.19 87.0534 435.5 87.0534C434.81 87.0534 434.139 87.3313 433.651 87.82C433.162 88.3088 432.884 88.9796 432.884 89.6696C432.884 90.3596 433.162 91.0209 433.651 91.5ZM429.75 89.6696C430.204 88.5145 430.996 87.5229 432.021 86.8238C433.047 86.1247 434.259 85.7505 435.5 85.75C438.116 85.75 440.349 87.3792 441.25 89.6696C440.799 90.8269 440.009 91.8207 438.982 92.5203C437.956 93.2198 436.742 93.5925 435.5 93.5892C432.884 93.5892 430.651 91.9792 429.75 89.6696Z" fill="#A7A7A7"/>
<path d="M811.57 86.3562C811.382 86.451 811.163 86.4693 810.962 86.4069C810.76 86.3446 810.592 86.2068 810.495 86.0238C809.734 84.5575 808.581 83.3182 807.159 82.4361C807.07 82.3816 806.994 82.3106 806.933 82.2272C806.873 82.1437 806.83 82.0495 806.806 81.9498C806.783 81.8502 806.78 81.7471 806.798 81.6464C806.816 81.5457 806.854 81.4494 806.91 81.363C806.966 81.2765 807.038 81.2017 807.124 81.1427C807.21 81.0837 807.306 81.0418 807.408 81.0192C807.511 80.9966 807.616 80.9939 807.72 81.0112C807.823 81.0285 807.922 81.0655 808.01 81.12C809.668 82.1547 811.014 83.6001 811.911 85.3084C812.008 85.4915 812.027 85.7047 811.963 85.9011C811.899 86.0976 811.757 86.2613 811.57 86.3562ZM792.797 86.4437C792.943 86.4437 793.087 86.4045 793.212 86.3304C793.336 86.2564 793.438 86.1503 793.505 86.0238C794.266 84.5575 795.419 83.3182 796.841 82.4361C796.93 82.3816 797.006 82.3106 797.067 82.2272C797.127 82.1437 797.171 82.0495 797.194 81.9498C797.217 81.8502 797.22 81.7471 797.202 81.6464C797.184 81.5457 797.146 81.4494 797.09 81.363C797.034 81.2765 796.962 81.2017 796.876 81.1427C796.79 81.0837 796.694 81.0418 796.592 81.0192C796.489 80.9966 796.384 80.9939 796.28 81.0112C796.177 81.0285 796.078 81.0655 795.99 81.12C794.332 82.1547 792.986 83.6001 792.089 85.3084C792.026 85.4269 791.996 85.5592 792 85.6926C792.005 85.826 792.045 85.956 792.116 86.07C792.187 86.1841 792.287 86.2784 792.406 86.3438C792.526 86.4093 792.66 86.4437 792.797 86.4437ZM811.351 96.5469C811.493 96.7832 811.568 97.0516 811.569 97.3251C811.569 97.5985 811.496 97.8674 811.357 98.1046C811.217 98.3418 811.016 98.5389 810.773 98.676C810.53 98.8131 810.255 98.8854 809.975 98.8856H805.907C805.724 99.7646 805.235 100.555 804.522 101.122C803.81 101.69 802.918 102 801.999 102C801.079 102 800.187 101.69 799.475 101.122C798.762 100.555 798.273 99.7646 798.09 98.8856H794.023C793.742 98.8851 793.467 98.8125 793.225 98.6753C792.982 98.538 792.781 98.3409 792.642 98.1038C792.502 97.8666 792.429 97.5979 792.431 97.3246C792.432 97.0513 792.506 96.783 792.648 96.5469C793.546 95.0354 794.023 92.8863 794.023 90.3318C794.023 88.2695 794.863 86.2915 796.359 84.8332C797.854 83.3749 799.883 82.5556 801.999 82.5556C804.114 82.5556 806.143 83.3749 807.638 84.8332C809.134 86.2915 809.975 88.2695 809.975 90.3318C809.975 92.8853 810.451 95.0345 811.351 96.5469ZM804.254 98.8856H799.743C799.909 99.34 800.214 99.7332 800.618 100.011C801.022 100.289 801.504 100.439 801.999 100.439C802.493 100.439 802.975 100.289 803.379 100.011C803.783 99.7332 804.088 99.34 804.254 98.8856Z" fill="#A7A7A7"/>
<path d="M995.5 92.5C995.502 92.8058 995.409 93.1047 995.234 93.3555C995.059 93.6063 994.811 93.7968 994.523 93.9006L989.681 95.6819L987.9 100.52C987.794 100.807 987.603 101.054 987.353 101.229C987.102 101.404 986.804 101.497 986.499 101.497C986.194 101.497 985.896 101.404 985.645 101.229C985.395 101.054 985.204 100.807 985.098 100.52L983.312 95.6875L978.473 93.9062C978.186 93.8008 977.939 93.6099 977.764 93.3595C977.59 93.109 977.496 92.811 977.496 92.5056C977.496 92.2003 977.59 91.9022 977.764 91.6518C977.939 91.4013 978.186 91.2105 978.473 91.105L983.315 89.3237L985.096 84.4853C985.202 84.1987 985.393 83.9514 985.643 83.7767C985.894 83.602 986.192 83.5084 986.497 83.5084C986.802 83.5084 987.1 83.602 987.351 83.7767C987.601 83.9514 987.792 84.1987 987.898 84.4853L989.679 89.3275L994.517 91.1087C994.805 91.2111 995.053 91.3998 995.229 91.6488C995.405 91.8978 995.499 92.1951 995.5 92.5ZM990.25 83.5H991.75V85C991.75 85.1989 991.829 85.3897 991.97 85.5303C992.11 85.671 992.301 85.75 992.5 85.75C992.699 85.75 992.89 85.671 993.03 85.5303C993.171 85.3897 993.25 85.1989 993.25 85V83.5H994.75C994.949 83.5 995.14 83.421 995.28 83.2803C995.421 83.1397 995.5 82.9489 995.5 82.75C995.5 82.5511 995.421 82.3603 995.28 82.2197C995.14 82.079 994.949 82 994.75 82H993.25V80.5C993.25 80.3011 993.171 80.1103 993.03 79.9697C992.89 79.829 992.699 79.75 992.5 79.75C992.301 79.75 992.11 79.829 991.97 79.9697C991.829 80.1103 991.75 80.3011 991.75 80.5V82H990.25C990.051 82 989.86 82.079 989.72 82.2197C989.579 82.3603 989.5 82.5511 989.5 82.75C989.5 82.9489 989.579 83.1397 989.72 83.2803C989.86 83.421 990.051 83.5 990.25 83.5ZM998.5 86.5H997.75V85.75C997.75 85.5511 997.671 85.3603 997.53 85.2197C997.39 85.079 997.199 85 997 85C996.801 85 996.61 85.079 996.47 85.2197C996.329 85.3603 996.25 85.5511 996.25 85.75V86.5H995.5C995.301 86.5 995.11 86.579 994.97 86.7197C994.829 86.8603 994.75 87.0511 994.75 87.25C994.75 87.4489 994.829 87.6397 994.97 87.7803C995.11 87.921 995.301 88 995.5 88H996.25V88.75C996.25 88.9489 996.329 89.1397 996.47 89.2803C996.61 89.421 996.801 89.5 997 89.5C997.199 89.5 997.39 89.421 997.53 89.2803C997.671 89.1397 997.75 88.9489 997.75 88.75V88H998.5C998.699 88 998.89 87.921 999.03 87.7803C999.171 87.6397 999.25 87.4489 999.25 87.25C999.25 87.0511 999.171 86.8603 999.03 86.7197C998.89 86.579 998.699 86.5 998.5 86.5Z" fill="#A7A7A7"/>
<path d="M76.3125 83H55.6875C55.1902 83 54.7133 83.1975 54.3617 83.5492C54.01 83.9008 53.8125 84.3777 53.8125 84.875V101.75C53.8125 102.247 54.01 102.724 54.3617 103.076C54.7133 103.427 55.1902 103.625 55.6875 103.625H76.3125C76.8098 103.625 77.2867 103.427 77.6383 103.076C77.99 102.724 78.1875 102.247 78.1875 101.75V84.875C78.1875 84.3777 77.99 83.9008 77.6383 83.5492C77.2867 83.1975 76.8098 83 76.3125 83ZM58.9688 89.5625C58.6906 89.5625 58.4187 89.48 58.1875 89.3255C57.9562 89.171 57.776 88.9514 57.6695 88.6944C57.5631 88.4374 57.5353 88.1547 57.5895 87.8819C57.6438 87.6091 57.7777 87.3585 57.9744 87.1619C58.171 86.9652 58.4216 86.8313 58.6944 86.777C58.9672 86.7228 59.2499 86.7506 59.5069 86.857C59.7639 86.9635 59.9835 87.1437 60.138 87.375C60.2925 87.6062 60.375 87.8781 60.375 88.1562C60.375 88.5292 60.2268 88.8869 59.9631 89.1506C59.6994 89.4143 59.3417 89.5625 58.9688 89.5625ZM63.6562 89.5625C63.3781 89.5625 63.1062 89.48 62.875 89.3255C62.6437 89.171 62.4635 88.9514 62.357 88.6944C62.2506 88.4374 62.2228 88.1547 62.277 87.8819C62.3313 87.6091 62.4652 87.3585 62.6619 87.1619C62.8585 86.9652 63.1091 86.8313 63.3819 86.777C63.6547 86.7228 63.9374 86.7506 64.1944 86.857C64.4514 86.9635 64.671 87.1437 64.8255 87.375C64.98 87.6062 65.0625 87.8781 65.0625 88.1562C65.0625 88.5292 64.9143 88.8869 64.6506 89.1506C64.3869 89.4143 64.0292 89.5625 63.6562 89.5625Z" fill="#3D3D3D"/>
<path d="M289 134.25C283.953 134.25 280 136.556 280 139.5V148.5C280 151.444 283.953 153.75 289 153.75C294.047 153.75 298 151.444 298 148.5V139.5C298 136.556 294.047 134.25 289 134.25ZM296.5 144C296.5 144.902 295.761 145.822 294.474 146.524C293.025 147.314 291.08 147.75 289 147.75C286.92 147.75 284.975 147.314 283.526 146.524C282.239 145.822 281.5 144.902 281.5 144V142.44C283.099 143.846 285.834 144.75 289 144.75C292.166 144.75 294.901 143.842 296.5 142.44V144ZM294.474 151.024C293.025 151.814 291.08 152.25 289 152.25C286.92 152.25 284.975 151.814 283.526 151.024C282.239 150.322 281.5 149.402 281.5 148.5V146.94C283.099 148.346 285.834 149.25 289 149.25C292.166 149.25 294.901 148.342 296.5 146.94V148.5C296.5 149.402 295.761 150.322 294.474 151.024Z" fill="white"/>
<path d="M85 9.78947L88.7931 14L96 6" stroke="#A7A7A7"/>
<path d="M296 9.78947L299.793 14L307 6" stroke="#A7A7A7"/>
</svg>
