<svg width="1076" height="245" viewBox="0 0 1076 245" fill="none" xmlns="http://www.w3.org/2000/svg">
<path d="M117.736 154.666V156.294H111.07V161.464H116.482V163.092H111.07V170H109.068V154.666H117.736ZM119.846 163.928C119.846 162.696 120.095 161.618 120.594 160.694C121.093 159.755 121.775 159.029 122.64 158.516C123.52 158.003 124.495 157.746 125.566 157.746C126.622 157.746 127.539 157.973 128.316 158.428C129.093 158.883 129.673 159.455 130.054 160.144V157.944H132.078V170H130.054V167.756C129.658 168.46 129.064 169.047 128.272 169.516C127.495 169.971 126.585 170.198 125.544 170.198C124.473 170.198 123.505 169.934 122.64 169.406C121.775 168.878 121.093 168.137 120.594 167.184C120.095 166.231 119.846 165.145 119.846 163.928ZM130.054 163.95C130.054 163.041 129.871 162.249 129.504 161.574C129.137 160.899 128.639 160.386 128.008 160.034C127.392 159.667 126.71 159.484 125.962 159.484C125.214 159.484 124.532 159.66 123.916 160.012C123.3 160.364 122.809 160.877 122.442 161.552C122.075 162.227 121.892 163.019 121.892 163.928C121.892 164.852 122.075 165.659 122.442 166.348C122.809 167.023 123.3 167.543 123.916 167.91C124.532 168.262 125.214 168.438 125.962 168.438C126.71 168.438 127.392 168.262 128.008 167.91C128.639 167.543 129.137 167.023 129.504 166.348C129.871 165.659 130.054 164.859 130.054 163.95ZM137.903 153.72V170H135.901V153.72H137.903ZM143.757 153.72V170H141.755V153.72H143.757ZM153.343 168.394C155.205 166.898 156.665 165.673 157.721 164.72C158.777 163.752 159.664 162.747 160.383 161.706C161.116 160.65 161.483 159.616 161.483 158.604C161.483 157.651 161.248 156.903 160.779 156.36C160.324 155.803 159.583 155.524 158.557 155.524C157.559 155.524 156.782 155.839 156.225 156.47C155.682 157.086 155.389 157.915 155.345 158.956H153.409C153.467 157.313 153.966 156.045 154.905 155.15C155.843 154.255 157.053 153.808 158.535 153.808C160.045 153.808 161.241 154.226 162.121 155.062C163.015 155.898 163.463 157.049 163.463 158.516C163.463 159.733 163.096 160.921 162.363 162.08C161.644 163.224 160.823 164.236 159.899 165.116C158.975 165.981 157.794 166.993 156.357 168.152H163.925V169.824H153.343V168.394ZM166.679 161.882C166.679 159.359 167.089 157.394 167.911 155.986C168.732 154.563 170.169 153.852 172.223 153.852C174.261 153.852 175.691 154.563 176.513 155.986C177.334 157.394 177.745 159.359 177.745 161.882C177.745 164.449 177.334 166.443 176.513 167.866C175.691 169.289 174.261 170 172.223 170C170.169 170 168.732 169.289 167.911 167.866C167.089 166.443 166.679 164.449 166.679 161.882ZM175.765 161.882C175.765 160.606 175.677 159.528 175.501 158.648C175.339 157.753 174.995 157.035 174.467 156.492C173.953 155.949 173.205 155.678 172.223 155.678C171.225 155.678 170.463 155.949 169.935 156.492C169.421 157.035 169.077 157.753 168.901 158.648C168.739 159.528 168.659 160.606 168.659 161.882C168.659 163.202 168.739 164.309 168.901 165.204C169.077 166.099 169.421 166.817 169.935 167.36C170.463 167.903 171.225 168.174 172.223 168.174C173.205 168.174 173.953 167.903 174.467 167.36C174.995 166.817 175.339 166.099 175.501 165.204C175.677 164.309 175.765 163.202 175.765 161.882ZM180.691 168.394C182.554 166.898 184.013 165.673 185.069 164.72C186.125 163.752 187.013 162.747 187.731 161.706C188.465 160.65 188.831 159.616 188.831 158.604C188.831 157.651 188.597 156.903 188.127 156.36C187.673 155.803 186.932 155.524 185.905 155.524C184.908 155.524 184.131 155.839 183.573 156.47C183.031 157.086 182.737 157.915 182.693 158.956H180.757C180.816 157.313 181.315 156.045 182.253 155.15C183.192 154.255 184.402 153.808 185.883 153.808C187.394 153.808 188.589 154.226 189.469 155.062C190.364 155.898 190.811 157.049 190.811 158.516C190.811 159.733 190.445 160.921 189.711 162.08C188.993 163.224 188.171 164.236 187.247 165.116C186.323 165.981 185.143 166.993 183.705 168.152H191.273V169.824H180.691V168.394ZM193.984 158.098C194.086 156.749 194.607 155.693 195.546 154.93C196.484 154.167 197.702 153.786 199.198 153.786C200.195 153.786 201.053 153.969 201.772 154.336C202.505 154.688 203.055 155.172 203.422 155.788C203.803 156.404 203.994 157.101 203.994 157.878C203.994 158.787 203.73 159.572 203.202 160.232C202.688 160.892 202.014 161.317 201.178 161.508V161.618C202.131 161.853 202.886 162.315 203.444 163.004C204.001 163.693 204.28 164.595 204.28 165.71C204.28 166.546 204.089 167.301 203.708 167.976C203.326 168.636 202.754 169.157 201.992 169.538C201.229 169.919 200.312 170.11 199.242 170.11C197.687 170.11 196.411 169.707 195.414 168.9C194.416 168.079 193.859 166.92 193.742 165.424H195.678C195.78 166.304 196.14 167.023 196.756 167.58C197.372 168.137 198.193 168.416 199.22 168.416C200.246 168.416 201.024 168.152 201.552 167.624C202.094 167.081 202.366 166.385 202.366 165.534C202.366 164.434 201.999 163.642 201.266 163.158C200.532 162.674 199.425 162.432 197.944 162.432H197.438V160.76H197.966C199.315 160.745 200.334 160.525 201.024 160.1C201.713 159.66 202.058 158.985 202.058 158.076C202.058 157.299 201.801 156.675 201.288 156.206C200.789 155.737 200.07 155.502 199.132 155.502C198.222 155.502 197.489 155.737 196.932 156.206C196.374 156.675 196.044 157.306 195.942 158.098H193.984Z" fill="white"/>
<path d="M108.062 192.416C108.062 191.328 108.307 190.352 108.798 189.488C109.289 188.613 109.955 187.931 110.798 187.44C111.651 186.949 112.595 186.704 113.63 186.704C114.846 186.704 115.907 186.997 116.814 187.584C117.721 188.171 118.382 189.003 118.798 190.08H117.054C116.745 189.408 116.297 188.891 115.71 188.528C115.134 188.165 114.441 187.984 113.63 187.984C112.851 187.984 112.153 188.165 111.534 188.528C110.915 188.891 110.43 189.408 110.078 190.08C109.726 190.741 109.55 191.52 109.55 192.416C109.55 193.301 109.726 194.08 110.078 194.752C110.43 195.413 110.915 195.925 111.534 196.288C112.153 196.651 112.851 196.832 113.63 196.832C114.441 196.832 115.134 196.656 115.71 196.304C116.297 195.941 116.745 195.424 117.054 194.752H118.798C118.382 195.819 117.721 196.645 116.814 197.232C115.907 197.808 114.846 198.096 113.63 198.096C112.595 198.096 111.651 197.856 110.798 197.376C109.955 196.885 109.289 196.208 108.798 195.344C108.307 194.48 108.062 193.504 108.062 192.416ZM122.741 190.656C122.997 190.155 123.36 189.765 123.829 189.488C124.309 189.211 124.891 189.072 125.573 189.072V190.576H125.189C123.557 190.576 122.741 191.461 122.741 193.232V198H121.285V189.232H122.741V190.656ZM135.574 193.28C135.574 193.557 135.558 193.851 135.526 194.16H128.518C128.571 195.024 128.865 195.701 129.398 196.192C129.942 196.672 130.598 196.912 131.366 196.912C131.995 196.912 132.518 196.768 132.934 196.48C133.361 196.181 133.659 195.787 133.83 195.296H135.398C135.163 196.139 134.694 196.827 133.99 197.36C133.286 197.883 132.411 198.144 131.366 198.144C130.534 198.144 129.787 197.957 129.126 197.584C128.475 197.211 127.963 196.683 127.59 196C127.217 195.307 127.03 194.507 127.03 193.6C127.03 192.693 127.211 191.899 127.574 191.216C127.937 190.533 128.443 190.011 129.094 189.648C129.755 189.275 130.513 189.088 131.366 189.088C132.198 189.088 132.934 189.269 133.574 189.632C134.214 189.995 134.705 190.496 135.046 191.136C135.398 191.765 135.574 192.48 135.574 193.28ZM134.07 192.976C134.07 192.421 133.947 191.947 133.702 191.552C133.457 191.147 133.121 190.843 132.694 190.64C132.278 190.427 131.814 190.32 131.302 190.32C130.566 190.32 129.937 190.555 129.414 191.024C128.902 191.493 128.609 192.144 128.534 192.976H134.07ZM137.272 193.584C137.272 192.688 137.453 191.904 137.816 191.232C138.179 190.549 138.675 190.021 139.304 189.648C139.944 189.275 140.653 189.088 141.432 189.088C142.2 189.088 142.867 189.253 143.432 189.584C143.997 189.915 144.419 190.331 144.696 190.832V189.232H146.168V198H144.696V196.368C144.408 196.88 143.976 197.307 143.4 197.648C142.835 197.979 142.173 198.144 141.416 198.144C140.637 198.144 139.933 197.952 139.304 197.568C138.675 197.184 138.179 196.645 137.816 195.952C137.453 195.259 137.272 194.469 137.272 193.584ZM144.696 193.6C144.696 192.939 144.563 192.363 144.296 191.872C144.029 191.381 143.667 191.008 143.208 190.752C142.76 190.485 142.264 190.352 141.72 190.352C141.176 190.352 140.68 190.48 140.232 190.736C139.784 190.992 139.427 191.365 139.16 191.856C138.893 192.347 138.76 192.923 138.76 193.584C138.76 194.256 138.893 194.843 139.16 195.344C139.427 195.835 139.784 196.213 140.232 196.48C140.68 196.736 141.176 196.864 141.72 196.864C142.264 196.864 142.76 196.736 143.208 196.48C143.667 196.213 144.029 195.835 144.296 195.344C144.563 194.843 144.696 194.261 144.696 193.6ZM150.725 190.432V195.6C150.725 196.027 150.815 196.331 150.997 196.512C151.178 196.683 151.493 196.768 151.941 196.768H153.013V198H151.701C150.89 198 150.282 197.813 149.877 197.44C149.471 197.067 149.269 196.453 149.269 195.6V190.432H148.133V189.232H149.269V187.024H150.725V189.232H153.013V190.432H150.725ZM163.097 193.28C163.097 193.557 163.081 193.851 163.049 194.16H156.041C156.094 195.024 156.387 195.701 156.921 196.192C157.465 196.672 158.121 196.912 158.889 196.912C159.518 196.912 160.041 196.768 160.457 196.48C160.883 196.181 161.182 195.787 161.353 195.296H162.921C162.686 196.139 162.217 196.827 161.513 197.36C160.809 197.883 159.934 198.144 158.889 198.144C158.057 198.144 157.31 197.957 156.649 197.584C155.998 197.211 155.486 196.683 155.113 196C154.739 195.307 154.553 194.507 154.553 193.6C154.553 192.693 154.734 191.899 155.097 191.216C155.459 190.533 155.966 190.011 156.617 189.648C157.278 189.275 158.035 189.088 158.889 189.088C159.721 189.088 160.457 189.269 161.097 189.632C161.737 189.995 162.227 190.496 162.569 191.136C162.921 191.765 163.097 192.48 163.097 193.28ZM161.593 192.976C161.593 192.421 161.47 191.947 161.225 191.552C160.979 191.147 160.643 190.843 160.217 190.64C159.801 190.427 159.337 190.32 158.825 190.32C158.089 190.32 157.459 190.555 156.937 191.024C156.425 191.493 156.131 192.144 156.057 192.976H161.593ZM169.38 193.584C169.38 192.688 169.561 191.904 169.924 191.232C170.287 190.549 170.783 190.021 171.412 189.648C172.052 189.275 172.761 189.088 173.54 189.088C174.308 189.088 174.975 189.253 175.54 189.584C176.105 189.915 176.527 190.331 176.804 190.832V189.232H178.276V198H176.804V196.368C176.516 196.88 176.084 197.307 175.508 197.648C174.943 197.979 174.281 198.144 173.524 198.144C172.745 198.144 172.041 197.952 171.412 197.568C170.783 197.184 170.287 196.645 169.924 195.952C169.561 195.259 169.38 194.469 169.38 193.584ZM176.804 193.6C176.804 192.939 176.671 192.363 176.404 191.872C176.137 191.381 175.775 191.008 175.316 190.752C174.868 190.485 174.372 190.352 173.828 190.352C173.284 190.352 172.788 190.48 172.34 190.736C171.892 190.992 171.535 191.365 171.268 191.856C171.001 192.347 170.868 192.923 170.868 193.584C170.868 194.256 171.001 194.843 171.268 195.344C171.535 195.835 171.892 196.213 172.34 196.48C172.788 196.736 173.284 196.864 173.828 196.864C174.372 196.864 174.868 196.736 175.316 196.48C175.775 196.213 176.137 195.835 176.404 195.344C176.671 194.843 176.804 194.261 176.804 193.6ZM188.746 198.144C188.074 198.144 187.472 198.032 186.938 197.808C186.405 197.573 185.984 197.253 185.674 196.848C185.365 196.432 185.194 195.957 185.162 195.424H186.666C186.709 195.861 186.912 196.219 187.274 196.496C187.648 196.773 188.133 196.912 188.73 196.912C189.285 196.912 189.722 196.789 190.042 196.544C190.362 196.299 190.522 195.989 190.522 195.616C190.522 195.232 190.352 194.949 190.01 194.768C189.669 194.576 189.141 194.389 188.426 194.208C187.776 194.037 187.242 193.867 186.826 193.696C186.421 193.515 186.069 193.253 185.77 192.912C185.482 192.56 185.338 192.101 185.338 191.536C185.338 191.088 185.472 190.677 185.738 190.304C186.005 189.931 186.384 189.637 186.874 189.424C187.365 189.2 187.925 189.088 188.554 189.088C189.525 189.088 190.309 189.333 190.906 189.824C191.504 190.315 191.824 190.987 191.866 191.84H190.41C190.378 191.381 190.192 191.013 189.85 190.736C189.52 190.459 189.072 190.32 188.506 190.32C187.984 190.32 187.568 190.432 187.258 190.656C186.949 190.88 186.794 191.173 186.794 191.536C186.794 191.824 186.885 192.064 187.066 192.256C187.258 192.437 187.493 192.587 187.77 192.704C188.058 192.811 188.453 192.933 188.954 193.072C189.584 193.243 190.096 193.413 190.49 193.584C190.885 193.744 191.221 193.989 191.498 194.32C191.786 194.651 191.936 195.083 191.946 195.616C191.946 196.096 191.813 196.528 191.546 196.912C191.28 197.296 190.901 197.6 190.41 197.824C189.93 198.037 189.376 198.144 188.746 198.144ZM204.866 189.072C205.548 189.072 206.156 189.216 206.69 189.504C207.223 189.781 207.644 190.203 207.954 190.768C208.263 191.333 208.418 192.021 208.418 192.832V198H206.978V193.04C206.978 192.165 206.759 191.499 206.322 191.04C205.895 190.571 205.314 190.336 204.578 190.336C203.82 190.336 203.218 190.581 202.77 191.072C202.322 191.552 202.098 192.251 202.098 193.168V198H200.658V193.04C200.658 192.165 200.439 191.499 200.002 191.04C199.575 190.571 198.994 190.336 198.258 190.336C197.5 190.336 196.898 190.581 196.45 191.072C196.002 191.552 195.778 192.251 195.778 193.168V198H194.322V189.232H195.778V190.496C196.066 190.037 196.45 189.685 196.93 189.44C197.42 189.195 197.959 189.072 198.546 189.072C199.282 189.072 199.932 189.237 200.498 189.568C201.063 189.899 201.484 190.384 201.762 191.024C202.007 190.405 202.412 189.925 202.978 189.584C203.543 189.243 204.172 189.072 204.866 189.072ZM210.582 193.584C210.582 192.688 210.763 191.904 211.126 191.232C211.489 190.549 211.985 190.021 212.614 189.648C213.254 189.275 213.963 189.088 214.742 189.088C215.51 189.088 216.177 189.253 216.742 189.584C217.307 189.915 217.729 190.331 218.006 190.832V189.232H219.478V198H218.006V196.368C217.718 196.88 217.286 197.307 216.71 197.648C216.145 197.979 215.483 198.144 214.726 198.144C213.947 198.144 213.243 197.952 212.614 197.568C211.985 197.184 211.489 196.645 211.126 195.952C210.763 195.259 210.582 194.469 210.582 193.584ZM218.006 193.6C218.006 192.939 217.873 192.363 217.606 191.872C217.339 191.381 216.977 191.008 216.518 190.752C216.07 190.485 215.574 190.352 215.03 190.352C214.486 190.352 213.99 190.48 213.542 190.736C213.094 190.992 212.737 191.365 212.47 191.856C212.203 192.347 212.07 192.923 212.07 193.584C212.07 194.256 212.203 194.843 212.47 195.344C212.737 195.835 213.094 196.213 213.542 196.48C213.99 196.736 214.486 196.864 215.03 196.864C215.574 196.864 216.07 196.736 216.518 196.48C216.977 196.213 217.339 195.835 217.606 195.344C217.873 194.843 218.006 194.261 218.006 193.6ZM223.715 186.16V198H222.259V186.16H223.715ZM227.972 186.16V198H226.516V186.16H227.972ZM238.463 198.144C237.791 198.144 237.188 198.032 236.655 197.808C236.122 197.573 235.7 197.253 235.391 196.848C235.082 196.432 234.911 195.957 234.879 195.424H236.383C236.426 195.861 236.628 196.219 236.991 196.496C237.364 196.773 237.85 196.912 238.447 196.912C239.002 196.912 239.439 196.789 239.759 196.544C240.079 196.299 240.239 195.989 240.239 195.616C240.239 195.232 240.068 194.949 239.727 194.768C239.386 194.576 238.858 194.389 238.143 194.208C237.492 194.037 236.959 193.867 236.543 193.696C236.138 193.515 235.786 193.253 235.487 192.912C235.199 192.56 235.055 192.101 235.055 191.536C235.055 191.088 235.188 190.677 235.455 190.304C235.722 189.931 236.1 189.637 236.591 189.424C237.082 189.2 237.642 189.088 238.271 189.088C239.242 189.088 240.026 189.333 240.623 189.824C241.22 190.315 241.54 190.987 241.583 191.84H240.127C240.095 191.381 239.908 191.013 239.567 190.736C239.236 190.459 238.788 190.32 238.223 190.32C237.7 190.32 237.284 190.432 236.975 190.656C236.666 190.88 236.511 191.173 236.511 191.536C236.511 191.824 236.602 192.064 236.783 192.256C236.975 192.437 237.21 192.587 237.487 192.704C237.775 192.811 238.17 192.933 238.671 193.072C239.3 193.243 239.812 193.413 240.207 193.584C240.602 193.744 240.938 193.989 241.215 194.32C241.503 194.651 241.652 195.083 241.663 195.616C241.663 196.096 241.53 196.528 241.263 196.912C240.996 197.296 240.618 197.6 240.127 197.824C239.647 198.037 239.092 198.144 238.463 198.144ZM243.495 193.6C243.495 192.693 243.676 191.904 244.039 191.232C244.401 190.549 244.903 190.021 245.543 189.648C246.193 189.275 246.935 189.088 247.767 189.088C248.844 189.088 249.729 189.349 250.423 189.872C251.127 190.395 251.591 191.12 251.815 192.048H250.247C250.097 191.515 249.804 191.093 249.367 190.784C248.94 190.475 248.407 190.32 247.767 190.32C246.935 190.32 246.263 190.608 245.751 191.184C245.239 191.749 244.983 192.555 244.983 193.6C244.983 194.656 245.239 195.472 245.751 196.048C246.263 196.624 246.935 196.912 247.767 196.912C248.407 196.912 248.94 196.763 249.367 196.464C249.793 196.165 250.087 195.739 250.247 195.184H251.815C251.58 196.08 251.111 196.8 250.407 197.344C249.703 197.877 248.823 198.144 247.767 198.144C246.935 198.144 246.193 197.957 245.543 197.584C244.903 197.211 244.401 196.683 244.039 196C243.676 195.317 243.495 194.517 243.495 193.6ZM253.533 193.584C253.533 192.688 253.715 191.904 254.077 191.232C254.44 190.549 254.936 190.021 255.565 189.648C256.205 189.275 256.915 189.088 257.693 189.088C258.461 189.088 259.128 189.253 259.693 189.584C260.259 189.915 260.68 190.331 260.957 190.832V189.232H262.429V198H260.957V196.368C260.669 196.88 260.237 197.307 259.661 197.648C259.096 197.979 258.435 198.144 257.677 198.144C256.899 198.144 256.195 197.952 255.565 197.568C254.936 197.184 254.44 196.645 254.077 195.952C253.715 195.259 253.533 194.469 253.533 193.584ZM260.957 193.6C260.957 192.939 260.824 192.363 260.557 191.872C260.291 191.381 259.928 191.008 259.469 190.752C259.021 190.485 258.525 190.352 257.981 190.352C257.437 190.352 256.941 190.48 256.493 190.736C256.045 190.992 255.688 191.365 255.421 191.856C255.155 192.347 255.021 192.923 255.021 193.584C255.021 194.256 255.155 194.843 255.421 195.344C255.688 195.835 256.045 196.213 256.493 196.48C256.941 196.736 257.437 196.864 257.981 196.864C258.525 196.864 259.021 196.736 259.469 196.48C259.928 196.213 260.291 195.835 260.557 195.344C260.824 194.843 260.957 194.261 260.957 193.6ZM266.666 186.16V198H265.21V186.16H266.666ZM277.467 193.28C277.467 193.557 277.451 193.851 277.419 194.16H270.411C270.465 195.024 270.758 195.701 271.291 196.192C271.835 196.672 272.491 196.912 273.259 196.912C273.889 196.912 274.411 196.768 274.827 196.48C275.254 196.181 275.553 195.787 275.723 195.296H277.291C277.057 196.139 276.587 196.827 275.883 197.36C275.179 197.883 274.305 198.144 273.259 198.144C272.427 198.144 271.681 197.957 271.019 197.584C270.369 197.211 269.857 196.683 269.483 196C269.11 195.307 268.923 194.507 268.923 193.6C268.923 192.693 269.105 191.899 269.467 191.216C269.83 190.533 270.337 190.011 270.987 189.648C271.649 189.275 272.406 189.088 273.259 189.088C274.091 189.088 274.827 189.269 275.467 189.632C276.107 189.995 276.598 190.496 276.939 191.136C277.291 191.765 277.467 192.48 277.467 193.28ZM275.963 192.976C275.963 192.421 275.841 191.947 275.595 191.552C275.35 191.147 275.014 190.843 274.587 190.64C274.171 190.427 273.707 190.32 273.195 190.32C272.459 190.32 271.83 190.555 271.307 191.024C270.795 191.493 270.502 192.144 270.427 192.976H275.963ZM116.606 214.28C116.606 214.557 116.59 214.851 116.558 215.16H109.55C109.603 216.024 109.897 216.701 110.43 217.192C110.974 217.672 111.63 217.912 112.398 217.912C113.027 217.912 113.55 217.768 113.966 217.48C114.393 217.181 114.691 216.787 114.862 216.296H116.43C116.195 217.139 115.726 217.827 115.022 218.36C114.318 218.883 113.443 219.144 112.398 219.144C111.566 219.144 110.819 218.957 110.158 218.584C109.507 218.211 108.995 217.683 108.622 217C108.249 216.307 108.062 215.507 108.062 214.6C108.062 213.693 108.243 212.899 108.606 212.216C108.969 211.533 109.475 211.011 110.126 210.648C110.787 210.275 111.545 210.088 112.398 210.088C113.23 210.088 113.966 210.269 114.606 210.632C115.246 210.995 115.737 211.496 116.078 212.136C116.43 212.765 116.606 213.48 116.606 214.28ZM115.102 213.976C115.102 213.421 114.979 212.947 114.734 212.552C114.489 212.147 114.153 211.843 113.726 211.64C113.31 211.427 112.846 211.32 112.334 211.32C111.598 211.32 110.969 211.555 110.446 212.024C109.934 212.493 109.641 213.144 109.566 213.976H115.102ZM118.304 214.584C118.304 213.688 118.485 212.904 118.848 212.232C119.211 211.549 119.707 211.021 120.336 210.648C120.976 210.275 121.691 210.088 122.48 210.088C123.163 210.088 123.797 210.248 124.384 210.568C124.971 210.877 125.419 211.288 125.728 211.8V207.16H127.2V219H125.728V217.352C125.44 217.875 125.013 218.307 124.448 218.648C123.883 218.979 123.221 219.144 122.464 219.144C121.685 219.144 120.976 218.952 120.336 218.568C119.707 218.184 119.211 217.645 118.848 216.952C118.485 216.259 118.304 215.469 118.304 214.584ZM125.728 214.6C125.728 213.939 125.595 213.363 125.328 212.872C125.061 212.381 124.699 212.008 124.24 211.752C123.792 211.485 123.296 211.352 122.752 211.352C122.208 211.352 121.712 211.48 121.264 211.736C120.816 211.992 120.459 212.365 120.192 212.856C119.925 213.347 119.792 213.923 119.792 214.584C119.792 215.256 119.925 215.843 120.192 216.344C120.459 216.835 120.816 217.213 121.264 217.48C121.712 217.736 122.208 217.864 122.752 217.864C123.296 217.864 123.792 217.736 124.24 217.48C124.699 217.213 125.061 216.835 125.328 216.344C125.595 215.843 125.728 215.261 125.728 214.6ZM137.756 210.232V219H136.3V217.704C136.023 218.152 135.634 218.504 135.132 218.76C134.642 219.005 134.098 219.128 133.5 219.128C132.818 219.128 132.204 218.989 131.66 218.712C131.116 218.424 130.684 217.997 130.364 217.432C130.055 216.867 129.9 216.179 129.9 215.368V210.232H131.34V215.176C131.34 216.04 131.559 216.707 131.996 217.176C132.434 217.635 133.031 217.864 133.788 217.864C134.567 217.864 135.18 217.624 135.628 217.144C136.076 216.664 136.3 215.965 136.3 215.048V210.232H137.756ZM139.991 214.6C139.991 213.693 140.172 212.904 140.535 212.232C140.897 211.549 141.399 211.021 142.039 210.648C142.689 210.275 143.431 210.088 144.263 210.088C145.34 210.088 146.225 210.349 146.919 210.872C147.623 211.395 148.087 212.12 148.311 213.048H146.743C146.593 212.515 146.3 212.093 145.863 211.784C145.436 211.475 144.903 211.32 144.263 211.32C143.431 211.32 142.759 211.608 142.247 212.184C141.735 212.749 141.479 213.555 141.479 214.6C141.479 215.656 141.735 216.472 142.247 217.048C142.759 217.624 143.431 217.912 144.263 217.912C144.903 217.912 145.436 217.763 145.863 217.464C146.289 217.165 146.583 216.739 146.743 216.184H148.311C148.076 217.08 147.607 217.8 146.903 218.344C146.199 218.877 145.319 219.144 144.263 219.144C143.431 219.144 142.689 218.957 142.039 218.584C141.399 218.211 140.897 217.683 140.535 217C140.172 216.317 139.991 215.517 139.991 214.6ZM150.03 214.584C150.03 213.688 150.211 212.904 150.574 212.232C150.936 211.549 151.432 211.021 152.062 210.648C152.702 210.275 153.411 210.088 154.19 210.088C154.958 210.088 155.624 210.253 156.19 210.584C156.755 210.915 157.176 211.331 157.454 211.832V210.232H158.926V219H157.454V217.368C157.166 217.88 156.734 218.307 156.158 218.648C155.592 218.979 154.931 219.144 154.174 219.144C153.395 219.144 152.691 218.952 152.062 218.568C151.432 218.184 150.936 217.645 150.574 216.952C150.211 216.259 150.03 215.469 150.03 214.584ZM157.454 214.6C157.454 213.939 157.32 213.363 157.054 212.872C156.787 212.381 156.424 212.008 155.966 211.752C155.518 211.485 155.022 211.352 154.478 211.352C153.934 211.352 153.438 211.48 152.99 211.736C152.542 211.992 152.184 212.365 151.918 212.856C151.651 213.347 151.518 213.923 151.518 214.584C151.518 215.256 151.651 215.843 151.918 216.344C152.184 216.835 152.542 217.213 152.99 217.48C153.438 217.736 153.934 217.864 154.478 217.864C155.022 217.864 155.518 217.736 155.966 217.48C156.424 217.213 156.787 216.835 157.054 216.344C157.32 215.843 157.454 215.261 157.454 214.6ZM163.482 211.432V216.6C163.482 217.027 163.573 217.331 163.754 217.512C163.935 217.683 164.25 217.768 164.698 217.768H165.77V219H164.458C163.647 219 163.039 218.813 162.634 218.44C162.229 218.067 162.026 217.453 162.026 216.6V211.432H160.89V210.232H162.026V208.024H163.482V210.232H165.77V211.432H163.482ZM168.606 208.808C168.329 208.808 168.094 208.712 167.902 208.52C167.71 208.328 167.614 208.093 167.614 207.816C167.614 207.539 167.71 207.304 167.902 207.112C168.094 206.92 168.329 206.824 168.606 206.824C168.873 206.824 169.097 206.92 169.278 207.112C169.47 207.304 169.566 207.539 169.566 207.816C169.566 208.093 169.47 208.328 169.278 208.52C169.097 208.712 168.873 208.808 168.606 208.808ZM169.31 210.232V219H167.854V210.232H169.31ZM175.936 219.144C175.114 219.144 174.368 218.957 173.696 218.584C173.034 218.211 172.512 217.683 172.128 217C171.754 216.307 171.568 215.507 171.568 214.6C171.568 213.704 171.76 212.915 172.144 212.232C172.538 211.539 173.072 211.011 173.744 210.648C174.416 210.275 175.168 210.088 176 210.088C176.832 210.088 177.584 210.275 178.256 210.648C178.928 211.011 179.456 211.533 179.84 212.216C180.234 212.899 180.432 213.693 180.432 214.6C180.432 215.507 180.229 216.307 179.824 217C179.429 217.683 178.89 218.211 178.208 218.584C177.525 218.957 176.768 219.144 175.936 219.144ZM175.936 217.864C176.458 217.864 176.949 217.741 177.408 217.496C177.866 217.251 178.234 216.883 178.512 216.392C178.8 215.901 178.944 215.304 178.944 214.6C178.944 213.896 178.805 213.299 178.528 212.808C178.25 212.317 177.888 211.955 177.44 211.72C176.992 211.475 176.506 211.352 175.984 211.352C175.45 211.352 174.96 211.475 174.512 211.72C174.074 211.955 173.722 212.317 173.456 212.808C173.189 213.299 173.056 213.896 173.056 214.6C173.056 215.315 173.184 215.917 173.44 216.408C173.706 216.899 174.058 217.267 174.496 217.512C174.933 217.747 175.413 217.864 175.936 217.864ZM186.938 210.072C188.005 210.072 188.869 210.397 189.53 211.048C190.191 211.688 190.522 212.616 190.522 213.832V219H189.082V214.04C189.082 213.165 188.863 212.499 188.426 212.04C187.989 211.571 187.391 211.336 186.634 211.336C185.866 211.336 185.253 211.576 184.794 212.056C184.346 212.536 184.122 213.235 184.122 214.152V219H182.666V210.232H184.122V211.48C184.41 211.032 184.799 210.685 185.29 210.44C185.791 210.195 186.341 210.072 186.938 210.072ZM192.676 214.584C192.676 213.688 192.858 212.904 193.22 212.232C193.583 211.549 194.079 211.021 194.708 210.648C195.348 210.275 196.058 210.088 196.836 210.088C197.604 210.088 198.271 210.253 198.836 210.584C199.402 210.915 199.823 211.331 200.1 211.832V210.232H201.572V219H200.1V217.368C199.812 217.88 199.38 218.307 198.804 218.648C198.239 218.979 197.578 219.144 196.82 219.144C196.042 219.144 195.338 218.952 194.708 218.568C194.079 218.184 193.583 217.645 193.22 216.952C192.858 216.259 192.676 215.469 192.676 214.584ZM200.1 214.6C200.1 213.939 199.967 213.363 199.7 212.872C199.434 212.381 199.071 212.008 198.612 211.752C198.164 211.485 197.668 211.352 197.124 211.352C196.58 211.352 196.084 211.48 195.636 211.736C195.188 211.992 194.831 212.365 194.564 212.856C194.298 213.347 194.164 213.923 194.164 214.584C194.164 215.256 194.298 215.843 194.564 216.344C194.831 216.835 195.188 217.213 195.636 217.48C196.084 217.736 196.58 217.864 197.124 217.864C197.668 217.864 198.164 217.736 198.612 217.48C199.071 217.213 199.434 216.835 199.7 216.344C199.967 215.843 200.1 215.261 200.1 214.6ZM205.809 207.16V219H204.353V207.16H205.809ZM212.652 214.6C212.652 213.693 212.833 212.904 213.196 212.232C213.559 211.549 214.06 211.021 214.7 210.648C215.351 210.275 216.092 210.088 216.924 210.088C218.001 210.088 218.887 210.349 219.58 210.872C220.284 211.395 220.748 212.12 220.972 213.048H219.404C219.255 212.515 218.961 212.093 218.524 211.784C218.097 211.475 217.564 211.32 216.924 211.32C216.092 211.32 215.42 211.608 214.908 212.184C214.396 212.749 214.14 213.555 214.14 214.6C214.14 215.656 214.396 216.472 214.908 217.048C215.42 217.624 216.092 217.912 216.924 217.912C217.564 217.912 218.097 217.763 218.524 217.464C218.951 217.165 219.244 216.739 219.404 216.184H220.972C220.737 217.08 220.268 217.8 219.564 218.344C218.86 218.877 217.98 219.144 216.924 219.144C216.092 219.144 215.351 218.957 214.7 218.584C214.06 218.211 213.559 217.683 213.196 217C212.833 216.317 212.652 215.517 212.652 214.6ZM230.787 210.232L225.507 223.128H224.003L225.731 218.904L222.195 210.232H223.811L226.563 217.336L229.283 210.232H230.787ZM234.026 211.864C234.325 211.341 234.762 210.915 235.338 210.584C235.914 210.253 236.57 210.088 237.306 210.088C238.096 210.088 238.805 210.275 239.434 210.648C240.064 211.021 240.56 211.549 240.922 212.232C241.285 212.904 241.466 213.688 241.466 214.584C241.466 215.469 241.285 216.259 240.922 216.952C240.56 217.645 240.058 218.184 239.418 218.568C238.789 218.952 238.085 219.144 237.306 219.144C236.549 219.144 235.882 218.979 235.306 218.648C234.741 218.317 234.314 217.896 234.026 217.384V219H232.57V207.16H234.026V211.864ZM239.978 214.584C239.978 213.923 239.845 213.347 239.578 212.856C239.312 212.365 238.949 211.992 238.49 211.736C238.042 211.48 237.546 211.352 237.002 211.352C236.469 211.352 235.973 211.485 235.514 211.752C235.066 212.008 234.704 212.387 234.426 212.888C234.16 213.379 234.026 213.949 234.026 214.6C234.026 215.261 234.16 215.843 234.426 216.344C234.704 216.835 235.066 217.213 235.514 217.48C235.973 217.736 236.469 217.864 237.002 217.864C237.546 217.864 238.042 217.736 238.49 217.48C238.949 217.213 239.312 216.835 239.578 216.344C239.845 215.843 239.978 215.256 239.978 214.584ZM251.703 214.28C251.703 214.557 251.687 214.851 251.655 215.16H244.647C244.7 216.024 244.994 216.701 245.527 217.192C246.071 217.672 246.727 217.912 247.495 217.912C248.124 217.912 248.647 217.768 249.063 217.48C249.49 217.181 249.788 216.787 249.959 216.296H251.527C251.292 217.139 250.823 217.827 250.119 218.36C249.415 218.883 248.54 219.144 247.495 219.144C246.663 219.144 245.916 218.957 245.255 218.584C244.604 218.211 244.092 217.683 243.719 217C243.346 216.307 243.159 215.507 243.159 214.6C243.159 213.693 243.34 212.899 243.703 212.216C244.066 211.533 244.572 211.011 245.223 210.648C245.884 210.275 246.642 210.088 247.495 210.088C248.327 210.088 249.063 210.269 249.703 210.632C250.343 210.995 250.834 211.496 251.175 212.136C251.527 212.765 251.703 213.48 251.703 214.28ZM250.199 213.976C250.199 213.421 250.076 212.947 249.831 212.552C249.586 212.147 249.25 211.843 248.823 211.64C248.407 211.427 247.943 211.32 247.431 211.32C246.695 211.32 246.066 211.555 245.543 212.024C245.031 212.493 244.738 213.144 244.663 213.976H250.199ZM255.401 211.656C255.657 211.155 256.019 210.765 256.489 210.488C256.969 210.211 257.55 210.072 258.233 210.072V211.576H257.849C256.217 211.576 255.401 212.461 255.401 214.232V219H253.945V210.232H255.401V211.656ZM263.338 219.144C262.666 219.144 262.063 219.032 261.53 218.808C260.996 218.573 260.575 218.253 260.266 217.848C259.956 217.432 259.786 216.957 259.754 216.424H261.258C261.3 216.861 261.503 217.219 261.866 217.496C262.239 217.773 262.724 217.912 263.322 217.912C263.876 217.912 264.314 217.789 264.634 217.544C264.954 217.299 265.114 216.989 265.114 216.616C265.114 216.232 264.943 215.949 264.602 215.768C264.26 215.576 263.732 215.389 263.018 215.208C262.367 215.037 261.834 214.867 261.418 214.696C261.012 214.515 260.66 214.253 260.362 213.912C260.074 213.56 259.93 213.101 259.93 212.536C259.93 212.088 260.063 211.677 260.33 211.304C260.596 210.931 260.975 210.637 261.466 210.424C261.956 210.2 262.516 210.088 263.146 210.088C264.116 210.088 264.9 210.333 265.498 210.824C266.095 211.315 266.415 211.987 266.458 212.84H265.002C264.97 212.381 264.783 212.013 264.442 211.736C264.111 211.459 263.663 211.32 263.098 211.32C262.575 211.32 262.159 211.432 261.85 211.656C261.54 211.88 261.386 212.173 261.386 212.536C261.386 212.824 261.476 213.064 261.658 213.256C261.85 213.437 262.084 213.587 262.362 213.704C262.65 213.811 263.044 213.933 263.546 214.072C264.175 214.243 264.687 214.413 265.082 214.584C265.476 214.744 265.812 214.989 266.09 215.32C266.378 215.651 266.527 216.083 266.538 216.616C266.538 217.096 266.404 217.528 266.138 217.912C265.871 218.296 265.492 218.6 265.002 218.824C264.522 219.037 263.967 219.144 263.338 219.144ZM276.913 214.28C276.913 214.557 276.897 214.851 276.865 215.16H269.857C269.91 216.024 270.204 216.701 270.737 217.192C271.281 217.672 271.937 217.912 272.705 217.912C273.334 217.912 273.857 217.768 274.273 217.48C274.7 217.181 274.998 216.787 275.169 216.296H276.737C276.502 217.139 276.033 217.827 275.329 218.36C274.625 218.883 273.75 219.144 272.705 219.144C271.873 219.144 271.126 218.957 270.465 218.584C269.814 218.211 269.302 217.683 268.929 217C268.556 216.307 268.369 215.507 268.369 214.6C268.369 213.693 268.55 212.899 268.913 212.216C269.276 211.533 269.782 211.011 270.433 210.648C271.094 210.275 271.852 210.088 272.705 210.088C273.537 210.088 274.273 210.269 274.913 210.632C275.553 210.995 276.044 211.496 276.385 212.136C276.737 212.765 276.913 213.48 276.913 214.28ZM275.409 213.976C275.409 213.421 275.286 212.947 275.041 212.552C274.796 212.147 274.46 211.843 274.033 211.64C273.617 211.427 273.153 211.32 272.641 211.32C271.905 211.32 271.276 211.555 270.753 212.024C270.241 212.493 269.948 213.144 269.873 213.976H275.409ZM278.611 214.6C278.611 213.693 278.792 212.904 279.155 212.232C279.517 211.549 280.019 211.021 280.659 210.648C281.309 210.275 282.051 210.088 282.883 210.088C283.96 210.088 284.845 210.349 285.539 210.872C286.243 211.395 286.707 212.12 286.931 213.048H285.363C285.213 212.515 284.92 212.093 284.483 211.784C284.056 211.475 283.523 211.32 282.883 211.32C282.051 211.32 281.379 211.608 280.867 212.184C280.355 212.749 280.099 213.555 280.099 214.6C280.099 215.656 280.355 216.472 280.867 217.048C281.379 217.624 282.051 217.912 282.883 217.912C283.523 217.912 284.056 217.763 284.483 217.464C284.909 217.165 285.203 216.739 285.363 216.184H286.931C286.696 217.08 286.227 217.8 285.523 218.344C284.819 218.877 283.939 219.144 282.883 219.144C282.051 219.144 281.309 218.957 280.659 218.584C280.019 218.211 279.517 217.683 279.155 217C278.792 216.317 278.611 215.517 278.611 214.6ZM296.97 210.232V219H295.514V217.704C295.236 218.152 294.847 218.504 294.346 218.76C293.855 219.005 293.311 219.128 292.714 219.128C292.031 219.128 291.418 218.989 290.874 218.712C290.33 218.424 289.898 217.997 289.578 217.432C289.268 216.867 289.114 216.179 289.114 215.368V210.232H290.554V215.176C290.554 216.04 290.772 216.707 291.21 217.176C291.647 217.635 292.244 217.864 293.002 217.864C293.78 217.864 294.394 217.624 294.842 217.144C295.29 216.664 295.514 215.965 295.514 215.048V210.232H296.97ZM301.204 211.656C301.46 211.155 301.823 210.765 302.292 210.488C302.772 210.211 303.353 210.072 304.036 210.072V211.576H303.652C302.02 211.576 301.204 212.461 301.204 214.232V219H299.748V210.232H301.204V211.656ZM306.789 208.808C306.511 208.808 306.277 208.712 306.085 208.52C305.893 208.328 305.797 208.093 305.797 207.816C305.797 207.539 305.893 207.304 306.085 207.112C306.277 206.92 306.511 206.824 306.789 206.824C307.055 206.824 307.279 206.92 307.461 207.112C307.653 207.304 307.749 207.539 307.749 207.816C307.749 208.093 307.653 208.328 307.461 208.52C307.279 208.712 307.055 208.808 306.789 208.808ZM307.493 210.232V219H306.037V210.232H307.493ZM312.07 211.432V216.6C312.07 217.027 312.161 217.331 312.342 217.512C312.523 217.683 312.838 217.768 313.286 217.768H314.358V219H313.046C312.235 219 311.627 218.813 311.222 218.44C310.817 218.067 310.614 217.453 310.614 216.6V211.432H309.478V210.232H310.614V208.024H312.07V210.232H314.358V211.432H312.07ZM323.994 210.232L318.714 223.128H317.21L318.938 218.904L315.402 210.232H317.018L319.77 217.336L322.49 210.232H323.994ZM120.286 231.232L117.55 240H116.046L113.934 233.04L111.822 240H110.318L107.566 231.232H109.054L111.07 238.592L113.246 231.232H114.734L116.862 238.608L118.846 231.232H120.286ZM130.051 235.28C130.051 235.557 130.035 235.851 130.003 236.16H122.995C123.048 237.024 123.342 237.701 123.875 238.192C124.419 238.672 125.075 238.912 125.843 238.912C126.472 238.912 126.995 238.768 127.411 238.48C127.838 238.181 128.136 237.787 128.307 237.296H129.875C129.64 238.139 129.171 238.827 128.467 239.36C127.763 239.883 126.888 240.144 125.843 240.144C125.011 240.144 124.264 239.957 123.603 239.584C122.952 239.211 122.44 238.683 122.067 238C121.694 237.307 121.507 236.507 121.507 235.6C121.507 234.693 121.688 233.899 122.051 233.216C122.414 232.533 122.92 232.011 123.571 231.648C124.232 231.275 124.99 231.088 125.843 231.088C126.675 231.088 127.411 231.269 128.051 231.632C128.691 231.995 129.182 232.496 129.523 233.136C129.875 233.765 130.051 234.48 130.051 235.28ZM128.547 234.976C128.547 234.421 128.424 233.947 128.179 233.552C127.934 233.147 127.598 232.843 127.171 232.64C126.755 232.427 126.291 232.32 125.779 232.32C125.043 232.32 124.414 232.555 123.891 233.024C123.379 233.493 123.086 234.144 123.011 234.976H128.547ZM133.749 232.864C134.048 232.341 134.485 231.915 135.061 231.584C135.637 231.253 136.293 231.088 137.029 231.088C137.818 231.088 138.528 231.275 139.157 231.648C139.786 232.021 140.282 232.549 140.645 233.232C141.008 233.904 141.189 234.688 141.189 235.584C141.189 236.469 141.008 237.259 140.645 237.952C140.282 238.645 139.781 239.184 139.141 239.568C138.512 239.952 137.808 240.144 137.029 240.144C136.272 240.144 135.605 239.979 135.029 239.648C134.464 239.317 134.037 238.896 133.749 238.384V240H132.293V228.16H133.749V232.864ZM139.701 235.584C139.701 234.923 139.568 234.347 139.301 233.856C139.034 233.365 138.672 232.992 138.213 232.736C137.765 232.48 137.269 232.352 136.725 232.352C136.192 232.352 135.696 232.485 135.237 232.752C134.789 233.008 134.426 233.387 134.149 233.888C133.882 234.379 133.749 234.949 133.749 235.6C133.749 236.261 133.882 236.843 134.149 237.344C134.426 237.835 134.789 238.213 135.237 238.48C135.696 238.736 136.192 238.864 136.725 238.864C137.269 238.864 137.765 238.736 138.213 238.48C138.672 238.213 139.034 237.835 139.301 237.344C139.568 236.843 139.701 236.256 139.701 235.584ZM146.529 240.144C145.857 240.144 145.255 240.032 144.721 239.808C144.188 239.573 143.767 239.253 143.457 238.848C143.148 238.432 142.977 237.957 142.945 237.424H144.449C144.492 237.861 144.695 238.219 145.057 238.496C145.431 238.773 145.916 238.912 146.513 238.912C147.068 238.912 147.505 238.789 147.825 238.544C148.145 238.299 148.305 237.989 148.305 237.616C148.305 237.232 148.135 236.949 147.793 236.768C147.452 236.576 146.924 236.389 146.209 236.208C145.559 236.037 145.025 235.867 144.609 235.696C144.204 235.515 143.852 235.253 143.553 234.912C143.265 234.56 143.121 234.101 143.121 233.536C143.121 233.088 143.255 232.677 143.521 232.304C143.788 231.931 144.167 231.637 144.657 231.424C145.148 231.2 145.708 231.088 146.337 231.088C147.308 231.088 148.092 231.333 148.689 231.824C149.287 232.315 149.607 232.987 149.649 233.84H148.193C148.161 233.381 147.975 233.013 147.633 232.736C147.303 232.459 146.855 232.32 146.289 232.32C145.767 232.32 145.351 232.432 145.041 232.656C144.732 232.88 144.577 233.173 144.577 233.536C144.577 233.824 144.668 234.064 144.849 234.256C145.041 234.437 145.276 234.587 145.553 234.704C145.841 234.811 146.236 234.933 146.737 235.072C147.367 235.243 147.879 235.413 148.273 235.584C148.668 235.744 149.004 235.989 149.281 236.32C149.569 236.651 149.719 237.083 149.729 237.616C149.729 238.096 149.596 238.528 149.329 238.912C149.063 239.296 148.684 239.6 148.193 239.824C147.713 240.037 147.159 240.144 146.529 240.144ZM152.857 229.808C152.579 229.808 152.345 229.712 152.153 229.52C151.961 229.328 151.865 229.093 151.865 228.816C151.865 228.539 151.961 228.304 152.153 228.112C152.345 227.92 152.579 227.824 152.857 227.824C153.123 227.824 153.347 227.92 153.529 228.112C153.721 228.304 153.817 228.539 153.817 228.816C153.817 229.093 153.721 229.328 153.529 229.52C153.347 229.712 153.123 229.808 152.857 229.808ZM153.561 231.232V240H152.105V231.232H153.561ZM158.138 232.432V237.6C158.138 238.027 158.229 238.331 158.41 238.512C158.592 238.683 158.906 238.768 159.354 238.768H160.426V240H159.114C158.304 240 157.696 239.813 157.29 239.44C156.885 239.067 156.682 238.453 156.682 237.6V232.432H155.546V231.232H156.682V229.024H158.138V231.232H160.426V232.432H158.138ZM170.51 235.28C170.51 235.557 170.494 235.851 170.462 236.16H163.454C163.508 237.024 163.801 237.701 164.334 238.192C164.878 238.672 165.534 238.912 166.302 238.912C166.932 238.912 167.454 238.768 167.87 238.48C168.297 238.181 168.596 237.787 168.766 237.296H170.334C170.1 238.139 169.63 238.827 168.926 239.36C168.222 239.883 167.348 240.144 166.302 240.144C165.47 240.144 164.724 239.957 164.062 239.584C163.412 239.211 162.9 238.683 162.526 238C162.153 237.307 161.966 236.507 161.966 235.6C161.966 234.693 162.148 233.899 162.51 233.216C162.873 232.533 163.38 232.011 164.03 231.648C164.692 231.275 165.449 231.088 166.302 231.088C167.134 231.088 167.87 231.269 168.51 231.632C169.15 231.995 169.641 232.496 169.982 233.136C170.334 233.765 170.51 234.48 170.51 235.28ZM169.006 234.976C169.006 234.421 168.884 233.947 168.638 233.552C168.393 233.147 168.057 232.843 167.63 232.64C167.214 232.427 166.75 232.32 166.238 232.32C165.502 232.32 164.873 232.555 164.35 233.024C163.838 233.493 163.545 234.144 163.47 234.976H169.006Z" fill="#A7A7A7"/>
<path d="M9.89538 4.848V6.032H5.04738V9.792H8.98338V10.976H5.04738V16H3.59138V4.848H9.89538ZM18.5659 13.52H13.7019L12.8059 16H11.2699L15.3019 4.912H16.9819L20.9979 16H19.4619L18.5659 13.52ZM18.1499 12.336L16.1339 6.704L14.1179 12.336H18.1499ZM24.5311 14.816H28.4351V16H23.0751V4.848H24.5311V14.816ZM31.7574 14.816H35.6614V16H30.3014V4.848H31.7574V14.816ZM41.6972 14.832C43.0519 13.744 44.1132 12.8533 44.8812 12.16C45.6492 11.456 46.2946 10.7253 46.8172 9.968C47.3506 9.2 47.6172 8.448 47.6172 7.712C47.6172 7.01867 47.4466 6.47467 47.1052 6.08C46.7746 5.67467 46.2359 5.472 45.4892 5.472C44.7639 5.472 44.1986 5.70133 43.7932 6.16C43.3986 6.608 43.1852 7.21067 43.1532 7.968H41.7452C41.7879 6.77333 42.1506 5.85067 42.8332 5.2C43.5159 4.54933 44.3959 4.224 45.4732 4.224C46.5719 4.224 47.4412 4.528 48.0812 5.136C48.7319 5.744 49.0572 6.58133 49.0572 7.648C49.0572 8.53333 48.7906 9.39733 48.2572 10.24C47.7346 11.072 47.1372 11.808 46.4652 12.448C45.7932 13.0773 44.9346 13.8133 43.8892 14.656H49.3932V15.872H41.6972V14.832ZM51.3964 10.096C51.3964 8.26133 51.695 6.832 52.2924 5.808C52.8897 4.77333 53.935 4.256 55.4284 4.256C56.911 4.256 57.951 4.77333 58.5484 5.808C59.1457 6.832 59.4444 8.26133 59.4444 10.096C59.4444 11.9627 59.1457 13.4133 58.5484 14.448C57.951 15.4827 56.911 16 55.4284 16C53.935 16 52.8897 15.4827 52.2924 14.448C51.695 13.4133 51.3964 11.9627 51.3964 10.096ZM58.0044 10.096C58.0044 9.168 57.9404 8.384 57.8124 7.744C57.695 7.09333 57.4444 6.57067 57.0604 6.176C56.687 5.78133 56.143 5.584 55.4284 5.584C54.703 5.584 54.1484 5.78133 53.7644 6.176C53.391 6.57067 53.1404 7.09333 53.0124 7.744C52.895 8.384 52.8364 9.168 52.8364 10.096C52.8364 11.056 52.895 11.8613 53.0124 12.512C53.1404 13.1627 53.391 13.6853 53.7644 14.08C54.1484 14.4747 54.703 14.672 55.4284 14.672C56.143 14.672 56.687 14.4747 57.0604 14.08C57.4444 13.6853 57.695 13.1627 57.8124 12.512C57.9404 11.8613 58.0044 11.056 58.0044 10.096ZM61.5873 14.832C62.9419 13.744 64.0033 12.8533 64.7713 12.16C65.5393 11.456 66.1846 10.7253 66.7073 9.968C67.2406 9.2 67.5073 8.448 67.5073 7.712C67.5073 7.01867 67.3366 6.47467 66.9953 6.08C66.6646 5.67467 66.1259 5.472 65.3793 5.472C64.6539 5.472 64.0886 5.70133 63.6833 6.16C63.2886 6.608 63.0753 7.21067 63.0433 7.968H61.6353C61.6779 6.77333 62.0406 5.85067 62.7233 5.2C63.4059 4.54933 64.2859 4.224 65.3633 4.224C66.4619 4.224 67.3313 4.528 67.9713 5.136C68.6219 5.744 68.9473 6.58133 68.9473 7.648C68.9473 8.53333 68.6806 9.39733 68.1473 10.24C67.6246 11.072 67.0273 11.808 66.3553 12.448C65.6833 13.0773 64.8246 13.8133 63.7793 14.656H69.2833V15.872H61.5873V14.832ZM71.2544 7.344C71.329 6.36267 71.7077 5.59467 72.3904 5.04C73.073 4.48533 73.9584 4.208 75.0464 4.208C75.7717 4.208 76.3957 4.34133 76.9184 4.608C77.4517 4.864 77.8517 5.216 78.1184 5.664C78.3957 6.112 78.5344 6.61867 78.5344 7.184C78.5344 7.84533 78.3424 8.416 77.9584 8.896C77.585 9.376 77.0944 9.68533 76.4864 9.824V9.904C77.1797 10.0747 77.729 10.4107 78.1344 10.912C78.5397 11.4133 78.7424 12.0693 78.7424 12.88C78.7424 13.488 78.6037 14.0373 78.3264 14.528C78.049 15.008 77.633 15.3867 77.0784 15.664C76.5237 15.9413 75.857 16.08 75.0784 16.08C73.9477 16.08 73.0197 15.7867 72.2944 15.2C71.569 14.6027 71.1637 13.76 71.0784 12.672H72.4864C72.561 13.312 72.8224 13.8347 73.2704 14.24C73.7184 14.6453 74.3157 14.848 75.0624 14.848C75.809 14.848 76.3744 14.656 76.7584 14.272C77.153 13.8773 77.3504 13.3707 77.3504 12.752C77.3504 11.952 77.0837 11.376 76.5504 11.024C76.017 10.672 75.2117 10.496 74.1344 10.496H73.7664V9.28H74.1504C75.1317 9.26933 75.873 9.10933 76.3744 8.8C76.8757 8.48 77.1264 7.98933 77.1264 7.328C77.1264 6.76267 76.9397 6.30933 76.5664 5.968C76.2037 5.62667 75.681 5.456 74.9984 5.456C74.337 5.456 73.8037 5.62667 73.3984 5.968C72.993 6.30933 72.753 6.768 72.6784 7.344H71.2544Z" fill="#A7A7A7"/>
<path d="M201.677 4.848L198.445 16H196.813L194.221 7.024L191.533 16L189.917 16.016L186.797 4.848H188.349L190.781 14.304L193.469 4.848H195.101L197.661 14.272L200.109 4.848H201.677ZM205.046 4.848V16H203.59V4.848H205.046ZM216.616 16H215.16L209.304 7.12V16H207.848V4.832H209.304L215.16 13.696V4.832H216.616V16ZM226.282 4.848V6.032H223.242V16H221.786V6.032H218.73V4.848H226.282ZM229.85 6.032V9.76H233.914V10.96H229.85V14.8H234.394V16H228.394V4.832H234.394V6.032H229.85ZM242.789 16L240.133 11.44H238.373V16H236.917V4.848H240.517C241.36 4.848 242.069 4.992 242.645 5.28C243.232 5.568 243.669 5.95733 243.957 6.448C244.245 6.93867 244.389 7.49867 244.389 8.128C244.389 8.896 244.165 9.57333 243.717 10.16C243.28 10.7467 242.618 11.136 241.733 11.328L244.533 16H242.789ZM238.373 10.272H240.517C241.306 10.272 241.898 10.08 242.293 9.696C242.688 9.30133 242.885 8.77867 242.885 8.128C242.885 7.46667 242.688 6.95467 242.293 6.592C241.909 6.22933 241.317 6.048 240.517 6.048H238.373V10.272ZM251.141 14.832C252.496 13.744 253.557 12.8533 254.325 12.16C255.093 11.456 255.738 10.7253 256.261 9.968C256.794 9.2 257.061 8.448 257.061 7.712C257.061 7.01867 256.89 6.47467 256.549 6.08C256.218 5.67467 255.68 5.472 254.933 5.472C254.208 5.472 253.642 5.70133 253.237 6.16C252.842 6.608 252.629 7.21067 252.597 7.968H251.189C251.232 6.77333 251.594 5.85067 252.277 5.2C252.96 4.54933 253.84 4.224 254.917 4.224C256.016 4.224 256.885 4.528 257.525 5.136C258.176 5.744 258.501 6.58133 258.501 7.648C258.501 8.53333 258.234 9.39733 257.701 10.24C257.178 11.072 256.581 11.808 255.909 12.448C255.237 13.0773 254.378 13.8133 253.333 14.656H258.837V15.872H251.141V14.832ZM260.84 10.096C260.84 8.26133 261.139 6.832 261.736 5.808C262.333 4.77333 263.379 4.256 264.872 4.256C266.355 4.256 267.395 4.77333 267.992 5.808C268.589 6.832 268.888 8.26133 268.888 10.096C268.888 11.9627 268.589 13.4133 267.992 14.448C267.395 15.4827 266.355 16 264.872 16C263.379 16 262.333 15.4827 261.736 14.448C261.139 13.4133 260.84 11.9627 260.84 10.096ZM267.448 10.096C267.448 9.168 267.384 8.384 267.256 7.744C267.139 7.09333 266.888 6.57067 266.504 6.176C266.131 5.78133 265.587 5.584 264.872 5.584C264.147 5.584 263.592 5.78133 263.208 6.176C262.835 6.57067 262.584 7.09333 262.456 7.744C262.339 8.384 262.28 9.168 262.28 10.096C262.28 11.056 262.339 11.8613 262.456 12.512C262.584 13.1627 262.835 13.6853 263.208 14.08C263.592 14.4747 264.147 14.672 264.872 14.672C265.587 14.672 266.131 14.4747 266.504 14.08C266.888 13.6853 267.139 13.1627 267.256 12.512C267.384 11.8613 267.448 11.056 267.448 10.096ZM271.031 14.832C272.386 13.744 273.447 12.8533 274.215 12.16C274.983 11.456 275.628 10.7253 276.151 9.968C276.684 9.2 276.951 8.448 276.951 7.712C276.951 7.01867 276.78 6.47467 276.439 6.08C276.108 5.67467 275.57 5.472 274.823 5.472C274.098 5.472 273.532 5.70133 273.127 6.16C272.732 6.608 272.519 7.21067 272.487 7.968H271.079C271.122 6.77333 271.484 5.85067 272.167 5.2C272.85 4.54933 273.73 4.224 274.807 4.224C275.906 4.224 276.775 4.528 277.415 5.136C278.066 5.744 278.391 6.58133 278.391 7.648C278.391 8.53333 278.124 9.39733 277.591 10.24C277.068 11.072 276.471 11.808 275.799 12.448C275.127 13.0773 274.268 13.8133 273.223 14.656H278.727V15.872H271.031V14.832ZM280.698 7.344C280.773 6.36267 281.151 5.59467 281.834 5.04C282.517 4.48533 283.402 4.208 284.49 4.208C285.215 4.208 285.839 4.34133 286.362 4.608C286.895 4.864 287.295 5.216 287.562 5.664C287.839 6.112 287.978 6.61867 287.978 7.184C287.978 7.84533 287.786 8.416 287.402 8.896C287.029 9.376 286.538 9.68533 285.93 9.824V9.904C286.623 10.0747 287.173 10.4107 287.578 10.912C287.983 11.4133 288.186 12.0693 288.186 12.88C288.186 13.488 288.047 14.0373 287.77 14.528C287.493 15.008 287.077 15.3867 286.522 15.664C285.967 15.9413 285.301 16.08 284.522 16.08C283.391 16.08 282.463 15.7867 281.738 15.2C281.013 14.6027 280.607 13.76 280.522 12.672H281.93C282.005 13.312 282.266 13.8347 282.714 14.24C283.162 14.6453 283.759 14.848 284.506 14.848C285.253 14.848 285.818 14.656 286.202 14.272C286.597 13.8773 286.794 13.3707 286.794 12.752C286.794 11.952 286.527 11.376 285.994 11.024C285.461 10.672 284.655 10.496 283.578 10.496H283.21V9.28H283.594C284.575 9.26933 285.317 9.10933 285.818 8.8C286.319 8.48 286.57 7.98933 286.57 7.328C286.57 6.76267 286.383 6.30933 286.01 5.968C285.647 5.62667 285.125 5.456 284.442 5.456C283.781 5.456 283.247 5.62667 282.842 5.968C282.437 6.30933 282.197 6.768 282.122 7.344H280.698Z" fill="#A7A7A7"/>
<path d="M375.266 16.112C374.53 16.112 373.869 15.984 373.282 15.728C372.706 15.4613 372.253 15.0987 371.922 14.64C371.591 14.1707 371.421 13.632 371.41 13.024H372.962C373.015 13.5467 373.229 13.9893 373.602 14.352C373.986 14.704 374.541 14.88 375.266 14.88C375.959 14.88 376.503 14.7093 376.898 14.368C377.303 14.016 377.506 13.568 377.506 13.024C377.506 12.5973 377.389 12.2507 377.154 11.984C376.919 11.7173 376.626 11.5147 376.274 11.376C375.922 11.2373 375.447 11.088 374.85 10.928C374.114 10.736 373.522 10.544 373.074 10.352C372.637 10.16 372.258 9.86133 371.938 9.456C371.629 9.04 371.474 8.48533 371.474 7.792C371.474 7.184 371.629 6.64533 371.938 6.176C372.247 5.70667 372.679 5.344 373.234 5.088C373.799 4.832 374.445 4.704 375.17 4.704C376.215 4.704 377.069 4.96533 377.73 5.488C378.402 6.01067 378.781 6.704 378.866 7.568H377.266C377.213 7.14133 376.989 6.768 376.594 6.448C376.199 6.11733 375.677 5.952 375.026 5.952C374.418 5.952 373.922 6.112 373.538 6.432C373.154 6.74133 372.962 7.17867 372.962 7.744C372.962 8.14933 373.074 8.48 373.298 8.736C373.533 8.992 373.815 9.18933 374.146 9.328C374.487 9.456 374.962 9.60533 375.57 9.776C376.306 9.97867 376.898 10.1813 377.346 10.384C377.794 10.576 378.178 10.88 378.498 11.296C378.818 11.7013 378.978 12.256 378.978 12.96C378.978 13.504 378.834 14.016 378.546 14.496C378.258 14.976 377.831 15.3653 377.266 15.664C376.701 15.9627 376.034 16.112 375.266 16.112ZM388.897 8.112C388.897 9.04 388.577 9.81333 387.937 10.432C387.307 11.04 386.342 11.344 385.041 11.344H382.897V16H381.441V4.848H385.041C386.299 4.848 387.254 5.152 387.905 5.76C388.566 6.368 388.897 7.152 388.897 8.112ZM385.041 10.144C385.851 10.144 386.449 9.968 386.833 9.616C387.217 9.264 387.409 8.76267 387.409 8.112C387.409 6.736 386.619 6.048 385.041 6.048H382.897V10.144H385.041ZM396.898 16L394.242 11.44H392.482V16H391.026V4.848H394.626C395.469 4.848 396.178 4.992 396.754 5.28C397.341 5.568 397.778 5.95733 398.066 6.448C398.354 6.93867 398.498 7.49867 398.498 8.128C398.498 8.896 398.274 9.57333 397.826 10.16C397.389 10.7467 396.728 11.136 395.842 11.328L398.642 16H396.898ZM392.482 10.272H394.626C395.416 10.272 396.008 10.08 396.402 9.696C396.797 9.30133 396.994 8.77867 396.994 8.128C396.994 7.46667 396.797 6.95467 396.402 6.592C396.018 6.22933 395.426 6.048 394.626 6.048H392.482V10.272ZM402.537 4.848V16H401.081V4.848H402.537ZM414.106 16H412.65L406.794 7.12V16H405.338V4.832H406.794L412.65 13.696V4.832H414.106V16ZM425.356 8.08C425.047 7.42933 424.599 6.928 424.012 6.576C423.426 6.21333 422.743 6.032 421.964 6.032C421.186 6.032 420.482 6.21333 419.852 6.576C419.234 6.928 418.743 7.44 418.38 8.112C418.028 8.77333 417.852 9.54133 417.852 10.416C417.852 11.2907 418.028 12.0587 418.38 12.72C418.743 13.3813 419.234 13.8933 419.852 14.256C420.482 14.608 421.186 14.784 421.964 14.784C423.052 14.784 423.948 14.4587 424.652 13.808C425.356 13.1573 425.767 12.2773 425.884 11.168H421.436V9.984H427.436V11.104C427.351 12.0213 427.063 12.864 426.572 13.632C426.082 14.3893 425.436 14.992 424.636 15.44C423.836 15.8773 422.946 16.096 421.964 16.096C420.93 16.096 419.986 15.856 419.132 15.376C418.279 14.8853 417.602 14.208 417.1 13.344C416.61 12.48 416.364 11.504 416.364 10.416C416.364 9.328 416.61 8.352 417.1 7.488C417.602 6.61333 418.279 5.936 419.132 5.456C419.986 4.96533 420.93 4.72 421.964 4.72C423.148 4.72 424.194 5.01333 425.1 5.6C426.018 6.18667 426.684 7.01333 427.1 8.08H425.356ZM433.851 14.832C435.206 13.744 436.267 12.8533 437.035 12.16C437.803 11.456 438.448 10.7253 438.971 9.968C439.504 9.2 439.771 8.448 439.771 7.712C439.771 7.01867 439.6 6.47467 439.259 6.08C438.928 5.67467 438.39 5.472 437.643 5.472C436.918 5.472 436.352 5.70133 435.947 6.16C435.552 6.608 435.339 7.21067 435.307 7.968H433.899C433.942 6.77333 434.304 5.85067 434.987 5.2C435.67 4.54933 436.55 4.224 437.627 4.224C438.726 4.224 439.595 4.528 440.235 5.136C440.886 5.744 441.211 6.58133 441.211 7.648C441.211 8.53333 440.944 9.39733 440.411 10.24C439.888 11.072 439.291 11.808 438.619 12.448C437.947 13.0773 437.088 13.8133 436.043 14.656H441.547V15.872H433.851V14.832ZM443.55 10.096C443.55 8.26133 443.849 6.832 444.446 5.808C445.043 4.77333 446.089 4.256 447.582 4.256C449.065 4.256 450.105 4.77333 450.702 5.808C451.299 6.832 451.598 8.26133 451.598 10.096C451.598 11.9627 451.299 13.4133 450.702 14.448C450.105 15.4827 449.065 16 447.582 16C446.089 16 445.043 15.4827 444.446 14.448C443.849 13.4133 443.55 11.9627 443.55 10.096ZM450.158 10.096C450.158 9.168 450.094 8.384 449.966 7.744C449.849 7.09333 449.598 6.57067 449.214 6.176C448.841 5.78133 448.297 5.584 447.582 5.584C446.857 5.584 446.302 5.78133 445.918 6.176C445.545 6.57067 445.294 7.09333 445.166 7.744C445.049 8.384 444.99 9.168 444.99 10.096C444.99 11.056 445.049 11.8613 445.166 12.512C445.294 13.1627 445.545 13.6853 445.918 14.08C446.302 14.4747 446.857 14.672 447.582 14.672C448.297 14.672 448.841 14.4747 449.214 14.08C449.598 13.6853 449.849 13.1627 449.966 12.512C450.094 11.8613 450.158 11.056 450.158 10.096ZM453.741 14.832C455.096 13.744 456.157 12.8533 456.925 12.16C457.693 11.456 458.338 10.7253 458.861 9.968C459.394 9.2 459.661 8.448 459.661 7.712C459.661 7.01867 459.49 6.47467 459.149 6.08C458.818 5.67467 458.28 5.472 457.533 5.472C456.808 5.472 456.242 5.70133 455.837 6.16C455.442 6.608 455.229 7.21067 455.197 7.968H453.789C453.832 6.77333 454.194 5.85067 454.877 5.2C455.56 4.54933 456.44 4.224 457.517 4.224C458.616 4.224 459.485 4.528 460.125 5.136C460.776 5.744 461.101 6.58133 461.101 7.648C461.101 8.53333 460.834 9.39733 460.301 10.24C459.778 11.072 459.181 11.808 458.509 12.448C457.837 13.0773 456.978 13.8133 455.933 14.656H461.437V15.872H453.741V14.832ZM463.088 13.424V12.32L468.704 4.544H470.448V12.16H472.048V13.424H470.448V16H469.008V13.424H463.088ZM469.072 6.064L464.768 12.16H469.072V6.064Z" fill="#A7A7A7"/>
<path d="M559.335 16.112C558.599 16.112 557.938 15.984 557.351 15.728C556.775 15.4613 556.322 15.0987 555.991 14.64C555.661 14.1707 555.49 13.632 555.479 13.024H557.031C557.085 13.5467 557.298 13.9893 557.671 14.352C558.055 14.704 558.61 14.88 559.335 14.88C560.029 14.88 560.573 14.7093 560.967 14.368C561.373 14.016 561.575 13.568 561.575 13.024C561.575 12.5973 561.458 12.2507 561.223 11.984C560.989 11.7173 560.695 11.5147 560.343 11.376C559.991 11.2373 559.517 11.088 558.919 10.928C558.183 10.736 557.591 10.544 557.143 10.352C556.706 10.16 556.327 9.86133 556.007 9.456C555.698 9.04 555.543 8.48533 555.543 7.792C555.543 7.184 555.698 6.64533 556.007 6.176C556.317 5.70667 556.749 5.344 557.303 5.088C557.869 4.832 558.514 4.704 559.239 4.704C560.285 4.704 561.138 4.96533 561.799 5.488C562.471 6.01067 562.85 6.704 562.935 7.568H561.335C561.282 7.14133 561.058 6.768 560.663 6.448C560.269 6.11733 559.746 5.952 559.095 5.952C558.487 5.952 557.991 6.112 557.607 6.432C557.223 6.74133 557.031 7.17867 557.031 7.744C557.031 8.14933 557.143 8.48 557.367 8.736C557.602 8.992 557.885 9.18933 558.215 9.328C558.557 9.456 559.031 9.60533 559.639 9.776C560.375 9.97867 560.967 10.1813 561.415 10.384C561.863 10.576 562.247 10.88 562.567 11.296C562.887 11.7013 563.047 12.256 563.047 12.96C563.047 13.504 562.903 14.016 562.615 14.496C562.327 14.976 561.901 15.3653 561.335 15.664C560.77 15.9627 560.103 16.112 559.335 16.112ZM566.934 4.848V11.904C566.934 12.896 567.174 13.632 567.654 14.112C568.145 14.592 568.822 14.832 569.686 14.832C570.539 14.832 571.206 14.592 571.686 14.112C572.177 13.632 572.422 12.896 572.422 11.904V4.848H573.878V11.888C573.878 12.816 573.691 13.6 573.318 14.24C572.945 14.8693 572.438 15.3387 571.798 15.648C571.169 15.9573 570.459 16.112 569.67 16.112C568.881 16.112 568.166 15.9573 567.526 15.648C566.897 15.3387 566.395 14.8693 566.022 14.24C565.659 13.6 565.478 12.816 565.478 11.888V4.848H566.934ZM587.939 4.928V16H586.483V7.744L582.803 16H581.779L578.083 7.728V16H576.627V4.928H578.195L582.291 14.08L586.387 4.928H587.939ZM602.04 4.928V16H600.584V7.744L596.904 16H595.88L592.184 7.728V16H590.728V4.928H592.296L596.392 14.08L600.488 4.928H602.04ZM606.285 6.032V9.76H610.349V10.96H606.285V14.8H610.829V16H604.829V4.832H610.829V6.032H606.285ZM619.225 16L616.569 11.44H614.809V16H613.353V4.848H616.953C617.795 4.848 618.505 4.992 619.081 5.28C619.667 5.568 620.105 5.95733 620.393 6.448C620.681 6.93867 620.825 7.49867 620.825 8.128C620.825 8.896 620.601 9.57333 620.153 10.16C619.715 10.7467 619.054 11.136 618.169 11.328L620.969 16H619.225ZM614.809 10.272H616.953C617.742 10.272 618.334 10.08 618.729 9.696C619.123 9.30133 619.321 8.77867 619.321 8.128C619.321 7.46667 619.123 6.95467 618.729 6.592C618.345 6.22933 617.753 6.048 616.953 6.048H614.809V10.272ZM627.577 14.832C628.931 13.744 629.993 12.8533 630.761 12.16C631.529 11.456 632.174 10.7253 632.697 9.968C633.23 9.2 633.497 8.448 633.497 7.712C633.497 7.01867 633.326 6.47467 632.985 6.08C632.654 5.67467 632.115 5.472 631.369 5.472C630.643 5.472 630.078 5.70133 629.673 6.16C629.278 6.608 629.065 7.21067 629.033 7.968H627.625C627.667 6.77333 628.03 5.85067 628.713 5.2C629.395 4.54933 630.275 4.224 631.353 4.224C632.451 4.224 633.321 4.528 633.961 5.136C634.611 5.744 634.937 6.58133 634.937 7.648C634.937 8.53333 634.67 9.39733 634.137 10.24C633.614 11.072 633.017 11.808 632.345 12.448C631.673 13.0773 630.814 13.8133 629.769 14.656H635.273V15.872H627.577V14.832ZM637.276 10.096C637.276 8.26133 637.574 6.832 638.172 5.808C638.769 4.77333 639.814 4.256 641.308 4.256C642.79 4.256 643.83 4.77333 644.428 5.808C645.025 6.832 645.324 8.26133 645.324 10.096C645.324 11.9627 645.025 13.4133 644.428 14.448C643.83 15.4827 642.79 16 641.308 16C639.814 16 638.769 15.4827 638.172 14.448C637.574 13.4133 637.276 11.9627 637.276 10.096ZM643.884 10.096C643.884 9.168 643.82 8.384 643.692 7.744C643.574 7.09333 643.324 6.57067 642.94 6.176C642.566 5.78133 642.022 5.584 641.308 5.584C640.582 5.584 640.028 5.78133 639.644 6.176C639.27 6.57067 639.02 7.09333 638.892 7.744C638.774 8.384 638.716 9.168 638.716 10.096C638.716 11.056 638.774 11.8613 638.892 12.512C639.02 13.1627 639.27 13.6853 639.644 14.08C640.028 14.4747 640.582 14.672 641.308 14.672C642.022 14.672 642.566 14.4747 642.94 14.08C643.324 13.6853 643.574 13.1627 643.692 12.512C643.82 11.8613 643.884 11.056 643.884 10.096ZM647.467 14.832C648.821 13.744 649.883 12.8533 650.651 12.16C651.419 11.456 652.064 10.7253 652.587 9.968C653.12 9.2 653.387 8.448 653.387 7.712C653.387 7.01867 653.216 6.47467 652.875 6.08C652.544 5.67467 652.005 5.472 651.259 5.472C650.533 5.472 649.968 5.70133 649.563 6.16C649.168 6.608 648.955 7.21067 648.923 7.968H647.515C647.557 6.77333 647.92 5.85067 648.603 5.2C649.285 4.54933 650.165 4.224 651.243 4.224C652.341 4.224 653.211 4.528 653.851 5.136C654.501 5.744 654.827 6.58133 654.827 7.648C654.827 8.53333 654.56 9.39733 654.027 10.24C653.504 11.072 652.907 11.808 652.235 12.448C651.563 13.0773 650.704 13.8133 649.659 14.656H655.163V15.872H647.467V14.832ZM656.814 13.424V12.32L662.43 4.544H664.174V12.16H665.774V13.424H664.174V16H662.734V13.424H656.814ZM662.798 6.064L658.494 12.16H662.798V6.064Z" fill="#A7A7A7"/>
<path d="M746.173 4.848V6.032H741.325V9.792H745.261V10.976H741.325V16H739.869V4.848H746.173ZM754.843 13.52H749.979L749.083 16H747.547L751.579 4.912H753.259L757.275 16H755.739L754.843 13.52ZM754.427 12.336L752.411 6.704L750.395 12.336H754.427ZM760.808 14.816H764.712V16H759.352V4.848H760.808V14.816ZM768.035 14.816H771.939V16H766.579V4.848H768.035V14.816ZM777.975 14.832C779.329 13.744 780.391 12.8533 781.159 12.16C781.927 11.456 782.572 10.7253 783.095 9.968C783.628 9.2 783.895 8.448 783.895 7.712C783.895 7.01867 783.724 6.47467 783.383 6.08C783.052 5.67467 782.513 5.472 781.767 5.472C781.041 5.472 780.476 5.70133 780.071 6.16C779.676 6.608 779.463 7.21067 779.431 7.968H778.023C778.065 6.77333 778.428 5.85067 779.111 5.2C779.793 4.54933 780.673 4.224 781.751 4.224C782.849 4.224 783.719 4.528 784.359 5.136C785.009 5.744 785.335 6.58133 785.335 7.648C785.335 8.53333 785.068 9.39733 784.535 10.24C784.012 11.072 783.415 11.808 782.743 12.448C782.071 13.0773 781.212 13.8133 780.167 14.656H785.671V15.872H777.975V14.832ZM787.674 10.096C787.674 8.26133 787.972 6.832 788.57 5.808C789.167 4.77333 790.212 4.256 791.706 4.256C793.188 4.256 794.228 4.77333 794.826 5.808C795.423 6.832 795.722 8.26133 795.722 10.096C795.722 11.9627 795.423 13.4133 794.826 14.448C794.228 15.4827 793.188 16 791.706 16C790.212 16 789.167 15.4827 788.57 14.448C787.972 13.4133 787.674 11.9627 787.674 10.096ZM794.282 10.096C794.282 9.168 794.218 8.384 794.09 7.744C793.972 7.09333 793.722 6.57067 793.338 6.176C792.964 5.78133 792.42 5.584 791.706 5.584C790.98 5.584 790.426 5.78133 790.042 6.176C789.668 6.57067 789.418 7.09333 789.29 7.744C789.172 8.384 789.114 9.168 789.114 10.096C789.114 11.056 789.172 11.8613 789.29 12.512C789.418 13.1627 789.668 13.6853 790.042 14.08C790.426 14.4747 790.98 14.672 791.706 14.672C792.42 14.672 792.964 14.4747 793.338 14.08C793.722 13.6853 793.972 13.1627 794.09 12.512C794.218 11.8613 794.282 11.056 794.282 10.096ZM797.865 14.832C799.219 13.744 800.281 12.8533 801.049 12.16C801.817 11.456 802.462 10.7253 802.985 9.968C803.518 9.2 803.785 8.448 803.785 7.712C803.785 7.01867 803.614 6.47467 803.273 6.08C802.942 5.67467 802.403 5.472 801.657 5.472C800.931 5.472 800.366 5.70133 799.961 6.16C799.566 6.608 799.353 7.21067 799.321 7.968H797.913C797.955 6.77333 798.318 5.85067 799.001 5.2C799.683 4.54933 800.563 4.224 801.641 4.224C802.739 4.224 803.609 4.528 804.249 5.136C804.899 5.744 805.225 6.58133 805.225 7.648C805.225 8.53333 804.958 9.39733 804.425 10.24C803.902 11.072 803.305 11.808 802.633 12.448C801.961 13.0773 801.102 13.8133 800.057 14.656H805.561V15.872H797.865V14.832ZM807.212 13.424V12.32L812.828 4.544H814.572V12.16H816.172V13.424H814.572V16H813.132V13.424H807.212ZM813.196 6.064L808.892 12.16H813.196V6.064Z" fill="#A7A7A7"/>
<path d="M937.954 4.848L934.722 16H933.09L930.498 7.024L927.81 16L926.194 16.016L923.074 4.848H924.626L927.058 14.304L929.746 4.848H931.378L933.938 14.272L936.386 4.848H937.954ZM941.323 4.848V16H939.867V4.848H941.323ZM952.893 16H951.437L945.581 7.12V16H944.125V4.832H945.581L951.437 13.696V4.832H952.893V16ZM962.559 4.848V6.032H959.519V16H958.063V6.032H955.007V4.848H962.559ZM966.127 6.032V9.76H970.191V10.96H966.127V14.8H970.671V16H964.671V4.832H970.671V6.032H966.127ZM979.066 16L976.41 11.44H974.65V16H973.194V4.848H976.794C977.637 4.848 978.346 4.992 978.922 5.28C979.509 5.568 979.946 5.95733 980.234 6.448C980.522 6.93867 980.666 7.49867 980.666 8.128C980.666 8.896 980.442 9.57333 979.994 10.16C979.557 10.7467 978.896 11.136 978.01 11.328L980.81 16H979.066ZM974.65 10.272H976.794C977.584 10.272 978.176 10.08 978.57 9.696C978.965 9.30133 979.162 8.77867 979.162 8.128C979.162 7.46667 978.965 6.95467 978.57 6.592C978.186 6.22933 977.594 6.048 976.794 6.048H974.65V10.272ZM987.418 14.832C988.773 13.744 989.834 12.8533 990.602 12.16C991.37 11.456 992.016 10.7253 992.538 9.968C993.072 9.2 993.338 8.448 993.338 7.712C993.338 7.01867 993.168 6.47467 992.826 6.08C992.496 5.67467 991.957 5.472 991.21 5.472C990.485 5.472 989.92 5.70133 989.514 6.16C989.12 6.608 988.906 7.21067 988.874 7.968H987.466C987.509 6.77333 987.872 5.85067 988.554 5.2C989.237 4.54933 990.117 4.224 991.194 4.224C992.293 4.224 993.162 4.528 993.802 5.136C994.453 5.744 994.778 6.58133 994.778 7.648C994.778 8.53333 994.512 9.39733 993.978 10.24C993.456 11.072 992.858 11.808 992.186 12.448C991.514 13.0773 990.656 13.8133 989.61 14.656H995.114V15.872H987.418V14.832ZM997.117 10.096C997.117 8.26133 997.416 6.832 998.013 5.808C998.611 4.77333 999.656 4.256 1001.15 4.256C1002.63 4.256 1003.67 4.77333 1004.27 5.808C1004.87 6.832 1005.17 8.26133 1005.17 10.096C1005.17 11.9627 1004.87 13.4133 1004.27 14.448C1003.67 15.4827 1002.63 16 1001.15 16C999.656 16 998.611 15.4827 998.013 14.448C997.416 13.4133 997.117 11.9627 997.117 10.096ZM1003.73 10.096C1003.73 9.168 1003.66 8.384 1003.53 7.744C1003.42 7.09333 1003.17 6.57067 1002.78 6.176C1002.41 5.78133 1001.86 5.584 1001.15 5.584C1000.42 5.584 999.869 5.78133 999.485 6.176C999.112 6.57067 998.861 7.09333 998.733 7.744C998.616 8.384 998.557 9.168 998.557 10.096C998.557 11.056 998.616 11.8613 998.733 12.512C998.861 13.1627 999.112 13.6853 999.485 14.08C999.869 14.4747 1000.42 14.672 1001.15 14.672C1001.86 14.672 1002.41 14.4747 1002.78 14.08C1003.17 13.6853 1003.42 13.1627 1003.53 12.512C1003.66 11.8613 1003.73 11.056 1003.73 10.096ZM1007.31 14.832C1008.66 13.744 1009.72 12.8533 1010.49 12.16C1011.26 11.456 1011.91 10.7253 1012.43 9.968C1012.96 9.2 1013.23 8.448 1013.23 7.712C1013.23 7.01867 1013.06 6.47467 1012.72 6.08C1012.39 5.67467 1011.85 5.472 1011.1 5.472C1010.37 5.472 1009.81 5.70133 1009.4 6.16C1009.01 6.608 1008.8 7.21067 1008.76 7.968H1007.36C1007.4 6.77333 1007.76 5.85067 1008.44 5.2C1009.13 4.54933 1010.01 4.224 1011.08 4.224C1012.18 4.224 1013.05 4.528 1013.69 5.136C1014.34 5.744 1014.67 6.58133 1014.67 7.648C1014.67 8.53333 1014.4 9.39733 1013.87 10.24C1013.35 11.072 1012.75 11.808 1012.08 12.448C1011.4 13.0773 1010.55 13.8133 1009.5 14.656H1015V15.872H1007.31V14.832ZM1016.66 13.424V12.32L1022.27 4.544H1024.02V12.16H1025.62V13.424H1024.02V16H1022.58V13.424H1016.66ZM1022.64 6.064L1018.34 12.16H1022.64V6.064Z" fill="#A7A7A7"/>
<line x1="1.06066" y1="30.9393" x2="90.0607" y2="119.939" stroke="#7E30E1" stroke-width="3"/>
<line y1="-0.5" x2="28.2843" y2="-0.5" transform="matrix(0.707107 0.707107 0.707107 -0.707107 35.3975 33)" stroke="#3D3D3D"/>
<line y1="-0.5" x2="28.2843" y2="-0.5" transform="matrix(0.707107 0.707107 0.707107 -0.707107 55.3975 33)" stroke="#3D3D3D"/>
<line y1="-0.5" x2="28.2843" y2="-0.5" transform="matrix(0.707107 0.707107 0.707107 -0.707107 75.3975 33)" stroke="#3D3D3D"/>
<line y1="-0.5" x2="28.2843" y2="-0.5" transform="matrix(0.707107 0.707107 0.707107 -0.707107 95.3975 33)" stroke="#3D3D3D"/>
<line y1="-0.5" x2="28.2843" y2="-0.5" transform="matrix(0.707107 0.707107 0.707107 -0.707107 115.397 33)" stroke="#3D3D3D"/>
<line y1="-0.5" x2="28.2843" y2="-0.5" transform="matrix(0.707107 0.707107 0.707107 -0.707107 135.397 33)" stroke="#3D3D3D"/>
<line y1="-0.5" x2="28.2843" y2="-0.5" transform="matrix(0.707107 0.707107 0.707107 -0.707107 155.397 33)" stroke="#3D3D3D"/>
<line y1="-1" x2="66.5075" y2="-1" transform="matrix(0.707107 0.707107 0.813476 -0.581598 188.283 29.9863)" stroke="#3D3D3D" stroke-width="2"/>
<line y1="-0.5" x2="28.2843" y2="-0.5" transform="matrix(0.707107 0.707107 0.707107 -0.707107 219.467 32)" stroke="#3D3D3D"/>
<line y1="-0.5" x2="28.2843" y2="-0.5" transform="matrix(0.707107 0.707107 0.707107 -0.707107 239.467 32)" stroke="#3D3D3D"/>
<line y1="-0.5" x2="28.2843" y2="-0.5" transform="matrix(0.707107 0.707107 0.707107 -0.707107 259.467 32)" stroke="#3D3D3D"/>
<line y1="-0.5" x2="28.2843" y2="-0.5" transform="matrix(0.707107 0.707107 0.707107 -0.707107 279.467 32)" stroke="#3D3D3D"/>
<line y1="-0.5" x2="28.2843" y2="-0.5" transform="matrix(0.707107 0.707107 0.707107 -0.707107 299.467 32)" stroke="#3D3D3D"/>
<line y1="-0.5" x2="28.2843" y2="-0.5" transform="matrix(0.707107 0.707107 0.707107 -0.707107 319.467 32)" stroke="#3D3D3D"/>
<line y1="-0.5" x2="28.2843" y2="-0.5" transform="matrix(0.707107 0.707107 0.707107 -0.707107 339.467 32)" stroke="#3D3D3D"/>
<line y1="-1" x2="66.5075" y2="-1" transform="matrix(0.707107 0.707107 0.813476 -0.581598 372.353 29.9863)" stroke="#A7A7A7" stroke-width="2"/>
<line y1="-0.5" x2="28.2843" y2="-0.5" transform="matrix(0.707107 0.707107 0.707107 -0.707107 403.536 32)" stroke="#A7A7A7"/>
<line y1="-0.5" x2="28.2843" y2="-0.5" transform="matrix(0.707107 0.707107 0.707107 -0.707107 423.536 32)" stroke="#A7A7A7"/>
<line y1="-0.5" x2="28.2843" y2="-0.5" transform="matrix(0.707107 0.707107 0.707107 -0.707107 443.536 32)" stroke="#A7A7A7"/>
<line y1="-0.5" x2="28.2843" y2="-0.5" transform="matrix(0.707107 0.707107 0.707107 -0.707107 463.536 32)" stroke="#A7A7A7"/>
<line y1="-0.5" x2="28.2843" y2="-0.5" transform="matrix(0.707107 0.707107 0.707107 -0.707107 483.536 32)" stroke="#A7A7A7"/>
<line y1="-0.5" x2="28.2843" y2="-0.5" transform="matrix(0.707107 0.707107 0.707107 -0.707107 503.536 32)" stroke="#A7A7A7"/>
<line y1="-0.5" x2="28.2843" y2="-0.5" transform="matrix(0.707107 0.707107 0.707107 -0.707107 523.536 32)" stroke="#A7A7A7"/>
<line y1="-1" x2="66.5075" y2="-1" transform="matrix(0.707107 0.707107 0.813476 -0.581598 556.422 29.9863)" stroke="#A7A7A7" stroke-width="2"/>
<line y1="-0.5" x2="28.2843" y2="-0.5" transform="matrix(0.707107 0.707107 0.707107 -0.707107 587.605 32)" stroke="#A7A7A7"/>
<line y1="-0.5" x2="28.2843" y2="-0.5" transform="matrix(0.707107 0.707107 0.707107 -0.707107 607.605 32)" stroke="#A7A7A7"/>
<line y1="-0.5" x2="28.2843" y2="-0.5" transform="matrix(0.707107 0.707107 0.707107 -0.707107 627.605 32)" stroke="#A7A7A7"/>
<line y1="-0.5" x2="28.2843" y2="-0.5" transform="matrix(0.707107 0.707107 0.707107 -0.707107 647.605 32)" stroke="#A7A7A7"/>
<line y1="-0.5" x2="28.2843" y2="-0.5" transform="matrix(0.707107 0.707107 0.707107 -0.707107 667.605 32)" stroke="#A7A7A7"/>
<line y1="-0.5" x2="28.2843" y2="-0.5" transform="matrix(0.707107 0.707107 0.707107 -0.707107 687.605 32)" stroke="#A7A7A7"/>
<line y1="-0.5" x2="28.2843" y2="-0.5" transform="matrix(0.707107 0.707107 0.707107 -0.707107 707.605 32)" stroke="#A7A7A7"/>
<line y1="-1" x2="66.5075" y2="-1" transform="matrix(0.707107 0.707107 0.813476 -0.581598 740.491 29.9863)" stroke="#A7A7A7" stroke-width="2"/>
<line y1="-0.5" x2="28.2843" y2="-0.5" transform="matrix(0.707107 0.707107 0.707107 -0.707107 771.675 32)" stroke="#A7A7A7"/>
<line y1="-0.5" x2="28.2843" y2="-0.5" transform="matrix(0.707107 0.707107 0.707107 -0.707107 791.675 32)" stroke="#A7A7A7"/>
<line y1="-0.5" x2="28.2843" y2="-0.5" transform="matrix(0.707107 0.707107 0.707107 -0.707107 811.675 32)" stroke="#A7A7A7"/>
<line y1="-0.5" x2="28.2843" y2="-0.5" transform="matrix(0.707107 0.707107 0.707107 -0.707107 831.675 32)" stroke="#A7A7A7"/>
<line y1="-0.5" x2="28.2843" y2="-0.5" transform="matrix(0.707107 0.707107 0.707107 -0.707107 851.675 32)" stroke="#A7A7A7"/>
<line y1="-0.5" x2="28.2843" y2="-0.5" transform="matrix(0.707107 0.707107 0.707107 -0.707107 871.675 32)" stroke="#A7A7A7"/>
<line y1="-0.5" x2="28.2843" y2="-0.5" transform="matrix(0.707107 0.707107 0.707107 -0.707107 891.675 32)" stroke="#A7A7A7"/>
<line y1="-1" x2="66.5075" y2="-1" transform="matrix(0.707107 0.707107 0.813476 -0.581598 924.561 29.9863)" stroke="#A7A7A7" stroke-width="2"/>
<line y1="-0.5" x2="28.2843" y2="-0.5" transform="matrix(0.707107 0.707107 0.707107 -0.707107 955.744 32)" stroke="#A7A7A7"/>
<line y1="-0.5" x2="28.2843" y2="-0.5" transform="matrix(0.707107 0.707107 0.707107 -0.707107 975.744 32)" stroke="#A7A7A7"/>
<line y1="-0.5" x2="28.2843" y2="-0.5" transform="matrix(0.707107 0.707107 0.707107 -0.707107 995.744 32)" stroke="#A7A7A7"/>
<line y1="-0.5" x2="28.2843" y2="-0.5" transform="matrix(0.707107 0.707107 0.707107 -0.707107 1015.74 32)" stroke="#A7A7A7"/>
<line y1="-0.5" x2="28.2843" y2="-0.5" transform="matrix(0.707107 0.707107 0.707107 -0.707107 1035.74 32)" stroke="#A7A7A7"/>
<line y1="-0.5" x2="28.2843" y2="-0.5" transform="matrix(0.707107 0.707107 0.707107 -0.707107 1055.74 32)" stroke="#A7A7A7"/>
<path d="M628 97V83C628 81.9 627.1 81 626 81H612C610.9 81 610 81.9 610 83V97C610 98.1 610.9 99 612 99H626C627.1 99 628 98.1 628 97ZM615.9 91.98L618 94.51L621.1 90.52C621.3 90.26 621.7 90.26 621.9 90.53L625.41 95.21C625.466 95.2843 625.5 95.3726 625.508 95.4651C625.516 95.5576 625.499 95.6506 625.457 95.7336C625.416 95.8167 625.352 95.8865 625.273 95.9353C625.194 95.9841 625.103 96.01 625.01 96.01H613.02C612.6 96.01 612.37 95.53 612.63 95.2L615.12 92C615.31 91.74 615.69 91.73 615.9 91.98Z" fill="#A7A7A7"/>
<path d="M811.57 86.3562C811.382 86.451 811.163 86.4693 810.962 86.4069C810.76 86.3446 810.592 86.2068 810.495 86.0238C809.734 84.5575 808.581 83.3182 807.159 82.4361C807.07 82.3816 806.994 82.3106 806.933 82.2272C806.873 82.1437 806.83 82.0495 806.806 81.9498C806.783 81.8502 806.78 81.7471 806.798 81.6464C806.816 81.5457 806.854 81.4494 806.91 81.363C806.966 81.2765 807.038 81.2017 807.124 81.1427C807.21 81.0837 807.306 81.0418 807.408 81.0192C807.511 80.9966 807.616 80.9939 807.72 81.0112C807.823 81.0285 807.922 81.0655 808.01 81.12C809.668 82.1547 811.014 83.6001 811.911 85.3084C812.008 85.4915 812.027 85.7047 811.963 85.9011C811.899 86.0976 811.757 86.2613 811.57 86.3562ZM792.797 86.4437C792.943 86.4437 793.087 86.4045 793.212 86.3304C793.336 86.2564 793.438 86.1503 793.505 86.0238C794.266 84.5575 795.419 83.3182 796.841 82.4361C796.93 82.3816 797.006 82.3106 797.067 82.2272C797.127 82.1437 797.171 82.0495 797.194 81.9498C797.217 81.8502 797.22 81.7471 797.202 81.6464C797.184 81.5457 797.146 81.4494 797.09 81.363C797.034 81.2765 796.962 81.2017 796.876 81.1427C796.79 81.0837 796.694 81.0418 796.592 81.0192C796.489 80.9966 796.384 80.9939 796.28 81.0112C796.177 81.0285 796.078 81.0655 795.99 81.12C794.332 82.1547 792.986 83.6001 792.089 85.3084C792.026 85.4269 791.996 85.5592 792 85.6926C792.005 85.826 792.045 85.956 792.116 86.07C792.187 86.1841 792.287 86.2784 792.406 86.3438C792.526 86.4093 792.66 86.4437 792.797 86.4437ZM811.351 96.5469C811.493 96.7832 811.568 97.0516 811.569 97.3251C811.569 97.5985 811.496 97.8674 811.357 98.1046C811.217 98.3418 811.016 98.5389 810.773 98.676C810.53 98.8131 810.255 98.8854 809.975 98.8856H805.907C805.724 99.7646 805.235 100.555 804.522 101.122C803.81 101.69 802.918 102 801.999 102C801.079 102 800.187 101.69 799.475 101.122C798.762 100.555 798.273 99.7646 798.09 98.8856H794.023C793.742 98.8851 793.467 98.8125 793.225 98.6753C792.982 98.538 792.781 98.3409 792.642 98.1038C792.502 97.8666 792.429 97.5979 792.431 97.3246C792.432 97.0513 792.506 96.783 792.648 96.5469C793.546 95.0354 794.023 92.8863 794.023 90.3318C794.023 88.2695 794.863 86.2915 796.359 84.8332C797.854 83.3749 799.883 82.5556 801.999 82.5556C804.114 82.5556 806.143 83.3749 807.638 84.8332C809.134 86.2915 809.975 88.2695 809.975 90.3318C809.975 92.8853 810.451 95.0345 811.351 96.5469ZM804.254 98.8856H799.743C799.909 99.34 800.214 99.7332 800.618 100.011C801.022 100.289 801.504 100.439 801.999 100.439C802.493 100.439 802.975 100.289 803.379 100.011C803.783 99.7332 804.088 99.34 804.254 98.8856Z" fill="#A7A7A7"/>
<path d="M994.5 92.5C994.502 92.8058 994.409 93.1047 994.234 93.3555C994.059 93.6063 993.811 93.7968 993.523 93.9006L988.681 95.6819L986.9 100.52C986.794 100.807 986.603 101.054 986.353 101.229C986.102 101.404 985.804 101.497 985.499 101.497C985.194 101.497 984.896 101.404 984.645 101.229C984.395 101.054 984.204 100.807 984.098 100.52L982.312 95.6875L977.473 93.9062C977.186 93.8008 976.939 93.6099 976.764 93.3595C976.59 93.109 976.496 92.811 976.496 92.5056C976.496 92.2003 976.59 91.9022 976.764 91.6518C976.939 91.4013 977.186 91.2105 977.473 91.105L982.315 89.3237L984.096 84.4853C984.202 84.1987 984.393 83.9514 984.643 83.7767C984.894 83.602 985.192 83.5084 985.497 83.5084C985.802 83.5084 986.1 83.602 986.351 83.7767C986.601 83.9514 986.792 84.1987 986.898 84.4853L988.679 89.3275L993.517 91.1087C993.805 91.2111 994.053 91.3998 994.229 91.6488C994.405 91.8978 994.499 92.1951 994.5 92.5ZM989.25 83.5H990.75V85C990.75 85.1989 990.829 85.3897 990.97 85.5303C991.11 85.671 991.301 85.75 991.5 85.75C991.699 85.75 991.89 85.671 992.03 85.5303C992.171 85.3897 992.25 85.1989 992.25 85V83.5H993.75C993.949 83.5 994.14 83.421 994.28 83.2803C994.421 83.1397 994.5 82.9489 994.5 82.75C994.5 82.5511 994.421 82.3603 994.28 82.2197C994.14 82.079 993.949 82 993.75 82H992.25V80.5C992.25 80.3011 992.171 80.1103 992.03 79.9697C991.89 79.829 991.699 79.75 991.5 79.75C991.301 79.75 991.11 79.829 990.97 79.9697C990.829 80.1103 990.75 80.3011 990.75 80.5V82H989.25C989.051 82 988.86 82.079 988.72 82.2197C988.579 82.3603 988.5 82.5511 988.5 82.75C988.5 82.9489 988.579 83.1397 988.72 83.2803C988.86 83.421 989.051 83.5 989.25 83.5ZM997.5 86.5H996.75V85.75C996.75 85.5511 996.671 85.3603 996.53 85.2197C996.39 85.079 996.199 85 996 85C995.801 85 995.61 85.079 995.47 85.2197C995.329 85.3603 995.25 85.5511 995.25 85.75V86.5H994.5C994.301 86.5 994.11 86.579 993.97 86.7197C993.829 86.8603 993.75 87.0511 993.75 87.25C993.75 87.4489 993.829 87.6397 993.97 87.7803C994.11 87.921 994.301 88 994.5 88H995.25V88.75C995.25 88.9489 995.329 89.1397 995.47 89.2803C995.61 89.421 995.801 89.5 996 89.5C996.199 89.5 996.39 89.421 996.53 89.2803C996.671 89.1397 996.75 88.9489 996.75 88.75V88H997.5C997.699 88 997.89 87.921 998.03 87.7803C998.171 87.6397 998.25 87.4489 998.25 87.25C998.25 87.0511 998.171 86.8603 998.03 86.7197C997.89 86.579 997.699 86.5 997.5 86.5Z" fill="#A7A7A7"/>
<path d="M130.312 121H109.688C109.19 121 108.713 121.198 108.362 121.549C108.01 121.901 107.812 122.378 107.812 122.875V139.75C107.812 140.247 108.01 140.724 108.362 141.076C108.713 141.427 109.19 141.625 109.688 141.625H130.312C130.81 141.625 131.287 141.427 131.638 141.076C131.99 140.724 132.188 140.247 132.188 139.75V122.875C132.188 122.378 131.99 121.901 131.638 121.549C131.287 121.198 130.81 121 130.312 121ZM112.969 127.562C112.691 127.562 112.419 127.48 112.187 127.326C111.956 127.171 111.776 126.951 111.67 126.694C111.563 126.437 111.535 126.155 111.59 125.882C111.644 125.609 111.778 125.359 111.974 125.162C112.171 124.965 112.422 124.831 112.694 124.777C112.967 124.723 113.25 124.751 113.507 124.857C113.764 124.963 113.983 125.144 114.138 125.375C114.293 125.606 114.375 125.878 114.375 126.156C114.375 126.529 114.227 126.887 113.963 127.151C113.699 127.414 113.342 127.562 112.969 127.562ZM117.656 127.562C117.378 127.562 117.106 127.48 116.875 127.326C116.644 127.171 116.463 126.951 116.357 126.694C116.251 126.437 116.223 126.155 116.277 125.882C116.331 125.609 116.465 125.359 116.662 125.162C116.859 124.965 117.109 124.831 117.382 124.777C117.655 124.723 117.937 124.751 118.194 124.857C118.451 124.963 118.671 125.144 118.826 125.375C118.98 125.606 119.062 125.878 119.062 126.156C119.062 126.529 118.914 126.887 118.651 127.151C118.387 127.414 118.029 127.562 117.656 127.562Z" fill="white"/>
<path d="M425.875 83.8332V95.3332H443.125V83.8332H425.875ZM425.875 81.9165H443.125C443.633 81.9165 444.121 82.1184 444.48 82.4779C444.839 82.8373 445.041 83.3248 445.041 83.8332V95.3332C445.041 95.8411 444.84 96.3298 444.476 96.6844C444.121 97.0486 443.633 97.2498 443.125 97.2498H436.416V99.1665H438.333V101.083H430.666V99.1665H432.583V97.2498H425.875C425.367 97.2498 424.878 97.0486 424.523 96.6844C424.159 96.3298 423.958 95.8411 423.958 95.3332V83.8332C423.958 82.7694 424.811 81.9165 425.875 81.9165ZM433.388 88.5578C433.685 88.2703 434.088 88.0978 434.5 88.0978C434.912 88.1073 435.314 88.2703 435.611 88.5673C435.899 88.8548 436.071 89.2573 436.071 89.6694C436.071 90.0911 435.899 90.484 435.611 90.7811C435.314 91.0782 434.912 91.2411 434.5 91.2411C434.088 91.2411 433.685 91.0686 433.388 90.7811C433.101 90.484 432.928 90.0911 432.928 89.6694C432.928 89.2573 433.101 88.8548 433.388 88.5578ZM432.65 91.4998C432.89 91.7486 433.177 91.9466 433.495 92.0818C433.812 92.217 434.154 92.2866 434.5 92.2866C434.845 92.2866 435.187 92.217 435.505 92.0818C435.822 91.9466 436.11 91.7486 436.349 91.4998C436.838 91.0207 437.116 90.3594 437.116 89.6694C437.116 88.9794 436.838 88.3086 436.349 87.8198C435.861 87.3311 435.19 87.0532 434.5 87.0532C433.81 87.0532 433.139 87.3311 432.65 87.8198C432.161 88.3086 431.883 88.9794 431.883 89.6694C431.883 90.3594 432.161 91.0207 432.65 91.4998ZM428.75 89.6694C429.204 88.5143 429.995 87.5227 431.021 86.8236C432.046 86.1245 433.259 85.7504 434.5 85.7498C437.116 85.7498 439.349 87.379 440.25 89.6694C439.799 90.8267 439.008 91.8205 437.982 92.5201C436.956 93.2197 435.742 93.5923 434.5 93.589C431.883 93.589 429.651 91.979 428.75 89.6694Z" fill="#A7A7A7"/>
<path d="M251 82.25C245.953 82.25 242 84.5563 242 87.5V96.5C242 99.4437 245.953 101.75 251 101.75C256.047 101.75 260 99.4437 260 96.5V87.5C260 84.5563 256.047 82.25 251 82.25ZM258.5 92C258.5 92.9019 257.761 93.8216 256.474 94.5237C255.025 95.3141 253.08 95.75 251 95.75C248.92 95.75 246.975 95.3141 245.526 94.5237C244.239 93.8216 243.5 92.9019 243.5 92V90.44C245.099 91.8463 247.834 92.75 251 92.75C254.166 92.75 256.901 91.8425 258.5 90.44V92ZM256.474 99.0237C255.025 99.8141 253.08 100.25 251 100.25C248.92 100.25 246.975 99.8141 245.526 99.0237C244.239 98.3216 243.5 97.4019 243.5 96.5V94.94C245.099 96.3463 247.834 97.25 251 97.25C254.166 97.25 256.901 96.3425 258.5 94.94V96.5C258.5 97.4019 257.761 98.3216 256.474 99.0237Z" fill="#3D3D3D"/>
<path d="M85 9.78947L88.7931 14L96 6" stroke="#A7A7A7"/>
<path d="M296 9.78947L299.793 14L307 6" stroke="#A7A7A7"/>
</svg>
